<?xml version="1.0" encoding="utf-8"?>
<!-- Generator: Adobe Illustrator 25.2.1, SVG Export Plug-In . SVG Version: 6.00 Build 0)  -->
<svg version="1.1" id="Capa_1" xmlns="http://www.w3.org/2000/svg" xmlns:xlink="http://www.w3.org/1999/xlink" x="0px" y="0px"
	 viewBox="0 0 341 305" style="enable-background:new 0 0 341 305;" xml:space="preserve">
<style type="text/css">
	.st0{fill:#1D1D1B;stroke:#FFFFFF;stroke-width:2;}
	.st1{fill:#1D1D1B;}
</style>
<path vector-effect="non-scaling-stroke" class="st0" d="M157.5,60l-0.8,0.5"/>
<path class="st1" d="M157.5,60l-0.8,0.5l-2.8,1c-0.4,0.1-0.7,0-0.9-0.3c-0.4-0.8-0.7-1.8-0.4-2.7c1.3-4.6-2.2-3.4-4-5.7
	c-0.6-0.8-1.2-8.8-1.1-9.9c0.7-8.9,2.4-18-0.9-26.6c-2-5.1-7.3-7.4-10.7-1.9c-1.8,2.9-3.6,5.9-5.5,8.8c-2.1,3.2-2.9,7.3-4.2,10.2
	c-0.8,1.8-1.4,3.5-2.1,5.3c-0.1,0.3-0.1,0.7,0,1l0.6,2.6c0.1,0.4,0,0.7-0.4,0.8c-4,2.1-3.8,4.6-6.5,7.2c-0.9,0.8-2.2,0.4-2.6-0.7
	c-0.4-1.4-0.3-2.8,0.3-4.1c0.2-0.3,0.2-0.7,0.2-1c-0.5-5.2,2.4-5.7,4.5-9.4c4.7-8.1,6.4-16.6,12.6-23.3c7.4-8,16.9-2.7,18,6.7
	c0.7,6,1,15.6,0.9,29c0,0.4,0.1,0.6,0.4,0.9l3.8,3.2c0.3,0.2,0.4,0.5,0.5,0.8C156.9,54.3,155.9,59.6,157.5,60z"/>
<path class="st1" d="M156.7,60.5l0.8-0.5c1.6,0.2,2.4,1,2.3,2.3c-0.4,6.1,0,11.3,1.3,15.5c0.1,0.3,0.1,0.7-0.1,1
	c-2.2,3.7-2.7,7.7-1.5,12c0.1,0.3,0.3,0.5,0.6,0.6c3.5,0.9,6.9,0.8,10.3-0.3c1.9-0.7,3.3-0.5,5.1-0.1c0.5,0.1,0.8,0.6,0.6,1.1
	c-0.5,1.7-3.6,1.1-4.9,1c-6.5-0.7-11,0.9-15.7,5.8c-1,1-1.5,2.1-1.5,3.3c0,0.4,0.2,0.7,0.5,0.9c3.4,2.2,10.9,2.2,15.2,3
	c1.4,0.3,1.8,0.8,1.2,1.6c-0.2,0.2-0.4,0.3-0.6,0.3c-9.3,0.4-17.1-2.4-25.1,3.3c-0.8,0.5-0.8,1.1,0,1.6c3.7,2.4,6.6,10.2,6.9,14.4
	c0.3,4.5,2.8,6.8,3.7,10.7c1.1,4.6,2.2,9.2,3.4,13.7c1.2,4.6,0.6,12.6,1.7,19.4c0.7,4.2,3,8,3.9,12.4c0.7,3.9,2.1,7.5,2.4,11.5
	c0,0.4-0.1,0.8-0.3,1.1l-1.2,1.7c-0.2,0.3-0.3,0.7-0.1,1.1c2.5,6.5,3.4,13.1,2.7,20c0,0.3,0,0.7,0.2,1c1.8,3.8,2.3,7.9,1.4,12.3
	c-1.1,5.5,10.1,6,13.3,4.8c0.3-0.1,0.5-0.3,0.6-0.6c0.8-2.1,0.6-4.3,1-6.1c4.4-20.4,6.7-43.3,12.6-61.8c2.4-7.5,5.8-13.8,10.1-18.8
	c2.8-3.2,11.9-4.9,16.1-5.9c0.4-0.1,0.6-0.3,0.5-0.7c-0.4-3.2,0-6.3,1.1-9.4c0.1-0.3,0.3-0.5,0.5-0.7c4-3,8.3-3.4,12.9-1.3
	c2.2,1,2.5,8.9,2.8,11.3c0,0.3,0.2,0.6,0.6,0.7c4.2,1.2,7.1-0.6,10.7-1c4.2-0.4,8.4-1.4,12.5-1.4c4.6,0.1,9.2,0.2,13.8,0.5
	c8.3,0.5,0.9-11.2,13.5-11.7c2.8-0.1,4.2-0.2,5,2.9c1,3.6,1.5,7,1.6,10.5c0,0.9,0.5,1.6,1.4,1.9c3.2,1.3,6.5,2.4,9.9,3.2
	c12.1,3,16.5,33.2,17.7,43.3c0.3,2.8,1.7,5.4,2,7.7c2,14.1,5.3,29.7,6.2,42.4c0.8,11.1,0.6,22.1-0.8,33.2c-0.6,4.8-5.1,6.8-8.9,8.5
	c-0.3,0.1-0.5,0.4-0.6,0.7c-1,3.7-0.7,8.3-6.3,7.6c-4.5-0.6-8.5-0.8-11.9-0.7c-2.9,0.1-11.1,0-13.2-1.9c-1.2-1-1.6-2.5-1.4-4.5
	c0-0.4-0.1-0.7-0.4-0.9c-0.9-0.8-2.1-1.2-3.6-1.2c-7.2-0.2-16.3-0.7-27.5-1.4c-8.5-0.6-17.5,0-26.3-0.3c-1.8,0-3.5,0.2-5.2,0.9
	c-0.4,0.2-0.6,0.4-0.7,0.9l-0.6,4.5c0,0.3-0.2,0.6-0.4,0.8c-1.4,1.6-3.5,2.3-6.2,2c-7.9-0.9-16.1-1.7-24.4-2.4
	c-1.2-0.1-2.2-1.1-2.2-2.4c0.1-3.7-5.2-5.6-7.8-7.3c-7.6-4.8-6-24.7-5.5-33c0.1-2.2-1.2-2.9-3.3-3.1c-2.8-0.4-5.4-1-7.9-1.9
	c-0.9-0.3-2,0.3-2.1,1.3c-0.2,1.6-0.4,3-1.1,4.6c-1.7,3.9-1.9,8.3-3.4,11.8c-2.7,6.4-7,15-13.4,17.1c-1.8,0.6-3.2,1.4-4.4,2.6
	c-2,1.9-4.3,2.5-5.9,4.4c-4.1,4.9-15.3,5.6-20.1,2.7c-2.9-1.7-4.5-0.8-7.5-1.4c-6.1-1.2-12.1-1.1-18.1,0.1c-4.6,1-7.5,1.5-8.7,1.6
	c-6.1,0.3-15.8-0.2-20.8-4.3c-3.9-3.2-7.4-2.6-12.2-0.7c-6.5,2.6-12.4,3.9-17.6,3.8c-3.9,0-8.8-1.2-14.5-3.5c-2-0.8-2.9-2.2-4.2-3.8
	c-0.2-0.3-0.5-0.5-0.9-0.6c-2-0.7-3.9-1.7-5.5-3.1c-0.2-0.2-0.4-0.4-0.4-0.7c-1-3.8,0.1-6.5,3.2-8.3c0.3-0.2,0.5-0.4,0.6-0.7
	c1.8-4.5,1.3-6.8,6.3-9.1c3.4-1.6,5.1-3.8,9.4-3.3c0.3,0,0.6,0,0.9-0.2l3-1.5c0.3-0.2,0.7-0.2,1-0.2c1.8,0.3,3.7,0.5,5.6,0.7
	c3.2,0.3,6.6,2.2,7-3c0.5-5.7,0-12.1,0.7-17c0.8-5.6,2.5-11,4.9-16.1c1.7-3.6,1.3-8,2.4-12c0.1-0.3,0-0.6-0.3-0.8
	c-3.6-2.7-0.3-6.9,0.8-10c0.3-0.8-0.1-1.7-0.8-2c-8.7-4-19.4-10.7-24.9-18.9c-1.2-1.8-2.4-3.3-3.6-4.4c-6.4-6.1-11.5-13.2-15.4-21.2
	c-1.2-2.5-1.5-4.8-1.8-7.6c-0.4-3,1.4-4.9-0.1-8c-2.5-5.2,1.3-10.1-0.9-15.2C-1,90.6,5.6,65.8,22.5,49c1-1,2.8-2.2,5.4-3.7
	c4.2-2.4,7.9-1.4,12.4-1c1.1,0.1,1.9-0.9,1.6-1.9c-1.6-6.6-4.8-19.3,6.3-20.1c12.9-0.9,21.3,15.3,30.6,19.4c0.3,0.2,0.6,0.1,0.9,0
	c2.8-1.6,8.5,0,7.7,4c-0.1,0.5-0.4,0.6-0.8,0.4L83,44.2c-0.6-0.3-1.2,0.2-1.2,0.8c0.4,3,1.5,5.8,3.3,8.3c0.7,1,0.6,1.8-0.3,2.4
	c-0.3,0.2-0.6,0.2-1,0c-2.4-1.5-3.6-4.1-5.4-5.8c-3.6-3.5-6.2-8.2-9.4-11.2c-5.4-5.2-12.7-11-19.9-11.9c-4.6-0.6-4.4,8.3-3.8,10.8
	c2.3,9.4,6.5,17.8,12.6,25.3c0.9,1.2,1.6,2.5,2,3.9c2.4,8.9,8,22.1-0.5,30.2c-0.2,0.2-0.3,0.5-0.2,0.8c1.1,4.6,3.6,8.3,7.6,11
	c0.3,0.2,0.6,0.3,0.9,0.3c8.2-0.3,15.2-3.7,23.4-1.4c0.6,0.2,0.5,1-0.1,1c-4.7,0.5-11.3,0.3-15.6,2.6c-1.1,0.6-1.1,2.1,0,2.7
	c5.9,3.3,12.3,0.3,18.2-1.5c0.8-0.2,1.4-0.3,1.9-0.2c0.3,0,0.3,0.2,0.1,0.3l-4.6,2.8c-0.5,0.3-0.4,0.9,0.1,1.1
	c4.2,1.8,8.4,1.9,12.5,3c4.3,1.2,8.7,1.4,13.2,0.7c3.7-0.6,6.8-3.1,10.5-4.4c3.1-1.1,5.5-2.9,8.6-3.9c1.6-0.5,3-1.4,4.3-2.5
	c0.5-0.4,0.3-1.2-0.3-1.4l-2-0.7c-0.4-0.1-0.6-0.3-0.7-0.7c-0.3-1,0.1-1.6,1-1.9c0.3-0.1,0.6-0.1,0.9-0.1c3.9,0.6,7-0.6,9.4-3.7
	c0.4-0.5,0-1.3-0.7-1.3c-3.1,0-6,0.6-8.8,1.9c-0.4,0.2-0.7,0.1-1-0.2l-0.6-0.8c-0.4-0.5-0.1-1.3,0.6-1.4c1.7-0.3,3.3-0.3,4.8-0.9
	c5.8-2.6,9.6-2,12.8-8.5c1.6-3.1,0.8-7.7,1-11.2c0.2-4.9-2.3-7.8-0.6-13C156.5,63.8,156.8,62.2,156.7,60.5z M63.8,126.2
	c-1.4-1.9,7.1-6,8.5-6.8c0.9-0.5,1.1-1.8,0.4-2.6c-4.9-5.4-13.1-1.7-18.7,0.2c-0.4,0.1-0.9-0.2-0.9-0.6c-0.1-1.2,6-3.7,7.1-4.3
	c1.2-0.8,1.5-2.4,0.5-3.5c-1.6-1.7-2.4-3.7-2.5-6c0-0.4-0.1-0.7-0.4-1.1L54.2,97c-0.2-0.3-0.5-0.4-0.9-0.2c-3,1.3-6.8,2-11.3,2.2
	c-3.8,0.1-4.4,3.6-3,6.6c2.5,5.2,6.3,14.3,10.8,17.9c4.9,3.9,9.9,7.8,14.8,11.7c1.2,1,2.5,1.2,3.8,0.5c0.3-0.1,0.4-0.4,0.5-0.7
	c0.1-2.4,2.2-7,0.8-9.2c-0.2-0.2-0.4-0.4-0.7-0.4c-1.6-0.2-3,0.2-4.3,1.1C64.3,126.6,64,126.5,63.8,126.2z M126.6,268.2
	c-0.6,0.3-1.2,0.6-1.9,0.5c-4.5-0.6-8,0.9-10.6,4.4c-1.4,2-1,3.8,0.8,5.3c0.3,0.2,0.6,0.2,0.9,0l3.6-2.5c1-0.7,2.5-0.1,2.7,1.1
	l0.6,2.9c0.1,0.4,0.3,0.6,0.6,0.8c3.8,1.8,7.4,1.6,11-0.6c0.3-0.2,0.5-0.5,0.7-0.8l2.1-5.5c0.2-0.4,0.5-0.6,0.9-0.5
	c1.1,0.2,2,0.8,2.6,1.9c0.5,0.8,1.6,0.9,2.2,0.2c1.6-1.9,3.6-3,6.1-3.2c0.4,0,0.7-0.2,0.9-0.4c5.1-4.3,8.6-9.7,10.5-16.1
	c0.8-2.8,2.8-4.4,2.3-7.9c-0.1-0.4-0.3-0.6-0.7-0.6c-3.7,0.1-9.5,1.6-9.3-4.3c0.2-5.1,6.9-9.6,11.3-10c0.4,0,0.7-0.2,0.9-0.5
	c1.8-2.9,1.4-5.5-1.1-7.7c-0.9-0.8-2.3-0.6-2.9,0.4l-0.6,1c-0.2,0.3-0.3,0.5-0.4,0.9c-0.8,4-3.6,8.1-7.9,8.5c-2.2,0.2-3.9-0.6-5-2.4
	c-3.9-6.3,5.2-13,10.1-15.3c0.4-0.2,0.6-0.5,0.6-0.9l0.3-3.7c0-0.4-0.2-0.7-0.6-0.6c-1.5,0.1-2.6,0.8-3.1,2.1
	c-0.1,0.3-0.4,0.6-0.7,0.8c-1.1,0.8-1.9,1.9-2.3,3.2c-0.1,0.4-0.3,0.7-0.7,0.8c-2.1,1-4.4,1.4-6.7,1.1c-0.4-0.1-0.7-0.2-0.9-0.5
	c-3.4-3.6-3.5-7.2-0.4-10.9c0.4-0.4,0.1-1.1-0.4-1.2c-5.8-1.1-10.8-5.9-6.1-11.7c2.4-2.9,5.9-4.5,10.6-4.7c0.4,0,0.7-0.2,0.9-0.5
	c1.4-1.8,1.7-5.5-0.4-6.9c-2.7-1.8-4.7,2.7-6.9,3.7c-4,1.7-8.2,1.9-12.6,0.7c-1.2-0.3-1.8-1.6-1.3-2.7c2.5-6.2,7.2-9.3,14.1-9.3
	c0.6,0,1.1-0.4,1.3-1c1.4-5.6-2.1-10.6-7.8-11.8c-0.4-0.1-0.7,0-1,0.3c-3.6,3.4-7.6,6.4-11.9,8.9c-0.3,0.2-0.6,0.5-0.7,0.9l-1,2.6
	c-0.5,1.2-1.7,1.8-3,1.6l-9.7-2.3c-0.3-0.1-0.6-0.2-0.8-0.5c-0.9-1.2-1.5-2.6-1.7-4.2c0-0.3-0.2-0.6-0.4-0.9
	c-2.5-2.6-5.2-2.7-8.2-0.5c-0.2,0.2-0.5,0.2-0.7,0l-5.5-3.5c-0.2-0.2-0.5-0.2-0.8-0.2c-4.8,0.2-6.9,2.6-6.2,7.1
	c0.1,0.3,0,0.6-0.1,0.8l-0.9,1.8c-0.2,0.3-0.2,0.6,0,1c1.6,3,2.3,5.6,4.8,8c2.9,2.8,5.5,6,9.5,7.4c5,1.8,11.3,4.3,17.5,2.5
	c3.2-0.9,6.5-1.3,9.8-1.2c1.7,0.1,1.9,0.7,0.8,1.9c-0.5,0.6-1.2,0.9-1.9,1.2c-11,3.5-27.5,2-35.3-6.6c-2.9-3.2-5.8-6.6-8.6-10
	c-0.2-0.3-0.3-0.6-0.4-0.9c-0.3-2.3-1.3-3.8-3.1-4.6c-10.8-4.6-20.2-9.8-28.3-15.6c-3.5-2.5-10-9.2-6.5-14c3.8-5.2,5.5-9.3,3.5-15.4
	c-1.3-3.9-5.7-2-8.4-1.5c-1.1,0.2-2.1-0.7-2.1-1.8c0-4.2,0.7-8-3-11c-4.8-4.1-6.2,1.5-7.7,4.5c-0.2,0.3-0.4,0.5-0.8,0.6
	c-1.9,0.4-3.6-0.1-4.9-1.5c-0.3-0.3-0.6-0.3-0.8,0.1c-3.3,5-0.9,9.3,0.6,14.4c0.1,0.3,0,0.6-0.2,0.9c-1.7,1.7-2,3.7-0.8,6.1
	c2.4,4.6,4.3,9.6,7.1,13.7c4,5.8,9.1,10.4,13.1,16.1c3,4.3,7.8,6.6,11.8,9.4c6.3,4.4,10.3,6.5,17.6,4.7c0.7-0.2,1.4,0.1,1.8,0.8
	c0.5,0.8,0.3,1.6-0.6,2.4c-0.2,0.2-0.5,0.4-0.9,0.5c-3.3,1-5,3.3-5.1,6.9c0,0.4,0.1,0.7,0.4,1c1.8,1.9,2,4.2,0.9,6.8
	c-0.1,0.3-0.1,0.6,0,0.9c1.6,3.8,1.5,7.5-0.2,11.1c-0.4,0.9-1.5,2.1-3.1,3.7c-4.3,4.1-4.7,9.6-5.9,14.4c-0.1,0.3,0,0.6,0.1,0.9
	c3.4,6-1.2,11.8,1.1,17.8c1.4,3.5,2.5,7.1,3.4,10.8c0.4,1.8,1.1,3.3,2,4.5c1,1.3,8.7,12.2,10.4,7.3c2.3-6.9,7.4-6.9,13.6-6
	c0.6,0.1,0.9,0.7,0.7,1.3c-1,2.9-12.1,2.3-10.2,8.1c1.6,5,5.9-0.6,9.2,1.9c3.2,2.4,9.2,3.5,10-1.7c0.2-1.6,1-2.5,2.4-2.9
	c0.4-0.1,0.7-0.1,1,0.2l2.5,2.1c0.3,0.2,0.6,0.2,0.8,0c2.3-1.9,0.8-5-1-6.8c-0.2-0.2-0.4-0.5-0.4-0.9c-0.1-1,0.3-1.7,1.2-1.9
	c0.3-0.1,0.7,0,1,0.1c4.2,2.3,4.2,5.7,5.5,9.7c0.5,1.7,2,2.6,3.6,1.5c0.3-0.2,0.5-0.5,0.5-0.8c0.3-1.7-0.3-2.9,0.4-4.4
	c1.6-3.8,4.4-6.2,8.5-7.3c0.3-0.1,0.7-0.1,1,0c2.3,0.7,4.7,1,7.2,0.7c0.7-0.1,1.2,0.2,1.5,0.8C127.1,267.7,127,268.1,126.6,268.2z
	 M110.8,123.7c-7.5-0.1-30.8-8.1-35.2-0.5c-1.7,2.9-2,6.1-0.9,9.4c0.1,0.3,0.1,0.6,0,0.9c-0.3,1.3-0.2,2.6,0.4,3.8
	c0.1,0.3,0.1,0.6-0.1,0.9c-1,1.2-1.4,2.6-1,4.1c0.1,0.4,0.3,0.7,0.6,0.9c3.3,1.9,8.7,7.5,12.4,5.9c0.3-0.1,0.5-0.4,0.5-0.7
	c0.2-4.8-2.1-8.8,1.3-12.9c2-2.4,6.5-7.9,9.5-7.8c11.5,0.5,23.8-0.9,34,5.1c7.8,4.6,3.2,18.9,3.2,25.9c0,0.4,0.1,0.7,0.4,0.9
	c4.8,3.7,9.3,5.5,9.6,12.1c0.1,2.6,0.8,8.7,4.2,7.6c0.3-0.1,0.5-0.3,0.7-0.6c2.5-5,5.2-7.8,3.3-14.1c-0.3-1,0.1-2.1,1-3.4
	c0.2-0.3,0.3-0.6,0.3-0.9c0.1-4.1-0.4-8.2-0.3-12.4c0.1-4.9-4.6-8.4-3.5-12.7c0.1-0.4,0-0.6-0.4-0.8c-2.5-1.5-4.1-3.7-4.6-6.6
	c-0.1-0.3,0-0.6,0.2-0.9c4.1-5.9-6.8-14.1-11.6-10.9c-3.6,2.4-7,4.9-11.5,5.7c-2.9,0.5-5.6,1.9-8.5,1.9
	C113.4,123.8,112.1,123.8,110.8,123.7z M287.3,205.4c4.8,2.1,9.8,3.7,15,4.7c0.3,0.1,0.6,0,0.8-0.2c4.2-3.6,4.4-10.1,4.4-15.8
	c0.1-5.3-1.6-10.1-3-15.2c-3.6-12.3-17.9-19.7-29.2-22.9c-2.8-0.8-6.2-0.8-9.4-1.3c-2-0.4-3.8-0.4-5.4-0.2
	c-5.3,0.7-9.8,0.8-14.9,3.1c-0.9,0.4-2.2,0.9-3.9,1.4c-14.8,4.2-22.4,19.8-24.1,33.3c-2.4,19.1,11.4,32.5,28.5,39.1
	c1.1,0.4,1.7,1.2,2.9,1.5c7.2,1.5,14.2,2.6,21.7,1.3c8.2-1.4,18.3-2.8,23.9-9.8c0.7-0.9,0.5-2.1-0.4-2.8c-2.3-1.7-4.1-3.8-5.4-6.1
	c-1.6-2.9-6.6-6.5-2.4-10C286.7,205.3,287,205.3,287.3,205.4z M154,183.8c-4.6,7.7,3.6,8.6,5.4,14.1c0.8,2.4-0.1,5.6-0.1,8.5
	c0,0.4,0.1,0.7,0.3,1c1.6,2.5,2.8,5.2,3.4,8.1c0.1,0.7,1.1,0.7,1.3,0c1.2-5.8-0.7-11.3-3.3-16.5c-0.4-0.8-0.1-1.7,0.6-2.1
	c3.9-2.4-0.5-8.4-2.4-10.6c-0.2-0.2-0.3-0.5-0.3-0.8l0.3-5.6c0.1-1-1.1-1.7-1.9-1.1C155.6,179.8,154.9,182.2,154,183.8z M138.8,181
	c-0.6-1-2.4-1-4.2,0c-1.7,1-2.7,2.6-2.1,3.6c0.6,1,2.4,1,4.2,0C138.5,183.6,139.4,182,138.8,181z M139.6,202.2
	c3.7,0.4,5.9-3.8,6.6-6.5c0.1-0.4-0.1-0.6-0.5-0.6c-3.4,0-5.9,1.4-7.6,4.2C137.4,200.4,138.2,202,139.6,202.2z M152.9,197.5
	c-0.7-0.3-1.5-0.1-2,0.4l-5.9,6.7c-0.5,0.6,0.1,1.4,0.8,1.1c1.9-0.8,3.8-1.1,5.7-1.2C156.1,204.6,156.3,199.1,152.9,197.5z
	 M145.2,215.8c0.9,0.8,3-0.2,4.6-2.2c1.7-2,2.3-4.2,1.4-5c-0.9-0.8-3,0.2-4.6,2.2C144.9,212.8,144.3,215,145.2,215.8z M298.4,219.4
	c4.9,3.4,9.2-4.3,2.7-6.2c-3.2-0.9-6.3-1.8-9.3-2.6c-0.7-0.2-1.3,0.5-1,1.1C292,215,295.6,217.4,298.4,219.4z M154.5,225.8
	c0.2-0.4,0.1-0.8-0.3-1l-0.1-0.1c-0.4-0.2-0.8-0.1-1,0.3l-2.1,3.6c-0.2,0.4-0.1,0.8,0.3,1l0.1,0.1c0.4,0.2,0.8,0.1,1-0.3
	L154.5,225.8z M157.7,240.9c-0.7,0.8-0.3,2,0.8,2.1c2.8,0.3,4.3-0.9,4.8-3.5c0.1-0.8-0.2-1.2-1.1-1
	C160.5,238.8,159,239.6,157.7,240.9z M247.3,244c-0.7-0.1-1.4,0-2.1,0c-14.6,1.8-30,0.1-44.1,5c-0.5,0.2-0.8,0.8-0.7,1.3
	c0.3,1,1.1,1.4,2.5,1.2c12.9-1.8,25.8-3.2,38.8-3.9c4.7-0.3,9.7,0.4,14,0.3c6.8-0.1,14.5,0.1,23.1,0.5c5.8,0.3,11.8,1.4,16.6,1.9
	c6.9,0.8,14,2.1,21.4,4.1c1,0.3,1.9,0.2,2.9-0.3c0.4-0.2,0.5-0.5,0.5-0.9l-0.1-1.2c0-0.3-0.2-0.6-0.5-0.7c-3.1-1.1-6.3-1.6-9.6-1.6
	c-3.4,0-6.4-2.2-9.9-2.6c-12-1.3-24.1-2.4-36.1-3.2C258.8,243.6,253,244.4,247.3,244z M24.5,263.4c-2.9,0.4-5.7,1.4-8.3,2.9
	c-0.3,0.1-0.5,0.4-0.6,0.7c-0.8,1.9-0.7,3.8,0.4,5.6c0.2,0.3,0.5,0.5,0.8,0.5c2.7,0.2,5.2,0.9,7.5,2.2c0.3,0.2,0.6,0.4,0.7,0.8
	c1.5,3.4,5.7,3.7,9.5,3.9c6.9,0.3,13-1,18.2-4c0.3-0.2,0.6-0.3,0.9-0.4l3.1-0.8c0.5-0.1,0.6-0.4,0.3-0.9c-2.7-3.9-5.9-8.4-6.6-13.2
	c-0.8-5.1-4-7.6-9.7-7.3c-0.3,0-0.6,0.2-0.8,0.4c-0.5,1-1.3,1.5-2.4,1.8c-0.3,0.1-0.7,0-0.9-0.2c-3.8-2.6-15-1-15.8,4.9
	c-0.1,0.4,0.1,0.6,0.6,0.5c1.9-0.4,3,0.3,3.5,2C24.9,263.1,24.8,263.3,24.5,263.4z"/>
<path class="st1" d="M100.1,39.4c2.4,0.3,5.5-0.2,9.2-1.6c2.5-0.9,4.6-0.2,5.5,2.3c0.2,0.6,0,0.8-0.6,0.7l-2.6-0.3
	c-0.4,0-0.7,0-1,0.2c-2.9,1.5-16.4,6.9-15.8-0.4c0-0.4,0.2-0.6,0.6-0.7C96.6,39.2,98.1,39.2,100.1,39.4z"/>
<ellipse transform="matrix(0.4679 -0.8838 0.8838 0.4679 11.0457 101.7067)" class="st1" cx="90" cy="41.7" rx="1.5" ry="2.4"/>
<path class="st1" d="M128.9,43.7l5.6,0.4c0.4,0,0.6,0.6,0.3,0.9l-4.4,4.2c-0.2,0.2-0.5,0.3-0.8,0.3c-2.1-0.2-1.5-4-1.4-5.3
	C128.3,43.9,128.6,43.7,128.9,43.7z"/>
<path class="st1" d="M142.1,48.4c0.2,0.1,0.4,0.3,0.5,0.5c1,2.2-4.4,1.8-5.4,1.7c-0.4,0-0.6-0.2-0.7-0.6
	C135.8,46.2,140.5,47.8,142.1,48.4z"/>
<path class="st1" d="M76.2,51.3c1.6,1.7,2.6,3.8,2.8,6.2c0,0.4-0.2,0.6-0.6,0.4c-1.9-0.7-4.9-2.7-5.3-4.8c-0.2-1.3,0.3-2.1,1.7-2.3
	C75.3,50.7,75.9,50.9,76.2,51.3z"/>
<ellipse transform="matrix(0.7325 -0.6807 0.6807 0.7325 -19.2141 62.9171)" class="st1" cx="70.5" cy="55.9" rx="1.7" ry="3.3"/>
<path class="st1" d="M59.9,58.4l3.7,2.8c0.4,0.3,0.7,0.2,0.8-0.3l0.3-2.1c0.1-0.5,0.4-0.7,0.8-0.6c1.4,0.3,2.2,1.2,2.7,2.5
	c0.2,0.5,0,0.8-0.6,0.8l-2.9,0.1c-0.4,0-0.6,0.2-0.6,0.6v0.6c0,0.3-0.1,0.5-0.4,0.7c-2.3,1.7-4.8-2.9-4.9-4.5
	C58.9,58.4,59.5,58.1,59.9,58.4z"/>
<path class="st1" d="M122.7,85.6c-4.5-21,26.3-14.7,18.6-1c-3.1,5.6-10.5,5.3-14.3,0.5c-0.4-0.6-1-0.6-1.6-0.2l-1.7,1.1
	C123.2,86.4,122.8,86.2,122.7,85.6z"/>
<path class="st1" d="M90.3,80.2c1.6,0.6,2.5,1.8,2.7,3.5c0.8,6,2.8,11.4-5.7,12.3c-5.5,0.6-8.8-2.1-9.9-8c-0.1-0.4-0.3-0.6-0.7-0.7
	c-1.1-0.1-2.2,0.1-3.2,0.7c-0.5,0.3-1.1-0.1-0.9-0.7l1.2-5.9c0.1-0.3,0.2-0.6,0.5-0.8C79,77,85.2,78.2,90.3,80.2z"/>
<path class="st1" d="M116.4,110.3l2.7,0.9c0.8,0.3,0.9,1.5,0.1,1.8c-1.7,0.8-9.5,3-10.2,0c-0.1-0.5,0.1-0.7,0.5-0.9l1.7-0.5
	c0.8-0.2,1-1.2,0.4-1.8l-3.3-3.2c-0.8-0.8-0.8-2.1,0.1-2.8c1.5-1.2,10.1-4.1,9.4,0.5c-0.3,1.8-0.9,3.5-1.9,5.1
	C115.9,109.9,116,110.2,116.4,110.3z"/>
<path class="st1" d="M259.6,170c-2.3,3.3-6.9,4-10.4,1.6c-3.4-2.4-4.4-7-2.1-10.3c2.3-3.3,6.9-4,10.4-1.6
	C261,162.1,261.9,166.7,259.6,170z M256.8,164.5c-0.6-1.7-2.8-2.5-4.9-1.7c-2.1,0.8-3.2,2.8-2.6,4.5c0.6,1.7,2.8,2.5,4.9,1.7
	C256.3,168.2,257.5,166.2,256.8,164.5z"/>
<path class="st1" d="M271.1,170.1c1-5.1,5.6-9.2,10.8-7.1c6.2,2.5,4.9,10.4,0,13.9c-0.3,0.2-0.6,0.3-0.9,0.2
	C277.6,176.4,270.1,175.2,271.1,170.1z M280.4,173.4c1.7-0.8,2.3-3,1.5-5c-0.9-2-3-3-4.7-2.3c-1.7,0.8-2.3,3-1.5,5
	C276.6,173.1,278.7,174.1,280.4,173.4z"/>
<path class="st1" d="M240.6,181.4c-0.4,3.7-4.2,6.4-8.5,5.9c-4.3-0.4-7.5-3.8-7.2-7.5c0.4-3.7,4.2-6.4,8.5-5.9
	C237.7,174.3,240.9,177.7,240.6,181.4z M236.9,179.6c-0.3-1.6-2.3-2.6-4.4-2.2c-2.1,0.4-3.5,2.1-3.2,3.7c0.3,1.6,2.3,2.6,4.4,2.2
	C235.8,182.9,237.2,181.2,236.9,179.6z"/>
<path class="st1" d="M246.9,209.3c-2.2-1.4-3.8-5.5-4.8-7.8c-2.1-5-1.9-14.8,2-18.9c5.2-5.6,12.1-8.4,19.7-7.4
	c6.9,0.9,10.7,2.5,15,8.2c5.4,7.1,6.1,14.6,2.2,22.6c-4.1,8.3-10.8,7.9-19,9.8c-0.3,0.1-0.6,0.1-1,0
	C256.1,214.2,251.4,212,246.9,209.3z M278.6,198.5c1.7-8.7-4.3-17.2-13.4-19c-9.1-1.8-18,3.7-19.7,12.4c-1.7,8.7,4.3,17.2,13.4,19
	C268.1,212.7,276.9,207.2,278.6,198.5z"/>
<path class="st1" d="M302,192.2c-1.7,3.2-6,4.4-9.5,2.5c-3.5-1.9-5.1-6-3.4-9.2c1.7-3.2,6-4.4,9.5-2.5
	C302.2,184.8,303.7,188.9,302,192.2z M299.1,187.8c-0.5-1.7-2.6-2.6-4.7-2c-2.1,0.6-3.3,2.5-2.8,4.3c0.5,1.7,2.6,2.6,4.7,2
	C298.3,191.5,299.6,189.6,299.1,187.8z"/>
<path class="st1" d="M236.6,209c-2.5,3.1-7.4,3.3-11,0.5c-3.6-2.9-4.4-7.7-1.9-10.8c2.5-3.1,7.4-3.3,11-0.5
	C238.2,201,239.1,205.8,236.6,209z M233.9,203.9c0-2-1.6-3.6-3.6-3.6c-2,0-3.6,1.6-3.6,3.6s1.6,3.6,3.6,3.6
	C232.3,207.4,233.9,205.8,233.9,203.9z"/>
<path class="st1" d="M254.3,227c-2.6,3-7.3,3-10.7,0.1c-3.3-2.9-4-7.6-1.4-10.6c2.6-3,7.3-3,10.7-0.1
	C256.2,219.3,256.8,224,254.3,227z M251.9,222.1c0.3-1.7-1.3-3.5-3.6-3.8c-2.3-0.4-4.3,0.7-4.6,2.4c-0.3,1.7,1.3,3.5,3.6,3.8
	C249.6,224.9,251.6,223.8,251.9,222.1z"/>
<path class="st1" d="M267.5,229.5c-6.3-3.1-1.8-9.1,2.5-12.3c0.3-0.2,0.6-0.3,0.9-0.2c1.6,0.4,3.1,0.3,4.6-0.3c0.3-0.1,0.7-0.1,1,0
	c1.8,0.8,3,1.9,3.4,3.3c1.8,5.7,0,9.3-5.6,10.8c-0.3,0.1-0.6,0.1-0.9-0.1C271.5,230,269.1,230.3,267.5,229.5z M275.8,220.5
	c-1.1-1.3-3.1-1.5-4.4-0.3l-2.3,2c-1.3,1.1-1.5,3.1-0.3,4.4l0.4,0.5c1.1,1.3,3.1,1.5,4.4,0.3l2.3-2c1.3-1.1,1.5-3.1,0.3-4.4
	L275.8,220.5z"/>
</svg>
