<?xml version="1.0" encoding="UTF-8" standalone="no"?>
<!DOCTYPE svg PUBLIC "-//W3C//DTD SVG 1.1//EN" "http://www.w3.org/Graphics/SVG/1.1/DTD/svg11.dtd">
<svg xmlns="http://www.w3.org/2000/svg" version="1.1" viewBox="0 0 500 500">
<path fill="#1D1D1F" d="
  M 299.04 174.84
  C 299.18 175.23 299.69 175.32 299.95 175.00
  C 301.10 173.57 301.52 171.94 301.22 170.11
  C 301.17 169.78 301.20 169.47 301.33 169.16
  C 304.81 161.04 313.25 165.58 315.03 171.87
  C 316.25 176.18 313.87 181.80 312.27 186.10
  C 311.98 186.87 312.96 187.47 313.52 186.88
  C 320.16 179.86 334.01 173.23 336.95 188.69
  C 338.57 197.22 340.39 205.26 340.91 213.97
  C 341.53 224.12 337.96 228.11 327.96 227.67
  C 323.08 227.46 318.22 226.89 313.39 225.98
  C 312.70 225.85 312.31 226.74 312.87 227.16
  C 319.97 232.42 327.02 237.94 334.03 243.71
  C 345.37 253.06 353.97 263.82 360.88 277.20
  C 377.25 308.85 383.93 348.04 373.63 382.26
  C 372.69 385.39 373.04 388.44 372.99 391.63
  C 372.98 391.99 373.12 392.28 373.40 392.50
  C 374.15 393.10 375.11 393.30 376.27 393.09
  C 386.40 391.27 420.57 382.62 421.91 400.74
  C 422.50 408.81 416.52 414.72 409.54 417.77
  C 401.96 421.08 395.05 423.68 388.81 425.59
  C 379.78 428.35 368.55 427.58 360.89 435.66
  C 355.41 441.45 353.39 446.10 344.99 448.35
  C 337.38 450.39 331.70 452.15 322.79 455.36
  C 309.10 460.29 290.87 463.92 277.29 457.55
  C 274.09 456.04 272.06 453.73 269.81 451.07
  C 269.34 450.51 268.47 450.54 268.02 451.12
  C 257.42 464.93 244.05 462.31 228.78 460.45
  C 220.83 459.49 217.62 457.84 211.91 453.07
  C 206.88 448.87 202.83 451.17 197.54 451.09
  C 190.80 450.99 183.42 448.82 179.83 442.83
  C 172.82 431.12 184.16 416.78 194.54 411.57
  C 194.85 411.42 195.01 411.17 195.04 410.83
  C 195.67 402.64 194.74 395.36 193.44 387.31
  C 191.91 377.83 191.84 368.50 191.04 359.04
  C 190.07 347.53 184.03 338.63 181.81 327.41
  C 180.92 322.93 177.62 320.54 177.07 316.08
  C 176.21 309.04 175.84 301.98 175.96 294.89
  C 175.98 293.72 175.72 292.39 175.19 290.92
  C 173.18 285.30 175.98 276.88 177.72 271.39
  C 177.85 270.98 177.52 270.58 177.10 270.62
  C 163.78 271.86 140.72 269.40 144.82 249.71
  C 144.89 249.38 144.84 249.07 144.69 248.77
  C 141.44 242.40 140.11 235.66 140.71 228.57
  C 141.40 220.40 150.52 228.92 152.97 230.76
  C 153.85 231.42 155.08 231.37 155.90 230.63
  C 165.41 222.03 166.27 201.70 165.00 190.02
  C 164.45 185.04 157.93 185.10 154.09 184.33
  C 153.77 184.27 153.48 184.33 153.21 184.52
  C 150.27 186.58 139.49 193.42 135.77 189.68
  C 133.55 187.45 134.89 179.86 135.04 176.78
  C 135.05 176.46 134.95 176.19 134.72 175.96
  C 130.68 171.87 125.71 172.44 121.54 168.02
  C 121.27 167.74 120.84 167.69 120.52 167.90
  C 117.40 169.93 108.89 176.43 107.72 168.94
  C 106.77 162.92 110.11 148.56 101.74 147.18
  C 99.39 146.80 82.31 144.53 82.06 143.08
  C 81.96 142.48 82.43 141.93 83.04 141.95
  L 101.77 142.31
  C 102.10 142.32 102.37 142.19 102.58 141.94
  C 108.26 135.16 84.82 131.33 81.68 130.75
  C 81.01 130.63 80.52 130.06 80.50 129.38
  C 80.37 124.93 101.12 133.04 103.49 133.82
  C 103.82 133.93 104.09 133.86 104.32 133.59
  C 106.28 131.31 107.36 128.57 109.75 126.93
  C 118.91 120.64 129.04 123.56 133.21 110.33
  C 134.94 104.84 136.81 98.72 141.02 94.85
  C 147.08 89.26 153.54 88.32 161.25 86.46
  C 167.34 84.98 173.28 82.11 179.70 80.66
  C 184.23 79.64 187.54 78.38 191.48 76.70
  C 194.59 75.38 193.91 71.23 194.08 68.43
  C 194.10 68.09 194.23 67.80 194.46 67.55
  C 197.97 63.74 201.75 60.23 205.80 57.04
  C 214.33 50.28 216.28 39.95 229.74 39.00
  C 232.38 38.81 233.89 39.65 233.91 42.52
  C 233.98 52.06 234.22 61.59 234.64 71.11
  C 234.95 78.24 235.74 83.42 237.00 86.63
  C 241.50 98.12 252.33 105.00 264.99 103.26
  C 285.06 100.50 300.81 98.78 312.25 98.10
  C 314.88 97.94 315.37 100.86 315.13 103.03
  C 313.32 119.94 302.60 134.63 294.20 148.94
  C 292.01 152.66 297.50 170.38 299.04 174.84
  Z
  M 202.47 81.45
  C 209.51 84.64 216.44 87.92 223.25 91.27
  C 225.35 92.30 226.43 90.03 226.47 88.20
  C 226.66 77.14 227.85 64.88 221.98 54.94
  C 221.79 54.62 221.38 54.53 221.08 54.74
  C 215.58 58.60 211.15 63.39 207.80 69.10
  C 205.15 73.62 201.69 74.43 202.05 80.82
  C 202.06 81.09 202.22 81.33 202.47 81.45
  Z
  M 147.06 121.87
  C 143.47 123.60 139.71 124.71 135.77 125.20
  C 135.00 125.30 134.65 126.22 135.16 126.81
  L 144.77 137.90
  C 145.27 138.48 145.11 139.36 144.45 139.73
  L 130.50 147.40
  C 130.19 147.57 130.00 147.82 129.93 148.17
  C 126.55 163.72 138.22 167.96 149.29 174.25
  C 150.85 175.14 155.04 178.42 156.99 178.27
  C 165.32 177.64 171.15 177.56 174.49 178.03
  C 187.79 179.93 208.96 187.42 212.16 202.56
  C 214.91 215.52 204.98 235.96 196.58 245.83
  C 189.69 253.93 182.16 256.30 172.80 260.31
  C 170.09 261.48 169.38 261.07 167.07 259.67
  C 163.74 257.66 159.49 255.99 154.32 254.67
  C 152.07 254.09 150.62 255.20 149.78 257.17
  C 149.64 257.48 149.63 257.80 149.76 258.12
  C 151.53 262.78 162.14 264.70 167.43 265.01
  C 174.34 265.42 183.21 261.09 189.36 258.09
  C 190.35 257.60 191.37 256.76 192.44 255.57
  C 194.71 253.04 197.59 251.50 201.09 250.97
  C 207.98 249.91 206.27 240.10 217.16 242.40
  C 218.33 242.65 219.35 242.75 220.21 242.70
  C 220.58 242.69 220.90 242.55 221.17 242.29
  C 226.56 237.18 232.94 235.81 240.29 238.18
  C 241.06 238.42 241.88 238.03 242.17 237.29
  C 243.90 232.87 248.46 233.85 252.11 234.55
  C 252.48 234.62 252.83 234.55 253.15 234.34
  L 257.18 231.64
  C 257.55 231.39 257.92 231.38 258.29 231.63
  L 263.55 235.07
  C 263.78 235.22 264.03 235.25 264.29 235.16
  L 272.30 232.34
  C 272.67 232.21 272.84 231.96 272.81 231.57
  C 272.57 227.75 274.39 226.08 278.27 226.55
  C 278.98 226.63 279.63 226.15 279.76 225.45
  C 280.44 221.70 281.67 219.26 284.79 216.55
  C 291.76 210.48 294.24 202.68 292.23 193.15
  C 290.77 186.25 285.54 183.99 289.32 175.83
  C 289.46 175.53 289.45 175.23 289.30 174.93
  L 283.46 163.81
  C 283.23 163.38 282.64 163.31 282.32 163.68
  L 271.36 176.28
  C 271.12 176.55 270.74 176.63 270.41 176.48
  L 261.63 172.32
  C 261.28 172.16 261.01 171.91 260.83 171.57
  C 258.87 168.01 255.18 162.18 254.98 158.16
  C 254.83 155.25 253.93 153.54 251.74 151.20
  C 247.01 146.14 244.31 140.12 243.63 133.13
  C 243.33 130.04 242.90 128.15 239.26 129.08
  C 233.83 130.45 228.24 130.27 222.48 128.53
  C 216.84 126.83 208.28 123.55 211.07 115.57
  C 213.78 107.82 222.71 105.06 229.77 103.14
  C 230.14 103.04 230.31 102.61 230.11 102.28
  C 228.77 100.13 208.51 98.92 205.41 98.95
  C 199.50 99.01 195.18 101.95 188.88 101.58
  C 182.07 101.19 175.29 100.50 168.54 99.51
  C 168.21 99.46 167.97 99.30 167.81 99.02
  C 164.16 92.83 156.21 95.86 151.82 99.54
  C 149.45 101.53 146.66 102.74 143.46 103.16
  C 143.15 103.21 142.96 103.38 142.89 103.69
  L 141.68 109.47
  C 141.61 109.81 141.66 110.13 141.84 110.43
  C 143.39 113.08 148.48 118.23 147.70 121.10
  C 147.61 121.45 147.39 121.71 147.06 121.87
  Z
  M 254.13 140.67
  C 253.75 140.52 253.33 140.56 253.00 140.79
  C 250.20 142.73 257.28 146.25 258.20 148.63
  C 260.29 154.06 261.76 159.69 262.62 165.53
  C 262.69 165.97 262.94 166.14 263.37 166.04
  C 268.71 164.78 272.86 152.97 275.05 149.44
  C 278.02 144.66 281.10 140.61 284.28 137.30
  C 286.51 134.98 313.68 108.04 299.08 109.93
  C 282.39 112.10 265.52 115.10 248.49 118.95
  C 247.97 119.07 247.57 119.50 247.49 120.03
  C 247.29 121.43 256.95 128.19 258.79 129.52
  C 259.44 129.99 259.57 130.90 259.08 131.53
  C 257.33 133.78 257.27 136.07 258.90 138.42
  C 259.12 138.75 259.11 139.06 258.86 139.37
  C 257.57 141.00 256.00 141.43 254.13 140.67
  Z
  M 138.3362 118.2508
  C 137.94 117.62 136.99 117.49 136.2153 117.9792
  C 135.44 118.46 135.14 119.37 135.5438 120.0092
  C 135.94 120.64 136.89 120.77 137.6647 120.2808
  C 138.44 119.80 138.74 118.89 138.3362 118.2508
  Z
  M 116.9465 150.4797
  C 121.02 150.45 124.29 145.52 124.2498 139.4685
  C 124.21 133.42 120.87 128.53 116.7935 128.5603
  C 112.72 128.59 109.45 133.52 109.4902 139.5715
  C 109.53 145.62 112.87 150.51 116.9465 150.4797
  Z
  M 117.17 157.14
  L 114.35 155.80
  C 114.04 155.65 113.73 155.65 113.42 155.80
  C 109.90 157.57 110.31 163.51 110.94 166.93
  C 111.08 167.69 112.06 167.91 112.50 167.28
  L 117.84 159.71
  C 118.46 158.83 118.14 157.61 117.17 157.14
  Z
  M 124.12 166.20
  L 128.50 167.96
  C 129.27 168.27 129.51 168.03 129.24 167.24
  C 128.82 166.04 128.20 164.94 127.38 163.94
  C 127.08 163.58 126.73 163.52 126.33 163.77
  L 124.03 165.18
  C 123.63 165.43 123.68 166.03 124.12 166.20
  Z
  M 139.39 185.81
  C 141.26 186.55 153.63 180.38 143.59 176.19
  C 143.26 176.06 143.02 176.15 142.85 176.46
  L 138.75 184.07
  C 138.40 184.72 138.70 185.53 139.39 185.81
  Z
  M 175.95 231.94
  C 172.62 231.28 183.70 213.30 184.86 211.37
  C 188.48 205.36 192.14 197.49 193.02 190.50
  C 193.45 187.09 188.63 187.61 186.94 188.93
  C 184.71 190.67 183.48 192.11 183.24 193.25
  C 181.35 202.04 174.72 207.81 172.23 216.52
  C 170.77 221.64 166.17 231.59 171.80 235.21
  C 177.65 238.97 184.44 237.14 189.88 233.11
  C 195.34 229.08 199.07 223.62 201.07 216.75
  C 203.63 207.93 206.83 200.24 200.16 193.75
  C 199.93 193.53 199.55 193.62 199.45 193.92
  C 197.60 199.48 195.06 204.71 191.82 209.61
  C 186.89 217.04 182.26 224.42 176.99 231.53
  C 176.75 231.86 176.35 232.02 175.95 231.94
  Z
  M 231.81 356.22
  L 241.11 362.77
  C 241.46 363.01 241.64 363.34 241.65 363.76
  C 241.75 366.51 240.76 368.92 241.34 371.49
  C 241.93 374.07 243.10 376.26 242.99 378.92
  C 242.81 383.28 242.40 386.97 241.77 390.00
  C 238.93 403.49 238.88 415.58 239.53 428.76
  C 239.58 429.79 238.81 430.67 237.79 430.77
  L 225.77 431.91
  C 225.12 431.97 224.57 432.41 224.36 433.03
  C 223.11 436.79 221.73 440.58 220.24 444.39
  C 218.69 448.33 222.99 453.14 227.13 448.82
  C 229.05 446.81 231.36 445.28 234.05 444.21
  C 235.08 443.81 235.90 444.06 236.52 444.97
  L 241.07 451.60
  C 241.29 451.92 241.59 452.10 241.97 452.15
  C 247.82 452.82 252.38 449.18 257.03 446.51
  C 262.72 443.24 264.31 439.45 265.19 432.63
  C 265.94 426.85 267.26 420.97 268.05 415.44
  C 270.08 401.18 273.41 387.22 278.04 373.55
  C 278.90 371.00 286.11 364.53 287.97 371.03
  C 289.55 376.55 287.75 380.63 282.57 383.26
  C 282.24 383.43 282.08 383.69 282.09 384.06
  C 282.20 389.48 281.05 394.61 278.62 399.45
  C 278.47 399.74 278.41 400.04 278.44 400.36
  C 278.82 405.05 278.11 409.55 276.31 413.87
  C 276.20 414.15 276.17 414.44 276.23 414.74
  L 279.62 431.74
  C 279.78 432.54 280.27 432.97 281.08 433.02
  C 282.62 433.13 284.04 433.63 285.34 434.53
  C 286.41 435.26 286.37 435.94 285.24 436.55
  C 282.18 438.20 276.92 441.78 277.67 445.83
  C 278.40 449.76 283.22 450.09 286.20 448.78
  C 286.49 448.65 286.79 448.60 287.10 448.63
  C 295.52 449.32 303.78 448.46 311.87 446.05
  C 312.21 445.94 312.49 445.75 312.71 445.48
  C 317.72 439.14 323.84 439.59 331.50 439.89
  C 345.97 440.45 355.59 425.56 360.11 413.89
  C 361.35 410.68 362.31 406.28 362.98 400.68
  C 365.70 378.03 369.43 353.81 366.27 331.05
  C 364.25 316.47 359.99 302.67 353.48 289.64
  C 353.05 288.77 352.53 288.72 351.94 289.49
  C 349.46 292.73 348.21 296.41 348.19 300.54
  C 348.18 301.44 347.59 302.23 346.72 302.49
  C 344.20 303.24 341.72 303.17 339.29 302.28
  C 338.67 302.06 338.01 302.47 337.94 303.12
  C 336.16 318.80 321.00 311.92 313.65 306.33
  C 313.39 306.14 313.20 305.89 313.08 305.58
  C 310.78 299.96 306.77 296.41 301.05 294.94
  C 297.25 293.96 293.00 293.68 290.86 290.54
  C 287.75 286.00 289.68 280.62 288.54 275.54
  C 286.23 265.19 283.85 256.64 291.91 249.20
  C 296.79 244.70 301.01 242.86 305.08 239.41
  C 305.37 239.16 305.53 238.85 305.54 238.47
  C 305.74 232.40 301.11 226.42 296.15 223.87
  C 295.82 223.70 295.53 223.76 295.28 224.03
  C 284.30 236.27 271.11 249.85 252.70 242.51
  C 248.96 241.02 246.31 245.51 242.99 245.08
  C 234.74 244.00 232.40 245.07 225.59 249.27
  C 220.61 252.34 217.17 252.11 212.18 252.41
  C 211.77 252.44 211.48 252.63 211.31 253.00
  C 209.00 258.00 205.07 260.14 199.52 259.43
  C 199.17 259.38 198.84 259.44 198.53 259.59
  C 185.09 266.08 180.10 276.25 183.57 290.08
  C 185.29 296.95 189.38 311.13 186.77 317.71
  C 186.49 318.41 186.77 319.20 187.42 319.57
  L 191.38 321.79
  C 191.69 321.96 191.80 322.22 191.71 322.57
  C 190.84 325.90 190.78 329.14 191.51 332.31
  C 193.62 341.48 202.43 346.56 202.20 356.75
  C 201.89 371.06 202.57 385.31 204.24 399.52
  C 204.83 404.55 206.60 415.34 204.65 419.67
  C 204.50 420.00 204.25 420.18 203.89 420.23
  C 195.84 421.23 191.04 425.42 189.49 432.81
  C 188.18 439.05 192.23 445.68 199.27 442.01
  C 202.06 440.56 204.71 435.84 206.76 433.16
  C 206.98 432.87 207.41 432.88 207.61 433.18
  C 208.82 434.94 209.26 436.89 208.95 439.04
  C 208.77 440.23 209.61 441.33 210.81 441.48
  C 213.37 441.79 214.07 440.24 213.94 437.92
  C 213.51 430.09 219.57 425.59 225.19 421.46
  C 226.78 420.28 227.73 418.38 228.02 415.75
  C 229.74 400.22 232.00 384.38 232.68 368.77
  C 232.86 364.63 231.90 360.84 230.95 356.80
  C 230.73 355.85 231.02 355.66 231.81 356.22
  Z
  M 149.33 245.51
  C 149.49 245.98 150.05 246.17 150.46 245.90
  L 155.26 242.68
  C 155.68 242.41 155.71 241.81 155.33 241.49
  L 147.25 234.61
  C 146.68 234.12 145.82 234.69 146.05 235.41
  L 149.33 245.51
  Z
  M 166.4089 238.8093
  C 166.16 238.31 165.13 238.31 164.1057 238.8130
  C 163.08 239.32 162.45 240.13 162.6911 240.6307
  C 162.94 241.13 163.97 241.13 164.9943 240.6270
  C 166.02 240.12 166.65 239.31 166.4089 238.8093
  Z
  M 181.85 243.03
  C 179.51 242.98 175.81 242.25 172.70 242.26
  C 172.07 242.26 171.98 242.48 172.43 242.93
  C 178.48 248.81 184.60 248.92 190.81 243.25
  C 191.14 242.95 190.88 242.39 190.43 242.46
  C 187.64 242.89 184.78 243.08 181.85 243.03
  Z
  M 175.86 252.90
  L 170.90 248.19
  C 170.66 247.96 170.38 247.82 170.06 247.76
  C 169.53 247.66 169.06 247.72 168.64 247.95
  C 168.25 248.17 168.14 248.49 168.31 248.90
  L 171.35 256.21
  C 171.58 256.76 171.93 256.86 172.41 256.51
  L 175.78 254.07
  C 176.17 253.79 176.20 253.23 175.86 252.90
  Z
  M 162.7537 251.8155
  C 162.94 251.29 161.48 250.31 159.4922 249.6068
  C 157.51 248.91 155.75 248.76 155.5663 249.2845
  C 155.38 249.81 156.84 250.79 158.8278 251.4932
  C 160.81 252.19 162.57 252.34 162.7537 251.8155
  Z"
/>
<path fill="#1D1D1F" d="
  M 182.31 138.73
  C 193.73 142.37 209.42 146.63 214.65 158.94
  C 214.97 159.70 214.03 160.35 213.43 159.79
  C 204.44 151.28 193.72 146.62 181.28 145.79
  C 180.58 145.74 180.07 145.10 180.19 144.41
  L 181.00 139.53
  C 181.13 138.76 181.56 138.49 182.31 138.73
  Z"
/>
<path fill="#1D1D1F" d="
  M 181.31 159.77
  C 186.80 161.43 228.16 172.45 226.61 180.08
  C 226.50 180.59 226.23 180.71 225.79 180.42
  C 219.94 176.64 215.46 174.22 212.33 173.17
  C 197.14 168.06 181.81 163.45 166.34 159.36
  C 165.97 159.27 165.67 159.06 165.43 158.74
  C 165.16 158.38 165.40 157.86 165.85 157.83
  C 171.35 157.39 175.58 158.03 181.31 159.77
  Z"
/>
<path fill="#b876c9" d="
  M 219.19 190.66
  C 220.11 191.35 220.91 191.53 221.01 192.93
  C 221.06 193.68 220.31 194.23 219.62 193.94
  C 217.53 193.08 215.12 192.53 213.31 191.35
  C 196.43 180.38 182.63 173.70 166.08 166.81
  C 165.50 166.57 165.11 166.03 165.06 165.40
  C 164.93 163.76 165.81 163.46 167.17 163.99
  C 171.20 165.52 175.22 167.07 179.23 168.63
  C 193.55 174.19 206.87 181.53 219.19 190.66
  Z"
/>
</svg>
