<?xml version="1.0" encoding="utf-8"?>
<!-- Generator: Adobe Illustrator 25.2.1, SVG Export Plug-In . SVG Version: 6.00 Build 0)  -->
<svg version="1.1" id="Capa_1" xmlns="http://www.w3.org/2000/svg" xmlns:xlink="http://www.w3.org/1999/xlink" x="0px" y="0px"
	 viewBox="0 0 260 293" style="enable-background:new 0 0 260 293;" xml:space="preserve">
<style type="text/css">
	.st0{fill:#FFFFFF;}
	.st1{fill:#1D1D1B;}
</style>
<path class="st0" d="M189.8,116c0.5,0.8,0.7,1.5,0.5,2.1c-2.7,9.1-10.3,16.9-20.3,16c-9-0.8-21.2-6.8-20.5-18
	c0.7-10.4,9-17.1,18.6-19.1c3.5-0.7,7.1,1.1,10.2,2.5c2.9,1.3,4.9,3.7,7.4,5.7c3.5,2.9,4.6,5.5,3.8,9.8
	C189.5,115.4,189.6,115.7,189.8,116z M161.6,120.3c0.3,5.5,20.1,4.5,14.3-4.9c-2.2-3.5-5.3-4.7-9.4-3.6c-0.3,0.1-0.5,0.2-0.7,0.5
	C163.6,115.1,161.4,116,161.6,120.3z"/>
<path class="st0" d="M97.8,130.8c-3.3-4-3.2-8.8-3.1-14.6c0-2.6,1.4-3.7,1.9-6c3-12.4,13.1-12.8,23.2-9.2c8.6,3,17.3,16.1,13.8,25.5
	c-1.6,4.4-5.4,9.3-10.3,10.3C115.6,138.3,103.2,137.3,97.8,130.8z M122,118.7c-0.8-3.2-4.5-5-8.3-4c-3.7,1-6.1,4.3-5.3,7.5
	c0.8,3.2,4.5,5,8.3,4S122.9,121.9,122,118.7z"/>
<path class="st1" d="M175.9,115.4c5.9,9.5-14,10.4-14.3,4.9c-0.2-4.4,2-5.3,4.2-8.1c0.2-0.2,0.4-0.4,0.7-0.5
	C170.6,110.7,173.7,111.9,175.9,115.4z"/>
<ellipse transform="matrix(0.9681 -0.2504 0.2504 0.9681 -26.4808 32.6811)" class="st1" cx="115.2" cy="120.4" rx="7" ry="6"/>
<path class="st1" d="M101.5,148.6c2.1,0.6,4,1.6,5.7,3C95,157,83,162.8,71.2,168.8c-2.4,1.2-5.9,2.5-10.7,3.9
	c-1.8,0.5-3.9-0.3-4.4-2.1c-0.2-0.8,0.2-1.7,1.1-1.9c4.1-1.1,7.9-2,11.7-4C79.8,159.4,90.6,154,101.5,148.6z"/>
<path class="st1" d="M244.9,166.8c-0.6-0.8-1.3-1.3-1.9-1.6c-16.7-7.4-33.1-14.9-50.2-21.8c-0.4-0.2-0.5-0.4-0.1-0.7
	c4.5-3.6,8.8-7.1,11.2-12.2c3.6-7.6,4.4-15.1,1.4-23.2c-1.5-4.1-3.3-8-5.5-11.7c-0.1-0.6-0.3-1.1-0.6-1.6l0.2-15.5c0,0,0-0.1,0-0.1
	l0.1,0.1c2.3-9.6-1.4-20.3-2.7-29.8c-1.1-8.1-2.4-16.3-7-22.5c-0.2-0.2-0.3-0.6-0.3-0.9c-0.2-2.5-1.5-4.1-4-4.8l0.2,1.1c0,0,0,0,0,0
	l-0.1-1.1c-3.4-3.1-6.9-3.1-10.4-0.2c-6.4,5.4-9.7,12.4-14,19.2c-1.2,2-2.1,4.1-2.8,6.3c-3.3,11.2-7.2,22.1-11.8,32.8
	c-0.2,0.3-0.4,0.5-0.8,0.5l-4.7,0.1c-0.4,0-0.7-0.1-0.8-0.5l-0.6-2c0-0.2-0.1-0.5-0.2-0.7c0,0.1,0.1,0.1,0.1,0.2
	c-0.8-7.9-4-15-6.8-22.3c-4.7-11.6-12.4-22-21.1-31c-1.7-1.8-3.3-3.6-4.8-5.5c-0.2-0.2-0.4-0.4-0.7-0.5c-1.6-0.5-3.1-0.3-4.5,0.5
	c-0.3,0.2-0.5,0.4-0.6,0.8c-2.4,9.8-6.4,19.3-9.7,28.8c-5,14.7-6.1,29.9-3,45.4h0.2c0,0.1,0,0.2,0,0.3h-0.1c-1.4,2.6-2.9,5.3-4.3,8
	c-2.5,4.8-2.6,9.5-2.7,14.7c-0.1,5.9,1.8,10.9,3.5,16.8c0.3,1.1,0.7,2,1.4,2.6c0,0.1,0,0.2-0.2,0.3c0,0.2-0.2,0.3-0.4,0.3
	c-20.6-1.7-36.2-1-54.4-2.4c-1,0-1.8,0.8-1.8,1.8c0.1,4,11.1,3.4,12.9,3.4c16.6,0,31.7,0.6,45.5,1.8c1.9,0.1,3.4,1.1,4.5,2.8
	c0.2,0.3,0.1,0.5-0.2,0.5c-1.5,0.2-3,0.3-4.5,0.4c-15.5,0.6-31,2.1-46.4,4.2c-4.6,0.7-10.3,0.9-15.5,1.8c-1.2,0.2-2,1.5-1.5,2.7
	c0.6,1.6,2.3,2.5,4.1,2.1c23.5-4.4,47-6,70.8-7.2c0.1,0.1,0.2,0.2,0.3,0.3l2.2,1.4c2.1,0.5,4,1.5,5.7,3c0.9-0.5,1.5-0.7,2.6-0.2
	c7.1,3.3,14.7,4.8,22.6,4.4c0.3,0,0.3,0.1,0.1,0.3c-2.6,2.4-4.6,14.9-5.5,18.9c-0.1,0.4-0.1,0.7,0,1c0.6,2.3-3.8,7.7-6,10.8
	c-6.8,9.7-8.5,20.4-10.3,32.1c-1.1,7.5-4.6,13.7-8.4,20c-0.3-0.3-0.7-0.6-1.2-0.9c-1.1-1.9-2.1-3.7-3-5.5c-0.6-1.8-1.3-3.5-2.1-5.2
	c-0.3-1.1-0.7-2.2-0.9-3.4C88.8,204,77,181.2,54.5,175c-14.1-3.8-20.8,2-30.8,10.5c-11.1,9.4-17.9,30.9-1,38.8
	c8.2,3.8,12.1-5.6,15.4-11c2.1-3.6,3.3-8.6,6.3-12.6c0.2-0.3,0.5-0.5,0.8-0.6c2.7-0.8,4.8-1.8,7.7-1.1c10.2,2.6,17.5,14,21.6,23.5
	c0.6,1.4,1.9,5.6,3.9,12.4c3.7,12.8,10,24.4,18.7,34.6c0.1,0.7,0.3,1.4,0.6,2l0,0c0,0,0.1,0.1,0.1,0.1c0.3,0.6,0.8,1.1,1.4,1.5
	c2.8,2.8,5.3,4.6,7.5,5.4c9.7,3.3,22.2,3.6,33.1,2.2c9.2-1.2,18.5-3.1,27.9-5.8c15.4-4.3,19.2-17.7,13.5-31.4
	c-3.1-7.5-11.2-14.2-12.2-22.1c-1.1-8.6,0.2-19.4,0.1-28.3l0.3-0.2c-0.9-8.5-4.3-15.9-10.1-22.1c0,0.1,0.1,0.3,0.1,0.4
	c-0.4-0.7-1-1.3-1.7-1.6c-4.2-4.1-8.6-9.5-7.4-15.6c0.1-0.4,0.3-0.5,0.6-0.6c3.5-0.7,7.1-0.9,10.6-0.6l0,0c0.2,0,0.5,0.1,0.7,0.1
	c14.9,7.9,27.3,22.6,37.7,35.5c3.5,4.4,6,7.7,7.5,9.9c0.2,0.3,0.5,0.4,0.9,0.4l2.5-0.3c1.4-0.1,2.1-1.8,1.2-2.9
	c-9.1-10.8-18.4-21.4-28-31.7c-4.3-4.6-9-8.8-13.9-12.6c0.6-0.1,1.2-0.1,1.8,0c0.3,0.1,0.6,0.2,0.9,0.3c0.4,0.2,0.9,0.4,1.4,0.5
	c0,0,0,0,0,0c15.4,8.9,30.3,18.5,44.7,29c2,1.4,4.7,2.3,6.2,0c0.4-0.8,0.2-1.7-0.5-2.2l-44.2-29c-0.2-0.1-0.2-0.5,0.1-0.6
	c2.3-0.8,6.1-3.4,8.4-2.5c19.4,7.6,36.2,15.2,50.4,22.8c1.7,0.9,3.5,0.7,5.4-0.7C245.3,168.2,245.4,167.4,244.9,166.8z M133.6,126.4
	c-1.6,4.5-5.3,9.3-10.3,10.3c-7.7,1.6-20.1,0.6-25.5-5.9c-3.3-4-3.2-8.8-3.1-14.7c0-2.6,1.3-3.7,1.9-6c3-12.4,13.1-12.8,23.2-9.2
	C128.4,103.9,137.1,117,133.6,126.4z M190.4,118.2c-2.7,9.1-10.4,16.8-20.3,16c-9-0.8-21.2-6.9-20.5-18c0.6-10.4,9-17.2,18.6-19.1
	c3.4-0.7,7.1,1.1,10.2,2.5c2.9,1.3,4.9,3.7,7.4,5.7c3.6,2.8,4.7,5.5,3.8,9.8c-0.1,0.3,0,0.6,0.3,1
	C190.4,116.9,190.6,117.6,190.4,118.2z"/>
</svg>
