<?xml version="1.0" encoding="UTF-8" standalone="no"?>
<!DOCTYPE svg PUBLIC "-//W3C//DTD SVG 1.1//EN" "http://www.w3.org/Graphics/SVG/1.1/DTD/svg11.dtd">
<svg xmlns="http://www.w3.org/2000/svg" version="1.1" viewBox="0 0 570 600">
<path fill="#109cea" d="
  M 391.39 189.96
  L 393.03 191.58
  C 393.32 191.86 393.17 192.35 392.78 192.43
  C 386.02 193.77 390.20 185.58 392.08 182.68
  C 392.21 182.47 392.18 182.28 391.99 182.12
  C 391.32 181.56 392.80 173.18 393.08 171.93
  C 393.16 171.58 393.38 171.39 393.73 171.34
  C 398.77 170.66 403.75 169.89 408.68 169.02
  C 411.46 168.53 413.37 167.58 414.37 164.72
  C 415.88 160.42 416.81 155.74 417.14 150.69
  C 418.35 132.30 418.09 114.42 416.37 97.03
  C 415.32 86.37 414.65 74.00 408.49 64.88
  C 408.29 64.58 407.87 64.52 407.59 64.76
  C 404.63 67.29 402.04 70.14 399.83 73.30
  C 392.94 83.12 385.27 93.10 379.50 103.60
  C 374.84 112.07 372.50 121.73 367.71 130.27
  C 363.92 137.03 359.13 144.21 359.59 149.10
  C 360.17 155.14 366.36 159.20 367.18 165.70
  C 367.88 171.28 366.23 177.28 365.30 182.78
  C 365.24 183.14 365.04 183.39 364.71 183.52
  C 362.06 184.60 359.29 185.05 356.42 184.86
  C 355.89 184.82 355.64 184.19 356.01 183.81
  C 356.90 182.89 357.99 182.67 359.26 183.15
  C 359.55 183.26 359.83 183.26 360.11 183.15
  C 360.54 182.98 360.75 182.69 360.76 182.28
  C 360.77 181.80 360.54 181.56 360.06 181.56
  L 351.31 181.54
  C 351.02 181.54 350.87 181.40 350.85 181.11
  C 350.73 179.16 359.40 179.80 360.95 180.03
  C 361.32 180.08 361.49 179.59 361.17 179.40
  C 349.36 172.50 336.93 168.38 322.88 167.93
  C 310.83 167.55 298.84 168.46 286.92 170.65
  C 286.21 170.78 286.16 171.04 286.76 171.43
  C 287.21 171.72 287.73 171.86 288.32 171.84
  C 288.49 171.84 288.73 171.96 289.06 172.19
  C 289.14 172.24 289.19 172.31 289.22 172.39
  C 289.28 172.54 289.24 172.66 289.10 172.74
  C 283.70 175.91 278.82 174.94 273.37 176.60
  C 269.49 177.79 265.73 180.87 261.95 183.01
  C 261.58 183.22 261.15 182.85 261.30 182.45
  C 265.64 170.90 279.57 178.42 285.06 168.13
  C 285.48 167.36 285.07 166.40 284.23 166.15
  L 280.66 165.10
  C 280.32 165.00 280.07 164.79 279.91 164.47
  C 275.33 155.43 267.91 147.25 262.65 138.82
  C 259.11 133.15 256.20 130.01 250.31 128.01
  C 249.98 127.90 249.80 127.66 249.78 127.31
  C 249.33 117.47 245.87 109.19 243.09 100.38
  C 242.86 99.66 241.82 99.72 241.68 100.47
  L 235.27 134.97
  C 235.18 135.46 234.49 135.47 234.37 134.99
  C 233.57 131.66 235.19 124.81 235.74 121.25
  C 236.50 116.28 232.38 111.92 230.47 107.48
  C 230.38 107.28 230.10 107.29 230.03 107.50
  C 227.22 116.05 229.12 124.96 229.68 133.69
  C 229.93 137.52 229.04 141.05 227.03 144.28
  C 226.74 144.75 226.66 145.82 226.80 147.51
  C 226.83 147.86 226.96 148.16 227.19 148.41
  C 229.46 150.94 229.65 153.74 227.76 156.81
  C 227.57 157.11 227.33 157.35 227.03 157.53
  L 225.17 158.65
  C 224.85 158.84 224.66 159.13 224.59 159.50
  C 222.58 170.77 222.79 184.84 231.79 193.31
  C 232.06 193.56 232.34 193.58 232.64 193.37
  C 241.02 187.38 250.24 183.92 259.28 179.26
  C 259.55 179.12 259.84 179.39 259.74 179.67
  C 258.97 181.86 257.80 183.20 255.54 184.19
  C 251.43 185.98 247.45 188.02 243.60 190.32
  C 243.20 190.56 242.93 190.46 242.79 190.01
  L 242.64 189.53
  C 242.51 189.12 242.25 189.02 241.88 189.24
  C 238.33 191.33 235.26 195.25 230.75 195.50
  C 230.42 195.51 230.22 195.36 230.14 195.05
  L 229.75 193.55
  C 229.62 193.07 229.36 192.97 228.95 193.25
  C 226.82 194.72 224.99 196.52 223.44 198.64
  C 223.12 199.09 222.41 198.82 222.46 198.27
  L 222.70 195.24
  C 222.74 194.77 222.63 194.73 222.36 195.12
  C 220.95 197.17 219.36 201.06 216.96 201.91
  C 216.47 202.08 216.30 201.92 216.44 201.43
  L 217.21 198.67
  C 217.28 198.41 217.18 198.27 216.92 198.25
  C 216.69 198.23 216.52 198.29 216.43 198.42
  C 208.16 209.77 199.65 223.62 195.28 237.01
  C 195.18 237.32 195.24 237.60 195.47 237.84
  C 197.01 239.42 195.35 244.27 194.71 246.18
  C 194.63 246.44 194.36 246.58 194.10 246.52
  C 193.84 246.46 193.66 246.21 193.70 245.94
  L 194.68 238.72
  C 194.77 238.10 194.71 238.09 194.51 238.69
  C 192.46 244.94 193.40 248.01 187.48 252.18
  C 187.04 252.49 187.19 253.17 187.72 253.26
  C 190.31 253.70 192.28 255.06 193.63 257.33
  C 193.73 257.50 193.69 257.62 193.52 257.70
  C 189.53 259.55 185.51 259.64 181.46 257.99
  C 181.06 257.82 180.96 257.55 181.16 257.16
  C 181.53 256.45 183.05 256.34 183.79 255.58
  C 184.12 255.25 183.79 254.70 183.34 254.82
  C 181.85 255.24 179.02 256.97 177.96 256.73
  C 177.40 256.61 177.35 256.37 177.80 256.01
  L 179.21 254.90
  C 179.48 254.69 179.47 254.48 179.20 254.28
  C 178.83 254.02 174.42 256.27 173.57 256.56
  C 173.31 256.65 173.26 257.00 173.48 257.16
  C 177.44 260.11 182.50 263.21 182.56 268.80
  C 182.57 269.38 181.79 269.57 181.53 269.06
  C 178.61 263.42 176.34 258.15 168.79 258.21
  C 167.91 258.22 167.14 258.79 166.88 259.62
  C 166.09 262.13 166.08 264.65 166.86 267.18
  C 167.05 267.82 167.42 267.95 167.97 267.56
  C 169.18 266.70 170.54 266.25 172.04 266.21
  C 172.41 266.20 172.74 266.30 173.05 266.50
  C 174.38 267.37 175.86 267.81 177.47 267.80
  C 178.05 267.79 178.27 268.55 177.78 268.86
  C 172.67 272.13 167.36 266.00 164.27 274.72
  C 159.26 288.84 157.56 304.68 163.35 318.18
  C 163.51 318.55 163.40 318.66 163.02 318.51
  C 161.40 317.85 154.93 317.29 154.27 319.53
  C 154.20 319.76 154.28 319.90 154.53 319.93
  L 155.69 320.09
  C 156.32 320.18 156.42 320.44 155.97 320.89
  C 153.29 323.59 148.72 326.89 148.97 331.06
  C 149.00 331.40 148.86 331.65 148.55 331.82
  L 140.72 336.07
  C 140.43 336.23 140.07 336.14 139.88 335.88
  C 139.69 335.61 139.73 335.24 139.97 335.02
  L 145.55 329.85
  C 145.82 329.60 145.98 329.29 146.05 328.93
  C 146.59 326.08 147.95 323.73 150.13 321.86
  C 150.46 321.57 150.49 321.26 150.22 320.91
  L 149.41 319.90
  C 149.05 319.44 149.15 319.11 149.70 318.92
  L 159.17 315.64
  C 159.53 315.52 159.66 315.28 159.57 314.91
  L 157.04 304.62
  C 156.93 304.19 156.66 303.96 156.23 303.93
  L 152.76 303.66
  C 152.41 303.63 152.24 303.44 152.26 303.09
  C 152.33 301.87 155.71 301.08 156.67 300.85
  C 157.05 300.76 157.24 300.51 157.24 300.12
  L 157.26 295.52
  C 157.26 294.19 155.97 293.24 154.71 293.64
  C 151.20 294.73 143.64 297.75 140.34 296.54
  C 139.83 296.35 139.76 296.06 140.14 295.67
  C 145.57 290.15 154.44 291.73 159.44 287.13
  C 159.69 286.90 159.79 286.61 159.72 286.26
  C 158.98 282.48 154.49 282.54 152.18 279.62
  C 151.90 279.27 152.15 278.76 152.59 278.76
  L 158.56 278.75
  C 158.93 278.74 159.24 278.61 159.51 278.36
  C 167.11 270.98 158.29 259.29 171.27 254.76
  C 174.84 253.51 185.36 251.85 189.80 247.83
  C 190.05 247.60 190.20 247.32 190.27 246.99
  C 194.52 225.69 205.79 207.58 220.00 191.52
  C 220.23 191.27 220.65 191.41 220.66 191.75
  C 220.80 195.57 223.49 192.46 225.00 191.58
  C 225.31 191.41 225.41 191.15 225.31 190.80
  C 222.23 180.54 221.54 170.42 223.12 159.84
  C 223.56 156.89 223.48 154.19 224.18 151.37
  C 225.37 146.53 227.32 141.36 227.19 136.38
  C 226.91 125.92 225.43 114.59 228.47 104.56
  C 228.89 103.20 230.76 103.07 231.35 104.36
  L 236.02 114.58
  C 236.26 115.10 237.01 115.07 237.20 114.53
  C 239.17 109.09 238.99 103.28 240.77 97.57
  C 241.16 96.33 242.89 96.25 243.38 97.46
  C 246.33 104.72 251.09 112.64 250.96 120.74
  C 250.88 125.57 254.51 128.17 258.45 130.81
  C 263.93 134.48 265.17 142.16 268.74 145.99
  C 273.63 151.23 277.85 156.95 281.40 163.15
  C 281.56 163.43 281.80 163.59 282.12 163.63
  C 284.90 163.98 287.02 165.34 288.47 167.71
  C 288.68 168.05 288.98 168.19 289.37 168.12
  L 301.28 165.97
  C 301.75 165.89 301.94 165.62 301.86 165.15
  C 301.36 162.10 296.93 163.60 294.76 163.10
  C 293.99 162.92 293.96 162.68 294.69 162.37
  L 301.93 159.33
  C 302.28 159.18 302.25 158.68 301.89 158.57
  L 297.80 157.29
  C 297.04 157.05 297.18 155.93 297.97 155.89
  L 301.70 155.68
  C 302.07 155.66 302.31 155.48 302.42 155.13
  L 302.50 154.87
  C 302.59 154.58 302.40 154.27 302.09 154.22
  L 294.38 152.97
  C 293.41 152.82 293.37 152.53 294.26 152.11
  L 295.00 151.75
  C 295.32 151.60 295.36 151.38 295.13 151.11
  L 292.91 148.50
  C 292.60 148.14 292.98 147.60 293.42 147.78
  L 301.67 151.12
  C 302.47 151.44 303.21 150.53 302.72 149.81
  C 299.35 144.86 293.30 142.77 296.50 135.24
  C 300.16 126.65 303.03 118.97 305.11 112.21
  C 309.41 98.26 317.96 81.74 330.03 73.77
  C 330.34 73.56 330.66 73.55 330.99 73.74
  C 335.26 76.15 336.02 86.71 336.22 90.68
  C 336.82 102.10 337.51 113.51 338.30 124.92
  C 338.74 131.33 338.40 137.10 337.27 142.24
  C 335.88 148.53 331.87 151.24 325.88 153.23
  C 323.10 154.15 323.16 154.41 326.06 154.00
  C 328.15 153.71 330.23 153.37 332.32 153.00
  C 332.64 152.94 332.85 153.07 332.95 153.38
  C 333.48 155.02 330.58 155.06 329.62 155.38
  C 328.40 155.79 328.43 156.00 329.72 156.00
  L 332.39 156.00
  C 332.78 156.00 333.03 156.19 333.15 156.56
  L 333.23 156.84
  C 333.33 157.15 333.22 157.32 332.90 157.36
  L 326.73 158.08
  C 326.46 158.11 326.25 158.35 326.27 158.63
  C 326.28 158.90 326.50 159.12 326.78 159.12
  L 330.78 159.14
  C 331.31 159.14 331.59 159.77 331.23 160.16
  C 330.28 161.19 325.51 160.67 323.92 161.09
  C 323.59 161.18 323.37 161.50 323.42 161.85
  C 323.46 162.19 323.76 162.44 324.10 162.44
  L 331.55 162.42
  C 331.94 162.42 332.16 162.88 331.91 163.18
  C 330.41 164.99 324.43 164.06 321.94 164.55
  C 321.47 164.64 321.38 164.88 321.68 165.25
  C 322.48 166.26 323.59 166.73 325.01 166.66
  C 336.98 166.07 350.69 172.49 362.06 176.29
  C 362.49 176.43 362.65 176.28 362.55 175.84
  C 362.11 173.86 356.80 172.05 355.17 171.11
  C 354.95 170.98 354.85 170.71 354.94 170.47
  C 355.03 170.23 355.28 170.08 355.53 170.13
  L 361.99 171.30
  C 362.38 171.37 362.46 171.25 362.22 170.93
  C 359.39 167.22 350.62 165.84 349.09 161.96
  C 348.86 161.35 349.05 161.15 349.67 161.35
  C 353.08 162.44 356.31 163.92 359.37 165.80
  C 359.92 166.14 360.13 165.99 359.98 165.36
  C 359.20 162.09 353.11 160.56 352.26 157.31
  C 352.15 156.88 352.30 156.73 352.73 156.84
  C 356.37 157.80 359.39 161.44 362.31 164.44
  C 362.60 164.74 362.81 164.70 362.96 164.31
  C 364.34 160.57 361.05 156.95 358.48 153.51
  C 354.73 148.47 358.83 140.03 362.36 134.59
  C 367.68 126.40 370.99 118.33 374.58 109.33
  C 380.16 95.33 389.98 81.86 399.48 70.24
  C 402.03 67.13 404.68 64.29 407.45 61.73
  C 408.01 61.21 408.88 61.23 409.43 61.76
  C 414.84 67.00 416.27 74.49 416.89 81.68
  C 419.07 106.71 422.50 133.46 418.31 157.75
  C 417.96 159.77 415.56 170.23 411.99 170.70
  C 406.56 171.41 401.17 172.30 395.80 173.37
  C 395.39 173.46 395.23 173.71 395.32 174.12
  C 396.02 177.13 406.50 174.29 407.21 175.54
  C 407.35 175.79 407.29 175.98 407.03 176.10
  C 403.74 177.66 398.84 177.26 395.25 178.01
  C 394.81 178.10 394.81 178.73 395.25 178.82
  C 399.91 179.79 406.15 179.75 410.76 181.78
  C 411.38 182.05 411.38 182.32 410.76 182.59
  C 406.97 184.22 399.76 182.51 393.83 182.02
  C 393.40 181.99 393.22 182.05 392.98 182.39
  C 392.81 182.62 392.87 182.75 393.16 182.76
  C 396.79 182.98 400.28 183.86 403.61 185.41
  C 403.93 185.56 404.08 185.92 403.98 186.25
  C 403.87 186.58 403.53 186.79 403.19 186.72
  L 394.21 185.02
  C 393.78 184.94 393.54 185.49 393.89 185.75
  C 397.34 188.24 400.79 188.78 404.61 190.52
  C 405.00 190.70 405.06 190.96 404.78 191.29
  C 403.75 192.52 401.42 191.20 400.03 191.30
  C 399.55 191.33 399.52 191.47 399.94 191.70
  C 410.17 197.45 422.48 202.38 428.46 211.57
  C 429.84 213.69 431.68 216.17 433.97 219.01
  C 437.38 223.23 441.01 230.33 446.39 237.08
  C 447.65 238.66 447.33 240.07 448.31 241.63
  C 451.78 247.14 456.23 252.19 458.74 258.24
  C 458.84 258.48 458.62 258.72 458.37 258.65
  L 456.27 258.04
  C 455.74 257.89 455.61 258.05 455.86 258.53
  C 462.51 271.23 468.56 285.06 473.99 300.01
  C 476.95 308.16 478.31 316.36 478.06 324.60
  C 477.88 330.73 479.55 335.21 482.53 340.18
  C 485.11 344.48 492.56 356.97 491.06 361.49
  C 490.97 361.75 490.99 362.00 491.14 362.23
  L 493.94 366.75
  C 494.23 367.22 494.11 367.53 493.59 367.69
  L 492.54 368.02
  C 492.21 368.12 492.13 368.32 492.28 368.62
  C 500.72 385.15 506.38 401.74 507.74 420.04
  C 508.97 436.48 511.16 452.80 514.30 468.99
  C 514.93 472.28 515.39 477.12 515.66 483.53
  C 516.25 497.79 517.07 510.11 517.80 525.80
  C 517.88 527.52 517.40 528.85 516.35 529.78
  C 515.96 530.13 515.76 530.05 515.76 529.52
  C 515.85 503.31 512.67 479.55 508.73 453.14
  C 507.72 446.31 506.89 439.70 506.26 433.30
  C 505.19 422.54 504.39 410.59 502.23 401.00
  C 499.18 387.49 493.81 374.89 486.13 363.19
  C 485.85 362.76 485.96 362.54 486.47 362.51
  L 487.36 362.47
  C 487.91 362.44 488.02 362.20 487.71 361.75
  C 484.49 357.08 480.71 352.80 478.96 347.31
  C 478.88 347.06 479.20 346.88 479.37 347.08
  L 486.33 355.13
  C 486.50 355.32 486.78 355.36 486.99 355.21
  C 487.20 355.07 487.26 354.79 487.14 354.57
  C 481.45 344.38 476.27 333.93 471.59 323.21
  C 469.03 317.34 467.37 312.58 466.62 308.95
  C 466.56 308.63 466.69 308.48 467.01 308.49
  C 467.10 308.50 467.20 308.50 467.29 308.50
  C 467.42 308.50 467.51 308.56 467.57 308.67
  C 469.99 313.15 471.77 317.65 474.19 322.24
  C 474.45 322.73 475.18 322.51 475.14 321.96
  C 473.34 300.39 465.06 281.05 455.37 262.32
  C 454.52 260.67 453.10 259.22 452.09 257.52
  C 451.86 257.14 451.96 256.87 452.38 256.72
  C 453.39 256.36 454.39 256.37 455.39 256.75
  C 455.91 256.94 456.02 256.81 455.71 256.34
  C 451.62 250.10 447.68 241.89 442.36 236.81
  C 442.09 236.56 442.05 236.27 442.23 235.95
  C 443.66 233.42 436.37 226.79 432.34 222.44
  C 432.05 222.13 432.05 221.82 432.36 221.52
  L 432.82 221.06
  C 433.09 220.79 433.09 220.51 432.83 220.23
  C 428.53 215.68 422.75 212.22 419.02 207.38
  C 418.60 206.83 418.71 206.70 419.34 206.97
  C 421.35 207.84 423.20 208.96 424.89 210.35
  C 425.09 210.51 425.28 210.49 425.45 210.30
  C 426.32 209.31 418.94 204.33 417.81 203.68
  C 409.22 198.74 399.95 195.21 391.81 189.46
  C 391.67 189.36 391.48 189.39 391.37 189.52
  C 391.26 189.65 391.27 189.84 391.39 189.96
  Z
  M 303.86 164.85
  C 303.78 165.12 303.90 165.42 304.23 165.74
  C 304.42 165.93 304.65 166.03 304.92 166.03
  L 317.94 165.97
  C 318.34 165.97 318.64 165.80 318.85 165.45
  C 320.98 161.84 321.85 157.95 321.46 153.77
  C 321.43 153.41 321.57 153.15 321.88 152.99
  C 327.16 150.22 332.40 147.95 335.14 144.17
  C 335.33 143.90 335.43 143.61 335.43 143.28
  C 335.62 122.14 334.53 101.07 332.16 80.07
  C 332.02 78.86 331.77 77.56 331.41 76.19
  C 331.21 75.46 330.31 75.18 329.74 75.68
  C 313.06 90.06 306.86 114.23 299.55 134.01
  C 295.19 145.81 307.39 145.42 304.75 153.91
  C 304.22 155.61 304.12 157.38 304.45 159.21
  C 304.53 159.62 304.39 159.93 304.02 160.14
  L 302.28 161.16
  C 301.89 161.39 301.87 161.63 302.24 161.89
  C 303.07 162.48 303.61 163.27 303.86 164.26
  C 303.91 164.46 303.91 164.66 303.86 164.85
  Z
  M 225.67 150.69
  C 224.70 152.60 224.32 154.60 224.53 156.71
  C 224.57 157.11 224.79 157.29 225.19 157.25
  C 226.04 157.16 226.63 156.74 226.96 155.99
  C 227.11 155.65 227.07 155.33 226.84 155.03
  C 225.76 153.64 225.73 152.25 226.74 150.88
  C 227.01 150.52 226.93 150.31 226.48 150.25
  C 226.37 150.23 226.27 150.24 226.18 150.27
  C 225.95 150.34 225.78 150.48 225.67 150.69
  Z"
/>
<path fill="#109cea" d="
  M 242.5812 152.7579
  C 242.42 155.18 240.33 157.02 237.9065 156.8647
  L 237.0882 156.8118
  C 234.66 156.66 232.82 154.56 232.9813 152.1371
  L 233.1388 149.7021
  C 233.30 147.28 235.39 145.44 237.8135 145.5953
  L 238.6318 145.6482
  C 241.06 145.80 242.90 147.90 242.7387 150.3229
  L 242.5812 152.7579
  Z
  M 240.88 154.96
  C 245.22 145.29 231.70 142.88 234.31 154.49
  C 234.39 154.84 234.59 155.11 234.90 155.30
  C 236.56 156.29 238.33 156.40 240.21 155.61
  C 240.52 155.48 240.74 155.27 240.88 154.96
  Z"
/>
<ellipse fill="#109cea" cx="0.00" cy="0.00" transform="translate(237.05,151.01) rotate(100.8)" rx="2.27" ry="1.58"/>
<path fill="#109cea" d="
  M 255.31 237.44
  C 264.64 242.29 272.39 264.52 261.57 270.88
  C 251.49 276.81 228.86 278.62 228.47 261.15
  C 228.30 253.67 229.02 244.25 235.32 239.32
  C 241.60 234.40 248.26 233.77 255.31 237.44
  Z
  M 262.25 249.02
  C 260.34 241.45 253.54 236.79 245.94 237.75
  C 236.03 238.99 230.45 249.98 230.65 259.06
  C 231.02 276.25 251.42 274.29 261.25 267.81
  C 265.11 265.26 263.23 252.87 262.25 249.02
  Z"
/>
<ellipse fill="#109cea" cx="0.00" cy="0.00" transform="translate(197.94,242.17) rotate(105.5)" rx="5.78" ry="0.80"/>
<path fill="#109cea" d="
  M 200.18 240.71
  C 200.46 239.80 200.65 239.82 200.74 240.77
  C 200.99 243.38 200.31 245.70 198.68 247.75
  C 198.44 248.05 197.97 247.80 198.08 247.43
  L 200.18 240.71
  Z"
/>
<path fill="#109cea" d="
  M 202.34 244.50
  C 202.84 243.90 203.12 243.99 203.18 244.77
  L 203.50 249.32
  C 203.53 249.73 203.34 249.97 202.94 250.04
  L 200.10 250.57
  C 199.55 250.67 199.35 250.45 199.50 249.91
  C 200.06 247.88 201.01 246.07 202.34 244.50
  Z"
/>
<path fill="#109cea" d="
  M 240.23 259.61
  C 240.02 259.80 239.95 260.02 240.00 260.25
  C 240.11 260.70 240.36 260.81 240.75 260.56
  C 241.36 260.18 241.98 260.06 242.61 260.21
  C 243.07 260.32 243.13 260.54 242.80 260.88
  C 235.22 268.57 228.72 247.76 241.35 248.70
  C 241.73 248.73 242.06 248.88 242.33 249.15
  C 244.72 251.60 245.26 254.53 243.96 257.93
  C 243.85 258.22 243.64 258.41 243.34 258.50
  L 241.03 259.16
  C 240.73 259.25 240.46 259.40 240.23 259.61
  Z
  M 241.10 253.59
  C 240.51 254.07 240.28 254.83 240.41 255.88
  C 240.54 256.95 241.06 257.18 241.95 256.59
  C 242.98 255.92 243.10 254.98 242.32 253.77
  C 242.05 253.36 241.48 253.27 241.10 253.59
  Z"
/>
<path fill="#109cea" d="
  M 206.76 249.86
  L 205.43 252.60
  C 205.25 252.98 204.70 252.92 204.59 252.51
  C 204.20 251.00 204.71 249.90 206.12 249.22
  C 206.53 249.02 206.96 249.45 206.76 249.86
  Z"
/>
<path fill="#109cea" d="
  M 207.43 251.32
  C 207.47 251.27 207.53 251.24 207.59 251.24
  L 208.14 251.29
  C 208.58 251.32 208.69 251.53 208.46 251.90
  L 207.98 252.69
  C 207.71 253.14 207.45 253.13 207.20 252.66
  C 207.00 252.27 207.08 251.83 207.43 251.32
  Z"
/>
<path fill="#109cea" d="
  M 190.02 261.12
  C 189.39 261.09 189.19 260.26 189.74 259.95
  C 191.13 259.17 192.66 258.91 194.33 259.17
  C 194.73 259.23 194.83 259.77 194.48 259.97
  C 193.09 260.79 191.61 261.17 190.02 261.12
  Z"
/>
<path fill="#109cea" d="
  M 193.63 260.93
  C 193.73 260.82 193.91 260.81 194.02 260.92
  L 195.21 262.10
  C 195.56 262.45 195.50 262.71 195.03 262.88
  C 194.27 263.15 193.60 263.09 193.03 262.72
  C 192.57 262.43 192.53 262.09 192.90 261.70
  L 193.63 260.93
  Z"
/>
<path fill="#109cea" d="
  M 278.81 301.05
  C 267.19 298.86 254.77 300.54 243.74 298.39
  C 242.37 298.12 240.87 297.28 239.23 295.86
  C 238.97 295.63 238.89 295.36 238.99 295.03
  C 239.40 293.75 240.26 293.16 241.57 293.27
  C 255.63 294.41 316.20 298.58 320.00 306.01
  C 320.17 306.35 319.93 306.76 319.54 306.77
  C 305.64 307.14 292.33 303.59 278.81 301.05
  Z"
/>
<path fill="#109cea" d="
  M 219.76 304.93
  C 218.95 303.33 219.09 301.77 220.20 300.24
  C 220.46 299.89 220.44 299.56 220.13 299.25
  L 219.66 298.79
  C 219.37 298.50 219.38 298.22 219.69 297.95
  C 220.84 296.94 222.55 299.07 223.03 300.00
  C 223.19 300.30 223.43 300.48 223.76 300.54
  C 242.54 303.94 261.06 308.41 279.31 313.95
  C 285.43 315.81 295.89 318.93 306.06 321.45
  C 310.31 322.50 317.56 324.44 319.22 328.99
  C 319.35 329.35 319.02 329.70 318.66 329.60
  C 286.54 320.86 255.56 310.95 221.89 305.16
  C 221.54 305.10 221.27 305.22 221.08 305.52
  C 220.70 306.13 220.28 306.61 219.82 306.96
  C 218.51 307.98 218.34 307.82 219.33 306.48
  C 219.50 306.25 219.65 305.98 219.78 305.69
  C 219.89 305.43 219.89 305.18 219.76 304.93
  Z"
/>
<ellipse fill="#109cea" cx="0.00" cy="0.00" transform="translate(166.88,312.28) rotate(48.0)" rx="1.94" ry="0.71"/>
<path fill="#109cea" d="
  M 280.64 346.17
  C 265.42 339.78 250.90 332.04 235.70 325.63
  C 234.51 325.12 233.89 324.40 233.86 323.45
  C 233.83 322.55 234.66 321.86 235.54 322.04
  C 249.96 324.97 265.99 334.23 276.03 338.25
  C 281.68 340.51 286.07 343.66 289.21 347.70
  C 289.63 348.24 289.50 348.46 288.82 348.37
  C 285.93 347.98 283.21 347.25 280.64 346.17
  Z"
/>
<path fill="#109cea" d="
  M 210.28 356.94
  C 209.45 355.27 208.28 353.87 206.77 352.76
  C 195.40 344.37 182.69 339.40 168.65 337.86
  C 167.49 337.73 166.55 337.09 166.98 335.85
  C 167.23 335.12 166.64 334.38 165.88 334.47
  C 145.85 336.78 131.91 345.39 117.36 358.20
  C 117.09 358.45 116.90 358.39 116.80 358.04
  C 116.53 357.03 116.86 356.21 117.80 355.56
  C 126.32 349.72 131.67 339.38 141.89 336.53
  C 142.29 336.42 142.48 336.57 142.45 336.98
  C 142.38 337.90 138.51 339.49 137.61 339.98
  C 137.42 340.09 137.31 340.24 137.26 340.45
  C 137.23 340.58 137.23 340.70 137.26 340.81
  C 137.31 340.96 137.40 341.00 137.54 340.94
  C 148.66 336.02 157.71 330.93 170.48 333.36
  C 170.90 333.44 171.02 333.67 170.83 334.05
  L 170.57 334.60
  C 170.40 334.97 170.51 335.20 170.91 335.28
  C 179.34 336.90 186.03 339.65 194.01 343.28
  C 203.17 347.45 208.60 349.77 212.42 358.04
  C 212.56 358.35 212.78 358.57 213.09 358.71
  C 217.35 360.72 218.82 365.41 223.43 366.66
  C 223.76 366.75 224.02 366.93 224.21 367.20
  C 228.00 372.59 232.02 377.82 236.25 382.88
  C 239.16 386.36 241.23 389.31 242.46 391.72
  C 245.57 397.81 246.90 404.95 249.55 410.46
  C 253.09 417.82 257.79 422.51 256.74 431.94
  C 256.24 436.38 255.90 440.83 255.73 445.29
  C 255.56 449.79 257.83 454.46 258.50 458.95
  C 258.60 459.64 257.70 459.98 257.32 459.40
  C 249.58 447.65 257.09 433.15 252.70 420.25
  C 250.15 412.74 245.85 405.40 242.71 398.04
  C 239.95 391.54 236.37 386.83 232.22 381.47
  C 229.57 378.05 227.07 373.64 224.03 370.02
  C 221.73 367.28 216.48 367.16 216.34 363.30
  C 216.32 362.89 216.11 362.61 215.72 362.48
  L 210.75 360.88
  C 210.47 360.79 210.26 360.62 210.11 360.37
  L 208.64 357.89
  C 207.93 356.70 208.05 356.48 209.00 357.23
  C 209.29 357.46 209.63 357.55 210.00 357.50
  C 210.35 357.45 210.44 357.26 210.28 356.94
  Z"
/>
<path fill="#109cea" d="
  M 61.76 465.23
  L 66.77 459.27
  C 66.88 459.14 67.01 459.05 67.18 459.01
  C 67.32 458.98 67.45 458.98 67.58 459.02
  C 67.72 459.06 67.75 459.14 67.68 459.27
  C 63.63 466.12 60.59 473.39 58.58 481.09
  C 58.49 481.42 58.58 481.71 58.83 481.94
  C 59.18 482.26 59.30 482.60 59.17 482.97
  C 57.18 488.52 55.82 494.21 55.09 500.05
  C 55.03 500.50 55.23 500.73 55.68 500.74
  L 57.14 500.78
  C 57.57 500.79 57.70 500.99 57.52 501.39
  C 55.46 506.06 54.33 510.96 54.14 516.08
  C 54.13 516.50 54.30 516.82 54.65 517.03
  L 55.29 517.42
  C 55.61 517.61 55.74 517.90 55.69 518.27
  C 54.73 524.44 54.78 530.60 55.83 536.74
  C 55.92 537.30 55.63 537.85 55.11 538.08
  L 54.11 538.53
  C 53.59 538.76 53.30 538.59 53.25 538.02
  C 52.06 523.60 51.54 509.26 53.77 494.89
  C 55.14 486.06 57.29 477.43 60.21 468.98
  C 60.36 468.55 60.22 468.42 59.80 468.59
  L 58.36 469.16
  C 57.91 469.34 57.78 469.20 57.95 468.75
  C 61.93 458.20 66.16 447.76 70.65 437.44
  C 71.13 436.33 71.17 435.95 70.44 435.02
  C 70.19 434.71 70.20 434.40 70.47 434.10
  C 74.01 430.15 76.17 426.85 76.96 424.20
  C 80.72 411.51 85.23 403.89 91.06 393.92
  C 91.35 393.43 91.23 393.28 90.69 393.47
  L 89.97 393.74
  C 89.39 393.95 89.21 393.77 89.44 393.20
  C 91.60 387.73 94.97 384.98 98.68 381.03
  C 99.15 380.52 99.05 380.27 98.36 380.27
  L 97.14 380.27
  C 96.69 380.27 96.55 380.06 96.71 379.64
  C 99.36 372.95 110.54 361.49 115.04 360.89
  C 115.74 360.80 115.81 360.97 115.26 361.40
  C 109.33 366.00 105.29 371.80 99.64 376.80
  C 99.29 377.11 99.60 377.68 100.05 377.55
  C 101.48 377.14 102.39 377.59 102.79 378.88
  C 102.90 379.24 103.32 379.40 103.65 379.21
  C 105.82 377.96 108.15 377.38 110.65 377.48
  C 111.02 377.50 111.30 377.67 111.47 378.00
  C 115.14 384.87 115.52 398.63 115.61 405.68
  C 115.62 406.09 115.41 406.33 115.00 406.38
  C 111.87 406.82 107.54 400.90 105.56 398.68
  C 101.97 394.65 97.67 398.17 93.92 400.63
  C 91.47 402.24 87.64 403.16 85.67 406.67
  C 83.38 410.74 81.25 415.50 79.26 420.95
  C 79.03 421.58 79.19 421.70 79.74 421.31
  C 80.25 420.94 80.51 421.02 80.54 421.54
  C 80.55 421.88 80.44 422.17 80.19 422.41
  C 76.75 425.80 76.14 429.82 74.37 433.32
  C 71.26 439.50 69.57 446.37 66.91 452.20
  C 64.99 456.43 63.14 460.69 61.35 464.98
  C 60.94 465.95 61.08 466.04 61.76 465.23
  Z
  M 95.41 389.28
  C 95.57 389.18 95.79 389.22 95.91 389.36
  C 96.03 389.51 96.03 389.73 95.90 389.87
  C 93.09 392.94 91.00 396.43 89.62 400.36
  C 89.44 400.86 90.01 401.30 90.45 401.00
  L 100.58 394.18
  C 100.89 393.97 101.23 393.89 101.60 393.92
  C 104.73 394.23 109.59 400.91 111.68 403.42
  C 113.41 405.50 114.23 405.19 114.12 402.48
  C 113.94 398.03 113.76 383.08 109.78 379.47
  C 109.53 379.25 109.25 379.16 108.92 379.19
  C 102.43 379.90 95.92 385.27 92.23 390.42
  C 92.01 390.73 92.37 391.11 92.69 390.92
  L 95.41 389.28
  Z"
/>
<path fill="#109cea" d="
  M 135.85 420.81
  C 139.55 420.38 149.68 418.44 152.39 420.92
  C 156.39 424.58 160.74 438.14 165.40 439.32
  C 165.84 439.43 165.82 440.07 165.37 440.15
  C 161.29 440.91 156.20 430.45 154.34 427.35
  C 149.47 419.23 142.40 422.55 134.82 422.83
  C 133.83 422.87 133.12 421.90 133.45 420.97
  C 135.95 413.89 146.00 405.88 151.97 403.70
  C 167.74 397.93 166.25 428.92 165.60 436.26
  C 165.57 436.67 165.34 436.91 164.93 436.96
  C 162.74 437.25 167.64 406.61 156.77 405.28
  C 150.01 404.45 139.07 415.16 135.50 420.23
  C 135.19 420.68 135.30 420.88 135.85 420.81
  Z"
/>
<path fill="#109cea" d="
  M 195.00 466.62
  C 192.67 466.89 188.38 465.89 191.03 462.25
  C 195.61 455.94 201.00 451.08 207.20 447.66
  C 218.80 441.26 221.00 468.25 220.95 474.27
  C 220.93 476.09 220.02 476.93 218.22 476.78
  C 212.68 476.31 210.82 469.23 205.86 467.64
  C 202.37 466.52 198.75 466.18 195.00 466.62
  Z
  M 192.87 464.40
  C 197.69 464.82 202.48 465.30 207.23 465.84
  C 209.68 466.12 211.76 469.70 213.11 471.46
  C 214.69 473.52 216.49 474.34 218.85 474.97
  C 219.05 475.03 219.25 474.87 219.26 474.66
  C 219.37 470.35 217.33 447.24 209.50 449.49
  C 202.58 451.48 196.32 457.65 192.44 463.52
  C 192.20 463.88 192.44 464.36 192.87 464.40
  Z"
/>
<path fill="#109cea" d="
  M 261.43 459.33
  C 263.18 460.05 261.20 463.75 260.60 465.04
  C 260.47 465.32 260.30 465.35 260.07 465.14
  C 258.91 464.03 260.09 461.29 260.32 459.93
  C 260.44 459.27 260.81 459.07 261.43 459.33
  Z"
/>
<path fill="#109cea" d="
  M 263.76 495.75
  C 263.74 497.19 263.38 503.77 262.64 504.68
  C 262.43 504.94 262.01 504.80 262.00 504.46
  L 261.03 467.41
  C 261.02 466.90 261.27 466.62 261.78 466.58
  L 263.15 466.47
  C 263.69 466.43 263.93 466.68 263.86 467.22
  C 262.64 477.08 263.89 486.18 263.76 495.75
  Z"
/>
<path fill="#109cea" d="
  M 260.77 517.34
  L 262.44 517.17
  C 262.82 517.13 263.09 517.52 262.92 517.86
  C 260.93 521.89 258.44 527.31 260.61 531.61
  C 261.91 534.18 261.95 535.88 259.88 537.76
  C 259.50 538.10 258.91 537.76 259.01 537.26
  L 259.83 533.36
  C 259.92 532.93 259.83 532.56 259.54 532.23
  C 256.35 528.60 256.20 524.79 259.11 520.78
  C 259.34 520.46 259.38 520.12 259.22 519.75
  L 258.26 517.57
  C 258.13 517.26 258.10 516.94 258.19 516.62
  C 259.06 513.54 260.45 510.70 262.34 508.11
  C 262.58 507.79 263.07 507.84 263.24 508.20
  C 264.24 510.30 261.22 513.78 259.86 515.84
  C 259.41 516.53 259.96 517.42 260.77 517.34
  Z"
/>
</svg>
