<?xml version="1.0" encoding="UTF-8" standalone="no"?>
<!DOCTYPE svg PUBLIC "-//W3C//DTD SVG 1.1//EN" "http://www.w3.org/Graphics/SVG/1.1/DTD/svg11.dtd">
<svg xmlns="http://www.w3.org/2000/svg" version="1.1" viewBox="0 0 113 114">
<g stroke-width="2.00" fill="none" stroke-linecap="butt">
<path stroke="#868586" vector-effect="non-scaling-stroke" d="
  M 113.00 13.56
  C 112.38 4.91 106.91 1.29 98.79 1.28
  C 70.95 1.23 43.12 1.23 15.30 1.27
  C 9.47 1.27 4.97 2.39 2.25 7.42
  C 1.29 9.19 0.80 12.01 0.77 15.86
  C 0.55 44.10 0.50 72.34 0.61 100.58
  C 0.64 106.00 2.65 110.18 7.39 112.43
  C 9.25 113.31 12.55 113.75 17.30 113.75
  C 43.55 113.76 69.79 113.75 96.04 113.74
  C 105.40 113.73 111.97 111.99 113.00 101.81"
/>
<path stroke="#1c1b1c" vector-effect="non-scaling-stroke" d="
  M 113.00 39.56
  L 112.79 46.75"
/>
<path stroke="#868586" vector-effect="non-scaling-stroke" d="
  M 112.79 46.75
  L 113.00 76.06"
/>
<path stroke="#868586" vector-effect="non-scaling-stroke" d="
  M 113.00 91.56
  C 112.58 93.48 112.58 95.40 113.00 97.31"
/>
<path stroke="#868586" vector-effect="non-scaling-stroke" d="
  M 97.25 73.13
  C 97.26 73.01 97.25 72.88 97.24 72.75
  C 97.20 72.42 97.34 72.22 97.65 72.13
  L 99.65 71.57
  C 100.66 71.29 101.19 70.19 100.79 69.22
  C 99.40 65.89 98.04 63.53 96.39 59.52
  C 95.77 58.02 94.87 56.66 93.70 55.44
  C 93.33 55.07 93.41 54.82 93.92 54.70
  C 97.66 53.81 101.98 67.63 102.72 70.43
  C 102.85 70.93 103.13 71.02 103.54 70.71
  C 105.51 69.24 107.72 68.40 110.17 68.19
  C 110.52 68.16 110.69 67.98 110.69 67.63
  C 110.65 50.05 110.58 32.46 110.47 14.86
  C 110.41 5.98 105.51 3.76 97.14 3.76
  C 69.45 3.74 41.75 3.74 14.05 3.76
  C 5.93 3.77 3.19 7.84 3.03 15.79
  C 2.82 26.28 2.77 36.78 2.90 47.29
  C 2.91 47.64 3.06 47.90 3.37 48.05
  C 5.63 49.18 7.84 50.41 9.99 51.73
  C 13.57 53.93 17.95 55.19 21.72 57.82
  C 23.91 59.35 25.97 59.27 27.90 57.56
  C 28.18 57.31 28.18 57.07 27.90 56.82
  C 25.21 54.41 22.57 51.95 19.98 49.44
  C 19.12 48.61 14.55 46.76 14.76 45.73
  C 14.83 45.39 15.03 45.27 15.36 45.36
  C 21.46 47.15 24.24 52.01 28.78 55.38
  C 29.26 55.74 29.50 55.62 29.50 55.02
  L 29.50 54.60
  C 29.50 54.27 29.63 53.99 29.88 53.76
  C 33.53 50.52 39.10 44.87 41.11 46.26
  C 41.36 46.43 41.36 46.61 41.10 46.78
  C 37.28 49.22 33.93 52.21 31.05 55.74
  C 30.58 56.31 30.53 56.92 30.90 57.56
  L 32.92 61.08
  C 33.13 61.45 33.05 61.74 32.66 61.94
  C 31.27 62.65 30.26 60.21 29.93 59.25
  C 29.80 58.88 29.54 58.74 29.15 58.85
  L 27.51 59.32
  C 26.77 59.53 26.75 59.79 27.45 60.10
  C 28.58 60.59 29.19 61.45 29.28 62.67
  C 29.32 63.20 28.72 63.53 28.30 63.21
  L 26.24 61.69
  C 25.94 61.46 25.67 61.49 25.42 61.78
  C 24.03 63.35 22.40 64.62 20.52 65.58
  C 20.20 65.75 19.97 65.99 19.82 66.32
  C 18.25 69.83 18.98 70.25 15.39 72.37
  C 14.32 73.00 12.47 74.54 9.84 76.98
  C 7.00 79.60 5.83 83.54 4.02 86.94
  C 2.06 90.62 2.98 98.76 3.01 103.05
  C 3.02 103.52 3.18 103.59 3.50 103.24
  L 5.77 100.78
  C 6.05 100.48 6.05 100.19 5.76 99.90
  C 5.04 99.18 4.87 98.39 5.26 97.52
  C 5.43 97.15 5.68 97.09 5.99 97.35
  L 8.32 99.26
  C 8.58 99.47 8.62 99.72 8.43 99.99
  L 4.45 105.97
  C 4.18 106.38 4.22 106.77 4.57 107.12
  L 6.38 108.93
  C 6.73 109.29 7.06 109.27 7.37 108.87
  C 13.16 101.38 19.59 97.45 28.33 93.60
  C 30.69 92.56 33.22 90.21 35.50 89.49
  C 42.95 87.12 50.05 89.16 57.98 87.79
  C 63.95 86.76 69.03 89.59 74.84 91.23
  C 79.36 92.50 81.98 95.66 85.57 98.08
  C 91.29 101.95 94.85 105.52 98.39 110.87
  C 98.56 111.14 98.81 111.29 99.13 111.34
  C 100.91 111.59 102.40 111.12 103.59 109.92
  C 103.82 109.68 104.06 109.68 104.29 109.92
  L 104.54 110.17
  C 104.77 110.40 105.03 110.43 105.31 110.26
  C 113.16 105.34 109.93 98.69 108.54 91.44
  C 107.86 87.87 106.58 84.52 104.71 81.41
  C 104.54 81.14 104.30 81.00 103.98 81.00
  L 99.68 81.00
  C 99.27 81.00 99.01 80.80 98.89 80.41
  L 98.73 79.93
  C 98.54 79.32 98.77 79.02 99.40 79.02
  L 103.00 78.99
  C 103.31 78.99 103.48 78.83 103.51 78.52
  C 103.62 76.75 103.04 75.29 101.75 74.14
  C 101.59 74.00 101.51 73.82 101.50 73.60
  C 101.50 73.46 101.50 73.32 101.50 73.18
  C 101.50 72.88 101.36 72.76 101.07 72.83
  L 97.85 73.61
  C 97.44 73.71 97.24 73.55 97.25 73.13"
/>
<path stroke="#868586" vector-effect="non-scaling-stroke" d="
  M 15.29 69.76
  C 17.50 68.09 17.45 67.10 18.34 64.65
  C 18.45 64.32 18.68 64.11 19.01 64.01
  C 20.70 63.48 22.19 62.64 23.49 61.51
  C 23.92 61.14 23.89 60.82 23.38 60.56
  L 3.55 50.39
  C 3.32 50.27 3.04 50.44 3.04 50.70
  L 2.89 83.03
  C 2.89 83.51 3.55 83.66 3.75 83.22
  C 6.77 76.61 9.62 74.05 15.29 69.76"
/>
<path stroke="#868586" vector-effect="non-scaling-stroke" d="
  M 110.60 77.01
  C 110.94 74.92 110.94 72.76 110.60 70.55
  C 110.54 70.17 110.32 70.03 109.95 70.14
  L 103.84 71.90
  C 103.49 72.00 103.39 72.22 103.53 72.55
  L 105.89 78.17
  C 106.00 78.43 106.19 78.56 106.48 78.57
  L 110.19 78.70
  C 110.47 78.71 110.64 78.58 110.71 78.31
  C 110.75 78.17 110.76 78.04 110.74 77.92
  C 110.64 77.36 110.59 77.06 110.60 77.01"
/>
<path stroke="#868586" vector-effect="non-scaling-stroke" d="
  M 107.58 80.19
  C 107.17 80.15 106.87 80.55 107.02 80.93
  L 110.46 89.74
  C 110.65 90.23 110.75 90.21 110.75 89.69
  L 110.75 81.01
  C 110.75 80.68 110.59 80.50 110.26 80.47
  L 107.58 80.19"
/>
<path stroke="#868586" vector-effect="non-scaling-stroke" d="
  M 9.80 108.89
  C 9.38 109.16 9.02 109.53 8.72 109.99
  C 8.45 110.42 8.56 110.68 9.06 110.76
  L 12.98 111.41
  C 13.34 111.46 13.64 111.35 13.87 111.08
  C 19.94 104.00 24.49 102.27 30.59 110.89
  C 30.76 111.13 30.99 111.25 31.29 111.25
  L 43.48 111.25
  C 43.79 111.25 43.98 111.10 44.07 110.81
  C 45.19 106.93 53.69 103.79 57.43 105.86
  C 59.12 106.80 59.78 109.17 60.85 110.84
  C 61.03 111.12 61.29 111.26 61.62 111.26
  L 95.30 111.26
  C 95.82 111.26 96.11 110.66 95.78 110.25
  C 91.99 105.53 88.87 102.55 83.35 99.04
  C 79.94 96.87 77.34 94.44 73.35 93.14
  C 71.32 92.47 69.34 91.71 67.39 90.84
  C 64.69 89.64 62.18 89.70 59.34 89.57
  C 56.36 89.44 53.55 90.83 50.23 90.28
  C 45.09 89.44 37.47 89.89 33.03 92.93
  C 25.68 97.99 15.52 100.50 10.48 108.22
  C 10.30 108.49 10.07 108.72 9.80 108.89"
/>
<path stroke="#868586" vector-effect="non-scaling-stroke" d="
  M 16.84 110.40
  C 16.48 110.67 16.67 111.25 17.13 111.25
  L 27.81 111.27
  C 28.26 111.27 28.45 110.69 28.09 110.42
  L 22.76 106.38
  C 22.59 106.25 22.36 106.25 22.19 106.38
  L 16.84 110.40"
/>
<path stroke="#868586" vector-effect="non-scaling-stroke" d="
  M 58.40 110.79
  C 57.74 105.08 49.30 108.09 46.41 110.04
  C 45.87 110.41 46.13 111.25 46.78 111.25
  L 57.99 111.25
  C 58.30 111.25 58.43 111.10 58.40 110.79"
/>
<path stroke="#8c8c8c" vector-effect="non-scaling-stroke" d="
  M 30.61 19.33
  C 32.58 16.89 35.09 15.48 38.16 15.09
  C 38.61 15.03 38.81 14.77 38.75 14.32
  L 38.43 12.01
  C 38.38 11.62 38.15 11.45 37.75 11.50
  L 30.03 12.61
  C 29.62 12.67 29.53 12.53 29.76 12.18
  L 30.21 11.50
  C 30.44 11.15 30.38 10.85 30.03 10.62
  C 27.56 8.98 24.98 7.23 22.40 9.76
  C 22.09 10.06 22.11 10.33 22.46 10.58
  L 25.33 12.56
  C 25.92 12.97 25.85 13.18 25.14 13.20
  C 23.48 13.24 14.25 12.38 16.15 16.20
  C 16.28 16.45 16.49 16.57 16.77 16.55
  L 27.44 15.85
  C 28.05 15.81 28.17 16.03 27.80 16.52
  C 26.58 18.12 25.23 18.63 23.11 18.24
  C 20.99 17.86 16.50 16.99 16.30 19.64
  C 16.27 19.99 16.43 20.19 16.78 20.25
  L 20.29 20.83
  C 20.96 20.94 20.99 21.15 20.38 21.45
  L 14.23 24.48
  C 13.89 24.65 13.80 24.91 13.96 25.26
  C 14.83 27.17 16.23 28.04 18.15 27.85
  C 18.59 27.80 18.75 28.00 18.64 28.43
  L 15.81 38.81
  C 15.68 39.27 15.85 39.56 16.31 39.67
  L 19.87 40.52
  C 20.24 40.61 20.46 40.47 20.53 40.08
  L 21.28 35.58
  C 21.35 35.19 21.58 34.97 21.97 34.93
  L 29.69 34.19
  C 30.06 34.16 30.25 34.33 30.25 34.70
  L 30.25 39.79
  C 30.25 40.18 30.44 40.40 30.82 40.47
  C 31.41 40.58 32.02 40.57 32.64 40.44
  C 32.97 40.37 33.29 40.39 33.61 40.49
  C 34.83 40.86 35.09 40.12 35.01 39.05
  C 34.71 34.74 34.54 30.39 34.49 26.01
  C 34.48 25.62 34.67 25.48 35.05 25.60
  C 37.10 26.25 38.53 25.45 39.34 23.21
  C 39.50 22.77 39.36 22.48 38.91 22.34
  L 30.75 19.79
  C 30.48 19.70 30.43 19.55 30.61 19.33"
/>
<path stroke="#8c8c8c" vector-effect="non-scaling-stroke" d="
  M 15.97 11.67
  C 13.50 10.32 10.56 7.83 8.63 11.44
  C 8.49 11.71 8.55 11.93 8.80 12.10
  L 12.63 14.61
  C 12.97 14.84 13.33 14.87 13.71 14.71
  C 14.77 14.28 15.60 13.55 16.20 12.52
  C 16.41 12.16 16.34 11.88 15.97 11.67"
/>
<path stroke="#868586" vector-effect="non-scaling-stroke" d="
  M 56.05 42.74
  C 57.48 42.58 58.12 41.84 57.97 40.53
  C 57.94 40.22 57.99 39.92 58.14 39.64
  C 61.31 33.80 60.88 29.01 60.69 22.28
  C 60.60 19.13 60.29 12.66 56.18 12.10
  C 53.33 11.70 51.10 12.77 49.51 15.32
  C 46.60 19.97 37.86 36.96 41.31 41.76
  C 41.51 42.04 41.58 42.35 41.51 42.68
  C 41.30 43.87 41.88 44.47 43.27 44.47
  C 44.48 44.47 44.91 43.89 44.56 42.73
  C 44.32 41.92 43.81 41.35 43.04 41.02
  C 42.03 40.58 41.47 39.49 41.69 38.42
  C 43.27 30.81 47.69 18.78 53.91 13.81
  C 54.16 13.61 54.45 13.50 54.78 13.49
  C 59.24 13.35 58.81 25.21 59.09 28.49
  C 59.42 32.28 58.19 35.59 55.39 38.41
  C 55.17 38.63 55.07 38.89 55.10 39.19
  L 55.43 43.26
  C 55.46 43.65 55.53 43.65 55.66 43.28
  C 55.69 43.18 55.73 43.08 55.76 42.98
  C 55.81 42.83 55.90 42.75 56.05 42.74"
/>
<path stroke="#8c8c8c" vector-effect="non-scaling-stroke" d="
  M 13.97 20.05
  C 12.09 19.06 7.55 16.42 7.02 20.47
  C 6.97 20.86 7.12 21.15 7.45 21.36
  L 11.30 23.67
  C 11.65 23.89 11.97 23.85 12.26 23.54
  L 14.20 21.45
  C 14.73 20.88 14.66 20.42 13.97 20.05"
/>
<path stroke="#868586" vector-effect="non-scaling-stroke" d="
  M 94.81 48.83
  C 95.88 48.33 96.56 47.84 96.93 46.62
  C 99.62 37.67 101.41 29.12 95.81 21.14
  C 94.54 19.34 93.56 18.87 91.50 19.73
  C 83.64 22.97 80.53 33.36 80.82 41.08
  C 80.83 41.42 80.71 41.70 80.46 41.92
  C 79.21 42.97 78.99 44.23 79.81 45.69
  C 80.15 46.29 79.47 46.95 78.88 46.60
  C 72.10 42.53 64.95 41.62 57.44 43.85
  C 56.67 44.08 56.42 44.00 55.68 43.87
  C 55.31 43.81 55.04 43.94 54.87 44.26
  C 54.59 44.79 54.71 45.23 55.23 45.58
  C 55.54 45.79 55.88 45.86 56.25 45.81
  C 59.09 45.36 61.66 44.16 64.37 44.24
  C 70.29 44.43 75.74 46.20 80.71 49.56
  C 81.39 50.02 82.23 49.27 81.86 48.54
  C 80.56 45.99 81.03 43.87 83.28 42.19
  C 83.53 42.00 83.60 41.77 83.47 41.48
  C 81.53 37.21 85.66 27.73 87.90 23.90
  C 88.89 22.22 90.62 21.28 93.09 21.09
  C 93.41 21.07 93.66 21.19 93.85 21.45
  C 99.43 29.33 96.89 37.56 95.39 46.27
  C 95.32 46.66 95.10 46.89 94.71 46.97
  C 94.24 47.06 93.81 47.32 93.43 47.74
  C 93.20 47.99 93.14 48.27 93.24 48.60
  L 93.38 49.03
  C 93.45 49.27 93.39 49.46 93.20 49.61
  L 92.33 50.31
  C 91.70 50.80 91.77 51.13 92.56 51.28
  L 95.19 51.81
  C 95.76 51.92 95.91 51.72 95.63 51.21
  L 94.63 49.39
  C 94.49 49.14 94.55 48.95 94.81 48.83"
/>
<path stroke="#8c8c8c" vector-effect="non-scaling-stroke" d="
  M 7.35 35.13
  C 6.41 37.49 7.19 39.20 9.68 40.27
  C 9.94 40.38 10.12 40.31 10.23 40.05
  C 11.67 36.45 16.32 26.84 11.24 26.57
  C 10.92 26.55 10.69 26.69 10.55 26.98
  C 9.31 29.64 8.43 32.42 7.35 35.13"
/>
<path stroke="#868586" vector-effect="non-scaling-stroke" d="
  M 49.38 54.62
  C 44.63 48.25 32.06 53.17 33.86 59.52
  C 35.79 66.33 40.05 68.74 46.63 66.77
  C 52.39 65.04 52.31 58.54 49.38 54.62"
/>
<path stroke="#868586" vector-effect="non-scaling-stroke" d="
  M 92.38 60.82
  C 87.70 56.48 81.05 59.65 79.69 65.38
  C 77.66 73.97 90.18 77.26 94.60 70.84
  C 96.82 67.60 95.07 63.31 92.38 60.82"
/>
<path stroke="#868586" vector-effect="non-scaling-stroke" d="
  M 70.41 61.91
  C 67.30 59.93 64.03 59.64 60.60 61.05
  C 59.90 61.33 59.91 61.58 60.64 61.79
  C 62.85 62.43 64.34 63.82 65.10 65.96
  C 65.29 66.50 65.58 66.56 65.97 66.14
  C 67.11 64.89 68.52 64.02 70.19 63.51
  C 70.92 63.29 71.05 62.32 70.41 61.91"
/>
<path stroke="#868586" vector-effect="non-scaling-stroke" d="
  M 95.96 81.04
  C 93.72 79.49 92.40 79.36 90.04 78.84
  C 81.08 76.87 71.94 73.87 63.12 73.06
  C 52.67 72.11 42.19 71.84 31.67 72.26
  C 31.22 72.28 31.00 72.51 31.00 72.96
  L 31.00 75.02
  C 31.00 75.42 31.18 75.71 31.54 75.88
  C 38.73 79.40 46.67 82.67 54.75 83.69
  C 66.10 85.12 89.89 88.36 96.08 82.78
  C 96.61 82.30 96.55 81.45 95.96 81.04"
/>
<path stroke="#8c8c8c" vector-effect="non-scaling-stroke" d="
  M 29.40 23.36
  C 26.50 21.96 24.30 22.70 22.81 25.58
  C 22.59 26.01 22.72 26.21 23.20 26.18
  C 23.83 26.14 31.35 26.24 30.45 24.63
  C 30.08 23.97 29.70 23.50 29.40 23.36"
/>
<path stroke="#8c8c8c" vector-effect="non-scaling-stroke" d="
  M 30.1322 29.6031
  C 30.08 29.11 29.63 28.75 29.1403 28.8056
  L 23.0362 29.4687
  C 22.54 29.52 22.18 29.97 22.2387 30.4606
  L 22.3078 31.0969
  C 22.36 31.59 22.81 31.95 23.2997 31.8944
  L 29.4038 31.2313
  C 29.90 31.18 30.26 30.73 30.2013 30.2394
  L 30.1322 29.6031"
/>
<path stroke="#8c8c8c" vector-effect="non-scaling-stroke" d="
  M 113.00 46.81
  C 112.93 46.79 112.86 46.77 112.79 46.75"
/>
<path stroke="#868586" vector-effect="non-scaling-stroke" d="
  M 49.7626 61.1154
  C 50.56 57.84 48.14 54.44 44.3567 53.5213
  C 40.58 52.61 36.87 54.52 36.0774 57.8046
  C 35.28 61.08 37.70 64.48 41.4833 65.3987
  C 45.26 66.31 48.97 64.40 49.7626 61.1154"
/>
<path stroke="#8c8c8c" vector-effect="non-scaling-stroke" d="
  M 45.68 59.01
  C 45.68 57.39 44.36 56.07 42.74 56.07
  C 41.12 56.07 39.80 57.39 39.80 59.01
  C 39.80 60.63 41.12 61.95 42.74 61.95
  C 44.36 61.95 45.68 60.63 45.68 59.01"
/>
<path stroke="#868586" vector-effect="non-scaling-stroke" d="
  M 93.2582 69.4726
  C 94.62 66.49 93.16 62.91 89.9985 61.4582
  C 86.83 60.01 83.17 61.25 81.8018 64.2274
  C 80.44 67.21 81.90 70.79 85.0615 72.2418
  C 88.23 73.69 91.89 72.45 93.2582 69.4726"
/>
<path stroke="#8c8c8c" vector-effect="non-scaling-stroke" d="
  M 89.12 69.71
  C 93.27 67.62 90.73 62.75 86.34 64.27
  C 86.04 64.37 85.82 64.56 85.69 64.85
  C 84.65 67.08 86.15 71.21 89.12 69.71"
/>
<path stroke="#868586" vector-effect="non-scaling-stroke" d="
  M 44.38 74.02
  C 40.92 73.92 37.86 73.55 34.39 74.28
  C 34.01 74.37 33.97 74.53 34.28 74.76
  C 36.92 76.75 39.87 78.04 43.12 78.64
  C 43.51 78.71 43.76 78.56 43.86 78.17
  L 44.82 74.61
  C 44.92 74.23 44.77 74.03 44.38 74.02"
/>
<path stroke="#868586" vector-effect="non-scaling-stroke" d="
  M 45.80 79.66
  C 50.55 81.25 55.44 82.11 60.46 82.26
  C 60.78 82.27 60.98 82.12 61.05 81.81
  L 62.69 75.43
  C 62.80 75.02 62.64 74.79 62.23 74.72
  C 57.16 73.90 52.06 73.80 46.94 74.42
  C 46.67 74.45 46.51 74.60 46.45 74.85
  L 45.40 78.91
  C 45.30 79.28 45.43 79.53 45.80 79.66"
/>
<path stroke="#868586" vector-effect="non-scaling-stroke" d="
  M 92.28 81.29
  L 82.59 79.01
  C 82.32 78.94 82.17 79.05 82.12 79.32
  L 81.61 82.15
  C 81.54 82.50 81.35 82.75 81.02 82.89
  C 78.90 83.80 79.94 79.91 80.12 79.12
  C 80.21 78.73 80.06 78.48 79.67 78.39
  L 65.99 75.08
  C 65.64 75.00 65.37 75.11 65.18 75.40
  C 63.87 77.40 63.31 79.58 63.52 81.95
  C 63.55 82.33 63.75 82.54 64.13 82.59
  C 68.34 83.13 90.09 84.92 92.61 82.54
  C 93.04 82.14 92.85 81.42 92.28 81.29"
/>
</g>
<path fill="#f6f6f6" d="
  M 0.00 0.00
  L 113.00 0.00
  L 113.00 13.56
  C 112.38 4.91 106.91 1.29 98.79 1.28
  C 70.95 1.23 43.12 1.23 15.30 1.27
  C 9.47 1.27 4.97 2.39 2.25 7.42
  C 1.29 9.19 0.80 12.01 0.77 15.86
  C 0.55 44.10 0.50 72.34 0.61 100.58
  C 0.64 106.00 2.65 110.18 7.39 112.43
  C 9.25 113.31 12.55 113.75 17.30 113.75
  C 43.55 113.76 69.79 113.75 96.04 113.74
  C 105.40 113.73 111.97 111.99 113.00 101.81
  L 113.00 114.00
  L 0.00 114.00
  L 0.00 0.00
  Z"
/>
<path fill="#161416" d="
  M 113.00 13.56
  L 113.00 39.56
  L 112.79 46.75
  L 113.00 76.06
  L 113.00 91.56
  C 112.58 93.48 112.58 95.40 113.00 97.31
  L 113.00 101.81
  C 111.97 111.99 105.40 113.73 96.04 113.74
  C 69.79 113.75 43.55 113.76 17.30 113.75
  C 12.55 113.75 9.25 113.31 7.39 112.43
  C 2.65 110.18 0.64 106.00 0.61 100.58
  C 0.50 72.34 0.55 44.10 0.77 15.86
  C 0.80 12.01 1.29 9.19 2.25 7.42
  C 4.97 2.39 9.47 1.27 15.30 1.27
  C 43.12 1.23 70.95 1.23 98.79 1.28
  C 106.91 1.29 112.38 4.91 113.00 13.56
  Z
  M 97.25 73.13
  C 97.26 73.01 97.25 72.88 97.24 72.75
  C 97.20 72.42 97.34 72.22 97.65 72.13
  L 99.65 71.57
  C 100.66 71.29 101.19 70.19 100.79 69.22
  C 99.40 65.89 98.04 63.53 96.39 59.52
  C 95.77 58.02 94.87 56.66 93.70 55.44
  C 93.33 55.07 93.41 54.82 93.92 54.70
  C 97.66 53.81 101.98 67.63 102.72 70.43
  C 102.85 70.93 103.13 71.02 103.54 70.71
  C 105.51 69.24 107.72 68.40 110.17 68.19
  C 110.52 68.16 110.69 67.98 110.69 67.63
  C 110.65 50.05 110.58 32.46 110.47 14.86
  C 110.41 5.98 105.51 3.76 97.14 3.76
  C 69.45 3.74 41.75 3.74 14.05 3.76
  C 5.93 3.77 3.19 7.84 3.03 15.79
  C 2.82 26.28 2.77 36.78 2.90 47.29
  C 2.91 47.64 3.06 47.90 3.37 48.05
  C 5.63 49.18 7.84 50.41 9.99 51.73
  C 13.57 53.93 17.95 55.19 21.72 57.82
  C 23.91 59.35 25.97 59.27 27.90 57.56
  C 28.18 57.31 28.18 57.07 27.90 56.82
  C 25.21 54.41 22.57 51.95 19.98 49.44
  C 19.12 48.61 14.55 46.76 14.76 45.73
  C 14.83 45.39 15.03 45.27 15.36 45.36
  C 21.46 47.15 24.24 52.01 28.78 55.38
  C 29.26 55.74 29.50 55.62 29.50 55.02
  L 29.50 54.60
  C 29.50 54.27 29.63 53.99 29.88 53.76
  C 33.53 50.52 39.10 44.87 41.11 46.26
  C 41.36 46.43 41.36 46.61 41.10 46.78
  C 37.28 49.22 33.93 52.21 31.05 55.74
  C 30.58 56.31 30.53 56.92 30.90 57.56
  L 32.92 61.08
  C 33.13 61.45 33.05 61.74 32.66 61.94
  C 31.27 62.65 30.26 60.21 29.93 59.25
  C 29.80 58.88 29.54 58.74 29.15 58.85
  L 27.51 59.32
  C 26.77 59.53 26.75 59.79 27.45 60.10
  C 28.58 60.59 29.19 61.45 29.28 62.67
  C 29.32 63.20 28.72 63.53 28.30 63.21
  L 26.24 61.69
  C 25.94 61.46 25.67 61.49 25.42 61.78
  C 24.03 63.35 22.40 64.62 20.52 65.58
  C 20.20 65.75 19.97 65.99 19.82 66.32
  C 18.25 69.83 18.98 70.25 15.39 72.37
  C 14.32 73.00 12.47 74.54 9.84 76.98
  C 7.00 79.60 5.83 83.54 4.02 86.94
  C 2.06 90.62 2.98 98.76 3.01 103.05
  C 3.02 103.52 3.18 103.59 3.50 103.24
  L 5.77 100.78
  C 6.05 100.48 6.05 100.19 5.76 99.90
  C 5.04 99.18 4.87 98.39 5.26 97.52
  C 5.43 97.15 5.68 97.09 5.99 97.35
  L 8.32 99.26
  C 8.58 99.47 8.62 99.72 8.43 99.99
  L 4.45 105.97
  C 4.18 106.38 4.22 106.77 4.57 107.12
  L 6.38 108.93
  C 6.73 109.29 7.06 109.27 7.37 108.87
  C 13.16 101.38 19.59 97.45 28.33 93.60
  C 30.69 92.56 33.22 90.21 35.50 89.49
  C 42.95 87.12 50.05 89.16 57.98 87.79
  C 63.95 86.76 69.03 89.59 74.84 91.23
  C 79.36 92.50 81.98 95.66 85.57 98.08
  C 91.29 101.95 94.85 105.52 98.39 110.87
  C 98.56 111.14 98.81 111.29 99.13 111.34
  C 100.91 111.59 102.40 111.12 103.59 109.92
  C 103.82 109.68 104.06 109.68 104.29 109.92
  L 104.54 110.17
  C 104.77 110.40 105.03 110.43 105.31 110.26
  C 113.16 105.34 109.93 98.69 108.54 91.44
  C 107.86 87.87 106.58 84.52 104.71 81.41
  C 104.54 81.14 104.30 81.00 103.98 81.00
  L 99.68 81.00
  C 99.27 81.00 99.01 80.80 98.89 80.41
  L 98.73 79.93
  C 98.54 79.32 98.77 79.02 99.40 79.02
  L 103.00 78.99
  C 103.31 78.99 103.48 78.83 103.51 78.52
  C 103.62 76.75 103.04 75.29 101.75 74.14
  C 101.59 74.00 101.51 73.82 101.50 73.60
  C 101.50 73.46 101.50 73.32 101.50 73.18
  C 101.50 72.88 101.36 72.76 101.07 72.83
  L 97.85 73.61
  C 97.44 73.71 97.24 73.55 97.25 73.13
  Z
  M 15.29 69.76
  C 17.50 68.09 17.45 67.10 18.34 64.65
  C 18.45 64.32 18.68 64.11 19.01 64.01
  C 20.70 63.48 22.19 62.64 23.49 61.51
  C 23.92 61.14 23.89 60.82 23.38 60.56
  L 3.55 50.39
  C 3.32 50.27 3.04 50.44 3.04 50.70
  L 2.89 83.03
  C 2.89 83.51 3.55 83.66 3.75 83.22
  C 6.77 76.61 9.62 74.05 15.29 69.76
  Z
  M 110.60 77.01
  C 110.94 74.92 110.94 72.76 110.60 70.55
  C 110.54 70.17 110.32 70.03 109.95 70.14
  L 103.84 71.90
  C 103.49 72.00 103.39 72.22 103.53 72.55
  L 105.89 78.17
  C 106.00 78.43 106.19 78.56 106.48 78.57
  L 110.19 78.70
  C 110.47 78.71 110.64 78.58 110.71 78.31
  C 110.75 78.17 110.76 78.04 110.74 77.92
  C 110.64 77.36 110.59 77.06 110.60 77.01
  Z
  M 107.58 80.19
  C 107.17 80.15 106.87 80.55 107.02 80.93
  L 110.46 89.74
  C 110.65 90.23 110.75 90.21 110.75 89.69
  L 110.75 81.01
  C 110.75 80.68 110.59 80.50 110.26 80.47
  L 107.58 80.19
  Z
  M 9.80 108.89
  C 9.38 109.16 9.02 109.53 8.72 109.99
  C 8.45 110.42 8.56 110.68 9.06 110.76
  L 12.98 111.41
  C 13.34 111.46 13.64 111.35 13.87 111.08
  C 19.94 104.00 24.49 102.27 30.59 110.89
  C 30.76 111.13 30.99 111.25 31.29 111.25
  L 43.48 111.25
  C 43.79 111.25 43.98 111.10 44.07 110.81
  C 45.19 106.93 53.69 103.79 57.43 105.86
  C 59.12 106.80 59.78 109.17 60.85 110.84
  C 61.03 111.12 61.29 111.26 61.62 111.26
  L 95.30 111.26
  C 95.82 111.26 96.11 110.66 95.78 110.25
  C 91.99 105.53 88.87 102.55 83.35 99.04
  C 79.94 96.87 77.34 94.44 73.35 93.14
  C 71.32 92.47 69.34 91.71 67.39 90.84
  C 64.69 89.64 62.18 89.70 59.34 89.57
  C 56.36 89.44 53.55 90.83 50.23 90.28
  C 45.09 89.44 37.47 89.89 33.03 92.93
  C 25.68 97.99 15.52 100.50 10.48 108.22
  C 10.30 108.49 10.07 108.72 9.80 108.89
  Z
  M 16.84 110.40
  C 16.48 110.67 16.67 111.25 17.13 111.25
  L 27.81 111.27
  C 28.26 111.27 28.45 110.69 28.09 110.42
  L 22.76 106.38
  C 22.59 106.25 22.36 106.25 22.19 106.38
  L 16.84 110.40
  Z
  M 58.40 110.79
  C 57.74 105.08 49.30 108.09 46.41 110.04
  C 45.87 110.41 46.13 111.25 46.78 111.25
  L 57.99 111.25
  C 58.30 111.25 58.43 111.10 58.40 110.79
  Z"
/>
<path fill="#f6f6f6" d="
  M 97.85 73.61
  L 101.07 72.83
  C 101.36 72.76 101.50 72.88 101.50 73.18
  C 101.50 73.32 101.50 73.46 101.50 73.60
  C 101.51 73.82 101.59 74.00 101.75 74.14
  C 103.04 75.29 103.62 76.75 103.51 78.52
  C 103.48 78.83 103.31 78.99 103.00 78.99
  L 99.40 79.02
  C 98.77 79.02 98.54 79.32 98.73 79.93
  L 98.89 80.41
  C 99.01 80.80 99.27 81.00 99.68 81.00
  L 103.98 81.00
  C 104.30 81.00 104.54 81.14 104.71 81.41
  C 106.58 84.52 107.86 87.87 108.54 91.44
  C 109.93 98.69 113.16 105.34 105.31 110.26
  C 105.03 110.43 104.77 110.40 104.54 110.17
  L 104.29 109.92
  C 104.06 109.68 103.82 109.68 103.59 109.92
  C 102.40 111.12 100.91 111.59 99.13 111.34
  C 98.81 111.29 98.56 111.14 98.39 110.87
  C 94.85 105.52 91.29 101.95 85.57 98.08
  C 81.98 95.66 79.36 92.50 74.84 91.23
  C 69.03 89.59 63.95 86.76 57.98 87.79
  C 50.05 89.16 42.95 87.12 35.50 89.49
  C 33.22 90.21 30.69 92.56 28.33 93.60
  C 19.59 97.45 13.16 101.38 7.37 108.87
  C 7.06 109.27 6.73 109.29 6.38 108.93
  L 4.57 107.12
  C 4.22 106.77 4.18 106.38 4.45 105.97
  L 8.43 99.99
  C 8.62 99.72 8.58 99.47 8.32 99.26
  L 5.99 97.35
  C 5.68 97.09 5.43 97.15 5.26 97.52
  C 4.87 98.39 5.04 99.18 5.76 99.90
  C 6.05 100.19 6.05 100.48 5.77 100.78
  L 3.50 103.24
  C 3.18 103.59 3.02 103.52 3.01 103.05
  C 2.98 98.76 2.06 90.62 4.02 86.94
  C 5.83 83.54 7.00 79.60 9.84 76.98
  C 12.47 74.54 14.32 73.00 15.39 72.37
  C 18.98 70.25 18.25 69.83 19.82 66.32
  C 19.97 65.99 20.20 65.75 20.52 65.58
  C 22.40 64.62 24.03 63.35 25.42 61.78
  C 25.67 61.49 25.94 61.46 26.24 61.69
  L 28.30 63.21
  C 28.72 63.53 29.32 63.20 29.28 62.67
  C 29.19 61.45 28.58 60.59 27.45 60.10
  C 26.75 59.79 26.77 59.53 27.51 59.32
  L 29.15 58.85
  C 29.54 58.74 29.80 58.88 29.93 59.25
  C 30.26 60.21 31.27 62.65 32.66 61.94
  C 33.05 61.74 33.13 61.45 32.92 61.08
  L 30.90 57.56
  C 30.53 56.92 30.58 56.31 31.05 55.74
  C 33.93 52.21 37.28 49.22 41.10 46.78
  C 41.36 46.61 41.36 46.43 41.11 46.26
  C 39.10 44.87 33.53 50.52 29.88 53.76
  C 29.63 53.99 29.50 54.27 29.50 54.60
  L 29.50 55.02
  C 29.50 55.62 29.26 55.74 28.78 55.38
  C 24.24 52.01 21.46 47.15 15.36 45.36
  C 15.03 45.27 14.83 45.39 14.76 45.73
  C 14.55 46.76 19.12 48.61 19.98 49.44
  C 22.57 51.95 25.21 54.41 27.90 56.82
  C 28.18 57.07 28.18 57.31 27.90 57.56
  C 25.97 59.27 23.91 59.35 21.72 57.82
  C 17.95 55.19 13.57 53.93 9.99 51.73
  C 7.84 50.41 5.63 49.18 3.37 48.05
  C 3.06 47.90 2.91 47.64 2.90 47.29
  C 2.77 36.78 2.82 26.28 3.03 15.79
  C 3.19 7.84 5.93 3.77 14.05 3.76
  C 41.75 3.74 69.45 3.74 97.14 3.76
  C 105.51 3.76 110.41 5.98 110.47 14.86
  C 110.58 32.46 110.65 50.05 110.69 67.63
  C 110.69 67.98 110.52 68.16 110.17 68.19
  C 107.72 68.40 105.51 69.24 103.54 70.71
  C 103.13 71.02 102.85 70.93 102.72 70.43
  C 101.98 67.63 97.66 53.81 93.92 54.70
  C 93.41 54.82 93.33 55.07 93.70 55.44
  C 94.87 56.66 95.77 58.02 96.39 59.52
  C 98.04 63.53 99.40 65.89 100.79 69.22
  C 101.19 70.19 100.66 71.29 99.65 71.57
  L 97.65 72.13
  C 97.34 72.22 97.20 72.42 97.24 72.75
  C 97.25 72.88 97.26 73.01 97.25 73.13
  C 97.24 73.55 97.44 73.71 97.85 73.61
  Z
  M 30.61 19.33
  C 32.58 16.89 35.09 15.48 38.16 15.09
  C 38.61 15.03 38.81 14.77 38.75 14.32
  L 38.43 12.01
  C 38.38 11.62 38.15 11.45 37.75 11.50
  L 30.03 12.61
  C 29.62 12.67 29.53 12.53 29.76 12.18
  L 30.21 11.50
  C 30.44 11.15 30.38 10.85 30.03 10.62
  C 27.56 8.98 24.98 7.23 22.40 9.76
  C 22.09 10.06 22.11 10.33 22.46 10.58
  L 25.33 12.56
  C 25.92 12.97 25.85 13.18 25.14 13.20
  C 23.48 13.24 14.25 12.38 16.15 16.20
  C 16.28 16.45 16.49 16.57 16.77 16.55
  L 27.44 15.85
  C 28.05 15.81 28.17 16.03 27.80 16.52
  C 26.58 18.12 25.23 18.63 23.11 18.24
  C 20.99 17.86 16.50 16.99 16.30 19.64
  C 16.27 19.99 16.43 20.19 16.78 20.25
  L 20.29 20.83
  C 20.96 20.94 20.99 21.15 20.38 21.45
  L 14.23 24.48
  C 13.89 24.65 13.80 24.91 13.96 25.26
  C 14.83 27.17 16.23 28.04 18.15 27.85
  C 18.59 27.80 18.75 28.00 18.64 28.43
  L 15.81 38.81
  C 15.68 39.27 15.85 39.56 16.31 39.67
  L 19.87 40.52
  C 20.24 40.61 20.46 40.47 20.53 40.08
  L 21.28 35.58
  C 21.35 35.19 21.58 34.97 21.97 34.93
  L 29.69 34.19
  C 30.06 34.16 30.25 34.33 30.25 34.70
  L 30.25 39.79
  C 30.25 40.18 30.44 40.40 30.82 40.47
  C 31.41 40.58 32.02 40.57 32.64 40.44
  C 32.97 40.37 33.29 40.39 33.61 40.49
  C 34.83 40.86 35.09 40.12 35.01 39.05
  C 34.71 34.74 34.54 30.39 34.49 26.01
  C 34.48 25.62 34.67 25.48 35.05 25.60
  C 37.10 26.25 38.53 25.45 39.34 23.21
  C 39.50 22.77 39.36 22.48 38.91 22.34
  L 30.75 19.79
  C 30.48 19.70 30.43 19.55 30.61 19.33
  Z
  M 15.97 11.67
  C 13.50 10.32 10.56 7.83 8.63 11.44
  C 8.49 11.71 8.55 11.93 8.80 12.10
  L 12.63 14.61
  C 12.97 14.84 13.33 14.87 13.71 14.71
  C 14.77 14.28 15.60 13.55 16.20 12.52
  C 16.41 12.16 16.34 11.88 15.97 11.67
  Z
  M 56.05 42.74
  C 57.48 42.58 58.12 41.84 57.97 40.53
  C 57.94 40.22 57.99 39.92 58.14 39.64
  C 61.31 33.80 60.88 29.01 60.69 22.28
  C 60.60 19.13 60.29 12.66 56.18 12.10
  C 53.33 11.70 51.10 12.77 49.51 15.32
  C 46.60 19.97 37.86 36.96 41.31 41.76
  C 41.51 42.04 41.58 42.35 41.51 42.68
  C 41.30 43.87 41.88 44.47 43.27 44.47
  C 44.48 44.47 44.91 43.89 44.56 42.73
  C 44.32 41.92 43.81 41.35 43.04 41.02
  C 42.03 40.58 41.47 39.49 41.69 38.42
  C 43.27 30.81 47.69 18.78 53.91 13.81
  C 54.16 13.61 54.45 13.50 54.78 13.49
  C 59.24 13.35 58.81 25.21 59.09 28.49
  C 59.42 32.28 58.19 35.59 55.39 38.41
  C 55.17 38.63 55.07 38.89 55.10 39.19
  L 55.43 43.26
  C 55.46 43.65 55.53 43.65 55.66 43.28
  C 55.69 43.18 55.73 43.08 55.76 42.98
  C 55.81 42.83 55.90 42.75 56.05 42.74
  Z
  M 13.97 20.05
  C 12.09 19.06 7.55 16.42 7.02 20.47
  C 6.97 20.86 7.12 21.15 7.45 21.36
  L 11.30 23.67
  C 11.65 23.89 11.97 23.85 12.26 23.54
  L 14.20 21.45
  C 14.73 20.88 14.66 20.42 13.97 20.05
  Z
  M 94.81 48.83
  C 95.88 48.33 96.56 47.84 96.93 46.62
  C 99.62 37.67 101.41 29.12 95.81 21.14
  C 94.54 19.34 93.56 18.87 91.50 19.73
  C 83.64 22.97 80.53 33.36 80.82 41.08
  C 80.83 41.42 80.71 41.70 80.46 41.92
  C 79.21 42.97 78.99 44.23 79.81 45.69
  C 80.15 46.29 79.47 46.95 78.88 46.60
  C 72.10 42.53 64.95 41.62 57.44 43.85
  C 56.67 44.08 56.42 44.00 55.68 43.87
  C 55.31 43.81 55.04 43.94 54.87 44.26
  C 54.59 44.79 54.71 45.23 55.23 45.58
  C 55.54 45.79 55.88 45.86 56.25 45.81
  C 59.09 45.36 61.66 44.16 64.37 44.24
  C 70.29 44.43 75.74 46.20 80.71 49.56
  C 81.39 50.02 82.23 49.27 81.86 48.54
  C 80.56 45.99 81.03 43.87 83.28 42.19
  C 83.53 42.00 83.60 41.77 83.47 41.48
  C 81.53 37.21 85.66 27.73 87.90 23.90
  C 88.89 22.22 90.62 21.28 93.09 21.09
  C 93.41 21.07 93.66 21.19 93.85 21.45
  C 99.43 29.33 96.89 37.56 95.39 46.27
  C 95.32 46.66 95.10 46.89 94.71 46.97
  C 94.24 47.06 93.81 47.32 93.43 47.74
  C 93.20 47.99 93.14 48.27 93.24 48.60
  L 93.38 49.03
  C 93.45 49.27 93.39 49.46 93.20 49.61
  L 92.33 50.31
  C 91.70 50.80 91.77 51.13 92.56 51.28
  L 95.19 51.81
  C 95.76 51.92 95.91 51.72 95.63 51.21
  L 94.63 49.39
  C 94.49 49.14 94.55 48.95 94.81 48.83
  Z
  M 7.35 35.13
  C 6.41 37.49 7.19 39.20 9.68 40.27
  C 9.94 40.38 10.12 40.31 10.23 40.05
  C 11.67 36.45 16.32 26.84 11.24 26.57
  C 10.92 26.55 10.69 26.69 10.55 26.98
  C 9.31 29.64 8.43 32.42 7.35 35.13
  Z
  M 49.38 54.62
  C 44.63 48.25 32.06 53.17 33.86 59.52
  C 35.79 66.33 40.05 68.74 46.63 66.77
  C 52.39 65.04 52.31 58.54 49.38 54.62
  Z
  M 92.38 60.82
  C 87.70 56.48 81.05 59.65 79.69 65.38
  C 77.66 73.97 90.18 77.26 94.60 70.84
  C 96.82 67.60 95.07 63.31 92.38 60.82
  Z
  M 70.41 61.91
  C 67.30 59.93 64.03 59.64 60.60 61.05
  C 59.90 61.33 59.91 61.58 60.64 61.79
  C 62.85 62.43 64.34 63.82 65.10 65.96
  C 65.29 66.50 65.58 66.56 65.97 66.14
  C 67.11 64.89 68.52 64.02 70.19 63.51
  C 70.92 63.29 71.05 62.32 70.41 61.91
  Z
  M 95.96 81.04
  C 93.72 79.49 92.40 79.36 90.04 78.84
  C 81.08 76.87 71.94 73.87 63.12 73.06
  C 52.67 72.11 42.19 71.84 31.67 72.26
  C 31.22 72.28 31.00 72.51 31.00 72.96
  L 31.00 75.02
  C 31.00 75.42 31.18 75.71 31.54 75.88
  C 38.73 79.40 46.67 82.67 54.75 83.69
  C 66.10 85.12 89.89 88.36 96.08 82.78
  C 96.61 82.30 96.55 81.45 95.96 81.04
  Z"
/>
<path fill="#222121" d="
  M 30.75 19.79
  L 38.91 22.34
  C 39.36 22.48 39.50 22.77 39.34 23.21
  C 38.53 25.45 37.10 26.25 35.05 25.60
  C 34.67 25.48 34.48 25.62 34.49 26.01
  C 34.54 30.39 34.71 34.74 35.01 39.05
  C 35.09 40.12 34.83 40.86 33.61 40.49
  C 33.29 40.39 32.97 40.37 32.64 40.44
  C 32.02 40.57 31.41 40.58 30.82 40.47
  C 30.44 40.40 30.25 40.18 30.25 39.79
  L 30.25 34.70
  C 30.25 34.33 30.06 34.16 29.69 34.19
  L 21.97 34.93
  C 21.58 34.97 21.35 35.19 21.28 35.58
  L 20.53 40.08
  C 20.46 40.47 20.24 40.61 19.87 40.52
  L 16.31 39.67
  C 15.85 39.56 15.68 39.27 15.81 38.81
  L 18.64 28.43
  C 18.75 28.00 18.59 27.80 18.15 27.85
  C 16.23 28.04 14.83 27.17 13.96 25.26
  C 13.80 24.91 13.89 24.65 14.23 24.48
  L 20.38 21.45
  C 20.99 21.15 20.96 20.94 20.29 20.83
  L 16.78 20.25
  C 16.43 20.19 16.27 19.99 16.30 19.64
  C 16.50 16.99 20.99 17.86 23.11 18.24
  C 25.23 18.63 26.58 18.12 27.80 16.52
  C 28.17 16.03 28.05 15.81 27.44 15.85
  L 16.77 16.55
  C 16.49 16.57 16.28 16.45 16.15 16.20
  C 14.25 12.38 23.48 13.24 25.14 13.20
  C 25.85 13.18 25.92 12.97 25.33 12.56
  L 22.46 10.58
  C 22.11 10.33 22.09 10.06 22.40 9.76
  C 24.98 7.23 27.56 8.98 30.03 10.62
  C 30.38 10.85 30.44 11.15 30.21 11.50
  L 29.76 12.18
  C 29.53 12.53 29.62 12.67 30.03 12.61
  L 37.75 11.50
  C 38.15 11.45 38.38 11.62 38.43 12.01
  L 38.75 14.32
  C 38.81 14.77 38.61 15.03 38.16 15.09
  C 35.09 15.48 32.58 16.89 30.61 19.33
  C 30.43 19.55 30.48 19.70 30.75 19.79
  Z
  M 29.40 23.36
  C 26.50 21.96 24.30 22.70 22.81 25.58
  C 22.59 26.01 22.72 26.21 23.20 26.18
  C 23.83 26.14 31.35 26.24 30.45 24.63
  C 30.08 23.97 29.70 23.50 29.40 23.36
  Z
  M 30.1322 29.6031
  C 30.08 29.11 29.63 28.75 29.1403 28.8056
  L 23.0362 29.4687
  C 22.54 29.52 22.18 29.97 22.2387 30.4606
  L 22.3078 31.0969
  C 22.36 31.59 22.81 31.95 23.2997 31.8944
  L 29.4038 31.2313
  C 29.90 31.18 30.26 30.73 30.2013 30.2394
  L 30.1322 29.6031
  Z"
/>
<path fill="#222121" d="
  M 8.63 11.44
  C 10.56 7.83 13.50 10.32 15.97 11.67
  C 16.34 11.88 16.41 12.16 16.20 12.52
  C 15.60 13.55 14.77 14.28 13.71 14.71
  C 13.33 14.87 12.97 14.84 12.63 14.61
  L 8.80 12.10
  C 8.55 11.93 8.49 11.71 8.63 11.44
  Z"
/>
<path fill="#161416" d="
  M 55.76 42.98
  C 55.73 43.08 55.69 43.18 55.66 43.28
  C 55.53 43.65 55.46 43.65 55.43 43.26
  L 55.10 39.19
  C 55.07 38.89 55.17 38.63 55.39 38.41
  C 58.19 35.59 59.42 32.28 59.09 28.49
  C 58.81 25.21 59.24 13.35 54.78 13.49
  C 54.45 13.50 54.16 13.61 53.91 13.81
  C 47.69 18.78 43.27 30.81 41.69 38.42
  C 41.47 39.49 42.03 40.58 43.04 41.02
  C 43.81 41.35 44.32 41.92 44.56 42.73
  C 44.91 43.89 44.48 44.47 43.27 44.47
  C 41.88 44.47 41.30 43.87 41.51 42.68
  C 41.58 42.35 41.51 42.04 41.31 41.76
  C 37.86 36.96 46.60 19.97 49.51 15.32
  C 51.10 12.77 53.33 11.70 56.18 12.10
  C 60.29 12.66 60.60 19.13 60.69 22.28
  C 60.88 29.01 61.31 33.80 58.14 39.64
  C 57.99 39.92 57.94 40.22 57.97 40.53
  C 58.12 41.84 57.48 42.58 56.05 42.74
  C 55.90 42.75 55.81 42.83 55.76 42.98
  Z"
/>
<path fill="#222121" d="
  M 13.97 20.05
  C 14.66 20.42 14.73 20.88 14.20 21.45
  L 12.26 23.54
  C 11.97 23.85 11.65 23.89 11.30 23.67
  L 7.45 21.36
  C 7.12 21.15 6.97 20.86 7.02 20.47
  C 7.55 16.42 12.09 19.06 13.97 20.05
  Z"
/>
<path fill="#161416" d="
  M 94.63 49.39
  L 95.63 51.21
  C 95.91 51.72 95.76 51.92 95.19 51.81
  L 92.56 51.28
  C 91.77 51.13 91.70 50.80 92.33 50.31
  L 93.20 49.61
  C 93.39 49.46 93.45 49.27 93.38 49.03
  L 93.24 48.60
  C 93.14 48.27 93.20 47.99 93.43 47.74
  C 93.81 47.32 94.24 47.06 94.71 46.97
  C 95.10 46.89 95.32 46.66 95.39 46.27
  C 96.89 37.56 99.43 29.33 93.85 21.45
  C 93.66 21.19 93.41 21.07 93.09 21.09
  C 90.62 21.28 88.89 22.22 87.90 23.90
  C 85.66 27.73 81.53 37.21 83.47 41.48
  C 83.60 41.77 83.53 42.00 83.28 42.19
  C 81.03 43.87 80.56 45.99 81.86 48.54
  C 82.23 49.27 81.39 50.02 80.71 49.56
  C 75.74 46.20 70.29 44.43 64.37 44.24
  C 61.66 44.16 59.09 45.36 56.25 45.81
  C 55.88 45.86 55.54 45.79 55.23 45.58
  C 54.71 45.23 54.59 44.79 54.87 44.26
  C 55.04 43.94 55.31 43.81 55.68 43.87
  C 56.42 44.00 56.67 44.08 57.44 43.85
  C 64.95 41.62 72.10 42.53 78.88 46.60
  C 79.47 46.95 80.15 46.29 79.81 45.69
  C 78.99 44.23 79.21 42.97 80.46 41.92
  C 80.71 41.70 80.83 41.42 80.82 41.08
  C 80.53 33.36 83.64 22.97 91.50 19.73
  C 93.56 18.87 94.54 19.34 95.81 21.14
  C 101.41 29.12 99.62 37.67 96.93 46.62
  C 96.56 47.84 95.88 48.33 94.81 48.83
  C 94.55 48.95 94.49 49.14 94.63 49.39
  Z"
/>
<path fill="#f6f6f6" d="
  M 29.40 23.36
  C 29.70 23.50 30.08 23.97 30.45 24.63
  C 31.35 26.24 23.83 26.14 23.20 26.18
  C 22.72 26.21 22.59 26.01 22.81 25.58
  C 24.30 22.70 26.50 21.96 29.40 23.36
  Z"
/>
<path fill="#222121" d="
  M 7.35 35.13
  C 8.43 32.42 9.31 29.64 10.55 26.98
  C 10.69 26.69 10.92 26.55 11.24 26.57
  C 16.32 26.84 11.67 36.45 10.23 40.05
  C 10.12 40.31 9.94 40.38 9.68 40.27
  C 7.19 39.20 6.41 37.49 7.35 35.13
  Z"
/>
<rect fill="#f6f6f6" x="-3.97" y="-1.22" transform="translate(26.22,30.35) rotate(-6.2)" width="7.94" height="2.44" rx="0.90"/>
<path fill="#222121" d="
  M 113.00 39.56
  L 113.00 46.81
  C 112.93 46.79 112.86 46.77 112.79 46.75
  L 113.00 39.56
  Z"
/>
<path fill="#f6f6f6" d="
  M 112.79 46.75
  C 112.86 46.77 112.93 46.79 113.00 46.81
  L 113.00 76.06
  L 112.79 46.75
  Z"
/>
<path fill="#f6f6f6" d="
  M 15.29 69.76
  C 9.62 74.05 6.77 76.61 3.75 83.22
  C 3.55 83.66 2.89 83.51 2.89 83.03
  L 3.04 50.70
  C 3.04 50.44 3.32 50.27 3.55 50.39
  L 23.38 60.56
  C 23.89 60.82 23.92 61.14 23.49 61.51
  C 22.19 62.64 20.70 63.48 19.01 64.01
  C 18.68 64.11 18.45 64.32 18.34 64.65
  C 17.45 67.10 17.50 68.09 15.29 69.76
  Z"
/>
<path fill="#161416" d="
  M 49.38 54.62
  C 52.31 58.54 52.39 65.04 46.63 66.77
  C 40.05 68.74 35.79 66.33 33.86 59.52
  C 32.06 53.17 44.63 48.25 49.38 54.62
  Z
  M 49.7626 61.1154
  C 50.56 57.84 48.14 54.44 44.3567 53.5213
  C 40.58 52.61 36.87 54.52 36.0774 57.8046
  C 35.28 61.08 37.70 64.48 41.4833 65.3987
  C 45.26 66.31 48.97 64.40 49.7626 61.1154
  Z"
/>
<path fill="#f6f6f6" d="
  M 49.7626 61.1154
  C 48.97 64.40 45.26 66.31 41.4833 65.3987
  C 37.70 64.48 35.28 61.08 36.0774 57.8046
  C 36.87 54.52 40.58 52.61 44.3567 53.5213
  C 48.14 54.44 50.56 57.84 49.7626 61.1154
  Z
  M 45.68 59.01
  C 45.68 57.39 44.36 56.07 42.74 56.07
  C 41.12 56.07 39.80 57.39 39.80 59.01
  C 39.80 60.63 41.12 61.95 42.74 61.95
  C 44.36 61.95 45.68 60.63 45.68 59.01
  Z"
/>
<circle fill="#222121" cx="42.74" cy="59.01" r="2.94"/>
<path fill="#161416" d="
  M 92.38 60.82
  C 95.07 63.31 96.82 67.60 94.60 70.84
  C 90.18 77.26 77.66 73.97 79.69 65.38
  C 81.05 59.65 87.70 56.48 92.38 60.82
  Z
  M 93.2582 69.4726
  C 94.62 66.49 93.16 62.91 89.9985 61.4582
  C 86.83 60.01 83.17 61.25 81.8018 64.2274
  C 80.44 67.21 81.90 70.79 85.0615 72.2418
  C 88.23 73.69 91.89 72.45 93.2582 69.4726
  Z"
/>
<path fill="#161416" d="
  M 70.41 61.91
  C 71.05 62.32 70.92 63.29 70.19 63.51
  C 68.52 64.02 67.11 64.89 65.97 66.14
  C 65.58 66.56 65.29 66.50 65.10 65.96
  C 64.34 63.82 62.85 62.43 60.64 61.79
  C 59.91 61.58 59.90 61.33 60.60 61.05
  C 64.03 59.64 67.30 59.93 70.41 61.91
  Z"
/>
<path fill="#f6f6f6" d="
  M 93.2582 69.4726
  C 91.89 72.45 88.23 73.69 85.0615 72.2418
  C 81.90 70.79 80.44 67.21 81.8018 64.2274
  C 83.17 61.25 86.83 60.01 89.9985 61.4582
  C 93.16 62.91 94.62 66.49 93.2582 69.4726
  Z
  M 89.12 69.71
  C 93.27 67.62 90.73 62.75 86.34 64.27
  C 86.04 64.37 85.82 64.56 85.69 64.85
  C 84.65 67.08 86.15 71.21 89.12 69.71
  Z"
/>
<path fill="#222121" d="
  M 86.34 64.27
  C 90.73 62.75 93.27 67.62 89.12 69.71
  C 86.15 71.21 84.65 67.08 85.69 64.85
  C 85.82 64.56 86.04 64.37 86.34 64.27
  Z"
/>
<path fill="#f6f6f6" d="
  M 110.74 77.92
  C 110.76 78.04 110.75 78.17 110.71 78.31
  C 110.64 78.58 110.47 78.71 110.19 78.70
  L 106.48 78.57
  C 106.19 78.56 106.00 78.43 105.89 78.17
  L 103.53 72.55
  C 103.39 72.22 103.49 72.00 103.84 71.90
  L 109.95 70.14
  C 110.32 70.03 110.54 70.17 110.60 70.55
  C 110.94 72.76 110.94 74.92 110.60 77.01
  C 110.59 77.06 110.64 77.36 110.74 77.92
  Z"
/>
<path fill="#161416" d="
  M 95.96 81.04
  C 96.55 81.45 96.61 82.30 96.08 82.78
  C 89.89 88.36 66.10 85.12 54.75 83.69
  C 46.67 82.67 38.73 79.40 31.54 75.88
  C 31.18 75.71 31.00 75.42 31.00 75.02
  L 31.00 72.96
  C 31.00 72.51 31.22 72.28 31.67 72.26
  C 42.19 71.84 52.67 72.11 63.12 73.06
  C 71.94 73.87 81.08 76.87 90.04 78.84
  C 92.40 79.36 93.72 79.49 95.96 81.04
  Z
  M 44.38 74.02
  C 40.92 73.92 37.86 73.55 34.39 74.28
  C 34.01 74.37 33.97 74.53 34.28 74.76
  C 36.92 76.75 39.87 78.04 43.12 78.64
  C 43.51 78.71 43.76 78.56 43.86 78.17
  L 44.82 74.61
  C 44.92 74.23 44.77 74.03 44.38 74.02
  Z
  M 45.80 79.66
  C 50.55 81.25 55.44 82.11 60.46 82.26
  C 60.78 82.27 60.98 82.12 61.05 81.81
  L 62.69 75.43
  C 62.80 75.02 62.64 74.79 62.23 74.72
  C 57.16 73.90 52.06 73.80 46.94 74.42
  C 46.67 74.45 46.51 74.60 46.45 74.85
  L 45.40 78.91
  C 45.30 79.28 45.43 79.53 45.80 79.66
  Z
  M 92.28 81.29
  L 82.59 79.01
  C 82.32 78.94 82.17 79.05 82.12 79.32
  L 81.61 82.15
  C 81.54 82.50 81.35 82.75 81.02 82.89
  C 78.90 83.80 79.94 79.91 80.12 79.12
  C 80.21 78.73 80.06 78.48 79.67 78.39
  L 65.99 75.08
  C 65.64 75.00 65.37 75.11 65.18 75.40
  C 63.87 77.40 63.31 79.58 63.52 81.95
  C 63.55 82.33 63.75 82.54 64.13 82.59
  C 68.34 83.13 90.09 84.92 92.61 82.54
  C 93.04 82.14 92.85 81.42 92.28 81.29
  Z"
/>
<path fill="#f6f6f6" d="
  M 34.39 74.28
  C 37.86 73.55 40.92 73.92 44.38 74.02
  C 44.77 74.03 44.92 74.23 44.82 74.61
  L 43.86 78.17
  C 43.76 78.56 43.51 78.71 43.12 78.64
  C 39.87 78.04 36.92 76.75 34.28 74.76
  C 33.97 74.53 34.01 74.37 34.39 74.28
  Z"
/>
<path fill="#f6f6f6" d="
  M 45.80 79.66
  C 45.43 79.53 45.30 79.28 45.40 78.91
  L 46.45 74.85
  C 46.51 74.60 46.67 74.45 46.94 74.42
  C 52.06 73.80 57.16 73.90 62.23 74.72
  C 62.64 74.79 62.80 75.02 62.69 75.43
  L 61.05 81.81
  C 60.98 82.12 60.78 82.27 60.46 82.26
  C 55.44 82.11 50.55 81.25 45.80 79.66
  Z"
/>
<path fill="#f6f6f6" d="
  M 92.28 81.29
  C 92.85 81.42 93.04 82.14 92.61 82.54
  C 90.09 84.92 68.34 83.13 64.13 82.59
  C 63.75 82.54 63.55 82.33 63.52 81.95
  C 63.31 79.58 63.87 77.40 65.18 75.40
  C 65.37 75.11 65.64 75.00 65.99 75.08
  L 79.67 78.39
  C 80.06 78.48 80.21 78.73 80.12 79.12
  C 79.94 79.91 78.90 83.80 81.02 82.89
  C 81.35 82.75 81.54 82.50 81.61 82.15
  L 82.12 79.32
  C 82.17 79.05 82.32 78.94 82.59 79.01
  L 92.28 81.29
  Z"
/>
<path fill="#f6f6f6" d="
  M 107.58 80.19
  L 110.26 80.47
  C 110.59 80.50 110.75 80.68 110.75 81.01
  L 110.75 89.69
  C 110.75 90.21 110.65 90.23 110.46 89.74
  L 107.02 80.93
  C 106.87 80.55 107.17 80.15 107.58 80.19
  Z"
/>
<path fill="#f6f6f6" d="
  M 10.48 108.22
  C 15.52 100.50 25.68 97.99 33.03 92.93
  C 37.47 89.89 45.09 89.44 50.23 90.28
  C 53.55 90.83 56.36 89.44 59.34 89.57
  C 62.18 89.70 64.69 89.64 67.39 90.84
  C 69.34 91.71 71.32 92.47 73.35 93.14
  C 77.34 94.44 79.94 96.87 83.35 99.04
  C 88.87 102.55 91.99 105.53 95.78 110.25
  C 96.11 110.66 95.82 111.26 95.30 111.26
  L 61.62 111.26
  C 61.29 111.26 61.03 111.12 60.85 110.84
  C 59.78 109.17 59.12 106.80 57.43 105.86
  C 53.69 103.79 45.19 106.93 44.07 110.81
  C 43.98 111.10 43.79 111.25 43.48 111.25
  L 31.29 111.25
  C 30.99 111.25 30.76 111.13 30.59 110.89
  C 24.49 102.27 19.94 104.00 13.87 111.08
  C 13.64 111.35 13.34 111.46 12.98 111.41
  L 9.06 110.76
  C 8.56 110.68 8.45 110.42 8.72 109.99
  C 9.02 109.53 9.38 109.16 9.80 108.89
  C 10.07 108.72 10.30 108.49 10.48 108.22
  Z"
/>
<path fill="#f6f6f6" d="
  M 113.00 91.56
  L 113.00 97.31
  C 112.58 95.40 112.58 93.48 113.00 91.56
  Z"
/>
<path fill="#f6f6f6" d="
  M 16.84 110.40
  L 22.19 106.38
  C 22.36 106.25 22.59 106.25 22.76 106.38
  L 28.09 110.42
  C 28.45 110.69 28.26 111.27 27.81 111.27
  L 17.13 111.25
  C 16.67 111.25 16.48 110.67 16.84 110.40
  Z"
/>
<path fill="#f6f6f6" d="
  M 46.41 110.04
  C 49.30 108.09 57.74 105.08 58.40 110.79
  C 58.43 111.10 58.30 111.25 57.99 111.25
  L 46.78 111.25
  C 46.13 111.25 45.87 110.41 46.41 110.04
  Z"
/>
</svg>
