<?xml version="1.0" encoding="UTF-8" standalone="no"?>
<!DOCTYPE svg PUBLIC "-//W3C//DTD SVG 1.1//EN" "http://www.w3.org/Graphics/SVG/1.1/DTD/svg11.dtd">
<svg xmlns="http://www.w3.org/2000/svg" version="1.1" viewBox="0 0 102 122">
<g stroke-width="2.00" fill="none" stroke-linecap="butt">
<path stroke="#7c7c7c" vector-effect="non-scaling-stroke" d="
  M 36.67 4.42
  C 39.23 6.94 42.35 23.82 39.87 27.13
  C 39.69 27.38 39.68 27.63 39.83 27.90
  C 41.26 30.41 42.76 24.54 42.67 23.50
  C 42.37 20.08 41.04 3.68 37.20 2.81
  C 33.45 1.97 30.65 6.98 29.54 9.77
  C 27.33 15.35 24.16 22.97 25.73 29.02
  C 25.85 29.49 26.31 29.78 26.78 29.69
  C 27.31 29.58 27.51 29.20 27.38 28.53
  C 26.04 21.81 30.56 7.91 35.61 4.34
  C 35.98 4.07 36.34 4.10 36.67 4.42"
/>
<path stroke="#7c7c7c" vector-effect="non-scaling-stroke" d="
  M 73.82 8.27
  C 77.46 12.35 77.86 23.94 77.66 28.92
  C 77.58 31.12 76.58 32.77 74.66 33.86
  C 74.39 34.01 74.25 34.25 74.25 34.56
  C 74.25 34.66 74.25 34.76 74.25 34.86
  C 74.25 35.32 74.47 35.49 74.92 35.37
  C 77.81 34.60 79.33 32.71 79.47 29.72
  C 79.72 24.54 78.79 11.14 75.50 7.50
  C 72.28 3.94 69.50 8.70 68.42 11.43
  C 67.34 14.17 60.96 28.51 64.97 30.21
  C 65.70 30.52 65.98 30.28 65.80 29.51
  L 65.25 27.13
  C 65.18 26.80 65.18 26.48 65.26 26.15
  C 66.06 22.92 69.84 8.94 72.96 8.03
  C 73.30 7.93 73.59 8.01 73.82 8.27"
/>
<path stroke="#7c7c7c" vector-effect="non-scaling-stroke" d="
  M 43.13 30.95
  C 49.04 29.75 54.01 30.86 59.19 33.60
  C 59.79 33.91 60.06 33.73 59.99 33.06
  L 59.91 32.32
  C 59.88 31.97 59.70 31.72 59.39 31.56
  C 56.62 30.20 44.44 26.75 42.62 30.27
  C 42.44 30.62 42.74 31.03 43.13 30.95"
/>
<path stroke="#7c7c7c" vector-effect="non-scaling-stroke" d="
  M 41.36 29.47
  L 39.86 29.19
  C 39.29 29.08 39.00 29.32 39.00 29.91
  L 39.00 30.43
  C 39.00 30.83 39.20 31.02 39.60 31.00
  C 40.43 30.96 41.09 30.64 41.58 30.05
  C 41.83 29.74 41.76 29.54 41.36 29.47"
/>
<path stroke="#7c7c7c" vector-effect="non-scaling-stroke" d="
  M 64.69 31.64
  C 64.35 30.49 63.58 29.93 62.38 29.98
  C 62.05 29.99 61.87 30.17 61.82 30.50
  L 61.51 32.74
  C 61.42 33.37 61.67 33.56 62.26 33.31
  L 64.33 32.42
  C 64.63 32.29 64.79 31.95 64.69 31.64"
/>
<path stroke="#7c7c7c" vector-effect="non-scaling-stroke" d="
  M 27.90 33.14
  L 27.90 31.44
  C 27.90 30.97 27.66 30.73 27.19 30.74
  L 24.63 30.77
  C 24.18 30.78 24.07 30.97 24.30 31.36
  L 25.70 33.72
  C 25.92 34.09 25.86 34.42 25.53 34.69
  C 23.23 36.60 21.30 38.82 19.74 41.35
  C 19.55 41.67 19.29 41.73 18.98 41.52
  C 16.72 40.03 12.11 36.79 11.54 38.48
  C 11.43 38.80 11.54 39.03 11.86 39.16
  C 13.82 39.97 18.93 41.88 18.12 44.54
  C 17.95 45.09 17.60 45.26 17.05 45.07
  L 13.08 43.64
  C 12.66 43.49 12.40 43.64 12.31 44.07
  C 11.99 45.56 14.75 45.57 15.46 46.07
  C 16.48 46.79 16.76 48.12 16.08 49.02
  C 9.59 57.57 6.10 67.22 5.60 77.99
  C 5.59 78.26 5.64 78.53 5.76 78.78
  L 6.94 81.14
  C 7.18 81.63 7.52 81.71 7.95 81.38
  L 8.44 81.01
  C 8.75 80.78 8.83 80.49 8.68 80.14
  C 4.06 69.02 15.07 55.21 19.44 45.51
  C 19.59 45.18 19.82 44.92 20.13 44.75
  C 20.95 44.29 21.33 43.58 21.27 42.62
  C 21.24 42.25 21.33 41.92 21.54 41.61
  C 23.43 38.77 25.89 36.53 28.92 34.90
  C 29.45 34.61 29.46 34.32 28.93 34.01
  L 28.14 33.55
  C 27.98 33.46 27.90 33.33 27.90 33.14"
/>
<path stroke="#7c7c7c" vector-effect="non-scaling-stroke" d="
  M 79.85 50.58
  C 79.34 46.43 77.71 42.82 74.96 39.73
  C 74.70 39.44 74.74 39.20 75.07 39.01
  C 75.91 38.52 76.36 37.76 76.43 36.75
  C 76.45 36.49 76.33 36.35 76.07 36.32
  L 73.93 36.08
  C 73.52 36.04 73.37 36.22 73.47 36.62
  L 73.73 37.60
  C 73.81 37.91 73.70 38.13 73.40 38.24
  L 72.60 38.54
  C 72.08 38.74 72.02 39.03 72.42 39.42
  C 77.89 44.69 76.87 48.83 79.35 55.06
  C 83.02 64.27 84.51 73.88 83.82 83.91
  C 83.79 84.29 83.97 84.49 84.35 84.51
  C 88.82 84.73 82.78 58.82 81.86 55.98
  C 81.73 55.61 81.87 55.39 82.26 55.33
  C 83.13 55.21 86.94 55.64 87.01 54.63
  C 87.05 54.14 86.82 53.91 86.33 53.95
  L 81.81 54.33
  C 81.38 54.36 81.09 54.18 80.93 53.79
  L 80.60 52.98
  C 80.48 52.68 80.62 52.34 80.92 52.22
  C 83.71 51.07 86.60 50.49 89.60 50.46
  C 89.72 50.46 89.84 50.45 89.96 50.44
  C 90.27 50.39 90.45 50.26 90.49 50.05
  C 90.56 49.68 90.42 49.45 90.07 49.36
  C 87.66 48.70 82.95 50.46 80.39 50.97
  C 80.07 51.03 79.89 50.90 79.85 50.58"
/>
<path stroke="#7c7c7c" vector-effect="non-scaling-stroke" d="
  M 39.80 44.98
  C 39.80 40.83 36.43 37.46 32.28 37.46
  C 28.13 37.46 24.76 40.83 24.76 44.98
  C 24.76 49.13 28.13 52.50 32.28 52.50
  C 36.43 52.50 39.80 49.13 39.80 44.98"
/>
<path stroke="#7c7c7c" vector-effect="non-scaling-stroke" d="
  M 74.41 49.52
  C 74.41 45.40 71.07 42.06 66.95 42.06
  C 62.83 42.06 59.49 45.40 59.49 49.52
  C 59.49 53.64 62.83 56.98 66.95 56.98
  C 71.07 56.98 74.41 53.64 74.41 49.52"
/>
<path stroke="#7c7c7c" vector-effect="non-scaling-stroke" d="
  M 52.1492 45.5345
  C 52.14 44.86 51.59 44.32 50.9186 44.3252
  L 47.5187 44.3549
  C 46.84 44.36 46.30 44.91 46.3094 45.5855
  L 46.3108 45.7455
  C 46.32 46.42 46.87 46.96 47.5414 46.9548
  L 50.9413 46.9251
  C 51.62 46.92 52.16 46.37 52.1506 45.6945
  L 52.1492 45.5345"
/>
<path stroke="#7c7c7c" vector-effect="non-scaling-stroke" d="
  M 61.60 68.97
  C 51.75 59.22 31.43 59.00 20.47 66.69
  C 19.34 67.48 18.88 68.43 19.10 69.53
  C 19.20 70.02 19.42 70.08 19.76 69.71
  C 28.33 60.43 44.06 61.32 54.74 65.72
  C 57.76 66.97 59.96 69.52 62.28 71.80
  C 62.55 72.07 63.02 71.96 63.13 71.59
  C 63.64 69.90 62.40 69.77 61.60 68.97"
/>
<path stroke="#7c7c7c" vector-effect="non-scaling-stroke" d="
  M 22.38 106.00
  L 20.53 107.81
  C 20.09 108.24 20.15 108.58 20.70 108.85
  L 21.19 109.08
  C 21.50 109.23 21.76 109.17 21.98 108.92
  C 22.74 108.06 23.66 107.48 24.74 107.18
  C 25.85 106.87 26.00 107.12 25.18 107.94
  L 23.90 109.23
  C 23.67 109.45 23.62 109.71 23.75 110.00
  L 24.01 110.64
  C 24.25 111.22 24.59 111.29 25.03 110.84
  L 27.31 108.57
  C 27.60 108.28 27.95 108.17 28.36 108.24
  L 29.64 108.47
  C 30.21 108.58 30.27 108.82 29.84 109.21
  C 29.10 109.86 28.73 110.69 28.74 111.70
  C 28.74 112.35 29.54 112.66 29.98 112.19
  L 32.37 109.64
  C 32.62 109.38 32.91 109.29 33.26 109.37
  C 41.12 111.18 49.89 110.69 57.97 111.12
  C 58.34 111.14 58.56 111.33 58.63 111.70
  L 58.89 113.16
  C 58.96 113.55 59.19 113.75 59.59 113.75
  L 60.48 113.75
  C 60.99 113.75 61.16 113.51 60.99 113.03
  L 60.59 111.93
  C 60.46 111.58 60.58 111.34 60.93 111.21
  C 63.30 110.34 64.85 111.04 65.57 113.31
  C 65.68 113.67 65.93 113.82 66.31 113.76
  C 67.65 113.55 67.40 112.10 66.67 111.28
  C 66.35 110.93 66.40 110.64 66.83 110.43
  L 68.68 109.52
  C 69.00 109.36 69.20 109.46 69.27 109.81
  C 69.59 111.30 72.18 112.65 72.37 111.14
  C 72.42 110.75 72.28 110.46 71.94 110.27
  L 70.64 109.53
  C 70.23 109.30 70.22 109.04 70.60 108.76
  L 74.53 105.77
  C 74.81 105.56 75.12 105.46 75.47 105.46
  C 83.12 105.46 89.88 98.96 92.94 92.48
  C 96.01 85.98 96.50 74.20 87.02 72.84
  C 86.76 72.80 86.59 72.91 86.52 73.16
  C 86.32 73.80 86.58 74.25 87.29 74.50
  C 91.74 76.09 93.78 79.35 93.41 84.27
  C 92.64 94.51 84.47 103.99 73.90 104.14
  C 73.57 104.15 73.30 104.27 73.08 104.52
  C 70.75 107.18 67.80 108.79 64.25 109.34
  C 64.07 109.37 63.91 109.26 63.86 109.09
  C 63.80 108.92 63.89 108.74 64.05 108.66
  C 70.74 105.57 74.08 100.31 74.06 92.88
  C 74.06 92.23 73.68 91.87 73.03 92.01
  C 72.72 92.07 72.51 92.35 72.52 92.66
  C 72.73 98.95 70.28 103.64 65.16 106.73
  C 64.62 107.05 62.68 107.38 63.33 108.61
  C 63.56 109.05 63.24 109.58 62.74 109.57
  C 44.99 109.20 13.07 111.53 10.47 85.97
  C 10.44 85.69 10.19 85.38 9.72 85.05
  C 9.40 84.82 9.36 84.56 9.61 84.25
  C 10.17 83.57 10.98 84.19 11.54 84.47
  C 11.87 84.64 12.15 84.57 12.38 84.28
  L 13.12 83.36
  C 13.37 83.04 13.35 82.73 13.06 82.44
  L 12.71 82.09
  C 12.44 81.82 12.45 81.56 12.72 81.30
  C 15.94 78.24 17.55 74.44 17.54 69.91
  C 17.54 69.46 17.33 69.32 16.92 69.48
  L 16.15 69.77
  C 15.85 69.88 15.69 70.10 15.68 70.43
  C 15.53 74.40 14.09 77.76 11.36 80.52
  C 11.10 80.79 10.79 80.93 10.42 80.96
  C 8.56 81.10 6.55 83.00 8.58 84.70
  C 8.81 84.89 8.93 85.14 8.93 85.45
  C 8.95 93.54 14.63 102.29 22.27 105.42
  C 22.60 105.55 22.64 105.75 22.38 106.00"
/>
<path stroke="#7c7c7c" vector-effect="non-scaling-stroke" d="
  M 65.78 88.51
  L 65.30 89.15
  C 64.97 89.59 65.06 89.92 65.57 90.13
  C 67.94 91.09 67.59 87.23 65.88 86.17
  C 65.59 86.00 65.37 85.76 65.20 85.47
  C 62.93 81.55 64.81 74.92 66.39 70.81
  C 66.44 70.66 66.42 70.54 66.31 70.43
  L 66.06 70.19
  C 65.83 69.95 65.63 69.98 65.47 70.28
  C 63.48 74.03 59.58 85.35 65.57 87.76
  C 65.96 87.91 66.03 88.16 65.78 88.51"
/>
<path stroke="#7c7c7c" vector-effect="non-scaling-stroke" d="
  M 43.46 81.13
  C 48.79 82.84 46.30 70.31 39.02 72.73
  C 36.57 73.55 34.78 75.05 33.67 77.22
  C 32.76 78.98 33.53 80.66 35.70 80.54
  C 36.05 80.52 36.35 80.40 36.61 80.17
  C 38.88 78.21 40.91 78.35 42.69 80.60
  C 42.89 80.85 43.15 81.03 43.46 81.13"
/>
<path stroke="#7c7c7c" vector-effect="non-scaling-stroke" d="
  M 30.43 79.24
  C 32.57 73.98 25.76 70.71 22.07 74.53
  C 20.26 76.42 18.80 78.03 20.07 80.57
  C 20.47 81.36 21.50 81.58 22.19 81.02
  C 24.34 79.26 26.73 78.83 29.38 79.72
  C 29.88 79.89 30.23 79.73 30.43 79.24"
/>
<path stroke="#7c7c7c" vector-effect="non-scaling-stroke" d="
  M 51.49 79.60
  C 53.55 76.89 55.94 76.44 58.65 78.25
  C 58.96 78.46 59.20 78.72 59.37 79.04
  L 60.21 80.61
  C 60.55 81.24 60.89 81.24 61.22 80.61
  C 61.67 79.74 61.53 78.94 60.80 78.19
  C 57.57 74.90 54.00 75.11 50.11 78.81
  C 48.22 80.60 48.58 81.50 51.19 81.50
  L 54.04 81.50
  C 54.40 81.50 54.74 81.59 55.06 81.77
  C 57.11 82.92 59.09 86.07 61.48 83.89
  C 61.81 83.59 61.61 83.03 61.16 83.02
  L 59.51 82.99
  C 59.20 82.98 58.95 82.86 58.75 82.63
  C 56.92 80.50 54.63 79.70 51.87 80.22
  C 51.20 80.35 51.07 80.14 51.49 79.60"
/>
<path stroke="#7c7c7c" vector-effect="non-scaling-stroke" d="
  M 72.50 88.35
  C 73.81 88.57 74.98 88.20 75.99 87.24
  C 76.50 86.76 76.03 85.92 75.35 86.10
  L 71.32 87.19
  C 71.03 87.27 70.80 87.44 70.65 87.70
  C 70.26 88.35 70.61 91.25 71.68 90.82
  C 71.95 90.71 72.07 90.51 72.06 90.22
  L 71.99 88.80
  C 71.97 88.44 72.14 88.29 72.50 88.35"
/>
<path stroke="#7c7c7c" vector-effect="non-scaling-stroke" d="
  M 69.71 89.76
  C 70.02 88.58 69.65 87.88 68.60 87.67
  C 68.27 87.60 67.96 87.86 67.97 88.20
  L 68.01 90.19
  C 68.02 90.57 68.22 90.78 68.60 90.83
  C 69.17 90.90 69.68 90.67 70.13 90.14
  C 70.16 90.10 70.16 90.07 70.11 90.04
  C 70.06 90.01 69.96 89.97 69.82 89.94
  C 69.72 89.91 69.68 89.85 69.71 89.76"
/>
<path stroke="#7c7c7c" vector-effect="non-scaling-stroke" d="
  M 38.12 44.92
  C 38.12 41.68 35.49 39.05 32.25 39.05
  C 29.01 39.05 26.38 41.68 26.38 44.92
  C 26.38 48.16 29.01 50.79 32.25 50.79
  C 35.49 50.79 38.12 48.16 38.12 44.92"
/>
<path stroke="#7c7c7c" vector-effect="non-scaling-stroke" d="
  M 34.51 44.66
  C 34.51 43.14 33.28 41.91 31.76 41.91
  C 30.24 41.91 29.01 43.14 29.01 44.66
  C 29.01 46.18 30.24 47.41 31.76 47.41
  C 33.28 47.41 34.51 46.18 34.51 44.66"
/>
<path stroke="#7c7c7c" vector-effect="non-scaling-stroke" d="
  M 72.78 49.48
  C 72.78 46.25 70.16 43.63 66.93 43.63
  C 63.70 43.63 61.08 46.25 61.08 49.48
  C 61.08 52.71 63.70 55.33 66.93 55.33
  C 70.16 55.33 72.78 52.71 72.78 49.48"
/>
<path stroke="#7c7c7c" vector-effect="non-scaling-stroke" d="
  M 70.9984 49.3211
  C 70.95 47.74 69.50 46.51 67.7602 46.5614
  C 66.02 46.62 64.65 47.94 64.7016 49.5189
  C 64.75 51.10 66.20 52.33 67.9398 52.2786
  C 69.68 52.22 71.05 50.90 70.9984 49.3211"
/>
<path stroke="#7c7c7c" vector-effect="non-scaling-stroke" d="
  M 44.71 79.36
  C 45.55 72.24 37.28 73.03 34.90 78.64
  C 34.76 78.97 35.16 79.27 35.44 79.04
  C 38.59 76.43 41.45 76.61 44.00 79.58
  C 44.40 80.05 44.64 79.97 44.71 79.36"
/>
<path stroke="#7c7c7c" vector-effect="non-scaling-stroke" d="
  M 29.19 77.37
  C 28.77 72.34 21.47 74.62 21.08 79.14
  C 21.03 79.77 21.26 79.89 21.76 79.51
  C 23.86 77.93 26.19 77.35 28.76 77.76
  C 29.07 77.81 29.21 77.68 29.19 77.37"
/>
</g>
<path fill="#f6f6f6" d="
  M 0.00 0.00
  L 102.00 0.00
  L 102.00 122.00
  L 0.00 122.00
  L 0.00 0.00
  Z
  M 36.67 4.42
  C 39.23 6.94 42.35 23.82 39.87 27.13
  C 39.69 27.38 39.68 27.63 39.83 27.90
  C 41.26 30.41 42.76 24.54 42.67 23.50
  C 42.37 20.08 41.04 3.68 37.20 2.81
  C 33.45 1.97 30.65 6.98 29.54 9.77
  C 27.33 15.35 24.16 22.97 25.73 29.02
  C 25.85 29.49 26.31 29.78 26.78 29.69
  C 27.31 29.58 27.51 29.20 27.38 28.53
  C 26.04 21.81 30.56 7.91 35.61 4.34
  C 35.98 4.07 36.34 4.10 36.67 4.42
  Z
  M 73.82 8.27
  C 77.46 12.35 77.86 23.94 77.66 28.92
  C 77.58 31.12 76.58 32.77 74.66 33.86
  C 74.39 34.01 74.25 34.25 74.25 34.56
  C 74.25 34.66 74.25 34.76 74.25 34.86
  C 74.25 35.32 74.47 35.49 74.92 35.37
  C 77.81 34.60 79.33 32.71 79.47 29.72
  C 79.72 24.54 78.79 11.14 75.50 7.50
  C 72.28 3.94 69.50 8.70 68.42 11.43
  C 67.34 14.17 60.96 28.51 64.97 30.21
  C 65.70 30.52 65.98 30.28 65.80 29.51
  L 65.25 27.13
  C 65.18 26.80 65.18 26.48 65.26 26.15
  C 66.06 22.92 69.84 8.94 72.96 8.03
  C 73.30 7.93 73.59 8.01 73.82 8.27
  Z
  M 43.13 30.95
  C 49.04 29.75 54.01 30.86 59.19 33.60
  C 59.79 33.91 60.06 33.73 59.99 33.06
  L 59.91 32.32
  C 59.88 31.97 59.70 31.72 59.39 31.56
  C 56.62 30.20 44.44 26.75 42.62 30.27
  C 42.44 30.62 42.74 31.03 43.13 30.95
  Z
  M 41.36 29.47
  L 39.86 29.19
  C 39.29 29.08 39.00 29.32 39.00 29.91
  L 39.00 30.43
  C 39.00 30.83 39.20 31.02 39.60 31.00
  C 40.43 30.96 41.09 30.64 41.58 30.05
  C 41.83 29.74 41.76 29.54 41.36 29.47
  Z
  M 64.69 31.64
  C 64.35 30.49 63.58 29.93 62.38 29.98
  C 62.05 29.99 61.87 30.17 61.82 30.50
  L 61.51 32.74
  C 61.42 33.37 61.67 33.56 62.26 33.31
  L 64.33 32.42
  C 64.63 32.29 64.79 31.95 64.69 31.64
  Z
  M 27.90 33.14
  L 27.90 31.44
  C 27.90 30.97 27.66 30.73 27.19 30.74
  L 24.63 30.77
  C 24.18 30.78 24.07 30.97 24.30 31.36
  L 25.70 33.72
  C 25.92 34.09 25.86 34.42 25.53 34.69
  C 23.23 36.60 21.30 38.82 19.74 41.35
  C 19.55 41.67 19.29 41.73 18.98 41.52
  C 16.72 40.03 12.11 36.79 11.54 38.48
  C 11.43 38.80 11.54 39.03 11.86 39.16
  C 13.82 39.97 18.93 41.88 18.12 44.54
  C 17.95 45.09 17.60 45.26 17.05 45.07
  L 13.08 43.64
  C 12.66 43.49 12.40 43.64 12.31 44.07
  C 11.99 45.56 14.75 45.57 15.46 46.07
  C 16.48 46.79 16.76 48.12 16.08 49.02
  C 9.59 57.57 6.10 67.22 5.60 77.99
  C 5.59 78.26 5.64 78.53 5.76 78.78
  L 6.94 81.14
  C 7.18 81.63 7.52 81.71 7.95 81.38
  L 8.44 81.01
  C 8.75 80.78 8.83 80.49 8.68 80.14
  C 4.06 69.02 15.07 55.21 19.44 45.51
  C 19.59 45.18 19.82 44.92 20.13 44.75
  C 20.95 44.29 21.33 43.58 21.27 42.62
  C 21.24 42.25 21.33 41.92 21.54 41.61
  C 23.43 38.77 25.89 36.53 28.92 34.90
  C 29.45 34.61 29.46 34.32 28.93 34.01
  L 28.14 33.55
  C 27.98 33.46 27.90 33.33 27.90 33.14
  Z
  M 79.85 50.58
  C 79.34 46.43 77.71 42.82 74.96 39.73
  C 74.70 39.44 74.74 39.20 75.07 39.01
  C 75.91 38.52 76.36 37.76 76.43 36.75
  C 76.45 36.49 76.33 36.35 76.07 36.32
  L 73.93 36.08
  C 73.52 36.04 73.37 36.22 73.47 36.62
  L 73.73 37.60
  C 73.81 37.91 73.70 38.13 73.40 38.24
  L 72.60 38.54
  C 72.08 38.74 72.02 39.03 72.42 39.42
  C 77.89 44.69 76.87 48.83 79.35 55.06
  C 83.02 64.27 84.51 73.88 83.82 83.91
  C 83.79 84.29 83.97 84.49 84.35 84.51
  C 88.82 84.73 82.78 58.82 81.86 55.98
  C 81.73 55.61 81.87 55.39 82.26 55.33
  C 83.13 55.21 86.94 55.64 87.01 54.63
  C 87.05 54.14 86.82 53.91 86.33 53.95
  L 81.81 54.33
  C 81.38 54.36 81.09 54.18 80.93 53.79
  L 80.60 52.98
  C 80.48 52.68 80.62 52.34 80.92 52.22
  C 83.71 51.07 86.60 50.49 89.60 50.46
  C 89.72 50.46 89.84 50.45 89.96 50.44
  C 90.27 50.39 90.45 50.26 90.49 50.05
  C 90.56 49.68 90.42 49.45 90.07 49.36
  C 87.66 48.70 82.95 50.46 80.39 50.97
  C 80.07 51.03 79.89 50.90 79.85 50.58
  Z
  M 39.80 44.98
  C 39.80 40.83 36.43 37.46 32.28 37.46
  C 28.13 37.46 24.76 40.83 24.76 44.98
  C 24.76 49.13 28.13 52.50 32.28 52.50
  C 36.43 52.50 39.80 49.13 39.80 44.98
  Z
  M 74.41 49.52
  C 74.41 45.40 71.07 42.06 66.95 42.06
  C 62.83 42.06 59.49 45.40 59.49 49.52
  C 59.49 53.64 62.83 56.98 66.95 56.98
  C 71.07 56.98 74.41 53.64 74.41 49.52
  Z
  M 52.1492 45.5345
  C 52.14 44.86 51.59 44.32 50.9186 44.3252
  L 47.5187 44.3549
  C 46.84 44.36 46.30 44.91 46.3094 45.5855
  L 46.3108 45.7455
  C 46.32 46.42 46.87 46.96 47.5414 46.9548
  L 50.9413 46.9251
  C 51.62 46.92 52.16 46.37 52.1506 45.6945
  L 52.1492 45.5345
  Z
  M 61.60 68.97
  C 51.75 59.22 31.43 59.00 20.47 66.69
  C 19.34 67.48 18.88 68.43 19.10 69.53
  C 19.20 70.02 19.42 70.08 19.76 69.71
  C 28.33 60.43 44.06 61.32 54.74 65.72
  C 57.76 66.97 59.96 69.52 62.28 71.80
  C 62.55 72.07 63.02 71.96 63.13 71.59
  C 63.64 69.90 62.40 69.77 61.60 68.97
  Z
  M 22.38 106.00
  L 20.53 107.81
  C 20.09 108.24 20.15 108.58 20.70 108.85
  L 21.19 109.08
  C 21.50 109.23 21.76 109.17 21.98 108.92
  C 22.74 108.06 23.66 107.48 24.74 107.18
  C 25.85 106.87 26.00 107.12 25.18 107.94
  L 23.90 109.23
  C 23.67 109.45 23.62 109.71 23.75 110.00
  L 24.01 110.64
  C 24.25 111.22 24.59 111.29 25.03 110.84
  L 27.31 108.57
  C 27.60 108.28 27.95 108.17 28.36 108.24
  L 29.64 108.47
  C 30.21 108.58 30.27 108.82 29.84 109.21
  C 29.10 109.86 28.73 110.69 28.74 111.70
  C 28.74 112.35 29.54 112.66 29.98 112.19
  L 32.37 109.64
  C 32.62 109.38 32.91 109.29 33.26 109.37
  C 41.12 111.18 49.89 110.69 57.97 111.12
  C 58.34 111.14 58.56 111.33 58.63 111.70
  L 58.89 113.16
  C 58.96 113.55 59.19 113.75 59.59 113.75
  L 60.48 113.75
  C 60.99 113.75 61.16 113.51 60.99 113.03
  L 60.59 111.93
  C 60.46 111.58 60.58 111.34 60.93 111.21
  C 63.30 110.34 64.85 111.04 65.57 113.31
  C 65.68 113.67 65.93 113.82 66.31 113.76
  C 67.65 113.55 67.40 112.10 66.67 111.28
  C 66.35 110.93 66.40 110.64 66.83 110.43
  L 68.68 109.52
  C 69.00 109.36 69.20 109.46 69.27 109.81
  C 69.59 111.30 72.18 112.65 72.37 111.14
  C 72.42 110.75 72.28 110.46 71.94 110.27
  L 70.64 109.53
  C 70.23 109.30 70.22 109.04 70.60 108.76
  L 74.53 105.77
  C 74.81 105.56 75.12 105.46 75.47 105.46
  C 83.12 105.46 89.88 98.96 92.94 92.48
  C 96.01 85.98 96.50 74.20 87.02 72.84
  C 86.76 72.80 86.59 72.91 86.52 73.16
  C 86.32 73.80 86.58 74.25 87.29 74.50
  C 91.74 76.09 93.78 79.35 93.41 84.27
  C 92.64 94.51 84.47 103.99 73.90 104.14
  C 73.57 104.15 73.30 104.27 73.08 104.52
  C 70.75 107.18 67.80 108.79 64.25 109.34
  C 64.07 109.37 63.91 109.26 63.86 109.09
  C 63.80 108.92 63.89 108.74 64.05 108.66
  C 70.74 105.57 74.08 100.31 74.06 92.88
  C 74.06 92.23 73.68 91.87 73.03 92.01
  C 72.72 92.07 72.51 92.35 72.52 92.66
  C 72.73 98.95 70.28 103.64 65.16 106.73
  C 64.62 107.05 62.68 107.38 63.33 108.61
  C 63.56 109.05 63.24 109.58 62.74 109.57
  C 44.99 109.20 13.07 111.53 10.47 85.97
  C 10.44 85.69 10.19 85.38 9.72 85.05
  C 9.40 84.82 9.36 84.56 9.61 84.25
  C 10.17 83.57 10.98 84.19 11.54 84.47
  C 11.87 84.64 12.15 84.57 12.38 84.28
  L 13.12 83.36
  C 13.37 83.04 13.35 82.73 13.06 82.44
  L 12.71 82.09
  C 12.44 81.82 12.45 81.56 12.72 81.30
  C 15.94 78.24 17.55 74.44 17.54 69.91
  C 17.54 69.46 17.33 69.32 16.92 69.48
  L 16.15 69.77
  C 15.85 69.88 15.69 70.10 15.68 70.43
  C 15.53 74.40 14.09 77.76 11.36 80.52
  C 11.10 80.79 10.79 80.93 10.42 80.96
  C 8.56 81.10 6.55 83.00 8.58 84.70
  C 8.81 84.89 8.93 85.14 8.93 85.45
  C 8.95 93.54 14.63 102.29 22.27 105.42
  C 22.60 105.55 22.64 105.75 22.38 106.00
  Z
  M 65.78 88.51
  L 65.30 89.15
  C 64.97 89.59 65.06 89.92 65.57 90.13
  C 67.94 91.09 67.59 87.23 65.88 86.17
  C 65.59 86.00 65.37 85.76 65.20 85.47
  C 62.93 81.55 64.81 74.92 66.39 70.81
  C 66.44 70.66 66.42 70.54 66.31 70.43
  L 66.06 70.19
  C 65.83 69.95 65.63 69.98 65.47 70.28
  C 63.48 74.03 59.58 85.35 65.57 87.76
  C 65.96 87.91 66.03 88.16 65.78 88.51
  Z
  M 43.46 81.13
  C 48.79 82.84 46.30 70.31 39.02 72.73
  C 36.57 73.55 34.78 75.05 33.67 77.22
  C 32.76 78.98 33.53 80.66 35.70 80.54
  C 36.05 80.52 36.35 80.40 36.61 80.17
  C 38.88 78.21 40.91 78.35 42.69 80.60
  C 42.89 80.85 43.15 81.03 43.46 81.13
  Z
  M 30.43 79.24
  C 32.57 73.98 25.76 70.71 22.07 74.53
  C 20.26 76.42 18.80 78.03 20.07 80.57
  C 20.47 81.36 21.50 81.58 22.19 81.02
  C 24.34 79.26 26.73 78.83 29.38 79.72
  C 29.88 79.89 30.23 79.73 30.43 79.24
  Z
  M 51.49 79.60
  C 53.55 76.89 55.94 76.44 58.65 78.25
  C 58.96 78.46 59.20 78.72 59.37 79.04
  L 60.21 80.61
  C 60.55 81.24 60.89 81.24 61.22 80.61
  C 61.67 79.74 61.53 78.94 60.80 78.19
  C 57.57 74.90 54.00 75.11 50.11 78.81
  C 48.22 80.60 48.58 81.50 51.19 81.50
  L 54.04 81.50
  C 54.40 81.50 54.74 81.59 55.06 81.77
  C 57.11 82.92 59.09 86.07 61.48 83.89
  C 61.81 83.59 61.61 83.03 61.16 83.02
  L 59.51 82.99
  C 59.20 82.98 58.95 82.86 58.75 82.63
  C 56.92 80.50 54.63 79.70 51.87 80.22
  C 51.20 80.35 51.07 80.14 51.49 79.60
  Z
  M 72.50 88.35
  C 73.81 88.57 74.98 88.20 75.99 87.24
  C 76.50 86.76 76.03 85.92 75.35 86.10
  L 71.32 87.19
  C 71.03 87.27 70.80 87.44 70.65 87.70
  C 70.26 88.35 70.61 91.25 71.68 90.82
  C 71.95 90.71 72.07 90.51 72.06 90.22
  L 71.99 88.80
  C 71.97 88.44 72.14 88.29 72.50 88.35
  Z
  M 69.71 89.76
  C 70.02 88.58 69.65 87.88 68.60 87.67
  C 68.27 87.60 67.96 87.86 67.97 88.20
  L 68.01 90.19
  C 68.02 90.57 68.22 90.78 68.60 90.83
  C 69.17 90.90 69.68 90.67 70.13 90.14
  C 70.16 90.10 70.16 90.07 70.11 90.04
  C 70.06 90.01 69.96 89.97 69.82 89.94
  C 69.72 89.91 69.68 89.85 69.71 89.76
  Z"
/>
<path fill="#010101" d="
  M 35.61 4.34
  C 30.56 7.91 26.04 21.81 27.38 28.53
  C 27.51 29.20 27.31 29.58 26.78 29.69
  C 26.31 29.78 25.85 29.49 25.73 29.02
  C 24.16 22.97 27.33 15.35 29.54 9.77
  C 30.65 6.98 33.45 1.97 37.20 2.81
  C 41.04 3.68 42.37 20.08 42.67 23.50
  C 42.76 24.54 41.26 30.41 39.83 27.90
  C 39.68 27.63 39.69 27.38 39.87 27.13
  C 42.35 23.82 39.23 6.94 36.67 4.42
  C 36.34 4.10 35.98 4.07 35.61 4.34
  Z"
/>
<path fill="#010101" d="
  M 72.96 8.03
  C 69.84 8.94 66.06 22.92 65.26 26.15
  C 65.18 26.48 65.18 26.80 65.25 27.13
  L 65.80 29.51
  C 65.98 30.28 65.70 30.52 64.97 30.21
  C 60.96 28.51 67.34 14.17 68.42 11.43
  C 69.50 8.70 72.28 3.94 75.50 7.50
  C 78.79 11.14 79.72 24.54 79.47 29.72
  C 79.33 32.71 77.81 34.60 74.92 35.37
  C 74.47 35.49 74.25 35.32 74.25 34.86
  C 74.25 34.76 74.25 34.66 74.25 34.56
  C 74.25 34.25 74.39 34.01 74.66 33.86
  C 76.58 32.77 77.58 31.12 77.66 28.92
  C 77.86 23.94 77.46 12.35 73.82 8.27
  C 73.59 8.01 73.30 7.93 72.96 8.03
  Z"
/>
<path fill="#010101" d="
  M 59.19 33.60
  C 54.01 30.86 49.04 29.75 43.13 30.95
  C 42.74 31.03 42.44 30.62 42.62 30.27
  C 44.44 26.75 56.62 30.20 59.39 31.56
  C 59.70 31.72 59.88 31.97 59.91 32.32
  L 59.99 33.06
  C 60.06 33.73 59.79 33.91 59.19 33.60
  Z"
/>
<path fill="#010101" d="
  M 41.36 29.47
  C 41.76 29.54 41.83 29.74 41.58 30.05
  C 41.09 30.64 40.43 30.96 39.60 31.00
  C 39.20 31.02 39.00 30.83 39.00 30.43
  L 39.00 29.91
  C 39.00 29.32 39.29 29.08 39.86 29.19
  L 41.36 29.47
  Z"
/>
<path fill="#010101" d="
  M 64.69 31.64
  C 64.79 31.95 64.63 32.29 64.33 32.42
  L 62.26 33.31
  C 61.67 33.56 61.42 33.37 61.51 32.74
  L 61.82 30.50
  C 61.87 30.17 62.05 29.99 62.38 29.98
  C 63.58 29.93 64.35 30.49 64.69 31.64
  Z"
/>
<path fill="#010101" d="
  M 28.14 33.55
  L 28.93 34.01
  C 29.46 34.32 29.45 34.61 28.92 34.90
  C 25.89 36.53 23.43 38.77 21.54 41.61
  C 21.33 41.92 21.24 42.25 21.27 42.62
  C 21.33 43.58 20.95 44.29 20.13 44.75
  C 19.82 44.92 19.59 45.18 19.44 45.51
  C 15.07 55.21 4.06 69.02 8.68 80.14
  C 8.83 80.49 8.75 80.78 8.44 81.01
  L 7.95 81.38
  C 7.52 81.71 7.18 81.63 6.94 81.14
  L 5.76 78.78
  C 5.64 78.53 5.59 78.26 5.60 77.99
  C 6.10 67.22 9.59 57.57 16.08 49.02
  C 16.76 48.12 16.48 46.79 15.46 46.07
  C 14.75 45.57 11.99 45.56 12.31 44.07
  C 12.40 43.64 12.66 43.49 13.08 43.64
  L 17.05 45.07
  C 17.60 45.26 17.95 45.09 18.12 44.54
  C 18.93 41.88 13.82 39.97 11.86 39.16
  C 11.54 39.03 11.43 38.80 11.54 38.48
  C 12.11 36.79 16.72 40.03 18.98 41.52
  C 19.29 41.73 19.55 41.67 19.74 41.35
  C 21.30 38.82 23.23 36.60 25.53 34.69
  C 25.86 34.42 25.92 34.09 25.70 33.72
  L 24.30 31.36
  C 24.07 30.97 24.18 30.78 24.63 30.77
  L 27.19 30.74
  C 27.66 30.73 27.90 30.97 27.90 31.44
  L 27.90 33.14
  C 27.90 33.33 27.98 33.46 28.14 33.55
  Z"
/>
<path fill="#010101" d="
  M 80.39 50.97
  C 82.95 50.46 87.66 48.70 90.07 49.36
  C 90.42 49.45 90.56 49.68 90.49 50.05
  C 90.45 50.26 90.27 50.39 89.96 50.44
  C 89.84 50.45 89.72 50.46 89.60 50.46
  C 86.60 50.49 83.71 51.07 80.92 52.22
  C 80.62 52.34 80.48 52.68 80.60 52.98
  L 80.93 53.79
  C 81.09 54.18 81.38 54.36 81.81 54.33
  L 86.33 53.95
  C 86.82 53.91 87.05 54.14 87.01 54.63
  C 86.94 55.64 83.13 55.21 82.26 55.33
  C 81.87 55.39 81.73 55.61 81.86 55.98
  C 82.78 58.82 88.82 84.73 84.35 84.51
  C 83.97 84.49 83.79 84.29 83.82 83.91
  C 84.51 73.88 83.02 64.27 79.35 55.06
  C 76.87 48.83 77.89 44.69 72.42 39.42
  C 72.02 39.03 72.08 38.74 72.60 38.54
  L 73.40 38.24
  C 73.70 38.13 73.81 37.91 73.73 37.60
  L 73.47 36.62
  C 73.37 36.22 73.52 36.04 73.93 36.08
  L 76.07 36.32
  C 76.33 36.35 76.45 36.49 76.43 36.75
  C 76.36 37.76 75.91 38.52 75.07 39.01
  C 74.74 39.20 74.70 39.44 74.96 39.73
  C 77.71 42.82 79.34 46.43 79.85 50.58
  C 79.89 50.90 80.07 51.03 80.39 50.97
  Z"
/>
<path fill="#010101" d="
  M 39.80 44.98
  C 39.80 49.13 36.43 52.50 32.28 52.50
  C 28.13 52.50 24.76 49.13 24.76 44.98
  C 24.76 40.83 28.13 37.46 32.28 37.46
  C 36.43 37.46 39.80 40.83 39.80 44.98
  Z
  M 38.12 44.92
  C 38.12 41.68 35.49 39.05 32.25 39.05
  C 29.01 39.05 26.38 41.68 26.38 44.92
  C 26.38 48.16 29.01 50.79 32.25 50.79
  C 35.49 50.79 38.12 48.16 38.12 44.92
  Z"
/>
<path fill="#f6f6f6" d="
  M 38.12 44.92
  C 38.12 48.16 35.49 50.79 32.25 50.79
  C 29.01 50.79 26.38 48.16 26.38 44.92
  C 26.38 41.68 29.01 39.05 32.25 39.05
  C 35.49 39.05 38.12 41.68 38.12 44.92
  Z
  M 34.51 44.66
  C 34.51 43.14 33.28 41.91 31.76 41.91
  C 30.24 41.91 29.01 43.14 29.01 44.66
  C 29.01 46.18 30.24 47.41 31.76 47.41
  C 33.28 47.41 34.51 46.18 34.51 44.66
  Z"
/>
<circle fill="#010101" cx="31.76" cy="44.66" r="2.75"/>
<path fill="#010101" d="
  M 74.41 49.52
  C 74.41 53.64 71.07 56.98 66.95 56.98
  C 62.83 56.98 59.49 53.64 59.49 49.52
  C 59.49 45.40 62.83 42.06 66.95 42.06
  C 71.07 42.06 74.41 45.40 74.41 49.52
  Z
  M 72.78 49.48
  C 72.78 46.25 70.16 43.63 66.93 43.63
  C 63.70 43.63 61.08 46.25 61.08 49.48
  C 61.08 52.71 63.70 55.33 66.93 55.33
  C 70.16 55.33 72.78 52.71 72.78 49.48
  Z"
/>
<path fill="#f6f6f6" d="
  M 72.78 49.48
  C 72.78 52.71 70.16 55.33 66.93 55.33
  C 63.70 55.33 61.08 52.71 61.08 49.48
  C 61.08 46.25 63.70 43.63 66.93 43.63
  C 70.16 43.63 72.78 46.25 72.78 49.48
  Z
  M 70.9984 49.3211
  C 70.95 47.74 69.50 46.51 67.7602 46.5614
  C 66.02 46.62 64.65 47.94 64.7016 49.5189
  C 64.75 51.10 66.20 52.33 67.9398 52.2786
  C 69.68 52.22 71.05 50.90 70.9984 49.3211
  Z"
/>
<rect fill="#010101" x="-2.92" y="-1.30" transform="translate(49.23,45.64) rotate(-0.5)" width="5.84" height="2.60" rx="1.22"/>
<ellipse fill="#010101" cx="0.00" cy="0.00" transform="translate(67.85,49.42) rotate(-1.8)" rx="3.15" ry="2.86"/>
<path fill="#010101" d="
  M 61.60 68.97
  C 62.40 69.77 63.64 69.90 63.13 71.59
  C 63.02 71.96 62.55 72.07 62.28 71.80
  C 59.96 69.52 57.76 66.97 54.74 65.72
  C 44.06 61.32 28.33 60.43 19.76 69.71
  C 19.42 70.08 19.20 70.02 19.10 69.53
  C 18.88 68.43 19.34 67.48 20.47 66.69
  C 31.43 59.00 51.75 59.22 61.60 68.97
  Z"
/>
<path fill="#010101" d="
  M 22.27 105.42
  C 14.63 102.29 8.95 93.54 8.93 85.45
  C 8.93 85.14 8.81 84.89 8.58 84.70
  C 6.55 83.00 8.56 81.10 10.42 80.96
  C 10.79 80.93 11.10 80.79 11.36 80.52
  C 14.09 77.76 15.53 74.40 15.68 70.43
  C 15.69 70.10 15.85 69.88 16.15 69.77
  L 16.92 69.48
  C 17.33 69.32 17.54 69.46 17.54 69.91
  C 17.55 74.44 15.94 78.24 12.72 81.30
  C 12.45 81.56 12.44 81.82 12.71 82.09
  L 13.06 82.44
  C 13.35 82.73 13.37 83.04 13.12 83.36
  L 12.38 84.28
  C 12.15 84.57 11.87 84.64 11.54 84.47
  C 10.98 84.19 10.17 83.57 9.61 84.25
  C 9.36 84.56 9.40 84.82 9.72 85.05
  C 10.19 85.38 10.44 85.69 10.47 85.97
  C 13.07 111.53 44.99 109.20 62.74 109.57
  C 63.24 109.58 63.56 109.05 63.33 108.61
  C 62.68 107.38 64.62 107.05 65.16 106.73
  C 70.28 103.64 72.73 98.95 72.52 92.66
  C 72.51 92.35 72.72 92.07 73.03 92.01
  C 73.68 91.87 74.06 92.23 74.06 92.88
  C 74.08 100.31 70.74 105.57 64.05 108.66
  C 63.89 108.74 63.80 108.92 63.86 109.09
  C 63.91 109.26 64.07 109.37 64.25 109.34
  C 67.80 108.79 70.75 107.18 73.08 104.52
  C 73.30 104.27 73.57 104.15 73.90 104.14
  C 84.47 103.99 92.64 94.51 93.41 84.27
  C 93.78 79.35 91.74 76.09 87.29 74.50
  C 86.58 74.25 86.32 73.80 86.52 73.16
  C 86.59 72.91 86.76 72.80 87.02 72.84
  C 96.50 74.20 96.01 85.98 92.94 92.48
  C 89.88 98.96 83.12 105.46 75.47 105.46
  C 75.12 105.46 74.81 105.56 74.53 105.77
  L 70.60 108.76
  C 70.22 109.04 70.23 109.30 70.64 109.53
  L 71.94 110.27
  C 72.28 110.46 72.42 110.75 72.37 111.14
  C 72.18 112.65 69.59 111.30 69.27 109.81
  C 69.20 109.46 69.00 109.36 68.68 109.52
  L 66.83 110.43
  C 66.40 110.64 66.35 110.93 66.67 111.28
  C 67.40 112.10 67.65 113.55 66.31 113.76
  C 65.93 113.82 65.68 113.67 65.57 113.31
  C 64.85 111.04 63.30 110.34 60.93 111.21
  C 60.58 111.34 60.46 111.58 60.59 111.93
  L 60.99 113.03
  C 61.16 113.51 60.99 113.75 60.48 113.75
  L 59.59 113.75
  C 59.19 113.75 58.96 113.55 58.89 113.16
  L 58.63 111.70
  C 58.56 111.33 58.34 111.14 57.97 111.12
  C 49.89 110.69 41.12 111.18 33.26 109.37
  C 32.91 109.29 32.62 109.38 32.37 109.64
  L 29.98 112.19
  C 29.54 112.66 28.74 112.35 28.74 111.70
  C 28.73 110.69 29.10 109.86 29.84 109.21
  C 30.27 108.82 30.21 108.58 29.64 108.47
  L 28.36 108.24
  C 27.95 108.17 27.60 108.28 27.31 108.57
  L 25.03 110.84
  C 24.59 111.29 24.25 111.22 24.01 110.64
  L 23.75 110.00
  C 23.62 109.71 23.67 109.45 23.90 109.23
  L 25.18 107.94
  C 26.00 107.12 25.85 106.87 24.74 107.18
  C 23.66 107.48 22.74 108.06 21.98 108.92
  C 21.76 109.17 21.50 109.23 21.19 109.08
  L 20.70 108.85
  C 20.15 108.58 20.09 108.24 20.53 107.81
  L 22.38 106.00
  C 22.64 105.75 22.60 105.55 22.27 105.42
  Z"
/>
<path fill="#010101" d="
  M 65.57 87.76
  C 59.58 85.35 63.48 74.03 65.47 70.28
  C 65.63 69.98 65.83 69.95 66.06 70.19
  L 66.31 70.43
  C 66.42 70.54 66.44 70.66 66.39 70.81
  C 64.81 74.92 62.93 81.55 65.20 85.47
  C 65.37 85.76 65.59 86.00 65.88 86.17
  C 67.59 87.23 67.94 91.09 65.57 90.13
  C 65.06 89.92 64.97 89.59 65.30 89.15
  L 65.78 88.51
  C 66.03 88.16 65.96 87.91 65.57 87.76
  Z"
/>
<path fill="#010101" d="
  M 39.02 72.73
  C 46.30 70.31 48.79 82.84 43.46 81.13
  C 43.15 81.03 42.89 80.85 42.69 80.60
  C 40.91 78.35 38.88 78.21 36.61 80.17
  C 36.35 80.40 36.05 80.52 35.70 80.54
  C 33.53 80.66 32.76 78.98 33.67 77.22
  C 34.78 75.05 36.57 73.55 39.02 72.73
  Z
  M 44.71 79.36
  C 45.55 72.24 37.28 73.03 34.90 78.64
  C 34.76 78.97 35.16 79.27 35.44 79.04
  C 38.59 76.43 41.45 76.61 44.00 79.58
  C 44.40 80.05 44.64 79.97 44.71 79.36
  Z"
/>
<path fill="#010101" d="
  M 30.43 79.24
  C 30.23 79.73 29.88 79.89 29.38 79.72
  C 26.73 78.83 24.34 79.26 22.19 81.02
  C 21.50 81.58 20.47 81.36 20.07 80.57
  C 18.80 78.03 20.26 76.42 22.07 74.53
  C 25.76 70.71 32.57 73.98 30.43 79.24
  Z
  M 29.19 77.37
  C 28.77 72.34 21.47 74.62 21.08 79.14
  C 21.03 79.77 21.26 79.89 21.76 79.51
  C 23.86 77.93 26.19 77.35 28.76 77.76
  C 29.07 77.81 29.21 77.68 29.19 77.37
  Z"
/>
<path fill="#f6f6f6" d="
  M 34.90 78.64
  C 37.28 73.03 45.55 72.24 44.71 79.36
  C 44.64 79.97 44.40 80.05 44.00 79.58
  C 41.45 76.61 38.59 76.43 35.44 79.04
  C 35.16 79.27 34.76 78.97 34.90 78.64
  Z"
/>
<path fill="#f6f6f6" d="
  M 21.08 79.14
  C 21.47 74.62 28.77 72.34 29.19 77.37
  C 29.21 77.68 29.07 77.81 28.76 77.76
  C 26.19 77.35 23.86 77.93 21.76 79.51
  C 21.26 79.89 21.03 79.77 21.08 79.14
  Z"
/>
<path fill="#010101" d="
  M 51.87 80.22
  C 54.63 79.70 56.92 80.50 58.75 82.63
  C 58.95 82.86 59.20 82.98 59.51 82.99
  L 61.16 83.02
  C 61.61 83.03 61.81 83.59 61.48 83.89
  C 59.09 86.07 57.11 82.92 55.06 81.77
  C 54.74 81.59 54.40 81.50 54.04 81.50
  L 51.19 81.50
  C 48.58 81.50 48.22 80.60 50.11 78.81
  C 54.00 75.11 57.57 74.90 60.80 78.19
  C 61.53 78.94 61.67 79.74 61.22 80.61
  C 60.89 81.24 60.55 81.24 60.21 80.61
  L 59.37 79.04
  C 59.20 78.72 58.96 78.46 58.65 78.25
  C 55.94 76.44 53.55 76.89 51.49 79.60
  C 51.07 80.14 51.20 80.35 51.87 80.22
  Z"
/>
<path fill="#010101" d="
  M 71.99 88.80
  L 72.06 90.22
  C 72.07 90.51 71.95 90.71 71.68 90.82
  C 70.61 91.25 70.26 88.35 70.65 87.70
  C 70.80 87.44 71.03 87.27 71.32 87.19
  L 75.35 86.10
  C 76.03 85.92 76.50 86.76 75.99 87.24
  C 74.98 88.20 73.81 88.57 72.50 88.35
  C 72.14 88.29 71.97 88.44 71.99 88.80
  Z"
/>
<path fill="#010101" d="
  M 69.82 89.94
  C 69.96 89.97 70.06 90.01 70.11 90.04
  C 70.16 90.07 70.16 90.10 70.13 90.14
  C 69.68 90.67 69.17 90.90 68.60 90.83
  C 68.22 90.78 68.02 90.57 68.01 90.19
  L 67.97 88.20
  C 67.96 87.86 68.27 87.60 68.60 87.67
  C 69.65 87.88 70.02 88.58 69.71 89.76
  C 69.68 89.85 69.72 89.91 69.82 89.94
  Z"
/>
</svg>
