<?xml version="1.0" encoding="UTF-8" standalone="no"?>
<!DOCTYPE svg PUBLIC "-//W3C//DTD SVG 1.1//EN" "http://www.w3.org/Graphics/SVG/1.1/DTD/svg11.dtd">
<svg xmlns="http://www.w3.org/2000/svg" version="1.1" viewBox="0 0 114 114">
<g stroke-width="2.00" fill="none" stroke-linecap="butt">
<path stroke="#868586" vector-effect="non-scaling-stroke" d="
  M 0.00 101.94
  C 1.10 110.70 6.64 113.75 14.95 113.75
  C 42.26 113.75 69.57 113.75 96.90 113.76
  C 106.14 113.76 112.36 110.80 112.39 100.49
  C 112.47 72.68 112.51 44.87 112.50 17.06
  C 112.50 5.58 108.51 1.25 96.74 1.25
  C 69.51 1.26 42.26 1.25 15.00 1.24
  C 5.71 1.24 -0.42 5.05 0.00 15.44"
/>
<path stroke="#868586" vector-effect="non-scaling-stroke" d="
  M 0.00 58.44
  C 0.42 56.35 0.42 54.27 0.00 52.19"
/>
<path stroke="#50524d" vector-effect="non-scaling-stroke" d="
  M 14.75 46.21
  C 15.54 45.88 16.18 45.37 16.67 44.69
  C 17.00 44.24 16.91 44.14 16.42 44.39
  C 15.68 44.77 15.04 45.29 14.50 45.96"
/>
<path stroke="#868586" vector-effect="non-scaling-stroke" d="
  M 14.50 45.96
  C 13.95 46.11 13.43 46.10 12.92 45.91
  C 12.49 45.76 12.47 45.56 12.86 45.33
  L 16.02 43.41
  C 16.20 43.30 16.28 43.14 16.25 42.93
  L 16.19 42.51
  C 16.14 42.16 15.97 42.08 15.68 42.28
  C 14.76 42.93 13.74 43.27 12.62 43.28
  C 11.77 43.29 11.67 43.02 12.32 42.47
  C 13.45 41.50 14.79 41.02 16.33 41.05
  C 17.92 41.08 17.93 40.94 16.38 40.61
  C 14.90 40.31 13.45 40.44 12.02 41.01
  C 11.83 41.08 11.67 41.05 11.53 40.91
  L 11.29 40.67
  C 11.04 40.42 11.05 40.18 11.33 39.95
  C 12.44 39.04 13.72 38.75 15.15 39.07
  C 15.39 39.12 15.51 39.03 15.50 38.79
  C 15.50 38.68 15.50 38.58 15.51 38.47
  C 15.54 38.20 15.42 38.10 15.15 38.16
  C 14.21 38.38 13.38 38.18 12.65 37.56
  C 11.82 36.86 11.94 36.57 13.02 36.70
  L 16.56 37.13
  C 16.87 37.16 17.09 37.33 17.21 37.63
  L 18.02 39.66
  C 18.15 39.99 18.09 40.29 17.84 40.54
  C 17.09 41.30 17.02 42.05 17.62 42.78
  C 17.86 43.07 18.16 43.29 18.52 43.43
  L 20.16 44.05
  C 20.75 44.27 20.76 44.51 20.17 44.76
  C 14.98 46.99 11.07 50.64 8.46 55.69
  C 8.31 55.98 8.39 56.18 8.71 56.27
  L 13.79 57.79
  C 14.24 57.93 14.33 58.19 14.06 58.57
  C 13.37 59.52 8.89 57.78 7.71 57.51
  C 7.27 57.41 6.98 57.57 6.83 58.00
  L 5.43 62.19
  C 5.24 62.76 5.44 62.98 6.02 62.86
  C 8.85 62.29 11.71 62.12 14.60 62.35
  C 17.07 62.54 17.08 62.83 14.64 63.20
  C 11.57 63.67 8.51 64.09 5.44 64.44
  C 5.13 64.48 4.92 64.65 4.82 64.94
  C 3.09 70.08 2.27 73.83 2.34 76.18
  C 2.57 83.39 2.60 90.60 2.44 97.81
  C 2.32 103.11 2.49 106.94 6.98 109.66
  C 11.43 112.35 21.33 111.29 26.93 111.23
  C 27.25 111.23 27.37 111.07 27.29 110.76
  C 25.25 103.01 24.36 95.26 21.96 87.51
  C 21.84 87.12 22.04 86.88 22.57 86.78
  C 22.97 86.71 23.25 86.86 23.40 87.24
  L 24.36 89.66
  C 24.53 90.08 24.72 90.09 24.93 89.69
  C 33.38 74.25 57.99 64.99 71.88 79.02
  C 72.26 79.40 72.90 79.06 72.81 78.53
  C 71.81 72.98 68.90 68.72 66.78 63.51
  C 66.64 63.17 66.39 63.04 66.03 63.12
  L 64.72 63.43
  C 64.43 63.50 64.22 63.41 64.08 63.14
  L 63.87 62.75
  C 63.67 62.38 63.77 62.15 64.18 62.04
  L 66.15 61.51
  C 66.50 61.42 66.63 61.19 66.56 60.84
  L 66.01 58.25
  C 65.87 57.60 65.62 57.55 65.25 58.11
  C 64.82 58.78 64.22 59.03 63.46 58.86
  C 62.59 58.67 62.53 58.35 63.30 57.89
  L 64.76 57.03
  C 65.09 56.82 65.20 56.54 65.08 56.17
  C 63.65 51.72 57.98 42.22 52.78 41.74
  C 52.43 41.71 52.24 41.51 52.23 41.16
  C 52.12 38.65 52.99 36.66 54.83 35.19
  C 55.11 34.96 55.27 34.67 55.31 34.32
  C 55.91 29.04 54.94 24.09 52.39 19.46
  C 51.90 18.57 50.65 18.48 50.05 19.30
  C 47.58 22.67 43.70 31.69 47.58 35.12
  C 47.83 35.34 47.88 35.59 47.71 35.88
  C 46.86 37.33 45.06 34.61 44.78 33.86
  C 43.40 30.19 47.43 12.74 53.29 18.43
  C 56.96 21.99 57.48 30.13 57.01 35.03
  C 56.98 35.42 56.80 35.72 56.49 35.94
  L 54.35 37.47
  C 53.84 37.84 53.89 38.07 54.52 38.15
  L 55.51 38.29
  C 56.12 38.37 56.17 38.59 55.68 38.95
  L 54.63 39.71
  C 54.24 39.99 54.25 40.26 54.65 40.52
  C 60.14 44.08 64.01 48.95 66.27 55.12
  C 66.41 55.49 66.67 55.62 67.06 55.51
  L 67.99 55.23
  C 68.25 55.16 68.38 54.98 68.39 54.71
  L 68.91 23.45
  C 68.92 23.14 68.76 22.98 68.45 22.99
  C 61.64 23.21 54.32 16.68 52.07 10.64
  C 51.95 10.32 51.95 10.00 52.07 9.69
  C 53.69 5.38 57.55 5.53 61.36 7.39
  C 61.67 7.54 61.99 7.61 62.34 7.58
  C 66.29 7.29 69.27 8.73 71.30 11.90
  C 71.57 12.33 72.13 12.47 72.57 12.22
  C 76.41 10.10 87.19 6.06 90.80 9.87
  C 92.19 11.33 92.40 13.20 91.45 15.47
  C 88.50 22.53 79.46 21.42 73.14 22.32
  C 72.67 22.39 72.31 22.79 72.30 23.27
  L 71.65 53.74"
/>
<path stroke="#50524d" vector-effect="non-scaling-stroke" d="
  M 71.65 53.74
  C 70.50 47.69 70.34 41.63 71.17 35.54
  C 71.21 35.22 71.14 34.92 70.97 34.65
  C 70.25 33.56 71.47 25.23 71.59 23.36
  C 71.61 23.12 71.50 23.00 71.25 23.00
  C 71.16 23.00 71.08 23.00 70.99 23.00
  C 70.69 23.01 70.53 23.16 70.52 23.46
  C 69.96 33.14 69.86 42.83 70.23 52.53
  C 70.24 52.86 70.32 53.17 70.47 53.46
  L 70.94 54.37
  C 71.18 54.83 71.43 54.83 71.68 54.38
  L 72.00 53.79"
/>
<path stroke="#868586" vector-effect="non-scaling-stroke" d="
  M 72.00 53.79
  L 76.62 53.26
  C 76.93 53.23 77.14 53.36 77.23 53.66
  C 77.26 53.75 77.27 53.84 77.26 53.93
  C 77.23 54.26 77.05 54.46 76.72 54.51
  L 72.35 55.23
  C 71.95 55.30 71.75 55.53 71.75 55.94
  L 71.75 61.04
  C 71.75 61.39 71.93 61.58 72.28 61.61
  L 78.78 62.06
  C 79.12 62.09 79.36 62.39 79.32 62.73
  C 79.29 62.96 79.21 63.15 79.10 63.29
  C 78.92 63.50 78.69 63.60 78.42 63.58
  L 72.60 63.17
  C 72.06 63.14 71.84 63.39 71.93 63.92
  L 73.93 75.22
  C 74.00 75.63 74.24 75.82 74.65 75.79
  C 76.29 75.70 76.89 76.49 76.45 78.16
  C 76.36 78.49 76.45 78.76 76.71 78.97
  C 80.30 81.96 81.06 85.66 78.99 90.08
  C 78.84 90.39 78.81 90.72 78.90 91.06
  C 80.73 97.64 82.17 103.75 79.92 110.49
  C 79.77 110.95 79.93 111.19 80.42 111.20
  C 86.47 111.31 92.52 111.32 98.59 111.23
  C 107.66 111.10 109.99 106.57 109.99 97.85
  C 110.01 70.46 110.01 43.07 109.99 15.69
  C 109.98 6.04 105.45 3.74 96.18 3.74
  C 68.77 3.75 41.37 3.75 13.97 3.76
  C 5.28 3.76 2.56 8.13 2.51 16.59
  C 2.44 29.39 2.39 42.21 2.37 55.05
  C 2.37 55.44 2.56 55.65 2.95 55.70
  L 5.94 56.04
  C 6.36 56.09 6.66 55.92 6.84 55.53
  C 8.60 51.70 11.24 48.59 14.75 46.21"
/>
<path stroke="#c0c3be" vector-effect="non-scaling-stroke" d="
  M 72.00 53.79
  C 71.92 53.76 71.80 53.75 71.65 53.74"
/>
<path stroke="#c0c3be" vector-effect="non-scaling-stroke" d="
  M 14.50 45.96
  L 14.75 46.21"
/>
<path stroke="#868586" vector-effect="non-scaling-stroke" d="
  M 74.74 13.45
  C 75.97 13.43 82.82 13.65 82.49 15.76
  C 82.43 16.18 82.20 16.31 81.81 16.14
  C 79.10 14.99 76.31 14.62 73.42 15.03
  C 73.10 15.08 72.84 14.98 72.64 14.73
  C 72.01 13.96 71.25 13.40 70.35 13.03
  C 70.02 12.90 69.77 12.68 69.58 12.39
  C 67.19 8.78 64.78 9.51 61.21 8.66
  C 59.62 8.28 57.27 7.27 55.78 7.66
  C 53.50 8.25 53.34 10.57 54.55 12.38
  C 57.25 16.43 62.98 21.79 68.29 21.19
  C 72.39 20.72 76.48 20.27 80.57 19.83
  C 85.94 19.25 89.49 18.25 90.25 12.59
  C 90.36 11.79 89.91 11.03 89.17 10.72
  C 84.88 8.96 78.73 11.16 74.63 12.95
  C 73.82 13.30 73.86 13.47 74.74 13.45"
/>
<path stroke="#868586" vector-effect="non-scaling-stroke" d="
  M 2.50 58.25
  C 2.19 59.38 2.15 60.92 2.37 62.87
  C 2.44 63.46 3.25 63.56 3.47 63.01
  L 5.43 58.01
  C 5.59 57.61 5.46 57.37 5.03 57.30
  L 3.06 56.97
  C 2.68 56.90 2.43 57.05 2.32 57.42
  C 2.23 57.71 2.29 57.99 2.50 58.25"
/>
<path stroke="#868586" vector-effect="non-scaling-stroke" d="
  M 68.69 60.30
  C 69.19 58.91 68.92 57.70 67.87 56.65
  C 67.00 55.78 66.74 55.94 67.10 57.11
  L 68.08 60.29
  C 68.27 60.90 68.47 60.90 68.69 60.30"
/>
<path stroke="#50524d" vector-effect="non-scaling-stroke" d="
  M 71.3265 69.8438
  C 71.72 69.75 71.67 68.18 71.2295 66.3383
  C 70.78 64.50 70.11 63.08 69.7135 63.1762
  C 69.32 63.27 69.37 64.84 69.8105 66.6817
  C 70.26 68.52 70.93 69.94 71.3265 69.8438"
/>
<path stroke="#50524d" vector-effect="non-scaling-stroke" d="
  M 2.4387 66.5299
  C 2.63 66.57 2.88 66.20 2.9821 65.7048
  C 3.09 65.21 3.02 64.77 2.8213 64.7301
  C 2.63 64.69 2.38 65.06 2.2779 65.5552
  C 2.17 66.05 2.24 66.49 2.4387 66.5299"
/>
<path stroke="#868586" vector-effect="non-scaling-stroke" d="
  M 79.32 101.27
  C 79.24 99.24 76.75 97.43 74.87 98.91
  C 74.56 99.16 74.26 99.14 73.99 98.84
  C 71.87 96.51 74.88 93.28 77.33 93.15
  C 77.58 93.14 77.66 93.01 77.59 92.77
  C 75.13 84.93 73.24 81.01 67.01 76.95
  C 53.92 68.41 29.75 78.06 25.32 92.69
  C 25.23 93.01 25.22 93.33 25.31 93.65
  C 26.78 99.25 27.86 104.93 28.53 110.70
  C 28.58 111.07 28.79 111.26 29.17 111.26
  L 77.99 111.24
  C 78.28 111.24 78.46 111.10 78.52 110.81
  C 79.16 107.60 79.43 104.42 79.32 101.27"
/>
<path stroke="#1c1c1c" vector-effect="non-scaling-stroke" d="
  M 76.0163 80.8966
  C 76.11 80.61 75.61 80.20 74.9151 79.9759
  C 74.22 79.75 73.57 79.80 73.4837 80.0834
  C 73.39 80.37 73.89 80.78 74.5849 81.0041
  C 75.28 81.23 75.93 81.18 76.0163 80.8966"
/>
<path stroke="#868586" vector-effect="non-scaling-stroke" d="
  M 77.69 83.69
  C 76.28 84.95 76.28 86.21 77.68 87.46
  C 78.07 87.81 78.28 87.73 78.30 87.20
  L 78.47 83.63
  C 78.49 83.12 78.29 83.01 77.87 83.29
  C 77.70 83.40 77.64 83.54 77.69 83.69"
/>
<path stroke="#868586" vector-effect="non-scaling-stroke" d="
  M 78.73 97.41
  C 78.77 95.48 76.61 94.80 74.99 95.97
  C 74.62 96.24 74.86 96.82 75.31 96.76
  C 76.43 96.60 77.39 96.89 78.20 97.63
  C 78.54 97.95 78.72 97.88 78.73 97.41"
/>
<path stroke="#868586" vector-effect="non-scaling-stroke" d="
  M 15.97 15.04
  C 19.55 18.55 26.96 28.33 23.42 32.79
  C 23.21 33.06 23.22 33.31 23.43 33.56
  C 23.80 33.98 24.35 33.76 25.10 32.89
  C 25.31 32.64 25.48 32.38 25.62 32.09
  C 27.90 27.23 17.08 8.31 11.74 13.11
  C 8.73 15.80 9.17 25.41 9.75 29.05
  C 10.41 33.14 10.45 36.35 15.37 36.03
  C 15.63 36.01 15.76 35.87 15.76 35.61
  C 15.76 34.87 13.37 34.26 12.79 34.01
  C 12.46 33.87 12.26 33.63 12.17 33.28
  C 11.93 32.28 8.57 7.79 15.97 15.04"
/>
<path stroke="#8d8d8d" vector-effect="non-scaling-stroke" d="
  M 90.52 25.61
  C 79.82 28.35 75.19 50.63 90.23 52.23
  C 112.75 54.62 110.44 20.51 90.52 25.61"
/>
<path stroke="#868586" vector-effect="non-scaling-stroke" d="
  M 26.32 35.15
  C 27.07 34.83 28.14 34.70 27.93 33.64
  C 27.85 33.24 27.44 33.00 27.05 33.13
  C 25.13 33.78 23.52 34.91 22.23 36.50
  C 21.93 36.87 22.01 37.13 22.47 37.26
  L 24.36 37.81
  C 24.98 37.99 25.00 38.23 24.43 38.53
  C 23.78 38.86 23.47 39.36 23.49 40.02
  C 23.50 40.82 23.81 40.96 24.41 40.44
  C 25.12 39.83 25.93 39.51 26.85 39.48
  C 27.24 39.47 27.44 39.28 27.43 38.89
  L 27.40 36.56
  C 27.40 36.29 27.26 36.12 26.99 36.07
  C 26.83 36.04 26.67 36.02 26.51 36.03
  C 25.00 36.04 24.94 35.74 26.32 35.15"
/>
<path stroke="#868586" vector-effect="non-scaling-stroke" d="
  M 44.47 37.84
  C 37.81 36.73 31.56 37.87 25.71 41.25
  C 25.27 41.51 25.07 41.94 25.03 42.42
  C 24.99 42.84 25.44 43.13 25.81 42.92
  C 32.14 39.24 38.90 38.16 46.10 39.68
  C 46.53 39.77 46.76 39.60 46.79 39.16
  C 46.94 36.79 45.80 35.43 43.39 35.07
  C 43.24 35.05 43.14 35.11 43.09 35.25
  C 43.06 35.34 43.01 35.45 42.96 35.57
  C 42.89 35.74 42.93 35.89 43.07 36.01
  L 44.69 37.36
  C 45.21 37.79 45.14 37.95 44.47 37.84"
/>
<path stroke="#868586" vector-effect="non-scaling-stroke" d="
  M 33.9364 52.3139
  C 33.04 48.51 29.00 46.21 24.9212 47.1699
  C 20.84 48.13 18.26 52.00 19.1636 55.8061
  C 20.06 59.61 24.10 61.91 28.1788 60.9501
  C 32.26 59.99 34.84 56.12 33.9364 52.3139"
/>
<path stroke="#868586" vector-effect="non-scaling-stroke" d="
  M 58.0723 60.4630
  C 60.95 59.82 62.64 56.45 61.8516 52.9373
  C 61.07 49.42 58.10 47.09 55.2277 47.7370
  C 52.35 48.38 50.66 51.75 51.4484 55.2627
  C 52.23 58.78 55.20 61.11 58.0723 60.4630"
/>
<path stroke="#868586" vector-effect="non-scaling-stroke" d="
  M 49.0500 54.1557
  C 49.05 53.24 47.58 52.49 45.7629 52.4900
  C 43.95 52.49 42.47 53.23 42.4700 54.1443
  C 42.47 55.06 43.94 55.81 45.7571 55.8100
  C 47.57 55.81 49.05 55.07 49.0500 54.1557"
/>
<path stroke="#8d8d8d" vector-effect="non-scaling-stroke" d="
  M 94.30 74.65
  C 94.03 74.52 94.03 74.13 94.30 74.00
  C 99.34 71.66 103.04 67.98 105.40 62.97
  C 105.63 62.49 105.48 62.25 104.95 62.25
  L 100.83 62.25
  C 100.45 62.25 100.15 62.41 99.93 62.72
  C 97.08 66.85 93.46 70.12 89.06 72.52
  C 88.69 72.73 88.50 72.62 88.50 72.19
  L 88.51 62.24
  C 88.51 61.82 88.16 61.47 87.74 61.48
  C 83.13 61.57 83.73 63.07 83.37 67.10
  C 82.78 73.65 82.40 80.36 82.22 87.22
  C 82.21 87.65 82.55 88.00 82.98 88.00
  L 86.46 88.00
  C 87.60 88.00 88.18 87.43 88.20 86.29
  L 88.37 76.30
  C 88.37 76.02 88.67 75.85 88.92 75.98
  C 94.39 78.87 98.50 83.07 101.25 88.58
  C 101.48 89.03 101.83 89.18 102.31 89.03
  L 106.22 87.81
  C 106.81 87.62 107.08 86.94 106.78 86.41
  C 103.87 81.18 99.71 77.26 94.30 74.65"
/>
<path stroke="#868586" vector-effect="non-scaling-stroke" d="
  M 46.60 67.83
  C 46.91 68.13 47.27 68.27 47.68 68.26
  C 48.19 68.24 48.31 68.01 48.06 67.57
  C 47.14 65.96 44.59 65.94 43.88 67.77
  C 43.64 68.41 43.83 68.58 44.44 68.28
  L 45.65 67.68
  C 46.00 67.51 46.32 67.56 46.60 67.83"
/>
<path stroke="#868586" vector-effect="non-scaling-stroke" d="
  M 69.06 14.60
  C 68.50 15.42 65.74 17.75 66.34 18.70
  C 66.51 18.95 66.70 18.97 66.91 18.76
  L 71.03 14.73
  C 71.23 14.53 71.18 14.19 70.93 14.06
  L 67.66 12.35
  C 67.39 12.21 67.17 12.27 67.01 12.52
  C 66.49 13.34 68.18 14.01 68.76 14.02
  C 69.21 14.03 69.31 14.23 69.06 14.60"
/>
<path stroke="#8d8d8d" vector-effect="non-scaling-stroke" d="
  M 93.60 47.23
  C 107.30 45.62 99.87 24.86 91.63 31.64
  C 87.96 34.65 84.86 36.84 85.99 42.14
  C 86.77 45.79 90.07 47.65 93.60 47.23"
/>
<path stroke="#50524d" vector-effect="non-scaling-stroke" d="
  M 26.9783 37.6143
  C 26.94 37.46 26.42 37.45 25.8118 37.5981
  C 25.21 37.74 24.74 37.99 24.7817 38.1457
  C 24.82 38.30 25.34 38.31 25.9482 38.1619
  C 26.55 38.02 27.02 37.77 26.9783 37.6143"
/>
<path stroke="#868586" vector-effect="non-scaling-stroke" d="
  M 32.1742 52.7197
  C 31.49 49.69 28.34 47.82 25.1245 48.5475
  C 21.91 49.27 19.86 52.31 20.5458 55.3403
  C 21.23 58.37 24.38 60.24 27.5955 59.5125
  C 30.81 58.79 32.86 55.75 32.1742 52.7197"
/>
<path stroke="#868586" vector-effect="non-scaling-stroke" d="
  M 57.1906 59.1485
  C 59.27 58.88 60.67 56.39 60.3092 53.5872
  C 59.95 50.78 57.97 48.72 55.8894 48.9915
  C 53.81 49.26 52.41 51.75 52.7708 54.5528
  C 53.13 57.36 55.11 59.42 57.1906 59.1485"
/>
<path stroke="#868586" vector-effect="non-scaling-stroke" d="
  M 29.31 54.01
  C 29.31 52.55 28.13 51.37 26.67 51.37
  C 25.21 51.37 24.03 52.55 24.03 54.01
  C 24.03 55.47 25.21 56.65 26.67 56.65
  C 28.13 56.65 29.31 55.47 29.31 54.01"
/>
<path stroke="#868586" vector-effect="non-scaling-stroke" d="
  M 57.3915 56.3214
  C 58.43 55.99 58.96 54.73 58.5773 53.5113
  C 58.19 52.29 57.03 51.57 55.9885 51.8986
  C 54.95 52.23 54.42 53.49 54.8027 54.7087
  C 55.19 55.93 56.35 56.65 57.3915 56.3214"
/>
<path stroke="#50524d" vector-effect="non-scaling-stroke" d="
  M 45.51 53.62
  C 45.26 53.70 45.13 53.99 45.24 54.23
  C 45.57 54.96 45.95 54.92 46.39 54.11
  C 46.57 53.77 46.25 53.38 45.89 53.50
  L 45.51 53.62"
/>
<path stroke="#868586" vector-effect="non-scaling-stroke" d="
  M 61.21 86.32
  C 60.47 83.77 56.57 80.16 53.81 81.34
  C 51.52 82.31 49.75 84.26 48.52 87.21
  C 48.37 87.57 48.46 87.86 48.79 88.07
  L 49.97 88.82
  C 50.26 89.01 50.56 89.01 50.85 88.83
  L 54.63 86.41
  C 54.91 86.24 55.21 86.20 55.52 86.29
  L 59.94 87.59
  C 60.72 87.82 61.44 87.10 61.21 86.32"
/>
<path stroke="#868586" vector-effect="non-scaling-stroke" d="
  M 74.02 86.80
  C 73.46 82.12 69.15 79.72 66.69 85.33
  C 66.34 86.14 66.57 86.70 67.40 87.01
  C 68.20 87.31 68.94 87.19 69.61 86.64
  C 69.92 86.39 70.27 86.33 70.65 86.46
  L 73.32 87.37
  C 73.85 87.55 74.09 87.36 74.02 86.80"
/>
<path stroke="#868586" vector-effect="non-scaling-stroke" d="
  M 43.29 90.80
  C 42.81 87.51 37.95 85.40 35.29 87.01
  C 32.71 88.57 31.36 91.11 31.24 94.64
  C 31.23 95.05 31.42 95.25 31.83 95.25
  L 32.93 95.25
  C 33.28 95.25 33.56 95.11 33.78 94.84
  C 35.92 92.08 37.85 90.09 41.62 92.00
  C 42.46 92.42 43.42 91.73 43.29 90.80"
/>
<path stroke="#868586" vector-effect="non-scaling-stroke" d="
  M 69.39 98.39
  C 67.53 90.39 61.23 93.13 59.10 98.54
  C 58.96 98.91 59.03 99.22 59.32 99.49
  L 60.49 100.57
  C 60.84 100.90 61.17 100.87 61.46 100.49
  C 63.31 98.12 65.42 97.78 67.77 99.47
  C 68.55 100.03 69.61 99.33 69.39 98.39"
/>
<path stroke="#868586" vector-effect="non-scaling-stroke" d="
  M 46.49 95.74
  C 44.31 96.51 37.40 104.14 42.48 104.33
  C 42.85 104.34 43.18 104.23 43.46 103.98
  L 46.56 101.19
  C 46.82 100.96 47.12 100.89 47.46 100.99
  L 50.74 101.97
  C 51.02 102.06 51.30 102.04 51.57 101.93
  C 55.27 100.44 48.68 96.24 47.46 95.76
  C 47.14 95.63 46.82 95.63 46.49 95.74"
/>
<path stroke="#868586" vector-effect="non-scaling-stroke" d="
  M 58.42 85.19
  C 57.65 83.64 56.45 82.71 54.82 82.40
  C 54.49 82.34 54.20 82.43 53.95 82.67
  L 50.31 86.31
  C 50.19 86.44 50.19 86.56 50.31 86.69
  L 50.54 86.91
  C 50.68 87.06 50.83 87.06 50.98 86.93
  C 52.31 85.78 53.83 85.11 55.55 84.92
  C 55.91 84.89 56.24 84.97 56.54 85.17
  C 57.04 85.50 57.59 85.64 58.20 85.59
  C 58.47 85.56 58.54 85.43 58.42 85.19"
/>
<path stroke="#868586" vector-effect="non-scaling-stroke" d="
  M 70.61 85.15
  C 70.84 85.29 71.10 85.31 71.39 85.21
  C 71.70 85.10 71.81 84.89 71.73 84.58
  C 71.58 84.00 71.12 83.63 70.35 83.46
  C 69.96 83.38 69.62 83.49 69.33 83.78
  L 68.27 84.89
  C 67.74 85.44 67.85 85.61 68.58 85.42
  L 69.94 85.06
  C 70.17 85.00 70.40 85.03 70.61 85.15"
/>
<path stroke="#868586" vector-effect="non-scaling-stroke" d="
  M 41.20 89.73
  C 40.96 88.54 37.89 87.72 36.98 87.72
  C 36.61 87.71 36.30 87.85 36.06 88.14
  L 32.28 92.73
  C 32.11 92.93 32.16 93.07 32.41 93.14
  C 32.54 93.18 32.66 93.22 32.79 93.27
  C 33.09 93.38 33.32 93.30 33.49 93.03
  C 35.12 90.24 37.51 89.31 40.64 90.24
  C 41.11 90.38 41.29 90.21 41.20 89.73"
/>
<path stroke="#868586" vector-effect="non-scaling-stroke" d="
  M 65.60 96.86
  L 66.94 97.45
  C 67.47 97.69 67.61 97.55 67.36 97.02
  C 66.98 96.19 66.44 95.48 65.73 94.87
  C 65.49 94.66 65.22 94.62 64.93 94.74
  C 63.42 95.37 62.19 96.37 61.23 97.74
  C 60.81 98.34 60.93 98.48 61.60 98.17
  L 64.38 96.87
  C 64.79 96.68 65.19 96.68 65.60 96.86"
/>
<path stroke="#868586" vector-effect="non-scaling-stroke" d="
  M 48.10 97.52
  C 45.58 95.67 42.94 100.58 42.17 102.32
  C 42.03 102.64 42.41 102.94 42.69 102.73
  C 45.29 100.82 46.34 98.25 50.08 100.63
  C 50.50 100.90 50.65 100.79 50.52 100.31
  C 50.17 98.96 49.14 98.27 48.10 97.52"
/>
</g>
<path fill="#f6f6f6" d="
  M 0.00 0.00
  L 114.00 0.00
  L 114.00 114.00
  L 0.00 114.00
  L 0.00 101.94
  C 1.10 110.70 6.64 113.75 14.95 113.75
  C 42.26 113.75 69.57 113.75 96.90 113.76
  C 106.14 113.76 112.36 110.80 112.39 100.49
  C 112.47 72.68 112.51 44.87 112.50 17.06
  C 112.50 5.58 108.51 1.25 96.74 1.25
  C 69.51 1.26 42.26 1.25 15.00 1.24
  C 5.71 1.24 -0.42 5.05 0.00 15.44
  L 0.00 0.00
  Z"
/>
<path fill="#151415" d="
  M 0.00 101.94
  L 0.00 58.44
  C 0.42 56.35 0.42 54.27 0.00 52.19
  L 0.00 15.44
  C -0.42 5.05 5.71 1.24 15.00 1.24
  C 42.26 1.25 69.51 1.26 96.74 1.25
  C 108.51 1.25 112.50 5.58 112.50 17.06
  C 112.51 44.87 112.47 72.68 112.39 100.49
  C 112.36 110.80 106.14 113.76 96.90 113.76
  C 69.57 113.75 42.26 113.75 14.95 113.75
  C 6.64 113.75 1.10 110.70 0.00 101.94
  Z
  M 14.75 46.21
  C 15.54 45.88 16.18 45.37 16.67 44.69
  C 17.00 44.24 16.91 44.14 16.42 44.39
  C 15.68 44.77 15.04 45.29 14.50 45.96
  C 13.95 46.11 13.43 46.10 12.92 45.91
  C 12.49 45.76 12.47 45.56 12.86 45.33
  L 16.02 43.41
  C 16.20 43.30 16.28 43.14 16.25 42.93
  L 16.19 42.51
  C 16.14 42.16 15.97 42.08 15.68 42.28
  C 14.76 42.93 13.74 43.27 12.62 43.28
  C 11.77 43.29 11.67 43.02 12.32 42.47
  C 13.45 41.50 14.79 41.02 16.33 41.05
  C 17.92 41.08 17.93 40.94 16.38 40.61
  C 14.90 40.31 13.45 40.44 12.02 41.01
  C 11.83 41.08 11.67 41.05 11.53 40.91
  L 11.29 40.67
  C 11.04 40.42 11.05 40.18 11.33 39.95
  C 12.44 39.04 13.72 38.75 15.15 39.07
  C 15.39 39.12 15.51 39.03 15.50 38.79
  C 15.50 38.68 15.50 38.58 15.51 38.47
  C 15.54 38.20 15.42 38.10 15.15 38.16
  C 14.21 38.38 13.38 38.18 12.65 37.56
  C 11.82 36.86 11.94 36.57 13.02 36.70
  L 16.56 37.13
  C 16.87 37.16 17.09 37.33 17.21 37.63
  L 18.02 39.66
  C 18.15 39.99 18.09 40.29 17.84 40.54
  C 17.09 41.30 17.02 42.05 17.62 42.78
  C 17.86 43.07 18.16 43.29 18.52 43.43
  L 20.16 44.05
  C 20.75 44.27 20.76 44.51 20.17 44.76
  C 14.98 46.99 11.07 50.64 8.46 55.69
  C 8.31 55.98 8.39 56.18 8.71 56.27
  L 13.79 57.79
  C 14.24 57.93 14.33 58.19 14.06 58.57
  C 13.37 59.52 8.89 57.78 7.71 57.51
  C 7.27 57.41 6.98 57.57 6.83 58.00
  L 5.43 62.19
  C 5.24 62.76 5.44 62.98 6.02 62.86
  C 8.85 62.29 11.71 62.12 14.60 62.35
  C 17.07 62.54 17.08 62.83 14.64 63.20
  C 11.57 63.67 8.51 64.09 5.44 64.44
  C 5.13 64.48 4.92 64.65 4.82 64.94
  C 3.09 70.08 2.27 73.83 2.34 76.18
  C 2.57 83.39 2.60 90.60 2.44 97.81
  C 2.32 103.11 2.49 106.94 6.98 109.66
  C 11.43 112.35 21.33 111.29 26.93 111.23
  C 27.25 111.23 27.37 111.07 27.29 110.76
  C 25.25 103.01 24.36 95.26 21.96 87.51
  C 21.84 87.12 22.04 86.88 22.57 86.78
  C 22.97 86.71 23.25 86.86 23.40 87.24
  L 24.36 89.66
  C 24.53 90.08 24.72 90.09 24.93 89.69
  C 33.38 74.25 57.99 64.99 71.88 79.02
  C 72.26 79.40 72.90 79.06 72.81 78.53
  C 71.81 72.98 68.90 68.72 66.78 63.51
  C 66.64 63.17 66.39 63.04 66.03 63.12
  L 64.72 63.43
  C 64.43 63.50 64.22 63.41 64.08 63.14
  L 63.87 62.75
  C 63.67 62.38 63.77 62.15 64.18 62.04
  L 66.15 61.51
  C 66.50 61.42 66.63 61.19 66.56 60.84
  L 66.01 58.25
  C 65.87 57.60 65.62 57.55 65.25 58.11
  C 64.82 58.78 64.22 59.03 63.46 58.86
  C 62.59 58.67 62.53 58.35 63.30 57.89
  L 64.76 57.03
  C 65.09 56.82 65.20 56.54 65.08 56.17
  C 63.65 51.72 57.98 42.22 52.78 41.74
  C 52.43 41.71 52.24 41.51 52.23 41.16
  C 52.12 38.65 52.99 36.66 54.83 35.19
  C 55.11 34.96 55.27 34.67 55.31 34.32
  C 55.91 29.04 54.94 24.09 52.39 19.46
  C 51.90 18.57 50.65 18.48 50.05 19.30
  C 47.58 22.67 43.70 31.69 47.58 35.12
  C 47.83 35.34 47.88 35.59 47.71 35.88
  C 46.86 37.33 45.06 34.61 44.78 33.86
  C 43.40 30.19 47.43 12.74 53.29 18.43
  C 56.96 21.99 57.48 30.13 57.01 35.03
  C 56.98 35.42 56.80 35.72 56.49 35.94
  L 54.35 37.47
  C 53.84 37.84 53.89 38.07 54.52 38.15
  L 55.51 38.29
  C 56.12 38.37 56.17 38.59 55.68 38.95
  L 54.63 39.71
  C 54.24 39.99 54.25 40.26 54.65 40.52
  C 60.14 44.08 64.01 48.95 66.27 55.12
  C 66.41 55.49 66.67 55.62 67.06 55.51
  L 67.99 55.23
  C 68.25 55.16 68.38 54.98 68.39 54.71
  L 68.91 23.45
  C 68.92 23.14 68.76 22.98 68.45 22.99
  C 61.64 23.21 54.32 16.68 52.07 10.64
  C 51.95 10.32 51.95 10.00 52.07 9.69
  C 53.69 5.38 57.55 5.53 61.36 7.39
  C 61.67 7.54 61.99 7.61 62.34 7.58
  C 66.29 7.29 69.27 8.73 71.30 11.90
  C 71.57 12.33 72.13 12.47 72.57 12.22
  C 76.41 10.10 87.19 6.06 90.80 9.87
  C 92.19 11.33 92.40 13.20 91.45 15.47
  C 88.50 22.53 79.46 21.42 73.14 22.32
  C 72.67 22.39 72.31 22.79 72.30 23.27
  L 71.65 53.74
  C 70.50 47.69 70.34 41.63 71.17 35.54
  C 71.21 35.22 71.14 34.92 70.97 34.65
  C 70.25 33.56 71.47 25.23 71.59 23.36
  C 71.61 23.12 71.50 23.00 71.25 23.00
  C 71.16 23.00 71.08 23.00 70.99 23.00
  C 70.69 23.01 70.53 23.16 70.52 23.46
  C 69.96 33.14 69.86 42.83 70.23 52.53
  C 70.24 52.86 70.32 53.17 70.47 53.46
  L 70.94 54.37
  C 71.18 54.83 71.43 54.83 71.68 54.38
  L 72.00 53.79
  L 76.62 53.26
  C 76.93 53.23 77.14 53.36 77.23 53.66
  C 77.26 53.75 77.27 53.84 77.26 53.93
  C 77.23 54.26 77.05 54.46 76.72 54.51
  L 72.35 55.23
  C 71.95 55.30 71.75 55.53 71.75 55.94
  L 71.75 61.04
  C 71.75 61.39 71.93 61.58 72.28 61.61
  L 78.78 62.06
  C 79.12 62.09 79.36 62.39 79.32 62.73
  C 79.29 62.96 79.21 63.15 79.10 63.29
  C 78.92 63.50 78.69 63.60 78.42 63.58
  L 72.60 63.17
  C 72.06 63.14 71.84 63.39 71.93 63.92
  L 73.93 75.22
  C 74.00 75.63 74.24 75.82 74.65 75.79
  C 76.29 75.70 76.89 76.49 76.45 78.16
  C 76.36 78.49 76.45 78.76 76.71 78.97
  C 80.30 81.96 81.06 85.66 78.99 90.08
  C 78.84 90.39 78.81 90.72 78.90 91.06
  C 80.73 97.64 82.17 103.75 79.92 110.49
  C 79.77 110.95 79.93 111.19 80.42 111.20
  C 86.47 111.31 92.52 111.32 98.59 111.23
  C 107.66 111.10 109.99 106.57 109.99 97.85
  C 110.01 70.46 110.01 43.07 109.99 15.69
  C 109.98 6.04 105.45 3.74 96.18 3.74
  C 68.77 3.75 41.37 3.75 13.97 3.76
  C 5.28 3.76 2.56 8.13 2.51 16.59
  C 2.44 29.39 2.39 42.21 2.37 55.05
  C 2.37 55.44 2.56 55.65 2.95 55.70
  L 5.94 56.04
  C 6.36 56.09 6.66 55.92 6.84 55.53
  C 8.60 51.70 11.24 48.59 14.75 46.21
  Z
  M 74.74 13.45
  C 75.97 13.43 82.82 13.65 82.49 15.76
  C 82.43 16.18 82.20 16.31 81.81 16.14
  C 79.10 14.99 76.31 14.62 73.42 15.03
  C 73.10 15.08 72.84 14.98 72.64 14.73
  C 72.01 13.96 71.25 13.40 70.35 13.03
  C 70.02 12.90 69.77 12.68 69.58 12.39
  C 67.19 8.78 64.78 9.51 61.21 8.66
  C 59.62 8.28 57.27 7.27 55.78 7.66
  C 53.50 8.25 53.34 10.57 54.55 12.38
  C 57.25 16.43 62.98 21.79 68.29 21.19
  C 72.39 20.72 76.48 20.27 80.57 19.83
  C 85.94 19.25 89.49 18.25 90.25 12.59
  C 90.36 11.79 89.91 11.03 89.17 10.72
  C 84.88 8.96 78.73 11.16 74.63 12.95
  C 73.82 13.30 73.86 13.47 74.74 13.45
  Z
  M 2.50 58.25
  C 2.19 59.38 2.15 60.92 2.37 62.87
  C 2.44 63.46 3.25 63.56 3.47 63.01
  L 5.43 58.01
  C 5.59 57.61 5.46 57.37 5.03 57.30
  L 3.06 56.97
  C 2.68 56.90 2.43 57.05 2.32 57.42
  C 2.23 57.71 2.29 57.99 2.50 58.25
  Z
  M 68.69 60.30
  C 69.19 58.91 68.92 57.70 67.87 56.65
  C 67.00 55.78 66.74 55.94 67.10 57.11
  L 68.08 60.29
  C 68.27 60.90 68.47 60.90 68.69 60.30
  Z
  M 71.3265 69.8438
  C 71.72 69.75 71.67 68.18 71.2295 66.3383
  C 70.78 64.50 70.11 63.08 69.7135 63.1762
  C 69.32 63.27 69.37 64.84 69.8105 66.6817
  C 70.26 68.52 70.93 69.94 71.3265 69.8438
  Z
  M 2.4387 66.5299
  C 2.63 66.57 2.88 66.20 2.9821 65.7048
  C 3.09 65.21 3.02 64.77 2.8213 64.7301
  C 2.63 64.69 2.38 65.06 2.2779 65.5552
  C 2.17 66.05 2.24 66.49 2.4387 66.5299
  Z
  M 79.32 101.27
  C 79.24 99.24 76.75 97.43 74.87 98.91
  C 74.56 99.16 74.26 99.14 73.99 98.84
  C 71.87 96.51 74.88 93.28 77.33 93.15
  C 77.58 93.14 77.66 93.01 77.59 92.77
  C 75.13 84.93 73.24 81.01 67.01 76.95
  C 53.92 68.41 29.75 78.06 25.32 92.69
  C 25.23 93.01 25.22 93.33 25.31 93.65
  C 26.78 99.25 27.86 104.93 28.53 110.70
  C 28.58 111.07 28.79 111.26 29.17 111.26
  L 77.99 111.24
  C 78.28 111.24 78.46 111.10 78.52 110.81
  C 79.16 107.60 79.43 104.42 79.32 101.27
  Z
  M 76.0163 80.8966
  C 76.11 80.61 75.61 80.20 74.9151 79.9759
  C 74.22 79.75 73.57 79.80 73.4837 80.0834
  C 73.39 80.37 73.89 80.78 74.5849 81.0041
  C 75.28 81.23 75.93 81.18 76.0163 80.8966
  Z
  M 77.69 83.69
  C 76.28 84.95 76.28 86.21 77.68 87.46
  C 78.07 87.81 78.28 87.73 78.30 87.20
  L 78.47 83.63
  C 78.49 83.12 78.29 83.01 77.87 83.29
  C 77.70 83.40 77.64 83.54 77.69 83.69
  Z
  M 78.73 97.41
  C 78.77 95.48 76.61 94.80 74.99 95.97
  C 74.62 96.24 74.86 96.82 75.31 96.76
  C 76.43 96.60 77.39 96.89 78.20 97.63
  C 78.54 97.95 78.72 97.88 78.73 97.41
  Z"
/>
<path fill="#f6f6f6" d="
  M 72.00 53.79
  C 71.92 53.76 71.80 53.75 71.65 53.74
  L 72.30 23.27
  C 72.31 22.79 72.67 22.39 73.14 22.32
  C 79.46 21.42 88.50 22.53 91.45 15.47
  C 92.40 13.20 92.19 11.33 90.80 9.87
  C 87.19 6.06 76.41 10.10 72.57 12.22
  C 72.13 12.47 71.57 12.33 71.30 11.90
  C 69.27 8.73 66.29 7.29 62.34 7.58
  C 61.99 7.61 61.67 7.54 61.36 7.39
  C 57.55 5.53 53.69 5.38 52.07 9.69
  C 51.95 10.00 51.95 10.32 52.07 10.64
  C 54.32 16.68 61.64 23.21 68.45 22.99
  C 68.76 22.98 68.92 23.14 68.91 23.45
  L 68.39 54.71
  C 68.38 54.98 68.25 55.16 67.99 55.23
  L 67.06 55.51
  C 66.67 55.62 66.41 55.49 66.27 55.12
  C 64.01 48.95 60.14 44.08 54.65 40.52
  C 54.25 40.26 54.24 39.99 54.63 39.71
  L 55.68 38.95
  C 56.17 38.59 56.12 38.37 55.51 38.29
  L 54.52 38.15
  C 53.89 38.07 53.84 37.84 54.35 37.47
  L 56.49 35.94
  C 56.80 35.72 56.98 35.42 57.01 35.03
  C 57.48 30.13 56.96 21.99 53.29 18.43
  C 47.43 12.74 43.40 30.19 44.78 33.86
  C 45.06 34.61 46.86 37.33 47.71 35.88
  C 47.88 35.59 47.83 35.34 47.58 35.12
  C 43.70 31.69 47.58 22.67 50.05 19.30
  C 50.65 18.48 51.90 18.57 52.39 19.46
  C 54.94 24.09 55.91 29.04 55.31 34.32
  C 55.27 34.67 55.11 34.96 54.83 35.19
  C 52.99 36.66 52.12 38.65 52.23 41.16
  C 52.24 41.51 52.43 41.71 52.78 41.74
  C 57.98 42.22 63.65 51.72 65.08 56.17
  C 65.20 56.54 65.09 56.82 64.76 57.03
  L 63.30 57.89
  C 62.53 58.35 62.59 58.67 63.46 58.86
  C 64.22 59.03 64.82 58.78 65.25 58.11
  C 65.62 57.55 65.87 57.60 66.01 58.25
  L 66.56 60.84
  C 66.63 61.19 66.50 61.42 66.15 61.51
  L 64.18 62.04
  C 63.77 62.15 63.67 62.38 63.87 62.75
  L 64.08 63.14
  C 64.22 63.41 64.43 63.50 64.72 63.43
  L 66.03 63.12
  C 66.39 63.04 66.64 63.17 66.78 63.51
  C 68.90 68.72 71.81 72.98 72.81 78.53
  C 72.90 79.06 72.26 79.40 71.88 79.02
  C 57.99 64.99 33.38 74.25 24.93 89.69
  C 24.72 90.09 24.53 90.08 24.36 89.66
  L 23.40 87.24
  C 23.25 86.86 22.97 86.71 22.57 86.78
  C 22.04 86.88 21.84 87.12 21.96 87.51
  C 24.36 95.26 25.25 103.01 27.29 110.76
  C 27.37 111.07 27.25 111.23 26.93 111.23
  C 21.33 111.29 11.43 112.35 6.98 109.66
  C 2.49 106.94 2.32 103.11 2.44 97.81
  C 2.60 90.60 2.57 83.39 2.34 76.18
  C 2.27 73.83 3.09 70.08 4.82 64.94
  C 4.92 64.65 5.13 64.48 5.44 64.44
  C 8.51 64.09 11.57 63.67 14.64 63.20
  C 17.08 62.83 17.07 62.54 14.60 62.35
  C 11.71 62.12 8.85 62.29 6.02 62.86
  C 5.44 62.98 5.24 62.76 5.43 62.19
  L 6.83 58.00
  C 6.98 57.57 7.27 57.41 7.71 57.51
  C 8.89 57.78 13.37 59.52 14.06 58.57
  C 14.33 58.19 14.24 57.93 13.79 57.79
  L 8.71 56.27
  C 8.39 56.18 8.31 55.98 8.46 55.69
  C 11.07 50.64 14.98 46.99 20.17 44.76
  C 20.76 44.51 20.75 44.27 20.16 44.05
  L 18.52 43.43
  C 18.16 43.29 17.86 43.07 17.62 42.78
  C 17.02 42.05 17.09 41.30 17.84 40.54
  C 18.09 40.29 18.15 39.99 18.02 39.66
  L 17.21 37.63
  C 17.09 37.33 16.87 37.16 16.56 37.13
  L 13.02 36.70
  C 11.94 36.57 11.82 36.86 12.65 37.56
  C 13.38 38.18 14.21 38.38 15.15 38.16
  C 15.42 38.10 15.54 38.20 15.51 38.47
  C 15.50 38.58 15.50 38.68 15.50 38.79
  C 15.51 39.03 15.39 39.12 15.15 39.07
  C 13.72 38.75 12.44 39.04 11.33 39.95
  C 11.05 40.18 11.04 40.42 11.29 40.67
  L 11.53 40.91
  C 11.67 41.05 11.83 41.08 12.02 41.01
  C 13.45 40.44 14.90 40.31 16.38 40.61
  C 17.93 40.94 17.92 41.08 16.33 41.05
  C 14.79 41.02 13.45 41.50 12.32 42.47
  C 11.67 43.02 11.77 43.29 12.62 43.28
  C 13.74 43.27 14.76 42.93 15.68 42.28
  C 15.97 42.08 16.14 42.16 16.19 42.51
  L 16.25 42.93
  C 16.28 43.14 16.20 43.30 16.02 43.41
  L 12.86 45.33
  C 12.47 45.56 12.49 45.76 12.92 45.91
  C 13.43 46.10 13.95 46.11 14.50 45.96
  L 14.75 46.21
  C 11.24 48.59 8.60 51.70 6.84 55.53
  C 6.66 55.92 6.36 56.09 5.94 56.04
  L 2.95 55.70
  C 2.56 55.65 2.37 55.44 2.37 55.05
  C 2.39 42.21 2.44 29.39 2.51 16.59
  C 2.56 8.13 5.28 3.76 13.97 3.76
  C 41.37 3.75 68.77 3.75 96.18 3.74
  C 105.45 3.74 109.98 6.04 109.99 15.69
  C 110.01 43.07 110.01 70.46 109.99 97.85
  C 109.99 106.57 107.66 111.10 98.59 111.23
  C 92.52 111.32 86.47 111.31 80.42 111.20
  C 79.93 111.19 79.77 110.95 79.92 110.49
  C 82.17 103.75 80.73 97.64 78.90 91.06
  C 78.81 90.72 78.84 90.39 78.99 90.08
  C 81.06 85.66 80.30 81.96 76.71 78.97
  C 76.45 78.76 76.36 78.49 76.45 78.16
  C 76.89 76.49 76.29 75.70 74.65 75.79
  C 74.24 75.82 74.00 75.63 73.93 75.22
  L 71.93 63.92
  C 71.84 63.39 72.06 63.14 72.60 63.17
  L 78.42 63.58
  C 78.69 63.60 78.92 63.50 79.10 63.29
  C 79.21 63.15 79.29 62.96 79.32 62.73
  C 79.36 62.39 79.12 62.09 78.78 62.06
  L 72.28 61.61
  C 71.93 61.58 71.75 61.39 71.75 61.04
  L 71.75 55.94
  C 71.75 55.53 71.95 55.30 72.35 55.23
  L 76.72 54.51
  C 77.05 54.46 77.23 54.26 77.26 53.93
  C 77.27 53.84 77.26 53.75 77.23 53.66
  C 77.14 53.36 76.93 53.23 76.62 53.26
  L 72.00 53.79
  Z
  M 15.97 15.04
  C 19.55 18.55 26.96 28.33 23.42 32.79
  C 23.21 33.06 23.22 33.31 23.43 33.56
  C 23.80 33.98 24.35 33.76 25.10 32.89
  C 25.31 32.64 25.48 32.38 25.62 32.09
  C 27.90 27.23 17.08 8.31 11.74 13.11
  C 8.73 15.80 9.17 25.41 9.75 29.05
  C 10.41 33.14 10.45 36.35 15.37 36.03
  C 15.63 36.01 15.76 35.87 15.76 35.61
  C 15.76 34.87 13.37 34.26 12.79 34.01
  C 12.46 33.87 12.26 33.63 12.17 33.28
  C 11.93 32.28 8.57 7.79 15.97 15.04
  Z
  M 90.52 25.61
  C 79.82 28.35 75.19 50.63 90.23 52.23
  C 112.75 54.62 110.44 20.51 90.52 25.61
  Z
  M 26.32 35.15
  C 27.07 34.83 28.14 34.70 27.93 33.64
  C 27.85 33.24 27.44 33.00 27.05 33.13
  C 25.13 33.78 23.52 34.91 22.23 36.50
  C 21.93 36.87 22.01 37.13 22.47 37.26
  L 24.36 37.81
  C 24.98 37.99 25.00 38.23 24.43 38.53
  C 23.78 38.86 23.47 39.36 23.49 40.02
  C 23.50 40.82 23.81 40.96 24.41 40.44
  C 25.12 39.83 25.93 39.51 26.85 39.48
  C 27.24 39.47 27.44 39.28 27.43 38.89
  L 27.40 36.56
  C 27.40 36.29 27.26 36.12 26.99 36.07
  C 26.83 36.04 26.67 36.02 26.51 36.03
  C 25.00 36.04 24.94 35.74 26.32 35.15
  Z
  M 44.47 37.84
  C 37.81 36.73 31.56 37.87 25.71 41.25
  C 25.27 41.51 25.07 41.94 25.03 42.42
  C 24.99 42.84 25.44 43.13 25.81 42.92
  C 32.14 39.24 38.90 38.16 46.10 39.68
  C 46.53 39.77 46.76 39.60 46.79 39.16
  C 46.94 36.79 45.80 35.43 43.39 35.07
  C 43.24 35.05 43.14 35.11 43.09 35.25
  C 43.06 35.34 43.01 35.45 42.96 35.57
  C 42.89 35.74 42.93 35.89 43.07 36.01
  L 44.69 37.36
  C 45.21 37.79 45.14 37.95 44.47 37.84
  Z
  M 33.9364 52.3139
  C 33.04 48.51 29.00 46.21 24.9212 47.1699
  C 20.84 48.13 18.26 52.00 19.1636 55.8061
  C 20.06 59.61 24.10 61.91 28.1788 60.9501
  C 32.26 59.99 34.84 56.12 33.9364 52.3139
  Z
  M 58.0723 60.4630
  C 60.95 59.82 62.64 56.45 61.8516 52.9373
  C 61.07 49.42 58.10 47.09 55.2277 47.7370
  C 52.35 48.38 50.66 51.75 51.4484 55.2627
  C 52.23 58.78 55.20 61.11 58.0723 60.4630
  Z
  M 49.0500 54.1557
  C 49.05 53.24 47.58 52.49 45.7629 52.4900
  C 43.95 52.49 42.47 53.23 42.4700 54.1443
  C 42.47 55.06 43.94 55.81 45.7571 55.8100
  C 47.57 55.81 49.05 55.07 49.0500 54.1557
  Z
  M 94.30 74.65
  C 94.03 74.52 94.03 74.13 94.30 74.00
  C 99.34 71.66 103.04 67.98 105.40 62.97
  C 105.63 62.49 105.48 62.25 104.95 62.25
  L 100.83 62.25
  C 100.45 62.25 100.15 62.41 99.93 62.72
  C 97.08 66.85 93.46 70.12 89.06 72.52
  C 88.69 72.73 88.50 72.62 88.50 72.19
  L 88.51 62.24
  C 88.51 61.82 88.16 61.47 87.74 61.48
  C 83.13 61.57 83.73 63.07 83.37 67.10
  C 82.78 73.65 82.40 80.36 82.22 87.22
  C 82.21 87.65 82.55 88.00 82.98 88.00
  L 86.46 88.00
  C 87.60 88.00 88.18 87.43 88.20 86.29
  L 88.37 76.30
  C 88.37 76.02 88.67 75.85 88.92 75.98
  C 94.39 78.87 98.50 83.07 101.25 88.58
  C 101.48 89.03 101.83 89.18 102.31 89.03
  L 106.22 87.81
  C 106.81 87.62 107.08 86.94 106.78 86.41
  C 103.87 81.18 99.71 77.26 94.30 74.65
  Z
  M 46.60 67.83
  C 46.91 68.13 47.27 68.27 47.68 68.26
  C 48.19 68.24 48.31 68.01 48.06 67.57
  C 47.14 65.96 44.59 65.94 43.88 67.77
  C 43.64 68.41 43.83 68.58 44.44 68.28
  L 45.65 67.68
  C 46.00 67.51 46.32 67.56 46.60 67.83
  Z"
/>
<path fill="#f6f6f6" d="
  M 82.49 15.76
  C 82.82 13.65 75.97 13.43 74.74 13.45
  C 73.86 13.47 73.82 13.30 74.63 12.95
  C 78.73 11.16 84.88 8.96 89.17 10.72
  C 89.91 11.03 90.36 11.79 90.25 12.59
  C 89.49 18.25 85.94 19.25 80.57 19.83
  C 76.48 20.27 72.39 20.72 68.29 21.19
  C 62.98 21.79 57.25 16.43 54.55 12.38
  C 53.34 10.57 53.50 8.25 55.78 7.66
  C 57.27 7.27 59.62 8.28 61.21 8.66
  C 64.78 9.51 67.19 8.78 69.58 12.39
  C 69.77 12.68 70.02 12.90 70.35 13.03
  C 71.25 13.40 72.01 13.96 72.64 14.73
  C 72.84 14.98 73.10 15.08 73.42 15.03
  C 76.31 14.62 79.10 14.99 81.81 16.14
  C 82.20 16.31 82.43 16.18 82.49 15.76
  Z
  M 69.06 14.60
  C 68.50 15.42 65.74 17.75 66.34 18.70
  C 66.51 18.95 66.70 18.97 66.91 18.76
  L 71.03 14.73
  C 71.23 14.53 71.18 14.19 70.93 14.06
  L 67.66 12.35
  C 67.39 12.21 67.17 12.27 67.01 12.52
  C 66.49 13.34 68.18 14.01 68.76 14.02
  C 69.21 14.03 69.31 14.23 69.06 14.60
  Z"
/>
<path fill="#151415" d="
  M 15.97 15.04
  C 8.57 7.79 11.93 32.28 12.17 33.28
  C 12.26 33.63 12.46 33.87 12.79 34.01
  C 13.37 34.26 15.76 34.87 15.76 35.61
  C 15.76 35.87 15.63 36.01 15.37 36.03
  C 10.45 36.35 10.41 33.14 9.75 29.05
  C 9.17 25.41 8.73 15.80 11.74 13.11
  C 17.08 8.31 27.90 27.23 25.62 32.09
  C 25.48 32.38 25.31 32.64 25.10 32.89
  C 24.35 33.76 23.80 33.98 23.43 33.56
  C 23.22 33.31 23.21 33.06 23.42 32.79
  C 26.96 28.33 19.55 18.55 15.97 15.04
  Z"
/>
<path fill="#151415" d="
  M 68.76 14.02
  C 68.18 14.01 66.49 13.34 67.01 12.52
  C 67.17 12.27 67.39 12.21 67.66 12.35
  L 70.93 14.06
  C 71.18 14.19 71.23 14.53 71.03 14.73
  L 66.91 18.76
  C 66.70 18.97 66.51 18.95 66.34 18.70
  C 65.74 17.75 68.50 15.42 69.06 14.60
  C 69.31 14.23 69.21 14.03 68.76 14.02
  Z"
/>
<path fill="#8a9085" d="
  M 71.65 53.74
  C 71.80 53.75 71.92 53.76 72.00 53.79
  L 71.68 54.38
  C 71.43 54.83 71.18 54.83 70.94 54.37
  L 70.47 53.46
  C 70.32 53.17 70.24 52.86 70.23 52.53
  C 69.86 42.83 69.96 33.14 70.52 23.46
  C 70.53 23.16 70.69 23.01 70.99 23.00
  C 71.08 23.00 71.16 23.00 71.25 23.00
  C 71.50 23.00 71.61 23.12 71.59 23.36
  C 71.47 25.23 70.25 33.56 70.97 34.65
  C 71.14 34.92 71.21 35.22 71.17 35.54
  C 70.34 41.63 70.50 47.69 71.65 53.74
  Z"
/>
<path fill="#232323" d="
  M 90.23 52.23
  C 75.19 50.63 79.82 28.35 90.52 25.61
  C 110.44 20.51 112.75 54.62 90.23 52.23
  Z
  M 93.60 47.23
  C 107.30 45.62 99.87 24.86 91.63 31.64
  C 87.96 34.65 84.86 36.84 85.99 42.14
  C 86.77 45.79 90.07 47.65 93.60 47.23
  Z"
/>
<path fill="#f6f6f6" d="
  M 91.63 31.64
  C 99.87 24.86 107.30 45.62 93.60 47.23
  C 90.07 47.65 86.77 45.79 85.99 42.14
  C 84.86 36.84 87.96 34.65 91.63 31.64
  Z"
/>
<path fill="#151415" d="
  M 26.51 36.03
  C 26.67 36.02 26.83 36.04 26.99 36.07
  C 27.26 36.12 27.40 36.29 27.40 36.56
  L 27.43 38.89
  C 27.44 39.28 27.24 39.47 26.85 39.48
  C 25.93 39.51 25.12 39.83 24.41 40.44
  C 23.81 40.96 23.50 40.82 23.49 40.02
  C 23.47 39.36 23.78 38.86 24.43 38.53
  C 25.00 38.23 24.98 37.99 24.36 37.81
  L 22.47 37.26
  C 22.01 37.13 21.93 36.87 22.23 36.50
  C 23.52 34.91 25.13 33.78 27.05 33.13
  C 27.44 33.00 27.85 33.24 27.93 33.64
  C 28.14 34.70 27.07 34.83 26.32 35.15
  C 24.94 35.74 25.00 36.04 26.51 36.03
  Z
  M 26.9783 37.6143
  C 26.94 37.46 26.42 37.45 25.8118 37.5981
  C 25.21 37.74 24.74 37.99 24.7817 38.1457
  C 24.82 38.30 25.34 38.31 25.9482 38.1619
  C 26.55 38.02 27.02 37.77 26.9783 37.6143
  Z"
/>
<path fill="#151415" d="
  M 44.69 37.36
  L 43.07 36.01
  C 42.93 35.89 42.89 35.74 42.96 35.57
  C 43.01 35.45 43.06 35.34 43.09 35.25
  C 43.14 35.11 43.24 35.05 43.39 35.07
  C 45.80 35.43 46.94 36.79 46.79 39.16
  C 46.76 39.60 46.53 39.77 46.10 39.68
  C 38.90 38.16 32.14 39.24 25.81 42.92
  C 25.44 43.13 24.99 42.84 25.03 42.42
  C 25.07 41.94 25.27 41.51 25.71 41.25
  C 31.56 37.87 37.81 36.73 44.47 37.84
  C 45.14 37.95 45.21 37.79 44.69 37.36
  Z"
/>
<ellipse fill="#8a9085" cx="0.00" cy="0.00" transform="translate(25.88,37.88) rotate(-13.6)" rx="1.13" ry="0.29"/>
<path fill="#8a9085" d="
  M 14.75 46.21
  L 14.50 45.96
  C 15.04 45.29 15.68 44.77 16.42 44.39
  C 16.91 44.14 17.00 44.24 16.67 44.69
  C 16.18 45.37 15.54 45.88 14.75 46.21
  Z"
/>
<path fill="#151415" d="
  M 33.9364 52.3139
  C 34.84 56.12 32.26 59.99 28.1788 60.9501
  C 24.10 61.91 20.06 59.61 19.1636 55.8061
  C 18.26 52.00 20.84 48.13 24.9212 47.1699
  C 29.00 46.21 33.04 48.51 33.9364 52.3139
  Z
  M 32.1742 52.7197
  C 31.49 49.69 28.34 47.82 25.1245 48.5475
  C 21.91 49.27 19.86 52.31 20.5458 55.3403
  C 21.23 58.37 24.38 60.24 27.5955 59.5125
  C 30.81 58.79 32.86 55.75 32.1742 52.7197
  Z"
/>
<path fill="#151415" d="
  M 58.0723 60.4630
  C 55.20 61.11 52.23 58.78 51.4484 55.2627
  C 50.66 51.75 52.35 48.38 55.2277 47.7370
  C 58.10 47.09 61.07 49.42 61.8516 52.9373
  C 62.64 56.45 60.95 59.82 58.0723 60.4630
  Z
  M 57.1906 59.1485
  C 59.27 58.88 60.67 56.39 60.3092 53.5872
  C 59.95 50.78 57.97 48.72 55.8894 48.9915
  C 53.81 49.26 52.41 51.75 52.7708 54.5528
  C 53.13 57.36 55.11 59.42 57.1906 59.1485
  Z"
/>
<path fill="#f6f6f6" d="
  M 32.1742 52.7197
  C 32.86 55.75 30.81 58.79 27.5955 59.5125
  C 24.38 60.24 21.23 58.37 20.5458 55.3403
  C 19.86 52.31 21.91 49.27 25.1245 48.5475
  C 28.34 47.82 31.49 49.69 32.1742 52.7197
  Z
  M 29.31 54.01
  C 29.31 52.55 28.13 51.37 26.67 51.37
  C 25.21 51.37 24.03 52.55 24.03 54.01
  C 24.03 55.47 25.21 56.65 26.67 56.65
  C 28.13 56.65 29.31 55.47 29.31 54.01
  Z"
/>
<path fill="#f6f6f6" d="
  M 57.1906 59.1485
  C 55.11 59.42 53.13 57.36 52.7708 54.5528
  C 52.41 51.75 53.81 49.26 55.8894 48.9915
  C 57.97 48.72 59.95 50.78 60.3092 53.5872
  C 60.67 56.39 59.27 58.88 57.1906 59.1485
  Z
  M 57.3915 56.3214
  C 58.43 55.99 58.96 54.73 58.5773 53.5113
  C 58.19 52.29 57.03 51.57 55.9885 51.8986
  C 54.95 52.23 54.42 53.49 54.8027 54.7087
  C 55.19 55.93 56.35 56.65 57.3915 56.3214
  Z"
/>
<circle fill="#151415" cx="26.67" cy="54.01" r="2.64"/>
<ellipse fill="#151415" cx="0.00" cy="0.00" transform="translate(56.69,54.11) rotate(72.4)" rx="2.32" ry="1.98"/>
<path fill="#f6f6f6" d="
  M 0.00 52.19
  C 0.42 54.27 0.42 56.35 0.00 58.44
  L 0.00 52.19
  Z"
/>
<path fill="#151415" d="
  M 49.0500 54.1557
  C 49.05 55.07 47.57 55.81 45.7571 55.8100
  C 43.94 55.81 42.47 55.06 42.4700 54.1443
  C 42.47 53.23 43.95 52.49 45.7629 52.4900
  C 47.58 52.49 49.05 53.24 49.0500 54.1557
  Z
  M 45.51 53.62
  C 45.26 53.70 45.13 53.99 45.24 54.23
  C 45.57 54.96 45.95 54.92 46.39 54.11
  C 46.57 53.77 46.25 53.38 45.89 53.50
  L 45.51 53.62
  Z"
/>
<path fill="#8a9085" d="
  M 45.51 53.62
  L 45.89 53.50
  C 46.25 53.38 46.57 53.77 46.39 54.11
  C 45.95 54.92 45.57 54.96 45.24 54.23
  C 45.13 53.99 45.26 53.70 45.51 53.62
  Z"
/>
<path fill="#f6f6f6" d="
  M 2.50 58.25
  C 2.29 57.99 2.23 57.71 2.32 57.42
  C 2.43 57.05 2.68 56.90 3.06 56.97
  L 5.03 57.30
  C 5.46 57.37 5.59 57.61 5.43 58.01
  L 3.47 63.01
  C 3.25 63.56 2.44 63.46 2.37 62.87
  C 2.15 60.92 2.19 59.38 2.50 58.25
  Z"
/>
<path fill="#f6f6f6" d="
  M 68.69 60.30
  C 68.47 60.90 68.27 60.90 68.08 60.29
  L 67.10 57.11
  C 66.74 55.94 67.00 55.78 67.87 56.65
  C 68.92 57.70 69.19 58.91 68.69 60.30
  Z"
/>
<path fill="#232323" d="
  M 94.30 74.65
  C 99.71 77.26 103.87 81.18 106.78 86.41
  C 107.08 86.94 106.81 87.62 106.22 87.81
  L 102.31 89.03
  C 101.83 89.18 101.48 89.03 101.25 88.58
  C 98.50 83.07 94.39 78.87 88.92 75.98
  C 88.67 75.85 88.37 76.02 88.37 76.30
  L 88.20 86.29
  C 88.18 87.43 87.60 88.00 86.46 88.00
  L 82.98 88.00
  C 82.55 88.00 82.21 87.65 82.22 87.22
  C 82.40 80.36 82.78 73.65 83.37 67.10
  C 83.73 63.07 83.13 61.57 87.74 61.48
  C 88.16 61.47 88.51 61.82 88.51 62.24
  L 88.50 72.19
  C 88.50 72.62 88.69 72.73 89.06 72.52
  C 93.46 70.12 97.08 66.85 99.93 62.72
  C 100.15 62.41 100.45 62.25 100.83 62.25
  L 104.95 62.25
  C 105.48 62.25 105.63 62.49 105.40 62.97
  C 103.04 67.98 99.34 71.66 94.30 74.00
  C 94.03 74.13 94.03 74.52 94.30 74.65
  Z"
/>
<ellipse fill="#8a9085" cx="0.00" cy="0.00" transform="translate(70.52,66.51) rotate(76.4)" rx="3.43" ry="0.73"/>
<ellipse fill="#8a9085" cx="0.00" cy="0.00" transform="translate(2.63,65.63) rotate(102.0)" rx="0.92" ry="0.36"/>
<path fill="#151415" d="
  M 45.65 67.68
  L 44.44 68.28
  C 43.83 68.58 43.64 68.41 43.88 67.77
  C 44.59 65.94 47.14 65.96 48.06 67.57
  C 48.31 68.01 48.19 68.24 47.68 68.26
  C 47.27 68.27 46.91 68.13 46.60 67.83
  C 46.32 67.56 46.00 67.51 45.65 67.68
  Z"
/>
<path fill="#f6f6f6" d="
  M 74.87 98.91
  C 76.75 97.43 79.24 99.24 79.32 101.27
  C 79.43 104.42 79.16 107.60 78.52 110.81
  C 78.46 111.10 78.28 111.24 77.99 111.24
  L 29.17 111.26
  C 28.79 111.26 28.58 111.07 28.53 110.70
  C 27.86 104.93 26.78 99.25 25.31 93.65
  C 25.22 93.33 25.23 93.01 25.32 92.69
  C 29.75 78.06 53.92 68.41 67.01 76.95
  C 73.24 81.01 75.13 84.93 77.59 92.77
  C 77.66 93.01 77.58 93.14 77.33 93.15
  C 74.88 93.28 71.87 96.51 73.99 98.84
  C 74.26 99.14 74.56 99.16 74.87 98.91
  Z
  M 61.21 86.32
  C 60.47 83.77 56.57 80.16 53.81 81.34
  C 51.52 82.31 49.75 84.26 48.52 87.21
  C 48.37 87.57 48.46 87.86 48.79 88.07
  L 49.97 88.82
  C 50.26 89.01 50.56 89.01 50.85 88.83
  L 54.63 86.41
  C 54.91 86.24 55.21 86.20 55.52 86.29
  L 59.94 87.59
  C 60.72 87.82 61.44 87.10 61.21 86.32
  Z
  M 74.02 86.80
  C 73.46 82.12 69.15 79.72 66.69 85.33
  C 66.34 86.14 66.57 86.70 67.40 87.01
  C 68.20 87.31 68.94 87.19 69.61 86.64
  C 69.92 86.39 70.27 86.33 70.65 86.46
  L 73.32 87.37
  C 73.85 87.55 74.09 87.36 74.02 86.80
  Z
  M 43.29 90.80
  C 42.81 87.51 37.95 85.40 35.29 87.01
  C 32.71 88.57 31.36 91.11 31.24 94.64
  C 31.23 95.05 31.42 95.25 31.83 95.25
  L 32.93 95.25
  C 33.28 95.25 33.56 95.11 33.78 94.84
  C 35.92 92.08 37.85 90.09 41.62 92.00
  C 42.46 92.42 43.42 91.73 43.29 90.80
  Z
  M 69.39 98.39
  C 67.53 90.39 61.23 93.13 59.10 98.54
  C 58.96 98.91 59.03 99.22 59.32 99.49
  L 60.49 100.57
  C 60.84 100.90 61.17 100.87 61.46 100.49
  C 63.31 98.12 65.42 97.78 67.77 99.47
  C 68.55 100.03 69.61 99.33 69.39 98.39
  Z
  M 46.49 95.74
  C 44.31 96.51 37.40 104.14 42.48 104.33
  C 42.85 104.34 43.18 104.23 43.46 103.98
  L 46.56 101.19
  C 46.82 100.96 47.12 100.89 47.46 100.99
  L 50.74 101.97
  C 51.02 102.06 51.30 102.04 51.57 101.93
  C 55.27 100.44 48.68 96.24 47.46 95.76
  C 47.14 95.63 46.82 95.63 46.49 95.74
  Z"
/>
<ellipse fill="#232323" cx="0.00" cy="0.00" transform="translate(74.75,80.49) rotate(17.8)" rx="1.33" ry="0.54"/>
<path fill="#151415" d="
  M 53.81 81.34
  C 56.57 80.16 60.47 83.77 61.21 86.32
  C 61.44 87.10 60.72 87.82 59.94 87.59
  L 55.52 86.29
  C 55.21 86.20 54.91 86.24 54.63 86.41
  L 50.85 88.83
  C 50.56 89.01 50.26 89.01 49.97 88.82
  L 48.79 88.07
  C 48.46 87.86 48.37 87.57 48.52 87.21
  C 49.75 84.26 51.52 82.31 53.81 81.34
  Z
  M 58.42 85.19
  C 57.65 83.64 56.45 82.71 54.82 82.40
  C 54.49 82.34 54.20 82.43 53.95 82.67
  L 50.31 86.31
  C 50.19 86.44 50.19 86.56 50.31 86.69
  L 50.54 86.91
  C 50.68 87.06 50.83 87.06 50.98 86.93
  C 52.31 85.78 53.83 85.11 55.55 84.92
  C 55.91 84.89 56.24 84.97 56.54 85.17
  C 57.04 85.50 57.59 85.64 58.20 85.59
  C 58.47 85.56 58.54 85.43 58.42 85.19
  Z"
/>
<path fill="#151415" d="
  M 66.69 85.33
  C 69.15 79.72 73.46 82.12 74.02 86.80
  C 74.09 87.36 73.85 87.55 73.32 87.37
  L 70.65 86.46
  C 70.27 86.33 69.92 86.39 69.61 86.64
  C 68.94 87.19 68.20 87.31 67.40 87.01
  C 66.57 86.70 66.34 86.14 66.69 85.33
  Z
  M 70.61 85.15
  C 70.84 85.29 71.10 85.31 71.39 85.21
  C 71.70 85.10 71.81 84.89 71.73 84.58
  C 71.58 84.00 71.12 83.63 70.35 83.46
  C 69.96 83.38 69.62 83.49 69.33 83.78
  L 68.27 84.89
  C 67.74 85.44 67.85 85.61 68.58 85.42
  L 69.94 85.06
  C 70.17 85.00 70.40 85.03 70.61 85.15
  Z"
/>
<path fill="#f6f6f6" d="
  M 58.20 85.59
  C 57.59 85.64 57.04 85.50 56.54 85.17
  C 56.24 84.97 55.91 84.89 55.55 84.92
  C 53.83 85.11 52.31 85.78 50.98 86.93
  C 50.83 87.06 50.68 87.06 50.54 86.91
  L 50.31 86.69
  C 50.19 86.56 50.19 86.44 50.31 86.31
  L 53.95 82.67
  C 54.20 82.43 54.49 82.34 54.82 82.40
  C 56.45 82.71 57.65 83.64 58.42 85.19
  C 58.54 85.43 58.47 85.56 58.20 85.59
  Z"
/>
<path fill="#f6f6f6" d="
  M 69.94 85.06
  L 68.58 85.42
  C 67.85 85.61 67.74 85.44 68.27 84.89
  L 69.33 83.78
  C 69.62 83.49 69.96 83.38 70.35 83.46
  C 71.12 83.63 71.58 84.00 71.73 84.58
  C 71.81 84.89 71.70 85.10 71.39 85.21
  C 71.10 85.31 70.84 85.29 70.61 85.15
  C 70.40 85.03 70.17 85.00 69.94 85.06
  Z"
/>
<path fill="#f6f6f6" d="
  M 77.69 83.69
  C 77.64 83.54 77.70 83.40 77.87 83.29
  C 78.29 83.01 78.49 83.12 78.47 83.63
  L 78.30 87.20
  C 78.28 87.73 78.07 87.81 77.68 87.46
  C 76.28 86.21 76.28 84.95 77.69 83.69
  Z"
/>
<path fill="#151415" d="
  M 35.29 87.01
  C 37.95 85.40 42.81 87.51 43.29 90.80
  C 43.42 91.73 42.46 92.42 41.62 92.00
  C 37.85 90.09 35.92 92.08 33.78 94.84
  C 33.56 95.11 33.28 95.25 32.93 95.25
  L 31.83 95.25
  C 31.42 95.25 31.23 95.05 31.24 94.64
  C 31.36 91.11 32.71 88.57 35.29 87.01
  Z
  M 41.20 89.73
  C 40.96 88.54 37.89 87.72 36.98 87.72
  C 36.61 87.71 36.30 87.85 36.06 88.14
  L 32.28 92.73
  C 32.11 92.93 32.16 93.07 32.41 93.14
  C 32.54 93.18 32.66 93.22 32.79 93.27
  C 33.09 93.38 33.32 93.30 33.49 93.03
  C 35.12 90.24 37.51 89.31 40.64 90.24
  C 41.11 90.38 41.29 90.21 41.20 89.73
  Z"
/>
<path fill="#f6f6f6" d="
  M 36.98 87.72
  C 37.89 87.72 40.96 88.54 41.20 89.73
  C 41.29 90.21 41.11 90.38 40.64 90.24
  C 37.51 89.31 35.12 90.24 33.49 93.03
  C 33.32 93.30 33.09 93.38 32.79 93.27
  C 32.66 93.22 32.54 93.18 32.41 93.14
  C 32.16 93.07 32.11 92.93 32.28 92.73
  L 36.06 88.14
  C 36.30 87.85 36.61 87.71 36.98 87.72
  Z"
/>
<path fill="#151415" d="
  M 59.10 98.54
  C 61.23 93.13 67.53 90.39 69.39 98.39
  C 69.61 99.33 68.55 100.03 67.77 99.47
  C 65.42 97.78 63.31 98.12 61.46 100.49
  C 61.17 100.87 60.84 100.90 60.49 100.57
  L 59.32 99.49
  C 59.03 99.22 58.96 98.91 59.10 98.54
  Z
  M 65.60 96.86
  L 66.94 97.45
  C 67.47 97.69 67.61 97.55 67.36 97.02
  C 66.98 96.19 66.44 95.48 65.73 94.87
  C 65.49 94.66 65.22 94.62 64.93 94.74
  C 63.42 95.37 62.19 96.37 61.23 97.74
  C 60.81 98.34 60.93 98.48 61.60 98.17
  L 64.38 96.87
  C 64.79 96.68 65.19 96.68 65.60 96.86
  Z"
/>
<path fill="#f6f6f6" d="
  M 64.38 96.87
  L 61.60 98.17
  C 60.93 98.48 60.81 98.34 61.23 97.74
  C 62.19 96.37 63.42 95.37 64.93 94.74
  C 65.22 94.62 65.49 94.66 65.73 94.87
  C 66.44 95.48 66.98 96.19 67.36 97.02
  C 67.61 97.55 67.47 97.69 66.94 97.45
  L 65.60 96.86
  C 65.19 96.68 64.79 96.68 64.38 96.87
  Z"
/>
<path fill="#f6f6f6" d="
  M 74.99 95.97
  C 76.61 94.80 78.77 95.48 78.73 97.41
  C 78.72 97.88 78.54 97.95 78.20 97.63
  C 77.39 96.89 76.43 96.60 75.31 96.76
  C 74.86 96.82 74.62 96.24 74.99 95.97
  Z"
/>
<path fill="#151415" d="
  M 42.48 104.33
  C 37.40 104.14 44.31 96.51 46.49 95.74
  C 46.82 95.63 47.14 95.63 47.46 95.76
  C 48.68 96.24 55.27 100.44 51.57 101.93
  C 51.30 102.04 51.02 102.06 50.74 101.97
  L 47.46 100.99
  C 47.12 100.89 46.82 100.96 46.56 101.19
  L 43.46 103.98
  C 43.18 104.23 42.85 104.34 42.48 104.33
  Z
  M 48.10 97.52
  C 45.58 95.67 42.94 100.58 42.17 102.32
  C 42.03 102.64 42.41 102.94 42.69 102.73
  C 45.29 100.82 46.34 98.25 50.08 100.63
  C 50.50 100.90 50.65 100.79 50.52 100.31
  C 50.17 98.96 49.14 98.27 48.10 97.52
  Z"
/>
<path fill="#f6f6f6" d="
  M 48.10 97.52
  C 49.14 98.27 50.17 98.96 50.52 100.31
  C 50.65 100.79 50.50 100.90 50.08 100.63
  C 46.34 98.25 45.29 100.82 42.69 102.73
  C 42.41 102.94 42.03 102.64 42.17 102.32
  C 42.94 100.58 45.58 95.67 48.10 97.52
  Z"
/>
</svg>
