<?xml version="1.0" encoding="UTF-8" standalone="no"?>
<!DOCTYPE svg PUBLIC "-//W3C//DTD SVG 1.1//EN" "http://www.w3.org/Graphics/SVG/1.1/DTD/svg11.dtd">
<svg xmlns="http://www.w3.org/2000/svg" version="1.1" viewBox="0 0 125 119">
<g stroke-width="2.00" fill="none" stroke-linecap="butt">
<path stroke="#858585" vector-effect="non-scaling-stroke" d="
  M 36.89 24.56
  C 38.04 23.80 39.88 20.73 41.26 22.11
  C 41.55 22.40 41.54 22.68 41.24 22.95
  C 40.28 23.82 39.50 24.86 38.89 26.07
  C 38.44 26.96 38.58 27.07 39.31 26.38
  C 40.35 25.39 41.30 24.32 42.16 23.17
  C 42.25 23.06 42.36 23.00 42.50 23.00
  C 42.61 23.00 42.73 23.00 42.85 22.99
  C 43.11 22.96 43.18 23.07 43.07 23.30
  C 42.69 24.07 41.45 26.23 42.14 27.01
  C 42.39 27.28 42.59 27.25 42.74 26.91
  L 43.98 24.06
  C 44.10 23.79 44.27 23.54 44.48 23.33
  C 44.89 22.91 45.18 22.90 45.36 23.29
  C 45.49 23.56 45.50 23.83 45.41 24.11
  C 44.86 25.74 44.80 27.41 45.23 29.10
  C 45.30 29.37 45.55 29.54 45.83 29.52
  C 46.10 29.49 46.31 29.27 46.33 28.99
  L 46.60 24.41
  C 46.62 24.03 47.15 23.94 47.28 24.30
  C 47.60 25.16 47.91 28.64 49.15 28.52
  C 49.50 28.48 49.73 28.13 49.61 27.79
  L 48.16 23.73
  C 47.30 21.30 47.62 21.14 49.11 23.23
  C 50.00 24.48 50.72 25.83 51.27 27.29
  C 51.42 27.68 51.65 27.73 51.94 27.43
  L 52.26 27.12
  C 52.52 26.85 52.55 26.57 52.34 26.26
  L 50.49 23.49
  C 49.96 22.70 50.13 22.49 51.01 22.87
  C 52.18 23.38 52.99 24.26 53.43 25.49
  C 53.48 25.62 53.57 25.71 53.71 25.74
  C 53.83 25.77 53.95 25.77 54.06 25.74
  C 54.42 25.63 54.51 25.42 54.32 25.09
  L 52.84 22.48
  C 52.56 21.98 52.71 21.74 53.28 21.75
  C 53.37 21.75 53.46 21.75 53.55 21.75
  C 53.83 21.75 54.08 21.84 54.30 22.02
  L 56.06 23.44
  C 56.76 24.01 57.00 23.86 56.77 22.98
  C 56.46 21.77 55.70 21.06 54.48 20.85
  C 53.22 20.64 53.21 20.39 54.46 20.12
  C 55.42 19.91 56.36 20.01 57.29 20.40
  C 57.58 20.52 57.72 20.42 57.72 20.11
  L 57.72 19.75
  C 57.72 19.38 57.54 19.16 57.17 19.09
  L 55.14 18.71
  C 54.75 18.63 54.53 18.39 54.50 18.00
  C 54.38 16.78 57.09 16.77 57.93 16.59
  C 58.27 16.52 58.38 16.32 58.25 15.99
  C 57.99 15.29 51.47 15.11 53.31 18.29
  C 53.48 18.58 53.48 18.87 53.32 19.16
  C 48.92 27.36 42.14 14.82 50.15 14.84
  C 50.45 14.84 50.74 14.90 51.02 15.03
  L 52.39 15.66
  C 52.72 15.82 53.04 15.79 53.33 15.57
  L 56.33 13.36
  C 56.54 13.21 56.57 13.03 56.43 12.82
  C 56.34 12.68 56.18 12.58 55.93 12.52
  C 55.63 12.45 55.34 12.48 55.07 12.63
  L 52.42 14.06
  C 52.11 14.23 51.88 14.15 51.75 13.83
  C 51.52 13.26 53.84 11.13 54.90 10.25
  C 55.09 10.10 55.12 9.93 55.00 9.72
  L 54.83 9.44
  C 54.65 9.13 54.42 9.09 54.14 9.32
  C 53.51 9.84 50.71 13.06 50.33 13.00
  C 49.94 12.93 49.84 12.73 50.02 12.38
  L 52.44 7.83
  C 52.67 7.40 52.55 7.13 52.07 7.03
  C 51.98 7.01 51.88 7.00 51.77 6.99
  C 51.50 6.98 51.30 7.11 51.19 7.36
  L 48.52 13.38
  C 48.44 13.55 48.31 13.61 48.13 13.55
  C 48.00 13.50 47.88 13.46 47.77 13.42
  C 47.49 13.32 47.41 13.13 47.53 12.86
  C 48.37 10.97 48.85 8.98 48.97 6.91
  C 49.00 6.52 48.84 6.42 48.50 6.62
  L 48.23 6.78
  C 48.07 6.87 47.97 7.01 47.93 7.19
  L 46.83 11.92
  C 46.77 12.17 46.53 12.32 46.28 12.28
  C 46.03 12.23 45.87 12.00 45.90 11.75
  L 46.65 6.32
  C 46.66 6.22 46.65 6.13 46.61 6.04
  C 46.54 5.85 46.40 5.75 46.20 5.75
  C 45.88 5.74 45.67 5.89 45.58 6.20
  C 45.40 6.85 45.06 11.14 44.68 11.35
  C 44.38 11.51 44.21 11.42 44.17 11.08
  L 43.76 7.40
  C 43.75 7.30 43.69 7.25 43.59 7.25
  L 43.05 7.25
  C 42.73 7.25 42.60 7.41 42.65 7.72
  L 43.18 10.93
  C 43.23 11.23 43.11 11.42 42.81 11.49
  C 42.70 11.52 42.60 11.52 42.49 11.50
  C 42.14 11.43 41.94 11.21 41.89 10.85
  C 41.74 9.56 41.28 8.41 40.51 7.39
  C 39.64 6.22 39.47 6.32 40.00 7.68
  C 40.46 8.83 40.80 10.02 41.02 11.23
  C 41.27 12.60 41.00 12.72 40.20 11.57
  C 39.69 10.83 39.08 8.28 37.98 8.28
  C 37.53 8.27 37.36 8.49 37.48 8.93
  C 37.61 9.44 37.46 9.81 37.02 10.04
  C 36.71 10.19 36.69 10.38 36.96 10.59
  C 37.19 10.78 37.46 10.82 37.78 10.73
  C 38.19 10.61 38.47 10.75 38.62 11.14
  L 39.05 12.24
  C 39.24 12.73 39.07 12.97 38.54 12.94
  C 35.69 12.81 35.98 9.83 34.17 9.73
  C 33.73 9.70 33.48 10.22 33.77 10.55
  L 36.45 13.56
  C 36.65 13.79 36.67 14.02 36.51 14.27
  C 35.77 15.42 33.84 14.18 32.78 13.93
  C 32.40 13.84 32.24 13.98 32.31 14.37
  C 32.47 15.25 34.63 15.76 35.39 15.85
  C 35.92 15.92 35.99 16.14 35.62 16.51
  C 35.36 16.78 35.00 16.88 34.53 16.83
  C 34.23 16.79 33.94 16.71 33.66 16.59
  C 32.99 16.29 32.35 16.33 31.74 16.70
  C 30.94 17.19 31.01 17.47 31.94 17.54
  L 35.64 17.84
  C 35.96 17.87 36.08 18.04 36.01 18.35
  C 35.84 19.05 33.24 19.69 32.50 20.15
  C 32.27 20.30 32.22 20.50 32.37 20.73
  C 32.81 21.44 35.78 20.00 36.49 19.75
  C 36.66 19.69 36.75 19.75 36.75 19.94
  C 36.75 20.05 36.75 20.15 36.75 20.26
  C 36.76 20.54 36.64 20.75 36.39 20.89
  L 33.86 22.29
  C 33.71 22.37 33.67 22.49 33.72 22.65
  C 33.75 22.75 33.79 22.85 33.82 22.95
  C 33.91 23.22 34.08 23.29 34.33 23.14
  L 37.86 21.06
  C 38.28 20.81 38.78 21.26 38.56 21.70
  C 38.34 22.13 36.11 24.43 36.35 24.57
  C 36.53 24.68 36.71 24.68 36.89 24.56"
/>
<path stroke="#858585" vector-effect="non-scaling-stroke" d="
  M 50.8069 17.6754
  C 50.74 17.17 50.10 16.85 49.3804 16.9492
  C 48.66 17.05 48.14 17.54 48.2131 18.0446
  C 48.28 18.55 48.92 18.87 49.6396 18.7708
  C 50.36 18.67 50.88 18.18 50.8069 17.6754"
/>
<path stroke="#858585" vector-effect="non-scaling-stroke" d="
  M 103.84 75.42
  C 102.61 68.78 102.27 61.60 99.24 55.34
  C 99.09 55.03 99.03 54.70 99.07 54.35
  C 99.47 51.00 100.28 46.22 101.51 40.00
  C 101.91 37.94 101.64 35.64 100.71 33.09
  C 100.59 32.77 100.37 32.55 100.05 32.43
  C 92.52 29.57 86.03 41.72 83.09 46.95
  C 82.90 47.30 82.62 47.38 82.26 47.18
  C 79.55 45.68 76.66 44.66 73.58 44.12
  C 72.58 43.95 72.06 43.35 72.03 42.34
  C 71.92 38.99 72.03 35.72 72.37 32.51
  C 72.64 29.88 72.61 28.04 72.26 27.01
  C 71.32 24.26 67.38 21.47 64.81 24.29
  C 59.59 30.03 55.99 36.62 54.02 44.05
  C 53.48 46.06 52.75 47.81 51.84 49.30
  C 47.88 55.72 43.13 62.72 41.62 69.41
  C 39.91 77.03 40.86 84.82 44.47 92.77
  C 47.81 100.12 51.32 102.04 56.97 106.72
  C 58.52 108.01 60.26 109.07 62.18 109.91
  C 62.47 110.04 62.60 110.26 62.55 110.58
  L 62.22 112.75
  C 62.16 113.16 62.33 113.41 62.74 113.48
  C 63.56 113.63 64.26 113.46 64.85 112.96
  C 65.11 112.73 65.34 112.76 65.53 113.05
  L 66.49 114.48
  C 66.90 115.09 67.32 115.09 67.73 114.48
  L 68.64 113.13
  C 68.83 112.86 69.09 112.70 69.42 112.67
  L 77.20 112.02
  C 77.75 111.97 77.95 112.22 77.81 112.75
  C 77.52 113.89 77.78 114.75 78.58 115.32
  C 78.83 115.50 79.10 115.52 79.39 115.38
  C 79.92 115.12 80.12 114.74 79.98 114.23
  C 79.41 112.22 79.70 112.20 80.83 114.17
  C 81.20 114.80 81.75 115.08 82.49 115.01
  C 82.88 114.98 83.17 114.79 83.37 114.46
  L 84.38 112.75
  C 84.55 112.47 84.78 112.28 85.09 112.17
  C 91.64 109.91 96.45 105.64 99.51 99.36
  C 99.70 98.97 99.59 98.70 99.19 98.53
  L 98.50 98.24
  C 98.03 98.05 97.68 98.17 97.44 98.61
  C 87.38 117.12 59.27 111.42 49.16 96.32
  C 42.38 86.19 41.33 75.44 46.02 64.05
  C 48.66 57.65 54.89 51.74 56.47 44.86
  C 58.03 38.07 61.12 32.01 65.73 26.70
  C 65.95 26.45 66.22 26.31 66.54 26.27
  C 70.07 25.78 70.47 28.41 70.15 31.27
  C 69.76 34.68 69.49 38.08 69.32 41.49
  C 69.07 46.50 73.15 46.87 77.38 47.66
  C 77.74 47.73 78.05 47.89 78.30 48.15
  C 80.01 49.84 82.02 50.17 84.33 49.13
  C 84.59 49.01 84.79 48.82 84.93 48.57
  C 87.74 43.37 92.00 35.37 98.27 34.02
  C 98.84 33.90 99.37 34.35 99.35 34.93
  C 99.08 42.78 96.52 49.56 96.50 57.35
  C 96.50 57.70 96.62 58.00 96.87 58.24
  C 100.45 61.74 101.55 77.13 101.69 82.16
  C 101.70 82.48 101.85 82.71 102.14 82.84
  C 103.32 83.37 104.03 80.25 104.33 79.47
  C 104.46 79.14 104.69 78.93 105.02 78.82
  C 108.27 77.78 110.91 78.47 112.94 80.88
  C 113.19 81.18 113.31 81.52 113.31 81.91
  C 113.33 89.65 106.76 93.45 100.99 97.00
  C 100.14 97.52 99.88 98.09 100.20 98.70
  C 100.50 99.28 101.21 99.51 101.78 99.21
  C 106.29 96.91 112.21 93.10 114.42 88.45
  C 116.57 83.91 116.42 77.96 110.76 76.30
  C 108.93 75.77 106.57 76.04 104.50 75.99
  C 104.13 75.98 103.91 75.79 103.84 75.42"
/>
<path stroke="#858585" vector-effect="non-scaling-stroke" d="
  M 26.79 38.62
  L 27.22 32.84
  C 27.25 32.51 27.14 32.24 26.89 32.03
  L 26.60 31.78
  C 26.12 31.36 25.82 31.47 25.70 32.10
  C 25.61 32.62 25.49 37.82 25.02 37.95
  C 24.65 38.05 24.42 37.92 24.32 37.55
  C 24.07 36.61 24.33 32.69 23.15 32.77
  C 22.74 32.80 22.55 33.02 22.58 33.43
  L 22.96 39.04
  C 22.97 39.25 22.89 39.40 22.71 39.51
  L 22.42 39.68
  C 22.27 39.77 22.17 39.73 22.12 39.57
  L 19.91 32.38
  C 19.73 31.79 19.43 31.72 19.00 32.17
  C 18.08 33.18 20.06 37.91 20.33 39.24
  C 20.38 39.47 20.25 39.71 20.02 39.79
  C 19.80 39.87 19.55 39.79 19.43 39.58
  L 16.86 35.17
  C 16.79 35.06 16.68 35.00 16.55 35.00
  C 16.47 35.00 16.39 35.00 16.30 35.00
  C 15.91 34.98 15.80 35.15 15.97 35.50
  L 17.91 39.67
  C 18.06 40.00 17.95 40.19 17.60 40.26
  C 17.21 40.33 14.24 37.13 13.38 36.68
  C 13.18 36.57 12.93 36.63 12.80 36.81
  C 12.66 36.99 12.68 37.25 12.84 37.41
  L 15.81 40.46
  C 16.09 40.75 16.09 41.03 15.80 41.32
  L 15.61 41.52
  C 15.34 41.79 15.06 41.79 14.78 41.54
  L 11.41 38.56
  C 11.20 38.38 10.89 38.39 10.70 38.59
  C 10.51 38.79 10.51 39.10 10.70 39.30
  L 13.98 42.65
  C 14.18 42.86 14.16 43.04 13.92 43.20
  C 13.11 43.72 10.33 40.24 9.66 42.05
  C 9.51 42.45 9.64 42.73 10.03 42.90
  L 12.65 44.01
  C 12.92 44.12 13.04 44.33 13.00 44.62
  C 12.78 46.37 8.69 44.44 7.69 44.08
  C 7.32 43.95 6.93 44.18 6.87 44.57
  C 6.67 45.92 10.46 46.25 11.65 46.83
  C 12.11 47.05 11.95 47.74 11.44 47.74
  L 7.22 47.76
  C 7.03 47.76 6.90 47.85 6.83 48.03
  C 6.78 48.15 6.74 48.27 6.70 48.39
  C 6.51 48.96 6.71 49.23 7.30 49.22
  L 11.36 49.13
  C 11.61 49.12 11.74 49.25 11.74 49.50
  C 11.73 50.76 6.50 50.44 6.47 52.43
  C 6.47 52.81 6.85 53.07 7.20 52.92
  L 12.43 50.77
  C 12.74 50.64 12.93 50.74 13.00 51.07
  C 13.21 52.00 9.98 53.99 9.32 54.51
  C 8.96 54.79 8.95 55.33 9.29 55.63
  C 10.26 56.47 13.42 53.22 14.51 52.63
  C 14.93 52.40 15.36 52.93 15.05 53.30
  L 11.52 57.51
  C 11.31 57.76 11.32 57.99 11.55 58.22
  C 12.72 59.38 16.46 53.40 17.07 53.77
  C 17.37 53.96 17.42 54.20 17.23 54.50
  L 14.56 58.56
  C 14.31 58.95 14.38 59.26 14.77 59.50
  L 15.14 59.71
  C 15.30 59.81 15.43 59.78 15.53 59.62
  L 18.77 54.41
  C 18.84 54.30 18.94 54.25 19.07 54.25
  C 19.17 54.25 19.27 54.25 19.37 54.25
  C 19.74 54.25 19.85 54.42 19.71 54.75
  L 17.65 59.98
  C 17.48 60.40 17.62 60.65 18.07 60.73
  C 19.32 60.96 20.86 55.73 21.19 54.46
  C 21.23 54.32 21.32 54.25 21.47 54.25
  C 21.62 54.25 21.75 54.25 21.87 54.24
  C 22.16 54.23 22.26 54.37 22.18 54.64
  L 20.58 60.33
  C 20.48 60.68 20.60 60.90 20.95 60.99
  C 22.39 61.37 23.07 56.90 23.24 55.99
  C 23.29 55.69 23.47 55.53 23.78 55.52
  C 24.57 55.50 24.52 59.90 24.53 60.53
  C 24.54 61.12 25.35 61.28 25.58 60.73
  C 26.14 59.40 25.51 55.04 25.97 54.86
  C 26.36 54.71 26.63 54.83 26.77 55.24
  L 28.43 60.05
  C 28.50 60.26 28.61 60.45 28.75 60.63
  C 29.42 61.49 29.86 61.44 30.08 60.47
  C 30.15 60.16 30.12 59.87 30.00 59.58
  L 28.03 54.74
  C 27.66 53.83 27.83 53.71 28.56 54.38
  C 29.30 55.07 32.50 59.82 33.71 59.05
  C 34.08 58.82 34.13 58.53 33.84 58.19
  L 29.78 53.46
  C 29.57 53.21 29.53 52.94 29.67 52.65
  L 29.83 52.30
  C 30.11 51.73 30.46 51.68 30.89 52.15
  L 35.42 57.12
  C 35.53 57.23 35.64 57.24 35.75 57.13
  L 35.93 56.94
  C 36.19 56.68 36.25 56.38 36.11 56.04
  C 35.31 54.07 33.49 53.34 32.44 51.76
  C 31.99 51.08 32.12 50.94 32.83 51.33
  L 36.91 53.58
  C 37.47 53.89 37.67 53.73 37.50 53.11
  C 37.19 51.95 33.95 50.29 33.45 50.00
  C 33.32 49.93 33.31 49.85 33.40 49.74
  C 33.47 49.66 33.50 49.56 33.50 49.44
  C 33.51 49.25 33.60 49.18 33.78 49.23
  L 39.97 50.95
  C 40.41 51.07 40.70 50.51 40.35 50.22
  C 38.92 49.05 37.29 48.45 35.47 48.41
  C 35.18 48.40 35.02 48.26 34.99 47.97
  C 34.95 47.54 35.22 47.26 35.81 47.13
  C 36.15 47.05 36.49 47.04 36.84 47.09
  C 37.53 47.18 39.88 47.84 40.26 47.12
  C 40.43 46.81 40.35 46.57 40.02 46.41
  C 39.21 46.02 35.44 45.81 35.33 45.58
  C 35.16 45.25 35.25 45.00 35.59 44.85
  C 36.52 44.43 40.26 43.77 40.49 43.04
  C 40.61 42.64 40.46 42.43 40.04 42.42
  C 38.65 42.37 34.94 43.98 34.32 42.90
  C 34.14 42.58 34.19 42.30 34.46 42.06
  L 37.91 39.09
  C 39.10 38.06 38.94 37.77 37.43 38.20
  C 35.87 38.65 34.60 39.52 33.62 40.81
  C 33.47 41.00 33.28 41.07 33.03 41.01
  C 32.92 40.98 32.83 40.94 32.74 40.87
  C 32.40 40.61 32.34 40.30 32.57 39.93
  L 35.21 35.66
  C 35.36 35.41 35.30 35.22 35.03 35.11
  C 33.46 34.48 31.88 38.60 30.68 39.68
  C 30.30 40.02 29.73 39.58 29.97 39.13
  C 30.40 38.33 33.18 33.43 31.72 33.25
  C 31.37 33.20 31.11 33.34 30.95 33.65
  L 28.19 39.02
  C 27.82 39.74 26.73 39.43 26.79 38.62"
/>
<path stroke="#858585" vector-effect="non-scaling-stroke" d="
  M 66.9582 55.6803
  C 64.44 52.01 59.12 51.29 55.0748 54.0675
  C 51.03 56.85 49.80 62.07 52.3218 65.7397
  C 54.84 69.41 60.16 70.13 64.2052 67.3525
  C 68.25 64.57 69.48 59.35 66.9582 55.6803"
/>
<path stroke="#858585" vector-effect="non-scaling-stroke" d="
  M 93.25 70.89
  C 100.71 60.09 84.98 54.35 79.87 60.50
  C 71.59 70.48 86.70 80.36 93.25 70.89"
/>
<path stroke="#858585" vector-effect="non-scaling-stroke" d="
  M 16.81 67.35
  C 16.81 66.12 15.82 65.13 14.59 65.13
  C 13.36 65.13 12.37 66.12 12.37 67.35
  C 12.37 68.58 13.36 69.57 14.59 69.57
  C 15.82 69.57 16.81 68.58 16.81 67.35"
/>
<path stroke="#858585" vector-effect="non-scaling-stroke" d="
  M 12.7610 77.2024
  C 12.76 76.72 12.37 76.33 11.8925 76.3309
  L 10.9125 76.3291
  C 10.43 76.33 10.04 76.72 10.0410 77.1976
  L 10.0390 78.3776
  C 10.04 78.86 10.43 79.25 10.9075 79.2491
  L 11.8875 79.2509
  C 12.37 79.25 12.76 78.86 12.7590 78.3824
  L 12.7610 77.2024"
/>
<path stroke="#858585" vector-effect="non-scaling-stroke" d="
  M 15.5868 90.6478
  C 16.24 90.68 16.81 90.00 16.8584 89.1223
  C 16.90 88.25 16.41 87.51 15.7532 87.4722
  C 15.10 87.44 14.53 88.12 14.4816 88.9977
  C 14.44 89.87 14.93 90.61 15.5868 90.6478"
/>
<path stroke="#858585" vector-effect="non-scaling-stroke" d="
  M 43.7034 14.3725
  C 42.63 12.87 40.33 12.68 38.5710 13.9476
  C 36.81 15.21 36.26 17.45 37.3366 18.9475
  C 38.41 20.45 40.71 20.64 42.4690 19.3724
  C 44.23 18.11 44.78 15.87 43.7034 14.3725"
/>
<path stroke="#858585" vector-effect="non-scaling-stroke" d="
  M 42.40 16.59
  C 42.40 15.98 41.90 15.48 41.29 15.48
  C 40.68 15.48 40.18 15.98 40.18 16.59
  C 40.18 17.20 40.68 17.70 41.29 17.70
  C 41.90 17.70 42.40 17.20 42.40 16.59"
/>
<path stroke="#858585" vector-effect="non-scaling-stroke" d="
  M 27.1733 49.8378
  C 29.31 50.98 32.01 50.08 33.2037 47.8430
  C 34.40 45.60 33.64 42.86 31.5067 41.7222
  C 29.37 40.58 26.67 41.48 25.4763 43.7170
  C 24.28 45.96 25.04 48.70 27.1733 49.8378"
/>
<path stroke="#858585" vector-effect="non-scaling-stroke" d="
  M 14.9058 51.4874
  C 16.79 53.02 19.64 52.62 21.2768 50.6087
  C 22.91 48.59 22.72 45.72 20.8342 44.1926
  C 18.95 42.66 16.10 43.06 14.4632 45.0713
  C 12.83 47.09 13.02 49.96 14.9058 51.4874"
/>
<path stroke="#858585" vector-effect="non-scaling-stroke" d="
  M 30.18 45.64
  C 30.38 45.11 30.20 44.79 29.64 44.70
  L 28.19 44.47
  C 27.78 44.40 27.55 44.57 27.50 44.98
  C 27.41 45.67 27.61 46.25 28.10 46.72
  C 28.35 46.97 28.64 47.03 28.97 46.90
  C 29.55 46.66 29.95 46.24 30.18 45.64"
/>
<path stroke="#858585" vector-effect="non-scaling-stroke" d="
  M 18.4816 48.7738
  C 19.15 48.84 19.74 48.29 19.8144 47.5560
  C 19.89 46.82 19.40 46.17 18.7384 46.1062
  C 18.07 46.04 17.48 46.59 17.4056 47.3240
  C 17.33 48.06 17.82 48.71 18.4816 48.7738"
/>
<path stroke="#858585" vector-effect="non-scaling-stroke" d="
  M 65.1512 57.4678
  C 63.37 54.74 59.42 54.17 56.3394 56.1831
  C 53.26 58.20 52.20 62.05 53.9888 64.7722
  C 55.77 67.50 59.72 68.07 62.8006 66.0569
  C 65.88 64.04 66.94 60.19 65.1512 57.4678"
/>
<path stroke="#858585" vector-effect="non-scaling-stroke" d="
  M 64.0728 59.9271
  C 63.38 58.43 61.42 57.86 59.6958 58.6557
  C 57.97 59.45 57.13 61.31 57.8272 62.8129
  C 58.52 64.31 60.48 64.88 62.2042 64.0843
  C 63.93 63.29 64.77 61.43 64.0728 59.9271"
/>
<path stroke="#858585" vector-effect="non-scaling-stroke" d="
  M 92.5448 63.8321
  C 91.21 60.71 87.33 59.37 83.8771 60.8431
  C 80.42 62.32 78.70 66.04 80.0352 69.1679
  C 81.37 72.29 85.25 73.63 88.7029 72.1569
  C 92.16 70.68 93.88 66.96 92.5448 63.8321"
/>
<path stroke="#858585" vector-effect="non-scaling-stroke" d="
  M 88.24 66.26
  C 88.24 64.60 86.89 63.25 85.23 63.25
  C 83.57 63.25 82.22 64.60 82.22 66.26
  C 82.22 67.92 83.57 69.27 85.23 69.27
  C 86.89 69.27 88.24 67.92 88.24 66.26"
/>
</g>
<path fill="#f6f6f6" d="
  M 0.00 0.00
  L 125.00 0.00
  L 125.00 119.00
  L 0.00 119.00
  L 0.00 0.00
  Z
  M 36.89 24.56
  C 38.04 23.80 39.88 20.73 41.26 22.11
  C 41.55 22.40 41.54 22.68 41.24 22.95
  C 40.28 23.82 39.50 24.86 38.89 26.07
  C 38.44 26.96 38.58 27.07 39.31 26.38
  C 40.35 25.39 41.30 24.32 42.16 23.17
  C 42.25 23.06 42.36 23.00 42.50 23.00
  C 42.61 23.00 42.73 23.00 42.85 22.99
  C 43.11 22.96 43.18 23.07 43.07 23.30
  C 42.69 24.07 41.45 26.23 42.14 27.01
  C 42.39 27.28 42.59 27.25 42.74 26.91
  L 43.98 24.06
  C 44.10 23.79 44.27 23.54 44.48 23.33
  C 44.89 22.91 45.18 22.90 45.36 23.29
  C 45.49 23.56 45.50 23.83 45.41 24.11
  C 44.86 25.74 44.80 27.41 45.23 29.10
  C 45.30 29.37 45.55 29.54 45.83 29.52
  C 46.10 29.49 46.31 29.27 46.33 28.99
  L 46.60 24.41
  C 46.62 24.03 47.15 23.94 47.28 24.30
  C 47.60 25.16 47.91 28.64 49.15 28.52
  C 49.50 28.48 49.73 28.13 49.61 27.79
  L 48.16 23.73
  C 47.30 21.30 47.62 21.14 49.11 23.23
  C 50.00 24.48 50.72 25.83 51.27 27.29
  C 51.42 27.68 51.65 27.73 51.94 27.43
  L 52.26 27.12
  C 52.52 26.85 52.55 26.57 52.34 26.26
  L 50.49 23.49
  C 49.96 22.70 50.13 22.49 51.01 22.87
  C 52.18 23.38 52.99 24.26 53.43 25.49
  C 53.48 25.62 53.57 25.71 53.71 25.74
  C 53.83 25.77 53.95 25.77 54.06 25.74
  C 54.42 25.63 54.51 25.42 54.32 25.09
  L 52.84 22.48
  C 52.56 21.98 52.71 21.74 53.28 21.75
  C 53.37 21.75 53.46 21.75 53.55 21.75
  C 53.83 21.75 54.08 21.84 54.30 22.02
  L 56.06 23.44
  C 56.76 24.01 57.00 23.86 56.77 22.98
  C 56.46 21.77 55.70 21.06 54.48 20.85
  C 53.22 20.64 53.21 20.39 54.46 20.12
  C 55.42 19.91 56.36 20.01 57.29 20.40
  C 57.58 20.52 57.72 20.42 57.72 20.11
  L 57.72 19.75
  C 57.72 19.38 57.54 19.16 57.17 19.09
  L 55.14 18.71
  C 54.75 18.63 54.53 18.39 54.50 18.00
  C 54.38 16.78 57.09 16.77 57.93 16.59
  C 58.27 16.52 58.38 16.32 58.25 15.99
  C 57.99 15.29 51.47 15.11 53.31 18.29
  C 53.48 18.58 53.48 18.87 53.32 19.16
  C 48.92 27.36 42.14 14.82 50.15 14.84
  C 50.45 14.84 50.74 14.90 51.02 15.03
  L 52.39 15.66
  C 52.72 15.82 53.04 15.79 53.33 15.57
  L 56.33 13.36
  C 56.54 13.21 56.57 13.03 56.43 12.82
  C 56.34 12.68 56.18 12.58 55.93 12.52
  C 55.63 12.45 55.34 12.48 55.07 12.63
  L 52.42 14.06
  C 52.11 14.23 51.88 14.15 51.75 13.83
  C 51.52 13.26 53.84 11.13 54.90 10.25
  C 55.09 10.10 55.12 9.93 55.00 9.72
  L 54.83 9.44
  C 54.65 9.13 54.42 9.09 54.14 9.32
  C 53.51 9.84 50.71 13.06 50.33 13.00
  C 49.94 12.93 49.84 12.73 50.02 12.38
  L 52.44 7.83
  C 52.67 7.40 52.55 7.13 52.07 7.03
  C 51.98 7.01 51.88 7.00 51.77 6.99
  C 51.50 6.98 51.30 7.11 51.19 7.36
  L 48.52 13.38
  C 48.44 13.55 48.31 13.61 48.13 13.55
  C 48.00 13.50 47.88 13.46 47.77 13.42
  C 47.49 13.32 47.41 13.13 47.53 12.86
  C 48.37 10.97 48.85 8.98 48.97 6.91
  C 49.00 6.52 48.84 6.42 48.50 6.62
  L 48.23 6.78
  C 48.07 6.87 47.97 7.01 47.93 7.19
  L 46.83 11.92
  C 46.77 12.17 46.53 12.32 46.28 12.28
  C 46.03 12.23 45.87 12.00 45.90 11.75
  L 46.65 6.32
  C 46.66 6.22 46.65 6.13 46.61 6.04
  C 46.54 5.85 46.40 5.75 46.20 5.75
  C 45.88 5.74 45.67 5.89 45.58 6.20
  C 45.40 6.85 45.06 11.14 44.68 11.35
  C 44.38 11.51 44.21 11.42 44.17 11.08
  L 43.76 7.40
  C 43.75 7.30 43.69 7.25 43.59 7.25
  L 43.05 7.25
  C 42.73 7.25 42.60 7.41 42.65 7.72
  L 43.18 10.93
  C 43.23 11.23 43.11 11.42 42.81 11.49
  C 42.70 11.52 42.60 11.52 42.49 11.50
  C 42.14 11.43 41.94 11.21 41.89 10.85
  C 41.74 9.56 41.28 8.41 40.51 7.39
  C 39.64 6.22 39.47 6.32 40.00 7.68
  C 40.46 8.83 40.80 10.02 41.02 11.23
  C 41.27 12.60 41.00 12.72 40.20 11.57
  C 39.69 10.83 39.08 8.28 37.98 8.28
  C 37.53 8.27 37.36 8.49 37.48 8.93
  C 37.61 9.44 37.46 9.81 37.02 10.04
  C 36.71 10.19 36.69 10.38 36.96 10.59
  C 37.19 10.78 37.46 10.82 37.78 10.73
  C 38.19 10.61 38.47 10.75 38.62 11.14
  L 39.05 12.24
  C 39.24 12.73 39.07 12.97 38.54 12.94
  C 35.69 12.81 35.98 9.83 34.17 9.73
  C 33.73 9.70 33.48 10.22 33.77 10.55
  L 36.45 13.56
  C 36.65 13.79 36.67 14.02 36.51 14.27
  C 35.77 15.42 33.84 14.18 32.78 13.93
  C 32.40 13.84 32.24 13.98 32.31 14.37
  C 32.47 15.25 34.63 15.76 35.39 15.85
  C 35.92 15.92 35.99 16.14 35.62 16.51
  C 35.36 16.78 35.00 16.88 34.53 16.83
  C 34.23 16.79 33.94 16.71 33.66 16.59
  C 32.99 16.29 32.35 16.33 31.74 16.70
  C 30.94 17.19 31.01 17.47 31.94 17.54
  L 35.64 17.84
  C 35.96 17.87 36.08 18.04 36.01 18.35
  C 35.84 19.05 33.24 19.69 32.50 20.15
  C 32.27 20.30 32.22 20.50 32.37 20.73
  C 32.81 21.44 35.78 20.00 36.49 19.75
  C 36.66 19.69 36.75 19.75 36.75 19.94
  C 36.75 20.05 36.75 20.15 36.75 20.26
  C 36.76 20.54 36.64 20.75 36.39 20.89
  L 33.86 22.29
  C 33.71 22.37 33.67 22.49 33.72 22.65
  C 33.75 22.75 33.79 22.85 33.82 22.95
  C 33.91 23.22 34.08 23.29 34.33 23.14
  L 37.86 21.06
  C 38.28 20.81 38.78 21.26 38.56 21.70
  C 38.34 22.13 36.11 24.43 36.35 24.57
  C 36.53 24.68 36.71 24.68 36.89 24.56
  Z
  M 50.8069 17.6754
  C 50.74 17.17 50.10 16.85 49.3804 16.9492
  C 48.66 17.05 48.14 17.54 48.2131 18.0446
  C 48.28 18.55 48.92 18.87 49.6396 18.7708
  C 50.36 18.67 50.88 18.18 50.8069 17.6754
  Z
  M 103.84 75.42
  C 102.61 68.78 102.27 61.60 99.24 55.34
  C 99.09 55.03 99.03 54.70 99.07 54.35
  C 99.47 51.00 100.28 46.22 101.51 40.00
  C 101.91 37.94 101.64 35.64 100.71 33.09
  C 100.59 32.77 100.37 32.55 100.05 32.43
  C 92.52 29.57 86.03 41.72 83.09 46.95
  C 82.90 47.30 82.62 47.38 82.26 47.18
  C 79.55 45.68 76.66 44.66 73.58 44.12
  C 72.58 43.95 72.06 43.35 72.03 42.34
  C 71.92 38.99 72.03 35.72 72.37 32.51
  C 72.64 29.88 72.61 28.04 72.26 27.01
  C 71.32 24.26 67.38 21.47 64.81 24.29
  C 59.59 30.03 55.99 36.62 54.02 44.05
  C 53.48 46.06 52.75 47.81 51.84 49.30
  C 47.88 55.72 43.13 62.72 41.62 69.41
  C 39.91 77.03 40.86 84.82 44.47 92.77
  C 47.81 100.12 51.32 102.04 56.97 106.72
  C 58.52 108.01 60.26 109.07 62.18 109.91
  C 62.47 110.04 62.60 110.26 62.55 110.58
  L 62.22 112.75
  C 62.16 113.16 62.33 113.41 62.74 113.48
  C 63.56 113.63 64.26 113.46 64.85 112.96
  C 65.11 112.73 65.34 112.76 65.53 113.05
  L 66.49 114.48
  C 66.90 115.09 67.32 115.09 67.73 114.48
  L 68.64 113.13
  C 68.83 112.86 69.09 112.70 69.42 112.67
  L 77.20 112.02
  C 77.75 111.97 77.95 112.22 77.81 112.75
  C 77.52 113.89 77.78 114.75 78.58 115.32
  C 78.83 115.50 79.10 115.52 79.39 115.38
  C 79.92 115.12 80.12 114.74 79.98 114.23
  C 79.41 112.22 79.70 112.20 80.83 114.17
  C 81.20 114.80 81.75 115.08 82.49 115.01
  C 82.88 114.98 83.17 114.79 83.37 114.46
  L 84.38 112.75
  C 84.55 112.47 84.78 112.28 85.09 112.17
  C 91.64 109.91 96.45 105.64 99.51 99.36
  C 99.70 98.97 99.59 98.70 99.19 98.53
  L 98.50 98.24
  C 98.03 98.05 97.68 98.17 97.44 98.61
  C 87.38 117.12 59.27 111.42 49.16 96.32
  C 42.38 86.19 41.33 75.44 46.02 64.05
  C 48.66 57.65 54.89 51.74 56.47 44.86
  C 58.03 38.07 61.12 32.01 65.73 26.70
  C 65.95 26.45 66.22 26.31 66.54 26.27
  C 70.07 25.78 70.47 28.41 70.15 31.27
  C 69.76 34.68 69.49 38.08 69.32 41.49
  C 69.07 46.50 73.15 46.87 77.38 47.66
  C 77.74 47.73 78.05 47.89 78.30 48.15
  C 80.01 49.84 82.02 50.17 84.33 49.13
  C 84.59 49.01 84.79 48.82 84.93 48.57
  C 87.74 43.37 92.00 35.37 98.27 34.02
  C 98.84 33.90 99.37 34.35 99.35 34.93
  C 99.08 42.78 96.52 49.56 96.50 57.35
  C 96.50 57.70 96.62 58.00 96.87 58.24
  C 100.45 61.74 101.55 77.13 101.69 82.16
  C 101.70 82.48 101.85 82.71 102.14 82.84
  C 103.32 83.37 104.03 80.25 104.33 79.47
  C 104.46 79.14 104.69 78.93 105.02 78.82
  C 108.27 77.78 110.91 78.47 112.94 80.88
  C 113.19 81.18 113.31 81.52 113.31 81.91
  C 113.33 89.65 106.76 93.45 100.99 97.00
  C 100.14 97.52 99.88 98.09 100.20 98.70
  C 100.50 99.28 101.21 99.51 101.78 99.21
  C 106.29 96.91 112.21 93.10 114.42 88.45
  C 116.57 83.91 116.42 77.96 110.76 76.30
  C 108.93 75.77 106.57 76.04 104.50 75.99
  C 104.13 75.98 103.91 75.79 103.84 75.42
  Z
  M 26.79 38.62
  L 27.22 32.84
  C 27.25 32.51 27.14 32.24 26.89 32.03
  L 26.60 31.78
  C 26.12 31.36 25.82 31.47 25.70 32.10
  C 25.61 32.62 25.49 37.82 25.02 37.95
  C 24.65 38.05 24.42 37.92 24.32 37.55
  C 24.07 36.61 24.33 32.69 23.15 32.77
  C 22.74 32.80 22.55 33.02 22.58 33.43
  L 22.96 39.04
  C 22.97 39.25 22.89 39.40 22.71 39.51
  L 22.42 39.68
  C 22.27 39.77 22.17 39.73 22.12 39.57
  L 19.91 32.38
  C 19.73 31.79 19.43 31.72 19.00 32.17
  C 18.08 33.18 20.06 37.91 20.33 39.24
  C 20.38 39.47 20.25 39.71 20.02 39.79
  C 19.80 39.87 19.55 39.79 19.43 39.58
  L 16.86 35.17
  C 16.79 35.06 16.68 35.00 16.55 35.00
  C 16.47 35.00 16.39 35.00 16.30 35.00
  C 15.91 34.98 15.80 35.15 15.97 35.50
  L 17.91 39.67
  C 18.06 40.00 17.95 40.19 17.60 40.26
  C 17.21 40.33 14.24 37.13 13.38 36.68
  C 13.18 36.57 12.93 36.63 12.80 36.81
  C 12.66 36.99 12.68 37.25 12.84 37.41
  L 15.81 40.46
  C 16.09 40.75 16.09 41.03 15.80 41.32
  L 15.61 41.52
  C 15.34 41.79 15.06 41.79 14.78 41.54
  L 11.41 38.56
  C 11.20 38.38 10.89 38.39 10.70 38.59
  C 10.51 38.79 10.51 39.10 10.70 39.30
  L 13.98 42.65
  C 14.18 42.86 14.16 43.04 13.92 43.20
  C 13.11 43.72 10.33 40.24 9.66 42.05
  C 9.51 42.45 9.64 42.73 10.03 42.90
  L 12.65 44.01
  C 12.92 44.12 13.04 44.33 13.00 44.62
  C 12.78 46.37 8.69 44.44 7.69 44.08
  C 7.32 43.95 6.93 44.18 6.87 44.57
  C 6.67 45.92 10.46 46.25 11.65 46.83
  C 12.11 47.05 11.95 47.74 11.44 47.74
  L 7.22 47.76
  C 7.03 47.76 6.90 47.85 6.83 48.03
  C 6.78 48.15 6.74 48.27 6.70 48.39
  C 6.51 48.96 6.71 49.23 7.30 49.22
  L 11.36 49.13
  C 11.61 49.12 11.74 49.25 11.74 49.50
  C 11.73 50.76 6.50 50.44 6.47 52.43
  C 6.47 52.81 6.85 53.07 7.20 52.92
  L 12.43 50.77
  C 12.74 50.64 12.93 50.74 13.00 51.07
  C 13.21 52.00 9.98 53.99 9.32 54.51
  C 8.96 54.79 8.95 55.33 9.29 55.63
  C 10.26 56.47 13.42 53.22 14.51 52.63
  C 14.93 52.40 15.36 52.93 15.05 53.30
  L 11.52 57.51
  C 11.31 57.76 11.32 57.99 11.55 58.22
  C 12.72 59.38 16.46 53.40 17.07 53.77
  C 17.37 53.96 17.42 54.20 17.23 54.50
  L 14.56 58.56
  C 14.31 58.95 14.38 59.26 14.77 59.50
  L 15.14 59.71
  C 15.30 59.81 15.43 59.78 15.53 59.62
  L 18.77 54.41
  C 18.84 54.30 18.94 54.25 19.07 54.25
  C 19.17 54.25 19.27 54.25 19.37 54.25
  C 19.74 54.25 19.85 54.42 19.71 54.75
  L 17.65 59.98
  C 17.48 60.40 17.62 60.65 18.07 60.73
  C 19.32 60.96 20.86 55.73 21.19 54.46
  C 21.23 54.32 21.32 54.25 21.47 54.25
  C 21.62 54.25 21.75 54.25 21.87 54.24
  C 22.16 54.23 22.26 54.37 22.18 54.64
  L 20.58 60.33
  C 20.48 60.68 20.60 60.90 20.95 60.99
  C 22.39 61.37 23.07 56.90 23.24 55.99
  C 23.29 55.69 23.47 55.53 23.78 55.52
  C 24.57 55.50 24.52 59.90 24.53 60.53
  C 24.54 61.12 25.35 61.28 25.58 60.73
  C 26.14 59.40 25.51 55.04 25.97 54.86
  C 26.36 54.71 26.63 54.83 26.77 55.24
  L 28.43 60.05
  C 28.50 60.26 28.61 60.45 28.75 60.63
  C 29.42 61.49 29.86 61.44 30.08 60.47
  C 30.15 60.16 30.12 59.87 30.00 59.58
  L 28.03 54.74
  C 27.66 53.83 27.83 53.71 28.56 54.38
  C 29.30 55.07 32.50 59.82 33.71 59.05
  C 34.08 58.82 34.13 58.53 33.84 58.19
  L 29.78 53.46
  C 29.57 53.21 29.53 52.94 29.67 52.65
  L 29.83 52.30
  C 30.11 51.73 30.46 51.68 30.89 52.15
  L 35.42 57.12
  C 35.53 57.23 35.64 57.24 35.75 57.13
  L 35.93 56.94
  C 36.19 56.68 36.25 56.38 36.11 56.04
  C 35.31 54.07 33.49 53.34 32.44 51.76
  C 31.99 51.08 32.12 50.94 32.83 51.33
  L 36.91 53.58
  C 37.47 53.89 37.67 53.73 37.50 53.11
  C 37.19 51.95 33.95 50.29 33.45 50.00
  C 33.32 49.93 33.31 49.85 33.40 49.74
  C 33.47 49.66 33.50 49.56 33.50 49.44
  C 33.51 49.25 33.60 49.18 33.78 49.23
  L 39.97 50.95
  C 40.41 51.07 40.70 50.51 40.35 50.22
  C 38.92 49.05 37.29 48.45 35.47 48.41
  C 35.18 48.40 35.02 48.26 34.99 47.97
  C 34.95 47.54 35.22 47.26 35.81 47.13
  C 36.15 47.05 36.49 47.04 36.84 47.09
  C 37.53 47.18 39.88 47.84 40.26 47.12
  C 40.43 46.81 40.35 46.57 40.02 46.41
  C 39.21 46.02 35.44 45.81 35.33 45.58
  C 35.16 45.25 35.25 45.00 35.59 44.85
  C 36.52 44.43 40.26 43.77 40.49 43.04
  C 40.61 42.64 40.46 42.43 40.04 42.42
  C 38.65 42.37 34.94 43.98 34.32 42.90
  C 34.14 42.58 34.19 42.30 34.46 42.06
  L 37.91 39.09
  C 39.10 38.06 38.94 37.77 37.43 38.20
  C 35.87 38.65 34.60 39.52 33.62 40.81
  C 33.47 41.00 33.28 41.07 33.03 41.01
  C 32.92 40.98 32.83 40.94 32.74 40.87
  C 32.40 40.61 32.34 40.30 32.57 39.93
  L 35.21 35.66
  C 35.36 35.41 35.30 35.22 35.03 35.11
  C 33.46 34.48 31.88 38.60 30.68 39.68
  C 30.30 40.02 29.73 39.58 29.97 39.13
  C 30.40 38.33 33.18 33.43 31.72 33.25
  C 31.37 33.20 31.11 33.34 30.95 33.65
  L 28.19 39.02
  C 27.82 39.74 26.73 39.43 26.79 38.62
  Z
  M 66.9582 55.6803
  C 64.44 52.01 59.12 51.29 55.0748 54.0675
  C 51.03 56.85 49.80 62.07 52.3218 65.7397
  C 54.84 69.41 60.16 70.13 64.2052 67.3525
  C 68.25 64.57 69.48 59.35 66.9582 55.6803
  Z
  M 93.25 70.89
  C 100.71 60.09 84.98 54.35 79.87 60.50
  C 71.59 70.48 86.70 80.36 93.25 70.89
  Z
  M 16.81 67.35
  C 16.81 66.12 15.82 65.13 14.59 65.13
  C 13.36 65.13 12.37 66.12 12.37 67.35
  C 12.37 68.58 13.36 69.57 14.59 69.57
  C 15.82 69.57 16.81 68.58 16.81 67.35
  Z
  M 12.7610 77.2024
  C 12.76 76.72 12.37 76.33 11.8925 76.3309
  L 10.9125 76.3291
  C 10.43 76.33 10.04 76.72 10.0410 77.1976
  L 10.0390 78.3776
  C 10.04 78.86 10.43 79.25 10.9075 79.2491
  L 11.8875 79.2509
  C 12.37 79.25 12.76 78.86 12.7590 78.3824
  L 12.7610 77.2024
  Z
  M 15.5868 90.6478
  C 16.24 90.68 16.81 90.00 16.8584 89.1223
  C 16.90 88.25 16.41 87.51 15.7532 87.4722
  C 15.10 87.44 14.53 88.12 14.4816 88.9977
  C 14.44 89.87 14.93 90.61 15.5868 90.6478
  Z"
/>
<path fill="#141314" d="
  M 41.26 22.11
  C 39.88 20.73 38.04 23.80 36.89 24.56
  C 36.71 24.68 36.53 24.68 36.35 24.57
  C 36.11 24.43 38.34 22.13 38.56 21.70
  C 38.78 21.26 38.28 20.81 37.86 21.06
  L 34.33 23.14
  C 34.08 23.29 33.91 23.22 33.82 22.95
  C 33.79 22.85 33.75 22.75 33.72 22.65
  C 33.67 22.49 33.71 22.37 33.86 22.29
  L 36.39 20.89
  C 36.64 20.75 36.76 20.54 36.75 20.26
  C 36.75 20.15 36.75 20.05 36.75 19.94
  C 36.75 19.75 36.66 19.69 36.49 19.75
  C 35.78 20.00 32.81 21.44 32.37 20.73
  C 32.22 20.50 32.27 20.30 32.50 20.15
  C 33.24 19.69 35.84 19.05 36.01 18.35
  C 36.08 18.04 35.96 17.87 35.64 17.84
  L 31.94 17.54
  C 31.01 17.47 30.94 17.19 31.74 16.70
  C 32.35 16.33 32.99 16.29 33.66 16.59
  C 33.94 16.71 34.23 16.79 34.53 16.83
  C 35.00 16.88 35.36 16.78 35.62 16.51
  C 35.99 16.14 35.92 15.92 35.39 15.85
  C 34.63 15.76 32.47 15.25 32.31 14.37
  C 32.24 13.98 32.40 13.84 32.78 13.93
  C 33.84 14.18 35.77 15.42 36.51 14.27
  C 36.67 14.02 36.65 13.79 36.45 13.56
  L 33.77 10.55
  C 33.48 10.22 33.73 9.70 34.17 9.73
  C 35.98 9.83 35.69 12.81 38.54 12.94
  C 39.07 12.97 39.24 12.73 39.05 12.24
  L 38.62 11.14
  C 38.47 10.75 38.19 10.61 37.78 10.73
  C 37.46 10.82 37.19 10.78 36.96 10.59
  C 36.69 10.38 36.71 10.19 37.02 10.04
  C 37.46 9.81 37.61 9.44 37.48 8.93
  C 37.36 8.49 37.53 8.27 37.98 8.28
  C 39.08 8.28 39.69 10.83 40.20 11.57
  C 41.00 12.72 41.27 12.60 41.02 11.23
  C 40.80 10.02 40.46 8.83 40.00 7.68
  C 39.47 6.32 39.64 6.22 40.51 7.39
  C 41.28 8.41 41.74 9.56 41.89 10.85
  C 41.94 11.21 42.14 11.43 42.49 11.50
  C 42.60 11.52 42.70 11.52 42.81 11.49
  C 43.11 11.42 43.23 11.23 43.18 10.93
  L 42.65 7.72
  C 42.60 7.41 42.73 7.25 43.05 7.25
  L 43.59 7.25
  C 43.69 7.25 43.75 7.30 43.76 7.40
  L 44.17 11.08
  C 44.21 11.42 44.38 11.51 44.68 11.35
  C 45.06 11.14 45.40 6.85 45.58 6.20
  C 45.67 5.89 45.88 5.74 46.20 5.75
  C 46.40 5.75 46.54 5.85 46.61 6.04
  C 46.65 6.13 46.66 6.22 46.65 6.32
  L 45.90 11.75
  C 45.87 12.00 46.03 12.23 46.28 12.28
  C 46.53 12.32 46.77 12.17 46.83 11.92
  L 47.93 7.19
  C 47.97 7.01 48.07 6.87 48.23 6.78
  L 48.50 6.62
  C 48.84 6.42 49.00 6.52 48.97 6.91
  C 48.85 8.98 48.37 10.97 47.53 12.86
  C 47.41 13.13 47.49 13.32 47.77 13.42
  C 47.88 13.46 48.00 13.50 48.13 13.55
  C 48.31 13.61 48.44 13.55 48.52 13.38
  L 51.19 7.36
  C 51.30 7.11 51.50 6.98 51.77 6.99
  C 51.88 7.00 51.98 7.01 52.07 7.03
  C 52.55 7.13 52.67 7.40 52.44 7.83
  L 50.02 12.38
  C 49.84 12.73 49.94 12.93 50.33 13.00
  C 50.71 13.06 53.51 9.84 54.14 9.32
  C 54.42 9.09 54.65 9.13 54.83 9.44
  L 55.00 9.72
  C 55.12 9.93 55.09 10.10 54.90 10.25
  C 53.84 11.13 51.52 13.26 51.75 13.83
  C 51.88 14.15 52.11 14.23 52.42 14.06
  L 55.07 12.63
  C 55.34 12.48 55.63 12.45 55.93 12.52
  C 56.18 12.58 56.34 12.68 56.43 12.82
  C 56.57 13.03 56.54 13.21 56.33 13.36
  L 53.33 15.57
  C 53.04 15.79 52.72 15.82 52.39 15.66
  L 51.02 15.03
  C 50.74 14.90 50.45 14.84 50.15 14.84
  C 42.14 14.82 48.92 27.36 53.32 19.16
  C 53.48 18.87 53.48 18.58 53.31 18.29
  C 51.47 15.11 57.99 15.29 58.25 15.99
  C 58.38 16.32 58.27 16.52 57.93 16.59
  C 57.09 16.77 54.38 16.78 54.50 18.00
  C 54.53 18.39 54.75 18.63 55.14 18.71
  L 57.17 19.09
  C 57.54 19.16 57.72 19.38 57.72 19.75
  L 57.72 20.11
  C 57.72 20.42 57.58 20.52 57.29 20.40
  C 56.36 20.01 55.42 19.91 54.46 20.12
  C 53.21 20.39 53.22 20.64 54.48 20.85
  C 55.70 21.06 56.46 21.77 56.77 22.98
  C 57.00 23.86 56.76 24.01 56.06 23.44
  L 54.30 22.02
  C 54.08 21.84 53.83 21.75 53.55 21.75
  C 53.46 21.75 53.37 21.75 53.28 21.75
  C 52.71 21.74 52.56 21.98 52.84 22.48
  L 54.32 25.09
  C 54.51 25.42 54.42 25.63 54.06 25.74
  C 53.95 25.77 53.83 25.77 53.71 25.74
  C 53.57 25.71 53.48 25.62 53.43 25.49
  C 52.99 24.26 52.18 23.38 51.01 22.87
  C 50.13 22.49 49.96 22.70 50.49 23.49
  L 52.34 26.26
  C 52.55 26.57 52.52 26.85 52.26 27.12
  L 51.94 27.43
  C 51.65 27.73 51.42 27.68 51.27 27.29
  C 50.72 25.83 50.00 24.48 49.11 23.23
  C 47.62 21.14 47.30 21.30 48.16 23.73
  L 49.61 27.79
  C 49.73 28.13 49.50 28.48 49.15 28.52
  C 47.91 28.64 47.60 25.16 47.28 24.30
  C 47.15 23.94 46.62 24.03 46.60 24.41
  L 46.33 28.99
  C 46.31 29.27 46.10 29.49 45.83 29.52
  C 45.55 29.54 45.30 29.37 45.23 29.10
  C 44.80 27.41 44.86 25.74 45.41 24.11
  C 45.50 23.83 45.49 23.56 45.36 23.29
  C 45.18 22.90 44.89 22.91 44.48 23.33
  C 44.27 23.54 44.10 23.79 43.98 24.06
  L 42.74 26.91
  C 42.59 27.25 42.39 27.28 42.14 27.01
  C 41.45 26.23 42.69 24.07 43.07 23.30
  C 43.18 23.07 43.11 22.96 42.85 22.99
  C 42.73 23.00 42.61 23.00 42.50 23.00
  C 42.36 23.00 42.25 23.06 42.16 23.17
  C 41.30 24.32 40.35 25.39 39.31 26.38
  C 38.58 27.07 38.44 26.96 38.89 26.07
  C 39.50 24.86 40.28 23.82 41.24 22.95
  C 41.54 22.68 41.55 22.40 41.26 22.11
  Z
  M 43.7034 14.3725
  C 42.63 12.87 40.33 12.68 38.5710 13.9476
  C 36.81 15.21 36.26 17.45 37.3366 18.9475
  C 38.41 20.45 40.71 20.64 42.4690 19.3724
  C 44.23 18.11 44.78 15.87 43.7034 14.3725
  Z"
/>
<path fill="#f6f6f6" d="
  M 43.7034 14.3725
  C 44.78 15.87 44.23 18.11 42.4690 19.3724
  C 40.71 20.64 38.41 20.45 37.3366 18.9475
  C 36.26 17.45 36.81 15.21 38.5710 13.9476
  C 40.33 12.68 42.63 12.87 43.7034 14.3725
  Z
  M 42.40 16.59
  C 42.40 15.98 41.90 15.48 41.29 15.48
  C 40.68 15.48 40.18 15.98 40.18 16.59
  C 40.18 17.20 40.68 17.70 41.29 17.70
  C 41.90 17.70 42.40 17.20 42.40 16.59
  Z"
/>
<circle fill="#141314" cx="41.29" cy="16.59" r="1.11"/>
<ellipse fill="#141314" cx="0.00" cy="0.00" transform="translate(49.51,17.86) rotate(-8.1)" rx="1.31" ry="0.92"/>
<path fill="#141314" d="
  M 104.50 75.99
  C 106.57 76.04 108.93 75.77 110.76 76.30
  C 116.42 77.96 116.57 83.91 114.42 88.45
  C 112.21 93.10 106.29 96.91 101.78 99.21
  C 101.21 99.51 100.50 99.28 100.20 98.70
  C 99.88 98.09 100.14 97.52 100.99 97.00
  C 106.76 93.45 113.33 89.65 113.31 81.91
  C 113.31 81.52 113.19 81.18 112.94 80.88
  C 110.91 78.47 108.27 77.78 105.02 78.82
  C 104.69 78.93 104.46 79.14 104.33 79.47
  C 104.03 80.25 103.32 83.37 102.14 82.84
  C 101.85 82.71 101.70 82.48 101.69 82.16
  C 101.55 77.13 100.45 61.74 96.87 58.24
  C 96.62 58.00 96.50 57.70 96.50 57.35
  C 96.52 49.56 99.08 42.78 99.35 34.93
  C 99.37 34.35 98.84 33.90 98.27 34.02
  C 92.00 35.37 87.74 43.37 84.93 48.57
  C 84.79 48.82 84.59 49.01 84.33 49.13
  C 82.02 50.17 80.01 49.84 78.30 48.15
  C 78.05 47.89 77.74 47.73 77.38 47.66
  C 73.15 46.87 69.07 46.50 69.32 41.49
  C 69.49 38.08 69.76 34.68 70.15 31.27
  C 70.47 28.41 70.07 25.78 66.54 26.27
  C 66.22 26.31 65.95 26.45 65.73 26.70
  C 61.12 32.01 58.03 38.07 56.47 44.86
  C 54.89 51.74 48.66 57.65 46.02 64.05
  C 41.33 75.44 42.38 86.19 49.16 96.32
  C 59.27 111.42 87.38 117.12 97.44 98.61
  C 97.68 98.17 98.03 98.05 98.50 98.24
  L 99.19 98.53
  C 99.59 98.70 99.70 98.97 99.51 99.36
  C 96.45 105.64 91.64 109.91 85.09 112.17
  C 84.78 112.28 84.55 112.47 84.38 112.75
  L 83.37 114.46
  C 83.17 114.79 82.88 114.98 82.49 115.01
  C 81.75 115.08 81.20 114.80 80.83 114.17
  C 79.70 112.20 79.41 112.22 79.98 114.23
  C 80.12 114.74 79.92 115.12 79.39 115.38
  C 79.10 115.52 78.83 115.50 78.58 115.32
  C 77.78 114.75 77.52 113.89 77.81 112.75
  C 77.95 112.22 77.75 111.97 77.20 112.02
  L 69.42 112.67
  C 69.09 112.70 68.83 112.86 68.64 113.13
  L 67.73 114.48
  C 67.32 115.09 66.90 115.09 66.49 114.48
  L 65.53 113.05
  C 65.34 112.76 65.11 112.73 64.85 112.96
  C 64.26 113.46 63.56 113.63 62.74 113.48
  C 62.33 113.41 62.16 113.16 62.22 112.75
  L 62.55 110.58
  C 62.60 110.26 62.47 110.04 62.18 109.91
  C 60.26 109.07 58.52 108.01 56.97 106.72
  C 51.32 102.04 47.81 100.12 44.47 92.77
  C 40.86 84.82 39.91 77.03 41.62 69.41
  C 43.13 62.72 47.88 55.72 51.84 49.30
  C 52.75 47.81 53.48 46.06 54.02 44.05
  C 55.99 36.62 59.59 30.03 64.81 24.29
  C 67.38 21.47 71.32 24.26 72.26 27.01
  C 72.61 28.04 72.64 29.88 72.37 32.51
  C 72.03 35.72 71.92 38.99 72.03 42.34
  C 72.06 43.35 72.58 43.95 73.58 44.12
  C 76.66 44.66 79.55 45.68 82.26 47.18
  C 82.62 47.38 82.90 47.30 83.09 46.95
  C 86.03 41.72 92.52 29.57 100.05 32.43
  C 100.37 32.55 100.59 32.77 100.71 33.09
  C 101.64 35.64 101.91 37.94 101.51 40.00
  C 100.28 46.22 99.47 51.00 99.07 54.35
  C 99.03 54.70 99.09 55.03 99.24 55.34
  C 102.27 61.60 102.61 68.78 103.84 75.42
  C 103.91 75.79 104.13 75.98 104.50 75.99
  Z"
/>
<path fill="#141314" d="
  M 26.79 38.62
  C 26.73 39.43 27.82 39.74 28.19 39.02
  L 30.95 33.65
  C 31.11 33.34 31.37 33.20 31.72 33.25
  C 33.18 33.43 30.40 38.33 29.97 39.13
  C 29.73 39.58 30.30 40.02 30.68 39.68
  C 31.88 38.60 33.46 34.48 35.03 35.11
  C 35.30 35.22 35.36 35.41 35.21 35.66
  L 32.57 39.93
  C 32.34 40.30 32.40 40.61 32.74 40.87
  C 32.83 40.94 32.92 40.98 33.03 41.01
  C 33.28 41.07 33.47 41.00 33.62 40.81
  C 34.60 39.52 35.87 38.65 37.43 38.20
  C 38.94 37.77 39.10 38.06 37.91 39.09
  L 34.46 42.06
  C 34.19 42.30 34.14 42.58 34.32 42.90
  C 34.94 43.98 38.65 42.37 40.04 42.42
  C 40.46 42.43 40.61 42.64 40.49 43.04
  C 40.26 43.77 36.52 44.43 35.59 44.85
  C 35.25 45.00 35.16 45.25 35.33 45.58
  C 35.44 45.81 39.21 46.02 40.02 46.41
  C 40.35 46.57 40.43 46.81 40.26 47.12
  C 39.88 47.84 37.53 47.18 36.84 47.09
  C 36.49 47.04 36.15 47.05 35.81 47.13
  C 35.22 47.26 34.95 47.54 34.99 47.97
  C 35.02 48.26 35.18 48.40 35.47 48.41
  C 37.29 48.45 38.92 49.05 40.35 50.22
  C 40.70 50.51 40.41 51.07 39.97 50.95
  L 33.78 49.23
  C 33.60 49.18 33.51 49.25 33.50 49.44
  C 33.50 49.56 33.47 49.66 33.40 49.74
  C 33.31 49.85 33.32 49.93 33.45 50.00
  C 33.95 50.29 37.19 51.95 37.50 53.11
  C 37.67 53.73 37.47 53.89 36.91 53.58
  L 32.83 51.33
  C 32.12 50.94 31.99 51.08 32.44 51.76
  C 33.49 53.34 35.31 54.07 36.11 56.04
  C 36.25 56.38 36.19 56.68 35.93 56.94
  L 35.75 57.13
  C 35.64 57.24 35.53 57.23 35.42 57.12
  L 30.89 52.15
  C 30.46 51.68 30.11 51.73 29.83 52.30
  L 29.67 52.65
  C 29.53 52.94 29.57 53.21 29.78 53.46
  L 33.84 58.19
  C 34.13 58.53 34.08 58.82 33.71 59.05
  C 32.50 59.82 29.30 55.07 28.56 54.38
  C 27.83 53.71 27.66 53.83 28.03 54.74
  L 30.00 59.58
  C 30.12 59.87 30.15 60.16 30.08 60.47
  C 29.86 61.44 29.42 61.49 28.75 60.63
  C 28.61 60.45 28.50 60.26 28.43 60.05
  L 26.77 55.24
  C 26.63 54.83 26.36 54.71 25.97 54.86
  C 25.51 55.04 26.14 59.40 25.58 60.73
  C 25.35 61.28 24.54 61.12 24.53 60.53
  C 24.52 59.90 24.57 55.50 23.78 55.52
  C 23.47 55.53 23.29 55.69 23.24 55.99
  C 23.07 56.90 22.39 61.37 20.95 60.99
  C 20.60 60.90 20.48 60.68 20.58 60.33
  L 22.18 54.64
  C 22.26 54.37 22.16 54.23 21.87 54.24
  C 21.75 54.25 21.62 54.25 21.47 54.25
  C 21.32 54.25 21.23 54.32 21.19 54.46
  C 20.86 55.73 19.32 60.96 18.07 60.73
  C 17.62 60.65 17.48 60.40 17.65 59.98
  L 19.71 54.75
  C 19.85 54.42 19.74 54.25 19.37 54.25
  C 19.27 54.25 19.17 54.25 19.07 54.25
  C 18.94 54.25 18.84 54.30 18.77 54.41
  L 15.53 59.62
  C 15.43 59.78 15.30 59.81 15.14 59.71
  L 14.77 59.50
  C 14.38 59.26 14.31 58.95 14.56 58.56
  L 17.23 54.50
  C 17.42 54.20 17.37 53.96 17.07 53.77
  C 16.46 53.40 12.72 59.38 11.55 58.22
  C 11.32 57.99 11.31 57.76 11.52 57.51
  L 15.05 53.30
  C 15.36 52.93 14.93 52.40 14.51 52.63
  C 13.42 53.22 10.26 56.47 9.29 55.63
  C 8.95 55.33 8.96 54.79 9.32 54.51
  C 9.98 53.99 13.21 52.00 13.00 51.07
  C 12.93 50.74 12.74 50.64 12.43 50.77
  L 7.20 52.92
  C 6.85 53.07 6.47 52.81 6.47 52.43
  C 6.50 50.44 11.73 50.76 11.74 49.50
  C 11.74 49.25 11.61 49.12 11.36 49.13
  L 7.30 49.22
  C 6.71 49.23 6.51 48.96 6.70 48.39
  C 6.74 48.27 6.78 48.15 6.83 48.03
  C 6.90 47.85 7.03 47.76 7.22 47.76
  L 11.44 47.74
  C 11.95 47.74 12.11 47.05 11.65 46.83
  C 10.46 46.25 6.67 45.92 6.87 44.57
  C 6.93 44.18 7.32 43.95 7.69 44.08
  C 8.69 44.44 12.78 46.37 13.00 44.62
  C 13.04 44.33 12.92 44.12 12.65 44.01
  L 10.03 42.90
  C 9.64 42.73 9.51 42.45 9.66 42.05
  C 10.33 40.24 13.11 43.72 13.92 43.20
  C 14.16 43.04 14.18 42.86 13.98 42.65
  L 10.70 39.30
  C 10.51 39.10 10.51 38.79 10.70 38.59
  C 10.89 38.39 11.20 38.38 11.41 38.56
  L 14.78 41.54
  C 15.06 41.79 15.34 41.79 15.61 41.52
  L 15.80 41.32
  C 16.09 41.03 16.09 40.75 15.81 40.46
  L 12.84 37.41
  C 12.68 37.25 12.66 36.99 12.80 36.81
  C 12.93 36.63 13.18 36.57 13.38 36.68
  C 14.24 37.13 17.21 40.33 17.60 40.26
  C 17.95 40.19 18.06 40.00 17.91 39.67
  L 15.97 35.50
  C 15.80 35.15 15.91 34.98 16.30 35.00
  C 16.39 35.00 16.47 35.00 16.55 35.00
  C 16.68 35.00 16.79 35.06 16.86 35.17
  L 19.43 39.58
  C 19.55 39.79 19.80 39.87 20.02 39.79
  C 20.25 39.71 20.38 39.47 20.33 39.24
  C 20.06 37.91 18.08 33.18 19.00 32.17
  C 19.43 31.72 19.73 31.79 19.91 32.38
  L 22.12 39.57
  C 22.17 39.73 22.27 39.77 22.42 39.68
  L 22.71 39.51
  C 22.89 39.40 22.97 39.25 22.96 39.04
  L 22.58 33.43
  C 22.55 33.02 22.74 32.80 23.15 32.77
  C 24.33 32.69 24.07 36.61 24.32 37.55
  C 24.42 37.92 24.65 38.05 25.02 37.95
  C 25.49 37.82 25.61 32.62 25.70 32.10
  C 25.82 31.47 26.12 31.36 26.60 31.78
  L 26.89 32.03
  C 27.14 32.24 27.25 32.51 27.22 32.84
  L 26.79 38.62
  Z
  M 27.1733 49.8378
  C 29.31 50.98 32.01 50.08 33.2037 47.8430
  C 34.40 45.60 33.64 42.86 31.5067 41.7222
  C 29.37 40.58 26.67 41.48 25.4763 43.7170
  C 24.28 45.96 25.04 48.70 27.1733 49.8378
  Z
  M 14.9058 51.4874
  C 16.79 53.02 19.64 52.62 21.2768 50.6087
  C 22.91 48.59 22.72 45.72 20.8342 44.1926
  C 18.95 42.66 16.10 43.06 14.4632 45.0713
  C 12.83 47.09 13.02 49.96 14.9058 51.4874
  Z"
/>
<path fill="#f6f6f6" d="
  M 27.1733 49.8378
  C 25.04 48.70 24.28 45.96 25.4763 43.7170
  C 26.67 41.48 29.37 40.58 31.5067 41.7222
  C 33.64 42.86 34.40 45.60 33.2037 47.8430
  C 32.01 50.08 29.31 50.98 27.1733 49.8378
  Z
  M 30.18 45.64
  C 30.38 45.11 30.20 44.79 29.64 44.70
  L 28.19 44.47
  C 27.78 44.40 27.55 44.57 27.50 44.98
  C 27.41 45.67 27.61 46.25 28.10 46.72
  C 28.35 46.97 28.64 47.03 28.97 46.90
  C 29.55 46.66 29.95 46.24 30.18 45.64
  Z"
/>
<path fill="#f6f6f6" d="
  M 14.9058 51.4874
  C 13.02 49.96 12.83 47.09 14.4632 45.0713
  C 16.10 43.06 18.95 42.66 20.8342 44.1926
  C 22.72 45.72 22.91 48.59 21.2768 50.6087
  C 19.64 52.62 16.79 53.02 14.9058 51.4874
  Z
  M 18.4816 48.7738
  C 19.15 48.84 19.74 48.29 19.8144 47.5560
  C 19.89 46.82 19.40 46.17 18.7384 46.1062
  C 18.07 46.04 17.48 46.59 17.4056 47.3240
  C 17.33 48.06 17.82 48.71 18.4816 48.7738
  Z"
/>
<path fill="#141314" d="
  M 30.18 45.64
  C 29.95 46.24 29.55 46.66 28.97 46.90
  C 28.64 47.03 28.35 46.97 28.10 46.72
  C 27.61 46.25 27.41 45.67 27.50 44.98
  C 27.55 44.57 27.78 44.40 28.19 44.47
  L 29.64 44.70
  C 30.20 44.79 30.38 45.11 30.18 45.64
  Z"
/>
<ellipse fill="#141314" cx="0.00" cy="0.00" transform="translate(18.61,47.44) rotate(95.5)" rx="1.34" ry="1.21"/>
<path fill="#141314" d="
  M 66.9582 55.6803
  C 69.48 59.35 68.25 64.57 64.2052 67.3525
  C 60.16 70.13 54.84 69.41 52.3218 65.7397
  C 49.80 62.07 51.03 56.85 55.0748 54.0675
  C 59.12 51.29 64.44 52.01 66.9582 55.6803
  Z
  M 65.1512 57.4678
  C 63.37 54.74 59.42 54.17 56.3394 56.1831
  C 53.26 58.20 52.20 62.05 53.9888 64.7722
  C 55.77 67.50 59.72 68.07 62.8006 66.0569
  C 65.88 64.04 66.94 60.19 65.1512 57.4678
  Z"
/>
<path fill="#f6f6f6" d="
  M 65.1512 57.4678
  C 66.94 60.19 65.88 64.04 62.8006 66.0569
  C 59.72 68.07 55.77 67.50 53.9888 64.7722
  C 52.20 62.05 53.26 58.20 56.3394 56.1831
  C 59.42 54.17 63.37 54.74 65.1512 57.4678
  Z
  M 64.0728 59.9271
  C 63.38 58.43 61.42 57.86 59.6958 58.6557
  C 57.97 59.45 57.13 61.31 57.8272 62.8129
  C 58.52 64.31 60.48 64.88 62.2042 64.0843
  C 63.93 63.29 64.77 61.43 64.0728 59.9271
  Z"
/>
<ellipse fill="#141314" cx="0.00" cy="0.00" transform="translate(60.95,61.37) rotate(-24.8)" rx="3.44" ry="2.99"/>
<path fill="#141314" d="
  M 79.87 60.50
  C 84.98 54.35 100.71 60.09 93.25 70.89
  C 86.70 80.36 71.59 70.48 79.87 60.50
  Z
  M 92.5448 63.8321
  C 91.21 60.71 87.33 59.37 83.8771 60.8431
  C 80.42 62.32 78.70 66.04 80.0352 69.1679
  C 81.37 72.29 85.25 73.63 88.7029 72.1569
  C 92.16 70.68 93.88 66.96 92.5448 63.8321
  Z"
/>
<path fill="#f6f6f6" d="
  M 92.5448 63.8321
  C 93.88 66.96 92.16 70.68 88.7029 72.1569
  C 85.25 73.63 81.37 72.29 80.0352 69.1679
  C 78.70 66.04 80.42 62.32 83.8771 60.8431
  C 87.33 59.37 91.21 60.71 92.5448 63.8321
  Z
  M 88.24 66.26
  C 88.24 64.60 86.89 63.25 85.23 63.25
  C 83.57 63.25 82.22 64.60 82.22 66.26
  C 82.22 67.92 83.57 69.27 85.23 69.27
  C 86.89 69.27 88.24 67.92 88.24 66.26
  Z"
/>
<circle fill="#141314" cx="85.23" cy="66.26" r="3.01"/>
<circle fill="#141314" cx="14.59" cy="67.35" r="2.22"/>
<rect fill="#141314" x="-1.36" y="-1.46" transform="translate(11.40,77.79) rotate(0.1)" width="2.72" height="2.92" rx="0.87"/>
<ellipse fill="#141314" cx="0.00" cy="0.00" transform="translate(15.67,89.06) rotate(93.0)" rx="1.59" ry="1.19"/>
</svg>
