<?xml version="1.0" encoding="UTF-8" standalone="no"?>
<!DOCTYPE svg PUBLIC "-//W3C//DTD SVG 1.1//EN" "http://www.w3.org/Graphics/SVG/1.1/DTD/svg11.dtd">
<svg xmlns="http://www.w3.org/2000/svg" version="1.1" viewBox="0 0 122 128">
<g stroke-width="2.00" fill="none" stroke-linecap="butt">
<path stroke="#909090" vector-effect="non-scaling-stroke" d="
  M 24.40 92.45
  C 24.89 92.30 25.33 92.79 25.14 93.27
  C 24.18 95.58 23.28 97.83 22.45 100.02
  C 18.59 110.14 28.47 118.27 37.46 118.28
  C 42.05 118.29 47.67 115.68 52.96 115.20
  C 53.31 115.17 53.60 115.03 53.84 114.78
  L 54.25 114.37
  C 54.46 114.16 54.70 114.10 54.98 114.17
  L 56.38 114.52
  C 56.97 114.67 57.16 114.46 56.97 113.88
  L 56.20 111.52
  C 56.02 110.98 56.21 110.78 56.76 110.93
  L 59.43 111.64
  C 59.70 111.71 59.97 111.70 60.22 111.60
  C 61.73 111.01 63.20 111.12 64.63 111.93
  C 64.96 112.12 65.07 112.39 64.97 112.75
  L 64.50 114.37
  C 64.38 114.80 64.49 115.16 64.84 115.44
  C 65.50 115.97 66.26 115.95 67.11 115.40
  C 67.38 115.23 67.54 114.98 67.57 114.65
  L 67.83 112.37
  C 67.86 112.10 68.01 111.91 68.26 111.81
  C 69.51 111.30 71.23 115.15 71.74 115.99
  C 72.13 116.63 73.03 116.69 73.50 116.11
  C 74.59 114.76 75.19 113.23 75.28 111.52
  C 75.30 111.15 75.49 110.98 75.86 110.99
  C 80.50 111.19 88.66 106.83 91.64 103.31
  C 98.31 95.44 98.32 87.29 96.51 77.61
  C 96.44 77.25 96.52 76.93 96.74 76.64
  C 100.34 71.99 102.17 66.69 102.23 60.76
  C 102.23 60.42 102.40 60.25 102.75 60.25
  L 104.99 60.25
  C 105.53 60.25 105.70 60.00 105.51 59.50
  C 105.12 58.48 104.36 57.95 103.24 57.90
  C 102.94 57.89 102.79 57.54 102.98 57.31
  L 103.93 56.16
  C 104.37 55.63 104.26 55.28 103.60 55.09
  C 102.39 54.76 101.42 55.04 100.71 55.92
  C 100.44 56.25 100.10 56.39 99.69 56.34
  L 94.92 55.77
  C 94.53 55.73 94.26 55.53 94.10 55.18
  L 90.24 46.81
  C 90.09 46.50 90.06 46.17 90.13 45.84
  C 91.97 37.13 92.66 28.93 92.19 21.26
  C 91.96 17.52 89.68 6.29 83.30 8.98
  C 78.19 11.13 73.85 28.46 72.96 33.35
  C 72.77 34.36 71.80 35.03 70.78 34.85
  C 65.72 33.91 60.63 33.58 55.51 33.87
  C 54.93 33.90 54.59 33.64 54.50 33.07
  C 53.57 27.50 50.35 8.95 44.10 7.24
  C 34.79 4.69 34.20 34.38 35.92 40.55
  C 36.01 40.88 35.96 41.17 35.76 41.44
  C 31.06 47.87 28.70 55.33 25.99 62.14
  C 22.72 70.34 19.24 79.22 23.21 87.96
  C 23.36 88.29 23.33 88.60 23.10 88.89
  L 21.26 91.25
  C 20.91 91.69 20.98 92.05 21.47 92.33
  L 22.91 93.17
  C 23.29 93.39 23.57 93.30 23.76 92.90
  C 23.85 92.69 24.07 92.54 24.40 92.45"
/>
<path stroke="#909090" vector-effect="non-scaling-stroke" d="
  M 53.3141 51.4782
  C 52.88 47.42 48.92 44.52 44.4647 44.9918
  C 40.01 45.47 36.75 49.14 37.1859 53.2018
  C 37.62 57.26 41.58 60.16 46.0353 59.6882
  C 50.49 59.21 53.75 55.54 53.3141 51.4782"
/>
<path stroke="#909090" vector-effect="non-scaling-stroke" d="
  M 85.23 52.97
  C 85.23 48.93 81.95 45.65 77.91 45.65
  C 73.87 45.65 70.59 48.93 70.59 52.97
  C 70.59 57.01 73.87 60.29 77.91 60.29
  C 81.95 60.29 85.23 57.01 85.23 52.97"
/>
<path stroke="#909090" vector-effect="non-scaling-stroke" d="
  M 64.5150 52.6678
  C 64.57 51.76 63.35 50.96 61.7873 50.8629
  C 60.23 50.77 58.92 51.43 58.8650 52.3322
  C 58.81 53.24 60.03 54.04 61.5927 54.1371
  C 63.15 54.23 64.46 53.57 64.5150 52.6678"
/>
<path stroke="#909090" vector-effect="non-scaling-stroke" d="
  M 93.82 84.20
  C 85.34 70.71 73.67 70.69 58.00 69.74
  C 55.21 69.57 52.78 70.48 50.32 70.61
  C 45.11 70.90 40.54 72.66 36.61 75.90
  C 32.92 78.93 31.89 82.74 31.89 87.33
  C 31.89 87.73 31.75 88.08 31.47 88.37
  L 30.32 89.58
  C 30.08 89.83 30.00 90.12 30.09 90.45
  C 33.57 103.65 43.78 105.74 55.44 108.05
  C 71.61 111.26 94.62 107.80 94.32 87.03
  C 94.30 85.65 94.13 84.71 93.82 84.20"
/>
<path stroke="#909090" vector-effect="non-scaling-stroke" d="
  M 53.7219 112.9355
  C 54.03 112.77 54.04 112.21 53.7515 111.6855
  C 53.46 111.16 52.98 110.88 52.6781 111.0445
  C 52.37 111.21 52.36 111.77 52.6485 112.2945
  C 52.94 112.82 53.42 113.10 53.7219 112.9355"
/>
<path stroke="#909090" vector-effect="non-scaling-stroke" d="
  M 46.78 51.74
  C 46.78 50.22 45.54 48.98 44.02 48.98
  C 42.50 48.98 41.26 50.22 41.26 51.74
  C 41.26 53.26 42.50 54.50 44.02 54.50
  C 45.54 54.50 46.78 53.26 46.78 51.74"
/>
<path stroke="#909090" vector-effect="non-scaling-stroke" d="
  M 80.91 52.67
  C 80.91 51.25 79.75 50.09 78.33 50.09
  C 76.91 50.09 75.75 51.25 75.75 52.67
  C 75.75 54.09 76.91 55.25 78.33 55.25
  C 79.75 55.25 80.91 54.09 80.91 52.67"
/>
<path stroke="#909090" vector-effect="non-scaling-stroke" d="
  M 68.15 90.29
  C 71.96 86.36 65.09 78.66 60.93 82.11
  C 58.78 83.89 55.71 88.13 59.18 90.11
  C 59.51 90.30 59.79 90.24 60.00 89.92
  C 60.71 88.87 61.69 88.29 62.93 88.20
  C 63.30 88.17 63.64 88.25 63.95 88.44
  L 67.33 90.41
  C 67.63 90.58 67.90 90.54 68.15 90.29"
/>
<path stroke="#909090" vector-effect="non-scaling-stroke" d="
  M 85.32 89.27
  C 87.39 80.33 75.77 79.15 75.96 88.92
  C 75.98 89.90 77.05 90.51 77.90 90.02
  L 81.30 88.06
  C 81.59 87.89 81.87 87.90 82.14 88.08
  L 84.51 89.59
  C 84.94 89.86 85.21 89.76 85.32 89.27"
/>
<path stroke="#909090" vector-effect="non-scaling-stroke" d="
  M 45.10 87.65
  L 49.12 90.46
  C 49.37 90.63 49.55 90.57 49.64 90.28
  C 52.47 81.71 41.21 78.41 39.27 87.76
  C 39.04 88.84 39.62 89.45 40.99 89.58
  C 41.34 89.61 41.65 89.52 41.92 89.31
  L 43.98 87.69
  C 44.35 87.40 44.72 87.39 45.10 87.65"
/>
</g>
<path fill="#f6f6f6" d="
  M 0.00 0.00
  L 122.00 0.00
  L 122.00 128.00
  L 0.00 128.00
  L 0.00 0.00
  Z
  M 24.40 92.45
  C 24.89 92.30 25.33 92.79 25.14 93.27
  C 24.18 95.58 23.28 97.83 22.45 100.02
  C 18.59 110.14 28.47 118.27 37.46 118.28
  C 42.05 118.29 47.67 115.68 52.96 115.20
  C 53.31 115.17 53.60 115.03 53.84 114.78
  L 54.25 114.37
  C 54.46 114.16 54.70 114.10 54.98 114.17
  L 56.38 114.52
  C 56.97 114.67 57.16 114.46 56.97 113.88
  L 56.20 111.52
  C 56.02 110.98 56.21 110.78 56.76 110.93
  L 59.43 111.64
  C 59.70 111.71 59.97 111.70 60.22 111.60
  C 61.73 111.01 63.20 111.12 64.63 111.93
  C 64.96 112.12 65.07 112.39 64.97 112.75
  L 64.50 114.37
  C 64.38 114.80 64.49 115.16 64.84 115.44
  C 65.50 115.97 66.26 115.95 67.11 115.40
  C 67.38 115.23 67.54 114.98 67.57 114.65
  L 67.83 112.37
  C 67.86 112.10 68.01 111.91 68.26 111.81
  C 69.51 111.30 71.23 115.15 71.74 115.99
  C 72.13 116.63 73.03 116.69 73.50 116.11
  C 74.59 114.76 75.19 113.23 75.28 111.52
  C 75.30 111.15 75.49 110.98 75.86 110.99
  C 80.50 111.19 88.66 106.83 91.64 103.31
  C 98.31 95.44 98.32 87.29 96.51 77.61
  C 96.44 77.25 96.52 76.93 96.74 76.64
  C 100.34 71.99 102.17 66.69 102.23 60.76
  C 102.23 60.42 102.40 60.25 102.75 60.25
  L 104.99 60.25
  C 105.53 60.25 105.70 60.00 105.51 59.50
  C 105.12 58.48 104.36 57.95 103.24 57.90
  C 102.94 57.89 102.79 57.54 102.98 57.31
  L 103.93 56.16
  C 104.37 55.63 104.26 55.28 103.60 55.09
  C 102.39 54.76 101.42 55.04 100.71 55.92
  C 100.44 56.25 100.10 56.39 99.69 56.34
  L 94.92 55.77
  C 94.53 55.73 94.26 55.53 94.10 55.18
  L 90.24 46.81
  C 90.09 46.50 90.06 46.17 90.13 45.84
  C 91.97 37.13 92.66 28.93 92.19 21.26
  C 91.96 17.52 89.68 6.29 83.30 8.98
  C 78.19 11.13 73.85 28.46 72.96 33.35
  C 72.77 34.36 71.80 35.03 70.78 34.85
  C 65.72 33.91 60.63 33.58 55.51 33.87
  C 54.93 33.90 54.59 33.64 54.50 33.07
  C 53.57 27.50 50.35 8.95 44.10 7.24
  C 34.79 4.69 34.20 34.38 35.92 40.55
  C 36.01 40.88 35.96 41.17 35.76 41.44
  C 31.06 47.87 28.70 55.33 25.99 62.14
  C 22.72 70.34 19.24 79.22 23.21 87.96
  C 23.36 88.29 23.33 88.60 23.10 88.89
  L 21.26 91.25
  C 20.91 91.69 20.98 92.05 21.47 92.33
  L 22.91 93.17
  C 23.29 93.39 23.57 93.30 23.76 92.90
  C 23.85 92.69 24.07 92.54 24.40 92.45
  Z"
/>
<path fill="#292929" d="
  M 24.40 92.45
  C 24.07 92.54 23.85 92.69 23.76 92.90
  C 23.57 93.30 23.29 93.39 22.91 93.17
  L 21.47 92.33
  C 20.98 92.05 20.91 91.69 21.26 91.25
  L 23.10 88.89
  C 23.33 88.60 23.36 88.29 23.21 87.96
  C 19.24 79.22 22.72 70.34 25.99 62.14
  C 28.70 55.33 31.06 47.87 35.76 41.44
  C 35.96 41.17 36.01 40.88 35.92 40.55
  C 34.20 34.38 34.79 4.69 44.10 7.24
  C 50.35 8.95 53.57 27.50 54.50 33.07
  C 54.59 33.64 54.93 33.90 55.51 33.87
  C 60.63 33.58 65.72 33.91 70.78 34.85
  C 71.80 35.03 72.77 34.36 72.96 33.35
  C 73.85 28.46 78.19 11.13 83.30 8.98
  C 89.68 6.29 91.96 17.52 92.19 21.26
  C 92.66 28.93 91.97 37.13 90.13 45.84
  C 90.06 46.17 90.09 46.50 90.24 46.81
  L 94.10 55.18
  C 94.26 55.53 94.53 55.73 94.92 55.77
  L 99.69 56.34
  C 100.10 56.39 100.44 56.25 100.71 55.92
  C 101.42 55.04 102.39 54.76 103.60 55.09
  C 104.26 55.28 104.37 55.63 103.93 56.16
  L 102.98 57.31
  C 102.79 57.54 102.94 57.89 103.24 57.90
  C 104.36 57.95 105.12 58.48 105.51 59.50
  C 105.70 60.00 105.53 60.25 104.99 60.25
  L 102.75 60.25
  C 102.40 60.25 102.23 60.42 102.23 60.76
  C 102.17 66.69 100.34 71.99 96.74 76.64
  C 96.52 76.93 96.44 77.25 96.51 77.61
  C 98.32 87.29 98.31 95.44 91.64 103.31
  C 88.66 106.83 80.50 111.19 75.86 110.99
  C 75.49 110.98 75.30 111.15 75.28 111.52
  C 75.19 113.23 74.59 114.76 73.50 116.11
  C 73.03 116.69 72.13 116.63 71.74 115.99
  C 71.23 115.15 69.51 111.30 68.26 111.81
  C 68.01 111.91 67.86 112.10 67.83 112.37
  L 67.57 114.65
  C 67.54 114.98 67.38 115.23 67.11 115.40
  C 66.26 115.95 65.50 115.97 64.84 115.44
  C 64.49 115.16 64.38 114.80 64.50 114.37
  L 64.97 112.75
  C 65.07 112.39 64.96 112.12 64.63 111.93
  C 63.20 111.12 61.73 111.01 60.22 111.60
  C 59.97 111.70 59.70 111.71 59.43 111.64
  L 56.76 110.93
  C 56.21 110.78 56.02 110.98 56.20 111.52
  L 56.97 113.88
  C 57.16 114.46 56.97 114.67 56.38 114.52
  L 54.98 114.17
  C 54.70 114.10 54.46 114.16 54.25 114.37
  L 53.84 114.78
  C 53.60 115.03 53.31 115.17 52.96 115.20
  C 47.67 115.68 42.05 118.29 37.46 118.28
  C 28.47 118.27 18.59 110.14 22.45 100.02
  C 23.28 97.83 24.18 95.58 25.14 93.27
  C 25.33 92.79 24.89 92.30 24.40 92.45
  Z
  M 53.3141 51.4782
  C 52.88 47.42 48.92 44.52 44.4647 44.9918
  C 40.01 45.47 36.75 49.14 37.1859 53.2018
  C 37.62 57.26 41.58 60.16 46.0353 59.6882
  C 50.49 59.21 53.75 55.54 53.3141 51.4782
  Z
  M 85.23 52.97
  C 85.23 48.93 81.95 45.65 77.91 45.65
  C 73.87 45.65 70.59 48.93 70.59 52.97
  C 70.59 57.01 73.87 60.29 77.91 60.29
  C 81.95 60.29 85.23 57.01 85.23 52.97
  Z
  M 64.5150 52.6678
  C 64.57 51.76 63.35 50.96 61.7873 50.8629
  C 60.23 50.77 58.92 51.43 58.8650 52.3322
  C 58.81 53.24 60.03 54.04 61.5927 54.1371
  C 63.15 54.23 64.46 53.57 64.5150 52.6678
  Z
  M 93.82 84.20
  C 85.34 70.71 73.67 70.69 58.00 69.74
  C 55.21 69.57 52.78 70.48 50.32 70.61
  C 45.11 70.90 40.54 72.66 36.61 75.90
  C 32.92 78.93 31.89 82.74 31.89 87.33
  C 31.89 87.73 31.75 88.08 31.47 88.37
  L 30.32 89.58
  C 30.08 89.83 30.00 90.12 30.09 90.45
  C 33.57 103.65 43.78 105.74 55.44 108.05
  C 71.61 111.26 94.62 107.80 94.32 87.03
  C 94.30 85.65 94.13 84.71 93.82 84.20
  Z
  M 53.7219 112.9355
  C 54.03 112.77 54.04 112.21 53.7515 111.6855
  C 53.46 111.16 52.98 110.88 52.6781 111.0445
  C 52.37 111.21 52.36 111.77 52.6485 112.2945
  C 52.94 112.82 53.42 113.10 53.7219 112.9355
  Z"
/>
<path fill="#f6f6f6" d="
  M 53.3141 51.4782
  C 53.75 55.54 50.49 59.21 46.0353 59.6882
  C 41.58 60.16 37.62 57.26 37.1859 53.2018
  C 36.75 49.14 40.01 45.47 44.4647 44.9918
  C 48.92 44.52 52.88 47.42 53.3141 51.4782
  Z
  M 46.78 51.74
  C 46.78 50.22 45.54 48.98 44.02 48.98
  C 42.50 48.98 41.26 50.22 41.26 51.74
  C 41.26 53.26 42.50 54.50 44.02 54.50
  C 45.54 54.50 46.78 53.26 46.78 51.74
  Z"
/>
<path fill="#f6f6f6" d="
  M 85.23 52.97
  C 85.23 57.01 81.95 60.29 77.91 60.29
  C 73.87 60.29 70.59 57.01 70.59 52.97
  C 70.59 48.93 73.87 45.65 77.91 45.65
  C 81.95 45.65 85.23 48.93 85.23 52.97
  Z
  M 80.91 52.67
  C 80.91 51.25 79.75 50.09 78.33 50.09
  C 76.91 50.09 75.75 51.25 75.75 52.67
  C 75.75 54.09 76.91 55.25 78.33 55.25
  C 79.75 55.25 80.91 54.09 80.91 52.67
  Z"
/>
<circle fill="#292929" cx="44.02" cy="51.74" r="2.76"/>
<circle fill="#292929" cx="78.33" cy="52.67" r="2.58"/>
<ellipse fill="#f6f6f6" cx="0.00" cy="0.00" transform="translate(61.69,52.50) rotate(3.4)" rx="2.83" ry="1.64"/>
<path fill="#f6f6f6" d="
  M 58.00 69.74
  C 73.67 70.69 85.34 70.71 93.82 84.20
  C 94.13 84.71 94.30 85.65 94.32 87.03
  C 94.62 107.80 71.61 111.26 55.44 108.05
  C 43.78 105.74 33.57 103.65 30.09 90.45
  C 30.00 90.12 30.08 89.83 30.32 89.58
  L 31.47 88.37
  C 31.75 88.08 31.89 87.73 31.89 87.33
  C 31.89 82.74 32.92 78.93 36.61 75.90
  C 40.54 72.66 45.11 70.90 50.32 70.61
  C 52.78 70.48 55.21 69.57 58.00 69.74
  Z
  M 68.15 90.29
  C 71.96 86.36 65.09 78.66 60.93 82.11
  C 58.78 83.89 55.71 88.13 59.18 90.11
  C 59.51 90.30 59.79 90.24 60.00 89.92
  C 60.71 88.87 61.69 88.29 62.93 88.20
  C 63.30 88.17 63.64 88.25 63.95 88.44
  L 67.33 90.41
  C 67.63 90.58 67.90 90.54 68.15 90.29
  Z
  M 85.32 89.27
  C 87.39 80.33 75.77 79.15 75.96 88.92
  C 75.98 89.90 77.05 90.51 77.90 90.02
  L 81.30 88.06
  C 81.59 87.89 81.87 87.90 82.14 88.08
  L 84.51 89.59
  C 84.94 89.86 85.21 89.76 85.32 89.27
  Z
  M 45.10 87.65
  L 49.12 90.46
  C 49.37 90.63 49.55 90.57 49.64 90.28
  C 52.47 81.71 41.21 78.41 39.27 87.76
  C 39.04 88.84 39.62 89.45 40.99 89.58
  C 41.34 89.61 41.65 89.52 41.92 89.31
  L 43.98 87.69
  C 44.35 87.40 44.72 87.39 45.10 87.65
  Z"
/>
<path fill="#292929" d="
  M 60.93 82.11
  C 65.09 78.66 71.96 86.36 68.15 90.29
  C 67.90 90.54 67.63 90.58 67.33 90.41
  L 63.95 88.44
  C 63.64 88.25 63.30 88.17 62.93 88.20
  C 61.69 88.29 60.71 88.87 60.00 89.92
  C 59.79 90.24 59.51 90.30 59.18 90.11
  C 55.71 88.13 58.78 83.89 60.93 82.11
  Z"
/>
<path fill="#292929" d="
  M 75.96 88.92
  C 75.77 79.15 87.39 80.33 85.32 89.27
  C 85.21 89.76 84.94 89.86 84.51 89.59
  L 82.14 88.08
  C 81.87 87.90 81.59 87.89 81.30 88.06
  L 77.90 90.02
  C 77.05 90.51 75.98 89.90 75.96 88.92
  Z"
/>
<path fill="#292929" d="
  M 43.98 87.69
  L 41.92 89.31
  C 41.65 89.52 41.34 89.61 40.99 89.58
  C 39.62 89.45 39.04 88.84 39.27 87.76
  C 41.21 78.41 52.47 81.71 49.64 90.28
  C 49.55 90.57 49.37 90.63 49.12 90.46
  L 45.10 87.65
  C 44.72 87.39 44.35 87.40 43.98 87.69
  Z"
/>
<ellipse fill="#f6f6f6" cx="0.00" cy="0.00" transform="translate(53.20,111.99) rotate(61.1)" rx="1.08" ry="0.63"/>
</svg>
