<?xml version="1.0" encoding="UTF-8" standalone="no"?>
<!DOCTYPE svg PUBLIC "-//W3C//DTD SVG 1.1//EN" "http://www.w3.org/Graphics/SVG/1.1/DTD/svg11.dtd">
<svg xmlns="http://www.w3.org/2000/svg" version="1.1" viewBox="0 0 123 118">
<g stroke-width="2.00" fill="none" stroke-linecap="butt">
<path stroke="#848384" vector-effect="non-scaling-stroke" d="
  M 18.84 72.71
  L 16.51 76.68
  C 16.33 76.99 16.06 77.15 15.71 77.17
  C 12.46 77.35 9.36 78.15 6.43 79.56
  C 6.21 79.67 6.10 79.93 6.17 80.16
  C 6.25 80.40 6.49 80.54 6.73 80.50
  L 15.71 78.92
  C 16.05 78.87 16.19 79.01 16.14 79.34
  C 15.59 82.79 15.58 86.25 16.12 89.72
  C 16.17 90.07 16.34 90.34 16.63 90.55
  C 18.38 91.78 18.70 95.10 20.56 95.01
  C 20.91 94.99 21.18 95.12 21.38 95.41
  C 23.72 98.81 25.94 98.85 29.66 99.74
  C 30.99 100.05 32.38 99.41 33.78 100.79
  C 34.01 101.02 34.29 101.18 34.61 101.27
  C 42.30 103.45 50.27 104.41 58.06 105.75
  C 67.98 107.47 78.06 108.31 85.30 100.07
  C 88.65 96.26 93.24 94.30 96.93 90.63
  C 100.48 87.10 105.12 83.70 107.96 78.61
  C 108.12 78.32 108.34 78.09 108.62 77.92
  C 110.50 76.74 109.67 74.73 111.72 73.48
  C 112.03 73.29 112.26 73.04 112.42 72.73
  C 113.43 70.72 113.77 68.58 113.45 66.31
  C 113.40 65.98 113.45 65.67 113.58 65.36
  C 114.69 62.81 112.75 59.46 112.73 56.48
  C 112.72 56.12 112.60 55.81 112.36 55.54
  C 110.53 53.52 109.22 51.19 108.44 48.56
  C 108.33 48.21 108.44 47.93 108.75 47.73
  L 117.42 42.32
  C 117.96 41.99 117.71 41.16 117.08 41.17
  C 114.61 41.23 109.22 44.90 107.22 46.47
  C 106.90 46.72 106.57 46.74 106.22 46.51
  L 104.25 45.22
  C 103.86 44.97 103.82 44.66 104.13 44.31
  L 109.78 37.99
  C 110.11 37.62 110.03 37.39 109.54 37.30
  C 107.60 36.96 103.35 42.05 102.14 43.50
  C 101.92 43.77 101.71 43.76 101.50 43.47
  L 99.67 40.91
  C 99.49 40.65 99.44 40.37 99.51 40.07
  C 102.27 28.63 99.45 17.00 97.30 5.72
  C 97.00 4.18 95.92 3.33 94.53 2.90
  C 94.16 2.79 93.89 2.90 93.71 3.24
  C 92.60 5.33 91.55 7.29 89.75 8.94
  C 83.84 14.34 78.45 20.22 73.60 26.59
  C 73.39 26.86 73.13 27.04 72.81 27.14
  C 68.11 28.62 59.71 27.96 54.52 28.12
  C 54.21 28.13 53.91 28.22 53.64 28.39
  C 52.30 29.24 50.85 29.55 49.30 29.30
  C 48.95 29.24 48.65 29.34 48.40 29.60
  C 47.25 30.78 45.87 31.48 44.25 31.70
  C 43.93 31.75 43.64 31.87 43.39 32.08
  L 35.89 38.43
  C 35.64 38.64 35.37 38.67 35.08 38.50
  C 29.81 35.47 23.69 33.69 18.88 30.87
  C 16.46 29.46 14.07 28.00 11.70 26.49
  C 11.42 26.31 11.12 26.26 10.80 26.33
  C 9.00 26.73 10.25 28.84 9.68 30.16
  C 9.55 30.45 9.54 30.74 9.63 31.04
  C 12.78 41.18 12.45 52.55 20.25 60.55
  C 20.48 60.78 20.61 61.06 20.65 61.39
  C 21.07 64.47 20.69 67.43 19.51 70.27
  C 19.38 70.60 19.13 70.73 18.78 70.66
  C 17.00 70.28 8.83 69.34 7.60 70.24
  C 7.15 70.57 7.35 71.27 7.90 71.32
  L 18.61 72.25
  C 18.93 72.28 19.01 72.44 18.84 72.71"
/>
<path stroke="#848384" vector-effect="non-scaling-stroke" d="
  M 92.33 24.63
  C 92.22 25.81 91.80 26.87 91.07 27.81
  C 90.78 28.20 90.87 28.43 91.35 28.50
  C 92.84 28.73 93.51 29.72 93.35 31.47
  C 93.33 31.71 93.21 31.89 93.00 32.00
  L 91.20 32.91
  C 90.64 33.19 90.64 33.48 91.19 33.77
  C 93.54 35.01 95.54 36.67 97.19 38.74
  C 97.52 39.15 97.75 39.10 97.86 38.58
  C 99.71 30.30 98.45 22.20 96.74 14.03
  C 96.37 12.26 95.06 10.44 95.47 8.09
  C 95.51 7.86 95.41 7.74 95.18 7.74
  C 95.00 7.73 94.88 7.83 94.82 8.02
  C 93.40 12.61 88.20 20.98 89.12 25.27
  C 89.18 25.57 89.34 25.64 89.60 25.47
  L 91.59 24.18
  C 92.14 23.82 92.39 23.97 92.33 24.63"
/>
<path stroke="#848384" vector-effect="non-scaling-stroke" d="
  M 76.37 27.88
  L 83.41 30.39
  C 83.74 30.51 83.95 30.40 84.05 30.07
  C 86.33 22.81 90.07 16.36 93.07 9.35
  C 93.22 9.01 92.79 8.71 92.52 8.96
  C 86.55 14.41 81.04 20.28 76.00 26.59
  C 75.65 27.03 75.84 27.69 76.37 27.88"
/>
<path stroke="#848384" vector-effect="non-scaling-stroke" d="
  M 87.62 28.74
  L 86.65 28.39
  C 86.31 28.27 86.09 28.38 85.99 28.72
  L 85.44 30.51
  C 85.33 30.88 85.45 31.14 85.80 31.30
  L 88.85 32.65
  C 89.50 32.94 90.13 32.22 89.75 31.62
  C 89.02 30.45 88.84 29.20 89.22 27.86
  C 89.30 27.59 89.20 27.47 88.92 27.50
  C 88.55 27.53 88.35 27.79 88.33 28.26
  C 88.31 28.74 88.07 28.90 87.62 28.74"
/>
<path stroke="#848384" vector-effect="non-scaling-stroke" d="
  M 68.65 38.08
  C 69.20 41.26 69.19 44.39 68.62 47.46
  C 68.56 47.79 68.66 48.07 68.92 48.30
  C 68.99 48.36 69.06 48.43 69.13 48.50
  C 69.54 48.91 69.79 48.82 69.89 48.25
  C 70.13 46.88 71.12 36.31 71.52 36.31
  C 71.97 36.30 72.18 36.53 72.15 36.98
  L 71.55 46.81
  C 71.52 47.34 71.61 47.36 71.82 46.87
  C 73.09 44.00 73.58 41.03 73.29 37.95
  C 73.05 35.39 73.76 32.43 72.47 29.70
  C 72.30 29.35 72.03 29.21 71.65 29.26
  C 67.16 29.90 62.77 29.31 58.58 30.03
  C 56.19 30.44 53.80 30.88 51.40 31.33
  C 51.05 31.40 50.74 31.56 50.49 31.81
  C 49.44 32.85 48.17 33.23 46.68 32.96
  C 46.34 32.90 46.06 33.00 45.84 33.26
  L 44.52 34.84
  C 44.29 35.11 43.99 35.27 43.64 35.30
  C 41.92 35.44 40.74 36.36 40.10 38.07
  C 39.94 38.48 39.65 38.73 39.23 38.82
  L 37.65 39.14
  C 37.24 39.23 37.12 39.46 37.30 39.84
  C 37.49 40.24 37.57 40.66 37.52 41.10
  C 37.48 41.43 37.55 41.75 37.72 42.04
  C 41.21 47.79 43.33 51.06 48.77 55.20
  C 48.92 55.31 49.07 55.30 49.21 55.17
  L 49.41 54.96
  C 49.60 54.77 49.59 54.60 49.39 54.43
  L 46.56 52.03
  C 46.19 51.71 46.20 51.41 46.61 51.14
  C 48.30 50.01 49.53 56.57 53.90 52.77
  C 54.13 52.57 54.16 52.35 53.99 52.10
  C 53.14 50.84 48.72 42.47 49.90 40.96
  C 50.15 40.64 50.35 40.67 50.50 41.06
  L 54.10 50.51
  C 54.15 50.64 54.24 50.75 54.36 50.83
  C 57.29 52.68 54.45 46.69 54.21 45.88
  C 54.10 45.49 54.46 45.12 54.85 45.23
  C 55.81 45.48 56.74 49.74 57.30 50.86
  C 57.47 51.21 57.73 51.29 58.08 51.10
  C 59.67 50.19 57.81 47.14 58.05 45.43
  C 58.17 44.56 58.39 44.53 58.72 45.34
  L 60.10 48.75
  C 60.21 49.00 60.38 49.07 60.62 48.95
  C 61.50 48.52 60.57 43.76 60.43 42.76
  C 60.36 42.25 60.53 42.16 60.92 42.49
  C 62.31 43.64 62.17 47.20 61.96 48.96
  C 61.90 49.50 62.47 49.88 62.94 49.62
  C 65.99 47.94 62.61 40.61 64.05 40.12
  C 64.39 40.01 64.60 40.12 64.69 40.46
  C 65.10 42.01 65.20 49.12 66.69 48.99
  C 67.08 48.96 67.38 48.65 67.40 48.27
  L 68.02 38.12
  C 68.13 36.28 68.34 36.27 68.65 38.08"
/>
<path stroke="#848384" vector-effect="non-scaling-stroke" d="
  M 109.95 70.08
  L 110.76 70.57
  C 111.23 70.86 111.84 70.52 111.85 69.97
  C 112.06 62.57 108.63 59.41 104.19 54.40
  C 103.95 54.13 103.86 53.81 103.92 53.45
  C 104.19 51.85 105.15 50.89 106.79 50.58
  C 107.26 50.49 107.30 50.30 106.92 50.02
  L 106.67 49.85
  C 106.43 49.67 106.19 49.68 105.96 49.87
  L 102.57 52.73
  C 102.23 53.03 101.69 52.87 101.56 52.43
  C 101.49 52.21 101.47 51.98 101.51 51.73
  C 101.56 51.38 101.71 51.09 101.97 50.85
  L 104.67 48.40
  C 105.00 48.10 104.96 47.85 104.57 47.66
  L 102.98 46.87
  C 102.66 46.71 102.39 46.78 102.17 47.07
  L 99.62 50.46
  C 99.40 50.76 99.12 50.82 98.79 50.65
  L 98.22 50.35
  C 97.74 50.10 97.66 49.76 97.97 49.31
  L 99.99 46.44
  C 100.17 46.18 100.14 45.95 99.90 45.74
  C 98.18 44.28 93.43 42.84 95.78 39.75
  C 96.00 39.46 95.98 39.18 95.73 38.92
  C 93.00 36.16 89.81 34.23 86.18 33.14
  C 82.45 32.02 79.22 29.98 74.98 29.88
  C 74.61 29.87 74.45 30.05 74.50 30.41
  C 75.27 36.38 74.78 42.08 73.03 47.50
  C 71.62 51.84 68.18 48.68 67.02 51.39
  C 66.79 51.93 66.53 51.94 66.25 51.42
  L 65.54 50.12
  C 65.36 49.78 65.09 49.67 64.73 49.79
  C 63.93 50.05 63.37 50.59 63.04 51.42
  C 62.88 51.83 62.62 51.90 62.27 51.63
  L 60.67 50.43
  C 60.43 50.25 60.26 50.30 60.17 50.58
  C 59.58 52.27 58.45 52.89 56.79 52.45
  C 56.46 52.36 56.18 52.42 55.93 52.65
  C 54.00 54.40 51.78 55.62 49.26 56.32
  C 48.91 56.42 48.58 56.37 48.28 56.17
  C 43.75 53.16 36.86 46.96 36.06 40.91
  C 36.00 40.43 35.82 40.38 35.53 40.77
  L 34.39 42.30
  C 34.17 42.59 33.89 42.79 33.55 42.92
  C 26.99 45.29 25.71 50.13 23.30 57.01
  C 23.15 57.44 23.30 57.68 23.76 57.72
  L 25.16 57.83
  C 25.52 57.86 25.79 58.03 25.96 58.34
  C 26.80 59.85 26.81 61.14 25.98 62.22
  C 23.70 65.17 22.22 67.81 21.53 70.16
  C 21.38 70.65 21.56 70.95 22.05 71.08
  L 24.30 71.68
  C 24.63 71.77 24.79 71.99 24.77 72.33
  C 24.75 72.74 24.47 73.01 23.94 73.16
  C 23.65 73.24 23.37 73.23 23.08 73.14
  C 21.65 72.67 20.59 73.12 19.88 74.48
  C 19.71 74.81 19.82 74.98 20.19 74.99
  C 21.04 75.00 21.69 75.36 22.15 76.06
  C 22.33 76.33 22.58 76.50 22.90 76.57
  C 23.59 76.72 24.11 77.08 24.46 77.67
  C 24.65 77.98 24.56 78.16 24.20 78.22
  L 21.02 78.71
  C 20.61 78.78 20.33 79.01 20.19 79.41
  L 18.27 85.08
  C 18.15 85.43 18.18 85.77 18.37 86.10
  C 18.93 87.07 19.09 88.17 18.86 89.42
  C 18.81 89.67 18.86 89.86 19.01 89.98
  C 19.22 90.14 19.39 90.11 19.53 89.88
  L 20.01 89.08
  C 20.31 88.59 21.05 88.74 21.13 89.31
  C 21.48 91.91 22.53 94.20 24.26 96.18
  C 24.53 96.49 25.01 96.51 25.31 96.23
  L 26.35 95.27
  C 26.67 94.96 26.96 94.99 27.22 95.35
  L 28.63 97.28
  C 28.90 97.65 29.20 97.68 29.52 97.35
  L 30.20 96.68
  C 30.47 96.41 30.76 96.39 31.05 96.64
  C 32.18 97.60 38.80 102.30 40.15 100.15
  C 40.32 99.88 40.55 99.81 40.84 99.94
  C 43.36 101.05 45.32 102.22 48.21 102.41
  C 50.95 102.58 53.65 103.01 56.32 103.68
  C 59.27 104.43 62.24 104.09 65.31 105.06
  C 65.65 105.17 65.96 105.10 66.23 104.87
  C 66.86 104.34 67.53 104.33 68.24 104.86
  C 68.50 105.06 68.79 105.14 69.12 105.09
  C 73.13 104.49 76.97 104.62 80.53 101.94
  C 80.82 101.73 80.99 101.45 81.06 101.10
  C 81.21 100.35 81.63 99.89 82.32 99.74
  C 82.66 99.66 82.95 99.50 83.20 99.25
  C 85.81 96.68 88.67 94.47 91.78 92.60
  C 94.42 91.02 96.41 88.35 99.26 86.27
  C 102.16 84.14 104.72 80.95 106.93 76.68
  C 107.97 74.67 109.83 73.43 109.50 70.36
  C 109.45 69.96 109.60 69.87 109.95 70.08"
/>
<path stroke="#848384" vector-effect="non-scaling-stroke" d="
  M 33.25 39.60
  C 26.82 36.23 20.03 33.86 13.84 30.18
  C 13.59 30.03 13.26 30.09 13.08 30.33
  C 12.90 30.56 12.93 30.90 13.14 31.10
  L 26.91 44.29
  C 27.12 44.50 27.36 44.53 27.63 44.40
  L 33.24 41.50
  C 34.01 41.10 34.02 40.00 33.25 39.60"
/>
<path stroke="#848384" vector-effect="non-scaling-stroke" d="
  M 17.68 39.85
  L 18.11 38.73
  C 18.24 38.40 18.19 38.10 17.95 37.84
  L 13.74 33.29
  C 13.36 32.88 12.69 33.21 12.78 33.76
  C 14.19 42.42 14.93 51.50 21.07 58.65
  C 21.34 58.97 21.54 58.93 21.65 58.53
  L 22.86 54.34
  C 22.97 53.97 22.88 53.65 22.61 53.38
  L 20.35 51.16
  C 20.16 50.98 20.13 50.77 20.24 50.53
  L 20.73 49.54
  C 20.86 49.27 20.78 49.11 20.48 49.06
  L 19.98 48.98
  C 19.42 48.88 19.33 48.62 19.71 48.20
  L 20.48 47.34
  C 20.80 46.99 20.76 46.68 20.36 46.42
  C 19.38 45.79 19.27 45.07 20.02 44.28
  C 20.49 43.77 20.38 43.53 19.69 43.56
  C 18.80 43.59 17.96 43.42 17.15 43.07
  C 15.92 42.54 15.97 42.20 17.30 42.06
  L 18.71 41.91
  C 19.78 41.80 19.83 41.52 18.86 41.05
  L 18.00 40.64
  C 17.65 40.47 17.54 40.21 17.68 39.85"
/>
<path stroke="#848384" vector-effect="non-scaling-stroke" d="
  M 98.4449 42.6368
  C 98.64 42.38 98.36 41.83 97.8134 41.4276
  C 97.27 41.02 96.67 40.90 96.4751 41.1632
  C 96.28 41.42 96.56 41.97 97.1066 42.3724
  C 97.65 42.78 98.25 42.90 98.4449 42.6368"
/>
<path stroke="#848384" vector-effect="non-scaling-stroke" d="
  M 22.61 45.31
  L 22.69 50.92
  C 22.70 51.48 22.93 51.59 23.38 51.25
  C 24.21 50.64 24.58 49.79 24.49 48.70
  C 24.46 48.35 24.57 48.05 24.82 47.80
  L 25.80 46.83
  C 26.07 46.56 26.11 46.25 25.91 45.92
  C 24.88 44.19 23.62 42.67 22.11 41.34
  C 21.39 40.71 21.16 40.85 21.43 41.77
  C 21.69 42.68 22.01 43.53 22.39 44.33
  C 22.53 44.64 22.60 44.97 22.61 45.31"
/>
<path stroke="#848384" vector-effect="non-scaling-stroke" d="
  M 106.99 52.13
  C 106.11 51.46 104.94 52.46 105.46 53.43
  C 106.39 55.20 107.83 56.33 109.77 56.81
  C 110.35 56.95 110.51 56.75 110.26 56.21
  C 109.49 54.56 108.40 53.20 106.99 52.13"
/>
<path stroke="#848384" vector-effect="non-scaling-stroke" d="
  M 22.56 63.30
  C 22.54 63.53 22.80 63.68 22.99 63.55
  C 24.39 62.58 25.09 61.27 25.10 59.60
  C 25.10 59.19 24.90 58.93 24.49 58.84
  C 22.42 58.37 22.69 62.04 22.56 63.30"
/>
<path stroke="#848384" vector-effect="non-scaling-stroke" d="
  M 47.5586 45.5415
  C 47.48 45.41 47.31 45.37 47.1875 45.4517
  L 46.5217 45.8581
  C 46.39 45.94 46.35 46.10 46.4319 46.2292
  L 50.8814 53.5185
  C 50.96 53.65 51.13 53.69 51.2525 53.6083
  L 51.9183 53.2019
  C 52.05 53.12 52.09 52.96 52.0081 52.8308
  L 47.5586 45.5415"
/>
<path stroke="#848384" vector-effect="non-scaling-stroke" d="
  M 76.61 50.39
  L 75.97 52.19
  C 75.84 52.58 75.97 52.78 76.38 52.80
  C 77.65 52.86 78.62 53.43 79.29 54.50
  C 79.46 54.78 79.70 54.97 80.01 55.08
  C 84.44 56.63 88.50 56.09 92.21 53.45
  C 94.33 51.94 94.76 49.53 95.91 47.26
  C 96.04 46.99 96.03 46.73 95.88 46.47
  C 92.70 41.29 90.70 35.07 82.98 38.00
  C 77.87 39.94 75.77 43.76 76.69 49.46
  C 76.74 49.77 76.72 50.08 76.61 50.39"
/>
<path stroke="#848384" vector-effect="non-scaling-stroke" d="
  M 44.25 59.24
  C 42.99 55.09 38.69 51.89 34.39 52.86
  C 29.81 53.89 27.12 58.80 26.79 63.33
  C 26.77 63.61 26.67 63.86 26.48 64.07
  L 25.78 64.91
  C 25.50 65.24 25.55 65.50 25.93 65.70
  L 26.34 65.93
  C 26.66 66.10 26.92 66.33 27.11 66.64
  C 32.21 74.74 42.21 70.05 44.98 62.70
  C 45.11 62.37 45.30 62.08 45.55 61.83
  L 46.21 61.16
  C 46.56 60.82 46.50 60.57 46.04 60.40
  L 44.98 60.01
  C 44.61 59.88 44.36 59.62 44.25 59.24"
/>
<path stroke="#848384" vector-effect="non-scaling-stroke" d="
  M 56.64 60.97
  L 61.35 61.87
  C 61.76 61.95 62.12 61.85 62.42 61.56
  L 66.47 57.79
  C 66.73 57.55 66.80 57.26 66.67 56.93
  C 64.96 52.60 57.25 56.16 55.63 58.49
  C 54.97 59.44 55.50 60.75 56.64 60.97"
/>
<path stroke="#848384" vector-effect="non-scaling-stroke" d="
  M 75.23 68.64
  C 71.05 71.31 66.75 72.56 63.03 68.98
  C 62.68 68.64 62.46 68.71 62.36 69.18
  C 61.63 72.69 59.65 74.61 56.42 74.95
  C 51.60 75.45 47.76 76.42 44.89 77.85
  C 44.59 78.00 44.27 78.07 43.93 78.05
  C 37.58 77.77 30.99 77.87 25.70 80.56
  C 25.40 80.71 25.08 80.77 24.74 80.72
  C 21.21 80.26 21.27 85.57 22.92 87.47
  C 32.66 98.66 57.51 100.13 70.69 96.98
  C 77.76 95.29 82.87 91.82 88.50 88.26
  C 97.81 82.39 103.49 73.95 105.75 63.13
  C 106.02 61.82 105.98 60.72 105.64 59.82
  C 105.38 59.13 103.41 56.10 102.56 57.12
  C 102.36 57.35 102.32 57.61 102.43 57.90
  C 103.40 60.38 95.66 61.85 94.12 62.02
  C 87.29 62.74 81.00 64.95 75.23 68.64"
/>
<path stroke="#848384" vector-effect="non-scaling-stroke" d="
  M 68.74 60.76
  C 68.75 60.90 68.86 61.00 69.00 61.00
  L 69.93 61.00
  C 70.48 61.00 70.65 60.75 70.44 60.24
  L 70.17 59.58
  C 69.92 58.97 69.59 58.92 69.18 59.44
  C 68.87 59.83 68.72 60.27 68.74 60.76"
/>
<path stroke="#848384" vector-effect="non-scaling-stroke" d="
  M 74.3082 64.0100
  C 74.74 64.01 75.09 63.56 75.0900 63.0014
  C 75.09 62.44 74.74 61.99 74.3118 61.9900
  C 73.88 61.99 73.53 62.44 73.5300 62.9986
  C 73.53 63.56 73.88 64.01 74.3082 64.0100"
/>
<path stroke="#848384" vector-effect="non-scaling-stroke" d="
  M 50.07 65.62
  C 50.07 65.10 49.64 64.67 49.12 64.67
  C 48.60 64.67 48.17 65.10 48.17 65.62
  C 48.17 66.14 48.60 66.57 49.12 66.57
  C 49.64 66.57 50.07 66.14 50.07 65.62"
/>
<path stroke="#848384" vector-effect="non-scaling-stroke" d="
  M 70.96 65.87
  C 70.96 65.36 70.50 64.95 69.93 64.95
  C 69.36 64.95 68.90 65.36 68.90 65.87
  C 68.90 66.38 69.36 66.79 69.93 66.79
  C 70.50 66.79 70.96 66.38 70.96 65.87"
/>
<path stroke="#848384" vector-effect="non-scaling-stroke" d="
  M 54.87 66.03
  C 54.87 65.58 54.50 65.21 54.05 65.21
  C 53.60 65.21 53.23 65.58 53.23 66.03
  C 53.23 66.48 53.60 66.85 54.05 66.85
  C 54.50 66.85 54.87 66.48 54.87 66.03"
/>
<path stroke="#848384" vector-effect="non-scaling-stroke" d="
  M 50.93 70.30
  C 50.20 70.92 50.08 71.54 50.57 72.15
  C 50.80 72.43 50.99 72.41 51.14 72.08
  L 51.70 70.92
  C 51.81 70.71 51.76 70.54 51.55 70.41
  L 51.32 70.27
  C 51.19 70.20 51.04 70.21 50.93 70.30"
/>
<path stroke="#848384" vector-effect="non-scaling-stroke" d="
  M 70.65 101.36
  C 69.79 100.78 69.11 100.83 68.61 101.52
  C 68.40 101.80 68.14 101.87 67.83 101.74
  L 65.88 100.92
  C 65.25 100.65 65.10 100.82 65.43 101.42
  C 67.19 104.65 74.52 102.40 76.82 100.74
  C 77.13 100.52 77.15 100.27 76.88 100.00
  L 76.68 99.81
  C 76.50 99.63 76.29 99.59 76.06 99.68
  L 71.64 101.46
  C 71.29 101.60 70.96 101.57 70.65 101.36"
/>
<path stroke="#848384" vector-effect="non-scaling-stroke" d="
  M 92.85 43.93
  C 88.64 35.74 78.93 39.16 78.07 46.78
  C 76.57 60.11 98.51 54.93 92.85 43.93"
/>
<path stroke="#848384" vector-effect="non-scaling-stroke" d="
  M 85.02 42.01
  C 84.62 41.68 84.02 41.80 83.76 42.25
  C 82.70 44.14 85.45 49.39 86.16 51.61
  C 86.34 52.18 86.91 52.53 87.51 52.44
  C 91.74 51.78 86.71 43.41 85.02 42.01"
/>
<path stroke="#848384" vector-effect="non-scaling-stroke" d="
  M 43.57 61.59
  C 40.95 53.46 32.23 51.52 28.92 60.72
  C 27.70 64.10 28.01 67.30 31.43 68.91
  C 36.36 71.23 41.80 67.05 43.55 62.55
  C 43.67 62.24 43.68 61.92 43.57 61.59"
/>
<path stroke="#848384" vector-effect="non-scaling-stroke" d="
  M 37.09 67.89
  C 39.99 67.74 37.48 59.61 37.11 57.79
  C 36.87 56.59 35.21 56.45 34.77 57.60
  C 33.39 61.24 33.92 64.57 36.37 67.58
  C 36.55 67.79 36.81 67.91 37.09 67.89"
/>
<path stroke="#848384" vector-effect="non-scaling-stroke" d="
  M 59.70 59.38
  C 63.19 62.72 61.64 58.11 64.84 57.36
  C 65.34 57.24 65.32 56.52 64.81 56.44
  C 61.54 55.93 58.75 56.82 56.45 59.10
  C 56.12 59.43 56.47 59.99 56.91 59.83
  L 58.73 59.17
  C 59.10 59.04 59.42 59.11 59.70 59.38"
/>
<path stroke="#848384" vector-effect="non-scaling-stroke" d="
  M 62.75 72.50
  C 59.94 75.30 56.58 76.69 52.67 76.68
  C 49.26 76.67 46.72 79.01 43.10 79.12
  C 38.01 79.28 34.47 79.50 32.50 79.77
  C 29.86 80.13 20.25 83.28 23.98 86.74
  C 26.01 88.63 28.30 90.33 30.83 91.84
  C 31.21 92.07 31.65 91.64 31.44 91.25
  C 30.01 88.59 29.01 85.78 28.45 82.83
  C 28.38 82.44 28.54 82.25 28.94 82.25
  C 29.05 82.25 29.15 82.25 29.25 82.25
  C 29.62 82.24 29.83 82.41 29.88 82.78
  C 30.24 85.41 31.15 87.83 32.61 90.06
  C 32.80 90.36 32.86 90.69 32.79 91.05
  L 32.61 91.83
  C 32.53 92.18 32.66 92.43 33.00 92.58
  C 50.49 99.90 71.47 99.40 86.97 87.58
  C 87.80 86.95 88.86 87.04 89.75 86.34
  C 96.64 80.89 105.48 69.60 103.90 60.20
  C 103.85 59.94 103.55 59.82 103.34 59.98
  C 97.02 64.68 87.06 63.11 79.38 67.88
  C 74.74 70.76 69.26 74.09 63.75 71.25
  C 63.43 71.08 63.21 71.17 63.09 71.52
  L 62.75 72.50"
/>
<path stroke="#848384" vector-effect="non-scaling-stroke" d="
  M 62.75 72.50
  C 62.96 73.84 67.28 94.22 69.38 94.51
  C 69.75 94.56 69.89 94.41 69.78 94.05
  L 63.65 73.16
  C 63.55 72.83 63.34 72.63 63.01 72.54
  C 62.92 72.51 62.83 72.50 62.75 72.50"
/>
<path stroke="#848384" vector-effect="non-scaling-stroke" d="
  M 95.96 64.53
  C 96.54 66.41 97.99 74.48 98.57 74.91
  C 98.82 75.09 98.95 75.03 98.97 74.72
  C 99.10 71.78 98.93 66.17 96.48 64.18
  C 96.23 63.98 95.86 64.22 95.96 64.53"
/>
<path stroke="#848384" vector-effect="non-scaling-stroke" d="
  M 84.5297 67.9156
  C 84.49 67.77 84.34 67.69 84.1997 67.7236
  L 83.4649 67.9177
  C 83.32 67.96 83.23 68.10 83.2728 68.2477
  L 87.6103 84.6644
  C 87.65 84.81 87.80 84.89 87.9403 84.8564
  L 88.6751 84.6623
  C 88.82 84.62 88.91 84.48 88.8672 84.3323
  L 84.5297 67.9156"
/>
<path stroke="#848384" vector-effect="non-scaling-stroke" d="
  M 49.4355 94.0999
  C 49.82 93.98 49.18 90.70 48.0096 86.7614
  C 46.84 82.82 45.57 79.72 45.1845 79.8401
  C 44.80 79.96 45.44 83.24 46.6104 87.1786
  C 47.78 91.12 49.05 94.22 49.4355 94.0999"
/>
</g>
<path fill="#f6f6f6" d="
  M 0.00 0.00
  L 123.00 0.00
  L 123.00 118.00
  L 0.00 118.00
  L 0.00 0.00
  Z
  M 18.84 72.71
  L 16.51 76.68
  C 16.33 76.99 16.06 77.15 15.71 77.17
  C 12.46 77.35 9.36 78.15 6.43 79.56
  C 6.21 79.67 6.10 79.93 6.17 80.16
  C 6.25 80.40 6.49 80.54 6.73 80.50
  L 15.71 78.92
  C 16.05 78.87 16.19 79.01 16.14 79.34
  C 15.59 82.79 15.58 86.25 16.12 89.72
  C 16.17 90.07 16.34 90.34 16.63 90.55
  C 18.38 91.78 18.70 95.10 20.56 95.01
  C 20.91 94.99 21.18 95.12 21.38 95.41
  C 23.72 98.81 25.94 98.85 29.66 99.74
  C 30.99 100.05 32.38 99.41 33.78 100.79
  C 34.01 101.02 34.29 101.18 34.61 101.27
  C 42.30 103.45 50.27 104.41 58.06 105.75
  C 67.98 107.47 78.06 108.31 85.30 100.07
  C 88.65 96.26 93.24 94.30 96.93 90.63
  C 100.48 87.10 105.12 83.70 107.96 78.61
  C 108.12 78.32 108.34 78.09 108.62 77.92
  C 110.50 76.74 109.67 74.73 111.72 73.48
  C 112.03 73.29 112.26 73.04 112.42 72.73
  C 113.43 70.72 113.77 68.58 113.45 66.31
  C 113.40 65.98 113.45 65.67 113.58 65.36
  C 114.69 62.81 112.75 59.46 112.73 56.48
  C 112.72 56.12 112.60 55.81 112.36 55.54
  C 110.53 53.52 109.22 51.19 108.44 48.56
  C 108.33 48.21 108.44 47.93 108.75 47.73
  L 117.42 42.32
  C 117.96 41.99 117.71 41.16 117.08 41.17
  C 114.61 41.23 109.22 44.90 107.22 46.47
  C 106.90 46.72 106.57 46.74 106.22 46.51
  L 104.25 45.22
  C 103.86 44.97 103.82 44.66 104.13 44.31
  L 109.78 37.99
  C 110.11 37.62 110.03 37.39 109.54 37.30
  C 107.60 36.96 103.35 42.05 102.14 43.50
  C 101.92 43.77 101.71 43.76 101.50 43.47
  L 99.67 40.91
  C 99.49 40.65 99.44 40.37 99.51 40.07
  C 102.27 28.63 99.45 17.00 97.30 5.72
  C 97.00 4.18 95.92 3.33 94.53 2.90
  C 94.16 2.79 93.89 2.90 93.71 3.24
  C 92.60 5.33 91.55 7.29 89.75 8.94
  C 83.84 14.34 78.45 20.22 73.60 26.59
  C 73.39 26.86 73.13 27.04 72.81 27.14
  C 68.11 28.62 59.71 27.96 54.52 28.12
  C 54.21 28.13 53.91 28.22 53.64 28.39
  C 52.30 29.24 50.85 29.55 49.30 29.30
  C 48.95 29.24 48.65 29.34 48.40 29.60
  C 47.25 30.78 45.87 31.48 44.25 31.70
  C 43.93 31.75 43.64 31.87 43.39 32.08
  L 35.89 38.43
  C 35.64 38.64 35.37 38.67 35.08 38.50
  C 29.81 35.47 23.69 33.69 18.88 30.87
  C 16.46 29.46 14.07 28.00 11.70 26.49
  C 11.42 26.31 11.12 26.26 10.80 26.33
  C 9.00 26.73 10.25 28.84 9.68 30.16
  C 9.55 30.45 9.54 30.74 9.63 31.04
  C 12.78 41.18 12.45 52.55 20.25 60.55
  C 20.48 60.78 20.61 61.06 20.65 61.39
  C 21.07 64.47 20.69 67.43 19.51 70.27
  C 19.38 70.60 19.13 70.73 18.78 70.66
  C 17.00 70.28 8.83 69.34 7.60 70.24
  C 7.15 70.57 7.35 71.27 7.90 71.32
  L 18.61 72.25
  C 18.93 72.28 19.01 72.44 18.84 72.71
  Z"
/>
<path fill="#111011" d="
  M 18.61 72.25
  L 7.90 71.32
  C 7.35 71.27 7.15 70.57 7.60 70.24
  C 8.83 69.34 17.00 70.28 18.78 70.66
  C 19.13 70.73 19.38 70.60 19.51 70.27
  C 20.69 67.43 21.07 64.47 20.65 61.39
  C 20.61 61.06 20.48 60.78 20.25 60.55
  C 12.45 52.55 12.78 41.18 9.63 31.04
  C 9.54 30.74 9.55 30.45 9.68 30.16
  C 10.25 28.84 9.00 26.73 10.80 26.33
  C 11.12 26.26 11.42 26.31 11.70 26.49
  C 14.07 28.00 16.46 29.46 18.88 30.87
  C 23.69 33.69 29.81 35.47 35.08 38.50
  C 35.37 38.67 35.64 38.64 35.89 38.43
  L 43.39 32.08
  C 43.64 31.87 43.93 31.75 44.25 31.70
  C 45.87 31.48 47.25 30.78 48.40 29.60
  C 48.65 29.34 48.95 29.24 49.30 29.30
  C 50.85 29.55 52.30 29.24 53.64 28.39
  C 53.91 28.22 54.21 28.13 54.52 28.12
  C 59.71 27.96 68.11 28.62 72.81 27.14
  C 73.13 27.04 73.39 26.86 73.60 26.59
  C 78.45 20.22 83.84 14.34 89.75 8.94
  C 91.55 7.29 92.60 5.33 93.71 3.24
  C 93.89 2.90 94.16 2.79 94.53 2.90
  C 95.92 3.33 97.00 4.18 97.30 5.72
  C 99.45 17.00 102.27 28.63 99.51 40.07
  C 99.44 40.37 99.49 40.65 99.67 40.91
  L 101.50 43.47
  C 101.71 43.76 101.92 43.77 102.14 43.50
  C 103.35 42.05 107.60 36.96 109.54 37.30
  C 110.03 37.39 110.11 37.62 109.78 37.99
  L 104.13 44.31
  C 103.82 44.66 103.86 44.97 104.25 45.22
  L 106.22 46.51
  C 106.57 46.74 106.90 46.72 107.22 46.47
  C 109.22 44.90 114.61 41.23 117.08 41.17
  C 117.71 41.16 117.96 41.99 117.42 42.32
  L 108.75 47.73
  C 108.44 47.93 108.33 48.21 108.44 48.56
  C 109.22 51.19 110.53 53.52 112.36 55.54
  C 112.60 55.81 112.72 56.12 112.73 56.48
  C 112.75 59.46 114.69 62.81 113.58 65.36
  C 113.45 65.67 113.40 65.98 113.45 66.31
  C 113.77 68.58 113.43 70.72 112.42 72.73
  C 112.26 73.04 112.03 73.29 111.72 73.48
  C 109.67 74.73 110.50 76.74 108.62 77.92
  C 108.34 78.09 108.12 78.32 107.96 78.61
  C 105.12 83.70 100.48 87.10 96.93 90.63
  C 93.24 94.30 88.65 96.26 85.30 100.07
  C 78.06 108.31 67.98 107.47 58.06 105.75
  C 50.27 104.41 42.30 103.45 34.61 101.27
  C 34.29 101.18 34.01 101.02 33.78 100.79
  C 32.38 99.41 30.99 100.05 29.66 99.74
  C 25.94 98.85 23.72 98.81 21.38 95.41
  C 21.18 95.12 20.91 94.99 20.56 95.01
  C 18.70 95.10 18.38 91.78 16.63 90.55
  C 16.34 90.34 16.17 90.07 16.12 89.72
  C 15.58 86.25 15.59 82.79 16.14 79.34
  C 16.19 79.01 16.05 78.87 15.71 78.92
  L 6.73 80.50
  C 6.49 80.54 6.25 80.40 6.17 80.16
  C 6.10 79.93 6.21 79.67 6.43 79.56
  C 9.36 78.15 12.46 77.35 15.71 77.17
  C 16.06 77.15 16.33 76.99 16.51 76.68
  L 18.84 72.71
  C 19.01 72.44 18.93 72.28 18.61 72.25
  Z
  M 92.33 24.63
  C 92.22 25.81 91.80 26.87 91.07 27.81
  C 90.78 28.20 90.87 28.43 91.35 28.50
  C 92.84 28.73 93.51 29.72 93.35 31.47
  C 93.33 31.71 93.21 31.89 93.00 32.00
  L 91.20 32.91
  C 90.64 33.19 90.64 33.48 91.19 33.77
  C 93.54 35.01 95.54 36.67 97.19 38.74
  C 97.52 39.15 97.75 39.10 97.86 38.58
  C 99.71 30.30 98.45 22.20 96.74 14.03
  C 96.37 12.26 95.06 10.44 95.47 8.09
  C 95.51 7.86 95.41 7.74 95.18 7.74
  C 95.00 7.73 94.88 7.83 94.82 8.02
  C 93.40 12.61 88.20 20.98 89.12 25.27
  C 89.18 25.57 89.34 25.64 89.60 25.47
  L 91.59 24.18
  C 92.14 23.82 92.39 23.97 92.33 24.63
  Z
  M 76.37 27.88
  L 83.41 30.39
  C 83.74 30.51 83.95 30.40 84.05 30.07
  C 86.33 22.81 90.07 16.36 93.07 9.35
  C 93.22 9.01 92.79 8.71 92.52 8.96
  C 86.55 14.41 81.04 20.28 76.00 26.59
  C 75.65 27.03 75.84 27.69 76.37 27.88
  Z
  M 87.62 28.74
  L 86.65 28.39
  C 86.31 28.27 86.09 28.38 85.99 28.72
  L 85.44 30.51
  C 85.33 30.88 85.45 31.14 85.80 31.30
  L 88.85 32.65
  C 89.50 32.94 90.13 32.22 89.75 31.62
  C 89.02 30.45 88.84 29.20 89.22 27.86
  C 89.30 27.59 89.20 27.47 88.92 27.50
  C 88.55 27.53 88.35 27.79 88.33 28.26
  C 88.31 28.74 88.07 28.90 87.62 28.74
  Z
  M 68.65 38.08
  C 69.20 41.26 69.19 44.39 68.62 47.46
  C 68.56 47.79 68.66 48.07 68.92 48.30
  C 68.99 48.36 69.06 48.43 69.13 48.50
  C 69.54 48.91 69.79 48.82 69.89 48.25
  C 70.13 46.88 71.12 36.31 71.52 36.31
  C 71.97 36.30 72.18 36.53 72.15 36.98
  L 71.55 46.81
  C 71.52 47.34 71.61 47.36 71.82 46.87
  C 73.09 44.00 73.58 41.03 73.29 37.95
  C 73.05 35.39 73.76 32.43 72.47 29.70
  C 72.30 29.35 72.03 29.21 71.65 29.26
  C 67.16 29.90 62.77 29.31 58.58 30.03
  C 56.19 30.44 53.80 30.88 51.40 31.33
  C 51.05 31.40 50.74 31.56 50.49 31.81
  C 49.44 32.85 48.17 33.23 46.68 32.96
  C 46.34 32.90 46.06 33.00 45.84 33.26
  L 44.52 34.84
  C 44.29 35.11 43.99 35.27 43.64 35.30
  C 41.92 35.44 40.74 36.36 40.10 38.07
  C 39.94 38.48 39.65 38.73 39.23 38.82
  L 37.65 39.14
  C 37.24 39.23 37.12 39.46 37.30 39.84
  C 37.49 40.24 37.57 40.66 37.52 41.10
  C 37.48 41.43 37.55 41.75 37.72 42.04
  C 41.21 47.79 43.33 51.06 48.77 55.20
  C 48.92 55.31 49.07 55.30 49.21 55.17
  L 49.41 54.96
  C 49.60 54.77 49.59 54.60 49.39 54.43
  L 46.56 52.03
  C 46.19 51.71 46.20 51.41 46.61 51.14
  C 48.30 50.01 49.53 56.57 53.90 52.77
  C 54.13 52.57 54.16 52.35 53.99 52.10
  C 53.14 50.84 48.72 42.47 49.90 40.96
  C 50.15 40.64 50.35 40.67 50.50 41.06
  L 54.10 50.51
  C 54.15 50.64 54.24 50.75 54.36 50.83
  C 57.29 52.68 54.45 46.69 54.21 45.88
  C 54.10 45.49 54.46 45.12 54.85 45.23
  C 55.81 45.48 56.74 49.74 57.30 50.86
  C 57.47 51.21 57.73 51.29 58.08 51.10
  C 59.67 50.19 57.81 47.14 58.05 45.43
  C 58.17 44.56 58.39 44.53 58.72 45.34
  L 60.10 48.75
  C 60.21 49.00 60.38 49.07 60.62 48.95
  C 61.50 48.52 60.57 43.76 60.43 42.76
  C 60.36 42.25 60.53 42.16 60.92 42.49
  C 62.31 43.64 62.17 47.20 61.96 48.96
  C 61.90 49.50 62.47 49.88 62.94 49.62
  C 65.99 47.94 62.61 40.61 64.05 40.12
  C 64.39 40.01 64.60 40.12 64.69 40.46
  C 65.10 42.01 65.20 49.12 66.69 48.99
  C 67.08 48.96 67.38 48.65 67.40 48.27
  L 68.02 38.12
  C 68.13 36.28 68.34 36.27 68.65 38.08
  Z
  M 109.95 70.08
  L 110.76 70.57
  C 111.23 70.86 111.84 70.52 111.85 69.97
  C 112.06 62.57 108.63 59.41 104.19 54.40
  C 103.95 54.13 103.86 53.81 103.92 53.45
  C 104.19 51.85 105.15 50.89 106.79 50.58
  C 107.26 50.49 107.30 50.30 106.92 50.02
  L 106.67 49.85
  C 106.43 49.67 106.19 49.68 105.96 49.87
  L 102.57 52.73
  C 102.23 53.03 101.69 52.87 101.56 52.43
  C 101.49 52.21 101.47 51.98 101.51 51.73
  C 101.56 51.38 101.71 51.09 101.97 50.85
  L 104.67 48.40
  C 105.00 48.10 104.96 47.85 104.57 47.66
  L 102.98 46.87
  C 102.66 46.71 102.39 46.78 102.17 47.07
  L 99.62 50.46
  C 99.40 50.76 99.12 50.82 98.79 50.65
  L 98.22 50.35
  C 97.74 50.10 97.66 49.76 97.97 49.31
  L 99.99 46.44
  C 100.17 46.18 100.14 45.95 99.90 45.74
  C 98.18 44.28 93.43 42.84 95.78 39.75
  C 96.00 39.46 95.98 39.18 95.73 38.92
  C 93.00 36.16 89.81 34.23 86.18 33.14
  C 82.45 32.02 79.22 29.98 74.98 29.88
  C 74.61 29.87 74.45 30.05 74.50 30.41
  C 75.27 36.38 74.78 42.08 73.03 47.50
  C 71.62 51.84 68.18 48.68 67.02 51.39
  C 66.79 51.93 66.53 51.94 66.25 51.42
  L 65.54 50.12
  C 65.36 49.78 65.09 49.67 64.73 49.79
  C 63.93 50.05 63.37 50.59 63.04 51.42
  C 62.88 51.83 62.62 51.90 62.27 51.63
  L 60.67 50.43
  C 60.43 50.25 60.26 50.30 60.17 50.58
  C 59.58 52.27 58.45 52.89 56.79 52.45
  C 56.46 52.36 56.18 52.42 55.93 52.65
  C 54.00 54.40 51.78 55.62 49.26 56.32
  C 48.91 56.42 48.58 56.37 48.28 56.17
  C 43.75 53.16 36.86 46.96 36.06 40.91
  C 36.00 40.43 35.82 40.38 35.53 40.77
  L 34.39 42.30
  C 34.17 42.59 33.89 42.79 33.55 42.92
  C 26.99 45.29 25.71 50.13 23.30 57.01
  C 23.15 57.44 23.30 57.68 23.76 57.72
  L 25.16 57.83
  C 25.52 57.86 25.79 58.03 25.96 58.34
  C 26.80 59.85 26.81 61.14 25.98 62.22
  C 23.70 65.17 22.22 67.81 21.53 70.16
  C 21.38 70.65 21.56 70.95 22.05 71.08
  L 24.30 71.68
  C 24.63 71.77 24.79 71.99 24.77 72.33
  C 24.75 72.74 24.47 73.01 23.94 73.16
  C 23.65 73.24 23.37 73.23 23.08 73.14
  C 21.65 72.67 20.59 73.12 19.88 74.48
  C 19.71 74.81 19.82 74.98 20.19 74.99
  C 21.04 75.00 21.69 75.36 22.15 76.06
  C 22.33 76.33 22.58 76.50 22.90 76.57
  C 23.59 76.72 24.11 77.08 24.46 77.67
  C 24.65 77.98 24.56 78.16 24.20 78.22
  L 21.02 78.71
  C 20.61 78.78 20.33 79.01 20.19 79.41
  L 18.27 85.08
  C 18.15 85.43 18.18 85.77 18.37 86.10
  C 18.93 87.07 19.09 88.17 18.86 89.42
  C 18.81 89.67 18.86 89.86 19.01 89.98
  C 19.22 90.14 19.39 90.11 19.53 89.88
  L 20.01 89.08
  C 20.31 88.59 21.05 88.74 21.13 89.31
  C 21.48 91.91 22.53 94.20 24.26 96.18
  C 24.53 96.49 25.01 96.51 25.31 96.23
  L 26.35 95.27
  C 26.67 94.96 26.96 94.99 27.22 95.35
  L 28.63 97.28
  C 28.90 97.65 29.20 97.68 29.52 97.35
  L 30.20 96.68
  C 30.47 96.41 30.76 96.39 31.05 96.64
  C 32.18 97.60 38.80 102.30 40.15 100.15
  C 40.32 99.88 40.55 99.81 40.84 99.94
  C 43.36 101.05 45.32 102.22 48.21 102.41
  C 50.95 102.58 53.65 103.01 56.32 103.68
  C 59.27 104.43 62.24 104.09 65.31 105.06
  C 65.65 105.17 65.96 105.10 66.23 104.87
  C 66.86 104.34 67.53 104.33 68.24 104.86
  C 68.50 105.06 68.79 105.14 69.12 105.09
  C 73.13 104.49 76.97 104.62 80.53 101.94
  C 80.82 101.73 80.99 101.45 81.06 101.10
  C 81.21 100.35 81.63 99.89 82.32 99.74
  C 82.66 99.66 82.95 99.50 83.20 99.25
  C 85.81 96.68 88.67 94.47 91.78 92.60
  C 94.42 91.02 96.41 88.35 99.26 86.27
  C 102.16 84.14 104.72 80.95 106.93 76.68
  C 107.97 74.67 109.83 73.43 109.50 70.36
  C 109.45 69.96 109.60 69.87 109.95 70.08
  Z
  M 33.25 39.60
  C 26.82 36.23 20.03 33.86 13.84 30.18
  C 13.59 30.03 13.26 30.09 13.08 30.33
  C 12.90 30.56 12.93 30.90 13.14 31.10
  L 26.91 44.29
  C 27.12 44.50 27.36 44.53 27.63 44.40
  L 33.24 41.50
  C 34.01 41.10 34.02 40.00 33.25 39.60
  Z
  M 17.68 39.85
  L 18.11 38.73
  C 18.24 38.40 18.19 38.10 17.95 37.84
  L 13.74 33.29
  C 13.36 32.88 12.69 33.21 12.78 33.76
  C 14.19 42.42 14.93 51.50 21.07 58.65
  C 21.34 58.97 21.54 58.93 21.65 58.53
  L 22.86 54.34
  C 22.97 53.97 22.88 53.65 22.61 53.38
  L 20.35 51.16
  C 20.16 50.98 20.13 50.77 20.24 50.53
  L 20.73 49.54
  C 20.86 49.27 20.78 49.11 20.48 49.06
  L 19.98 48.98
  C 19.42 48.88 19.33 48.62 19.71 48.20
  L 20.48 47.34
  C 20.80 46.99 20.76 46.68 20.36 46.42
  C 19.38 45.79 19.27 45.07 20.02 44.28
  C 20.49 43.77 20.38 43.53 19.69 43.56
  C 18.80 43.59 17.96 43.42 17.15 43.07
  C 15.92 42.54 15.97 42.20 17.30 42.06
  L 18.71 41.91
  C 19.78 41.80 19.83 41.52 18.86 41.05
  L 18.00 40.64
  C 17.65 40.47 17.54 40.21 17.68 39.85
  Z
  M 98.4449 42.6368
  C 98.64 42.38 98.36 41.83 97.8134 41.4276
  C 97.27 41.02 96.67 40.90 96.4751 41.1632
  C 96.28 41.42 96.56 41.97 97.1066 42.3724
  C 97.65 42.78 98.25 42.90 98.4449 42.6368
  Z
  M 22.61 45.31
  L 22.69 50.92
  C 22.70 51.48 22.93 51.59 23.38 51.25
  C 24.21 50.64 24.58 49.79 24.49 48.70
  C 24.46 48.35 24.57 48.05 24.82 47.80
  L 25.80 46.83
  C 26.07 46.56 26.11 46.25 25.91 45.92
  C 24.88 44.19 23.62 42.67 22.11 41.34
  C 21.39 40.71 21.16 40.85 21.43 41.77
  C 21.69 42.68 22.01 43.53 22.39 44.33
  C 22.53 44.64 22.60 44.97 22.61 45.31
  Z
  M 106.99 52.13
  C 106.11 51.46 104.94 52.46 105.46 53.43
  C 106.39 55.20 107.83 56.33 109.77 56.81
  C 110.35 56.95 110.51 56.75 110.26 56.21
  C 109.49 54.56 108.40 53.20 106.99 52.13
  Z
  M 22.56 63.30
  C 22.54 63.53 22.80 63.68 22.99 63.55
  C 24.39 62.58 25.09 61.27 25.10 59.60
  C 25.10 59.19 24.90 58.93 24.49 58.84
  C 22.42 58.37 22.69 62.04 22.56 63.30
  Z"
/>
<path fill="#f6f6f6" d="
  M 91.59 24.18
  L 89.60 25.47
  C 89.34 25.64 89.18 25.57 89.12 25.27
  C 88.20 20.98 93.40 12.61 94.82 8.02
  C 94.88 7.83 95.00 7.73 95.18 7.74
  C 95.41 7.74 95.51 7.86 95.47 8.09
  C 95.06 10.44 96.37 12.26 96.74 14.03
  C 98.45 22.20 99.71 30.30 97.86 38.58
  C 97.75 39.10 97.52 39.15 97.19 38.74
  C 95.54 36.67 93.54 35.01 91.19 33.77
  C 90.64 33.48 90.64 33.19 91.20 32.91
  L 93.00 32.00
  C 93.21 31.89 93.33 31.71 93.35 31.47
  C 93.51 29.72 92.84 28.73 91.35 28.50
  C 90.87 28.43 90.78 28.20 91.07 27.81
  C 91.80 26.87 92.22 25.81 92.33 24.63
  C 92.39 23.97 92.14 23.82 91.59 24.18
  Z"
/>
<path fill="#f6f6f6" d="
  M 76.37 27.88
  C 75.84 27.69 75.65 27.03 76.00 26.59
  C 81.04 20.28 86.55 14.41 92.52 8.96
  C 92.79 8.71 93.22 9.01 93.07 9.35
  C 90.07 16.36 86.33 22.81 84.05 30.07
  C 83.95 30.40 83.74 30.51 83.41 30.39
  L 76.37 27.88
  Z"
/>
<path fill="#f6f6f6" d="
  M 88.33 28.26
  C 88.35 27.79 88.55 27.53 88.92 27.50
  C 89.20 27.47 89.30 27.59 89.22 27.86
  C 88.84 29.20 89.02 30.45 89.75 31.62
  C 90.13 32.22 89.50 32.94 88.85 32.65
  L 85.80 31.30
  C 85.45 31.14 85.33 30.88 85.44 30.51
  L 85.99 28.72
  C 86.09 28.38 86.31 28.27 86.65 28.39
  L 87.62 28.74
  C 88.07 28.90 88.31 28.74 88.33 28.26
  Z"
/>
<path fill="#f6f6f6" d="
  M 68.02 38.12
  L 67.40 48.27
  C 67.38 48.65 67.08 48.96 66.69 48.99
  C 65.20 49.12 65.10 42.01 64.69 40.46
  C 64.60 40.12 64.39 40.01 64.05 40.12
  C 62.61 40.61 65.99 47.94 62.94 49.62
  C 62.47 49.88 61.90 49.50 61.96 48.96
  C 62.17 47.20 62.31 43.64 60.92 42.49
  C 60.53 42.16 60.36 42.25 60.43 42.76
  C 60.57 43.76 61.50 48.52 60.62 48.95
  C 60.38 49.07 60.21 49.00 60.10 48.75
  L 58.72 45.34
  C 58.39 44.53 58.17 44.56 58.05 45.43
  C 57.81 47.14 59.67 50.19 58.08 51.10
  C 57.73 51.29 57.47 51.21 57.30 50.86
  C 56.74 49.74 55.81 45.48 54.85 45.23
  C 54.46 45.12 54.10 45.49 54.21 45.88
  C 54.45 46.69 57.29 52.68 54.36 50.83
  C 54.24 50.75 54.15 50.64 54.10 50.51
  L 50.50 41.06
  C 50.35 40.67 50.15 40.64 49.90 40.96
  C 48.72 42.47 53.14 50.84 53.99 52.10
  C 54.16 52.35 54.13 52.57 53.90 52.77
  C 49.53 56.57 48.30 50.01 46.61 51.14
  C 46.20 51.41 46.19 51.71 46.56 52.03
  L 49.39 54.43
  C 49.59 54.60 49.60 54.77 49.41 54.96
  L 49.21 55.17
  C 49.07 55.30 48.92 55.31 48.77 55.20
  C 43.33 51.06 41.21 47.79 37.72 42.04
  C 37.55 41.75 37.48 41.43 37.52 41.10
  C 37.57 40.66 37.49 40.24 37.30 39.84
  C 37.12 39.46 37.24 39.23 37.65 39.14
  L 39.23 38.82
  C 39.65 38.73 39.94 38.48 40.10 38.07
  C 40.74 36.36 41.92 35.44 43.64 35.30
  C 43.99 35.27 44.29 35.11 44.52 34.84
  L 45.84 33.26
  C 46.06 33.00 46.34 32.90 46.68 32.96
  C 48.17 33.23 49.44 32.85 50.49 31.81
  C 50.74 31.56 51.05 31.40 51.40 31.33
  C 53.80 30.88 56.19 30.44 58.58 30.03
  C 62.77 29.31 67.16 29.90 71.65 29.26
  C 72.03 29.21 72.30 29.35 72.47 29.70
  C 73.76 32.43 73.05 35.39 73.29 37.95
  C 73.58 41.03 73.09 44.00 71.82 46.87
  C 71.61 47.36 71.52 47.34 71.55 46.81
  L 72.15 36.98
  C 72.18 36.53 71.97 36.30 71.52 36.31
  C 71.12 36.31 70.13 46.88 69.89 48.25
  C 69.79 48.82 69.54 48.91 69.13 48.50
  C 69.06 48.43 68.99 48.36 68.92 48.30
  C 68.66 48.07 68.56 47.79 68.62 47.46
  C 69.19 44.39 69.20 41.26 68.65 38.08
  C 68.34 36.27 68.13 36.28 68.02 38.12
  Z
  M 47.5586 45.5415
  C 47.48 45.41 47.31 45.37 47.1875 45.4517
  L 46.5217 45.8581
  C 46.39 45.94 46.35 46.10 46.4319 46.2292
  L 50.8814 53.5185
  C 50.96 53.65 51.13 53.69 51.2525 53.6083
  L 51.9183 53.2019
  C 52.05 53.12 52.09 52.96 52.0081 52.8308
  L 47.5586 45.5415
  Z"
/>
<path fill="#f6f6f6" d="
  M 109.50 70.36
  C 109.83 73.43 107.97 74.67 106.93 76.68
  C 104.72 80.95 102.16 84.14 99.26 86.27
  C 96.41 88.35 94.42 91.02 91.78 92.60
  C 88.67 94.47 85.81 96.68 83.20 99.25
  C 82.95 99.50 82.66 99.66 82.32 99.74
  C 81.63 99.89 81.21 100.35 81.06 101.10
  C 80.99 101.45 80.82 101.73 80.53 101.94
  C 76.97 104.62 73.13 104.49 69.12 105.09
  C 68.79 105.14 68.50 105.06 68.24 104.86
  C 67.53 104.33 66.86 104.34 66.23 104.87
  C 65.96 105.10 65.65 105.17 65.31 105.06
  C 62.24 104.09 59.27 104.43 56.32 103.68
  C 53.65 103.01 50.95 102.58 48.21 102.41
  C 45.32 102.22 43.36 101.05 40.84 99.94
  C 40.55 99.81 40.32 99.88 40.15 100.15
  C 38.80 102.30 32.18 97.60 31.05 96.64
  C 30.76 96.39 30.47 96.41 30.20 96.68
  L 29.52 97.35
  C 29.20 97.68 28.90 97.65 28.63 97.28
  L 27.22 95.35
  C 26.96 94.99 26.67 94.96 26.35 95.27
  L 25.31 96.23
  C 25.01 96.51 24.53 96.49 24.26 96.18
  C 22.53 94.20 21.48 91.91 21.13 89.31
  C 21.05 88.74 20.31 88.59 20.01 89.08
  L 19.53 89.88
  C 19.39 90.11 19.22 90.14 19.01 89.98
  C 18.86 89.86 18.81 89.67 18.86 89.42
  C 19.09 88.17 18.93 87.07 18.37 86.10
  C 18.18 85.77 18.15 85.43 18.27 85.08
  L 20.19 79.41
  C 20.33 79.01 20.61 78.78 21.02 78.71
  L 24.20 78.22
  C 24.56 78.16 24.65 77.98 24.46 77.67
  C 24.11 77.08 23.59 76.72 22.90 76.57
  C 22.58 76.50 22.33 76.33 22.15 76.06
  C 21.69 75.36 21.04 75.00 20.19 74.99
  C 19.82 74.98 19.71 74.81 19.88 74.48
  C 20.59 73.12 21.65 72.67 23.08 73.14
  C 23.37 73.23 23.65 73.24 23.94 73.16
  C 24.47 73.01 24.75 72.74 24.77 72.33
  C 24.79 71.99 24.63 71.77 24.30 71.68
  L 22.05 71.08
  C 21.56 70.95 21.38 70.65 21.53 70.16
  C 22.22 67.81 23.70 65.17 25.98 62.22
  C 26.81 61.14 26.80 59.85 25.96 58.34
  C 25.79 58.03 25.52 57.86 25.16 57.83
  L 23.76 57.72
  C 23.30 57.68 23.15 57.44 23.30 57.01
  C 25.71 50.13 26.99 45.29 33.55 42.92
  C 33.89 42.79 34.17 42.59 34.39 42.30
  L 35.53 40.77
  C 35.82 40.38 36.00 40.43 36.06 40.91
  C 36.86 46.96 43.75 53.16 48.28 56.17
  C 48.58 56.37 48.91 56.42 49.26 56.32
  C 51.78 55.62 54.00 54.40 55.93 52.65
  C 56.18 52.42 56.46 52.36 56.79 52.45
  C 58.45 52.89 59.58 52.27 60.17 50.58
  C 60.26 50.30 60.43 50.25 60.67 50.43
  L 62.27 51.63
  C 62.62 51.90 62.88 51.83 63.04 51.42
  C 63.37 50.59 63.93 50.05 64.73 49.79
  C 65.09 49.67 65.36 49.78 65.54 50.12
  L 66.25 51.42
  C 66.53 51.94 66.79 51.93 67.02 51.39
  C 68.18 48.68 71.62 51.84 73.03 47.50
  C 74.78 42.08 75.27 36.38 74.50 30.41
  C 74.45 30.05 74.61 29.87 74.98 29.88
  C 79.22 29.98 82.45 32.02 86.18 33.14
  C 89.81 34.23 93.00 36.16 95.73 38.92
  C 95.98 39.18 96.00 39.46 95.78 39.75
  C 93.43 42.84 98.18 44.28 99.90 45.74
  C 100.14 45.95 100.17 46.18 99.99 46.44
  L 97.97 49.31
  C 97.66 49.76 97.74 50.10 98.22 50.35
  L 98.79 50.65
  C 99.12 50.82 99.40 50.76 99.62 50.46
  L 102.17 47.07
  C 102.39 46.78 102.66 46.71 102.98 46.87
  L 104.57 47.66
  C 104.96 47.85 105.00 48.10 104.67 48.40
  L 101.97 50.85
  C 101.71 51.09 101.56 51.38 101.51 51.73
  C 101.47 51.98 101.49 52.21 101.56 52.43
  C 101.69 52.87 102.23 53.03 102.57 52.73
  L 105.96 49.87
  C 106.19 49.68 106.43 49.67 106.67 49.85
  L 106.92 50.02
  C 107.30 50.30 107.26 50.49 106.79 50.58
  C 105.15 50.89 104.19 51.85 103.92 53.45
  C 103.86 53.81 103.95 54.13 104.19 54.40
  C 108.63 59.41 112.06 62.57 111.85 69.97
  C 111.84 70.52 111.23 70.86 110.76 70.57
  L 109.95 70.08
  C 109.60 69.87 109.45 69.96 109.50 70.36
  Z
  M 76.61 50.39
  L 75.97 52.19
  C 75.84 52.58 75.97 52.78 76.38 52.80
  C 77.65 52.86 78.62 53.43 79.29 54.50
  C 79.46 54.78 79.70 54.97 80.01 55.08
  C 84.44 56.63 88.50 56.09 92.21 53.45
  C 94.33 51.94 94.76 49.53 95.91 47.26
  C 96.04 46.99 96.03 46.73 95.88 46.47
  C 92.70 41.29 90.70 35.07 82.98 38.00
  C 77.87 39.94 75.77 43.76 76.69 49.46
  C 76.74 49.77 76.72 50.08 76.61 50.39
  Z
  M 44.25 59.24
  C 42.99 55.09 38.69 51.89 34.39 52.86
  C 29.81 53.89 27.12 58.80 26.79 63.33
  C 26.77 63.61 26.67 63.86 26.48 64.07
  L 25.78 64.91
  C 25.50 65.24 25.55 65.50 25.93 65.70
  L 26.34 65.93
  C 26.66 66.10 26.92 66.33 27.11 66.64
  C 32.21 74.74 42.21 70.05 44.98 62.70
  C 45.11 62.37 45.30 62.08 45.55 61.83
  L 46.21 61.16
  C 46.56 60.82 46.50 60.57 46.04 60.40
  L 44.98 60.01
  C 44.61 59.88 44.36 59.62 44.25 59.24
  Z
  M 56.64 60.97
  L 61.35 61.87
  C 61.76 61.95 62.12 61.85 62.42 61.56
  L 66.47 57.79
  C 66.73 57.55 66.80 57.26 66.67 56.93
  C 64.96 52.60 57.25 56.16 55.63 58.49
  C 54.97 59.44 55.50 60.75 56.64 60.97
  Z
  M 75.23 68.64
  C 71.05 71.31 66.75 72.56 63.03 68.98
  C 62.68 68.64 62.46 68.71 62.36 69.18
  C 61.63 72.69 59.65 74.61 56.42 74.95
  C 51.60 75.45 47.76 76.42 44.89 77.85
  C 44.59 78.00 44.27 78.07 43.93 78.05
  C 37.58 77.77 30.99 77.87 25.70 80.56
  C 25.40 80.71 25.08 80.77 24.74 80.72
  C 21.21 80.26 21.27 85.57 22.92 87.47
  C 32.66 98.66 57.51 100.13 70.69 96.98
  C 77.76 95.29 82.87 91.82 88.50 88.26
  C 97.81 82.39 103.49 73.95 105.75 63.13
  C 106.02 61.82 105.98 60.72 105.64 59.82
  C 105.38 59.13 103.41 56.10 102.56 57.12
  C 102.36 57.35 102.32 57.61 102.43 57.90
  C 103.40 60.38 95.66 61.85 94.12 62.02
  C 87.29 62.74 81.00 64.95 75.23 68.64
  Z
  M 68.74 60.76
  C 68.75 60.90 68.86 61.00 69.00 61.00
  L 69.93 61.00
  C 70.48 61.00 70.65 60.75 70.44 60.24
  L 70.17 59.58
  C 69.92 58.97 69.59 58.92 69.18 59.44
  C 68.87 59.83 68.72 60.27 68.74 60.76
  Z
  M 74.3082 64.0100
  C 74.74 64.01 75.09 63.56 75.0900 63.0014
  C 75.09 62.44 74.74 61.99 74.3118 61.9900
  C 73.88 61.99 73.53 62.44 73.5300 62.9986
  C 73.53 63.56 73.88 64.01 74.3082 64.0100
  Z
  M 50.07 65.62
  C 50.07 65.10 49.64 64.67 49.12 64.67
  C 48.60 64.67 48.17 65.10 48.17 65.62
  C 48.17 66.14 48.60 66.57 49.12 66.57
  C 49.64 66.57 50.07 66.14 50.07 65.62
  Z
  M 70.96 65.87
  C 70.96 65.36 70.50 64.95 69.93 64.95
  C 69.36 64.95 68.90 65.36 68.90 65.87
  C 68.90 66.38 69.36 66.79 69.93 66.79
  C 70.50 66.79 70.96 66.38 70.96 65.87
  Z
  M 54.87 66.03
  C 54.87 65.58 54.50 65.21 54.05 65.21
  C 53.60 65.21 53.23 65.58 53.23 66.03
  C 53.23 66.48 53.60 66.85 54.05 66.85
  C 54.50 66.85 54.87 66.48 54.87 66.03
  Z
  M 50.93 70.30
  C 50.20 70.92 50.08 71.54 50.57 72.15
  C 50.80 72.43 50.99 72.41 51.14 72.08
  L 51.70 70.92
  C 51.81 70.71 51.76 70.54 51.55 70.41
  L 51.32 70.27
  C 51.19 70.20 51.04 70.21 50.93 70.30
  Z
  M 70.65 101.36
  C 69.79 100.78 69.11 100.83 68.61 101.52
  C 68.40 101.80 68.14 101.87 67.83 101.74
  L 65.88 100.92
  C 65.25 100.65 65.10 100.82 65.43 101.42
  C 67.19 104.65 74.52 102.40 76.82 100.74
  C 77.13 100.52 77.15 100.27 76.88 100.00
  L 76.68 99.81
  C 76.50 99.63 76.29 99.59 76.06 99.68
  L 71.64 101.46
  C 71.29 101.60 70.96 101.57 70.65 101.36
  Z"
/>
<path fill="#f6f6f6" d="
  M 13.84 30.18
  C 20.03 33.86 26.82 36.23 33.25 39.60
  C 34.02 40.00 34.01 41.10 33.24 41.50
  L 27.63 44.40
  C 27.36 44.53 27.12 44.50 26.91 44.29
  L 13.14 31.10
  C 12.93 30.90 12.90 30.56 13.08 30.33
  C 13.26 30.09 13.59 30.03 13.84 30.18
  Z"
/>
<path fill="#f6f6f6" d="
  M 18.00 40.64
  L 18.86 41.05
  C 19.83 41.52 19.78 41.80 18.71 41.91
  L 17.30 42.06
  C 15.97 42.20 15.92 42.54 17.15 43.07
  C 17.96 43.42 18.80 43.59 19.69 43.56
  C 20.38 43.53 20.49 43.77 20.02 44.28
  C 19.27 45.07 19.38 45.79 20.36 46.42
  C 20.76 46.68 20.80 46.99 20.48 47.34
  L 19.71 48.20
  C 19.33 48.62 19.42 48.88 19.98 48.98
  L 20.48 49.06
  C 20.78 49.11 20.86 49.27 20.73 49.54
  L 20.24 50.53
  C 20.13 50.77 20.16 50.98 20.35 51.16
  L 22.61 53.38
  C 22.88 53.65 22.97 53.97 22.86 54.34
  L 21.65 58.53
  C 21.54 58.93 21.34 58.97 21.07 58.65
  C 14.93 51.50 14.19 42.42 12.78 33.76
  C 12.69 33.21 13.36 32.88 13.74 33.29
  L 17.95 37.84
  C 18.19 38.10 18.24 38.40 18.11 38.73
  L 17.68 39.85
  C 17.54 40.21 17.65 40.47 18.00 40.64
  Z"
/>
<path fill="#111011" d="
  M 76.69 49.46
  C 75.77 43.76 77.87 39.94 82.98 38.00
  C 90.70 35.07 92.70 41.29 95.88 46.47
  C 96.03 46.73 96.04 46.99 95.91 47.26
  C 94.76 49.53 94.33 51.94 92.21 53.45
  C 88.50 56.09 84.44 56.63 80.01 55.08
  C 79.70 54.97 79.46 54.78 79.29 54.50
  C 78.62 53.43 77.65 52.86 76.38 52.80
  C 75.97 52.78 75.84 52.58 75.97 52.19
  L 76.61 50.39
  C 76.72 50.08 76.74 49.77 76.69 49.46
  Z
  M 92.85 43.93
  C 88.64 35.74 78.93 39.16 78.07 46.78
  C 76.57 60.11 98.51 54.93 92.85 43.93
  Z"
/>
<path fill="#f6f6f6" d="
  M 78.07 46.78
  C 78.93 39.16 88.64 35.74 92.85 43.93
  C 98.51 54.93 76.57 60.11 78.07 46.78
  Z
  M 85.02 42.01
  C 84.62 41.68 84.02 41.80 83.76 42.25
  C 82.70 44.14 85.45 49.39 86.16 51.61
  C 86.34 52.18 86.91 52.53 87.51 52.44
  C 91.74 51.78 86.71 43.41 85.02 42.01
  Z"
/>
<ellipse fill="#f6f6f6" cx="0.00" cy="0.00" transform="translate(97.46,41.90) rotate(36.8)" rx="1.23" ry="0.59"/>
<path fill="#f6f6f6" d="
  M 22.39 44.33
  C 22.01 43.53 21.69 42.68 21.43 41.77
  C 21.16 40.85 21.39 40.71 22.11 41.34
  C 23.62 42.67 24.88 44.19 25.91 45.92
  C 26.11 46.25 26.07 46.56 25.80 46.83
  L 24.82 47.80
  C 24.57 48.05 24.46 48.35 24.49 48.70
  C 24.58 49.79 24.21 50.64 23.38 51.25
  C 22.93 51.59 22.70 51.48 22.69 50.92
  L 22.61 45.31
  C 22.60 44.97 22.53 44.64 22.39 44.33
  Z"
/>
<path fill="#111011" d="
  M 85.02 42.01
  C 86.71 43.41 91.74 51.78 87.51 52.44
  C 86.91 52.53 86.34 52.18 86.16 51.61
  C 85.45 49.39 82.70 44.14 83.76 42.25
  C 84.02 41.80 84.62 41.68 85.02 42.01
  Z"
/>
<rect fill="#111011" x="-0.66" y="-4.54" transform="translate(49.22,49.53) rotate(-31.4)" width="1.32" height="9.08" rx="0.27"/>
<path fill="#f6f6f6" d="
  M 106.99 52.13
  C 108.40 53.20 109.49 54.56 110.26 56.21
  C 110.51 56.75 110.35 56.95 109.77 56.81
  C 107.83 56.33 106.39 55.20 105.46 53.43
  C 104.94 52.46 106.11 51.46 106.99 52.13
  Z"
/>
<path fill="#111011" d="
  M 34.39 52.86
  C 38.69 51.89 42.99 55.09 44.25 59.24
  C 44.36 59.62 44.61 59.88 44.98 60.01
  L 46.04 60.40
  C 46.50 60.57 46.56 60.82 46.21 61.16
  L 45.55 61.83
  C 45.30 62.08 45.11 62.37 44.98 62.70
  C 42.21 70.05 32.21 74.74 27.11 66.64
  C 26.92 66.33 26.66 66.10 26.34 65.93
  L 25.93 65.70
  C 25.55 65.50 25.50 65.24 25.78 64.91
  L 26.48 64.07
  C 26.67 63.86 26.77 63.61 26.79 63.33
  C 27.12 58.80 29.81 53.89 34.39 52.86
  Z
  M 43.57 61.59
  C 40.95 53.46 32.23 51.52 28.92 60.72
  C 27.70 64.10 28.01 67.30 31.43 68.91
  C 36.36 71.23 41.80 67.05 43.55 62.55
  C 43.67 62.24 43.68 61.92 43.57 61.59
  Z"
/>
<path fill="#f6f6f6" d="
  M 28.92 60.72
  C 32.23 51.52 40.95 53.46 43.57 61.59
  C 43.68 61.92 43.67 62.24 43.55 62.55
  C 41.80 67.05 36.36 71.23 31.43 68.91
  C 28.01 67.30 27.70 64.10 28.92 60.72
  Z
  M 37.09 67.89
  C 39.99 67.74 37.48 59.61 37.11 57.79
  C 36.87 56.59 35.21 56.45 34.77 57.60
  C 33.39 61.24 33.92 64.57 36.37 67.58
  C 36.55 67.79 36.81 67.91 37.09 67.89
  Z"
/>
<path fill="#111011" d="
  M 56.64 60.97
  C 55.50 60.75 54.97 59.44 55.63 58.49
  C 57.25 56.16 64.96 52.60 66.67 56.93
  C 66.80 57.26 66.73 57.55 66.47 57.79
  L 62.42 61.56
  C 62.12 61.85 61.76 61.95 61.35 61.87
  L 56.64 60.97
  Z
  M 59.70 59.38
  C 63.19 62.72 61.64 58.11 64.84 57.36
  C 65.34 57.24 65.32 56.52 64.81 56.44
  C 61.54 55.93 58.75 56.82 56.45 59.10
  C 56.12 59.43 56.47 59.99 56.91 59.83
  L 58.73 59.17
  C 59.10 59.04 59.42 59.11 59.70 59.38
  Z"
/>
<path fill="#f6f6f6" d="
  M 58.73 59.17
  L 56.91 59.83
  C 56.47 59.99 56.12 59.43 56.45 59.10
  C 58.75 56.82 61.54 55.93 64.81 56.44
  C 65.32 56.52 65.34 57.24 64.84 57.36
  C 61.64 58.11 63.19 62.72 59.70 59.38
  C 59.42 59.11 59.10 59.04 58.73 59.17
  Z"
/>
<path fill="#111011" d="
  M 37.09 67.89
  C 36.81 67.91 36.55 67.79 36.37 67.58
  C 33.92 64.57 33.39 61.24 34.77 57.60
  C 35.21 56.45 36.87 56.59 37.11 57.79
  C 37.48 59.61 39.99 67.74 37.09 67.89
  Z"
/>
<path fill="#111011" d="
  M 63.03 68.98
  C 66.75 72.56 71.05 71.31 75.23 68.64
  C 81.00 64.95 87.29 62.74 94.12 62.02
  C 95.66 61.85 103.40 60.38 102.43 57.90
  C 102.32 57.61 102.36 57.35 102.56 57.12
  C 103.41 56.10 105.38 59.13 105.64 59.82
  C 105.98 60.72 106.02 61.82 105.75 63.13
  C 103.49 73.95 97.81 82.39 88.50 88.26
  C 82.87 91.82 77.76 95.29 70.69 96.98
  C 57.51 100.13 32.66 98.66 22.92 87.47
  C 21.27 85.57 21.21 80.26 24.74 80.72
  C 25.08 80.77 25.40 80.71 25.70 80.56
  C 30.99 77.87 37.58 77.77 43.93 78.05
  C 44.27 78.07 44.59 78.00 44.89 77.85
  C 47.76 76.42 51.60 75.45 56.42 74.95
  C 59.65 74.61 61.63 72.69 62.36 69.18
  C 62.46 68.71 62.68 68.64 63.03 68.98
  Z
  M 62.75 72.50
  C 59.94 75.30 56.58 76.69 52.67 76.68
  C 49.26 76.67 46.72 79.01 43.10 79.12
  C 38.01 79.28 34.47 79.50 32.50 79.77
  C 29.86 80.13 20.25 83.28 23.98 86.74
  C 26.01 88.63 28.30 90.33 30.83 91.84
  C 31.21 92.07 31.65 91.64 31.44 91.25
  C 30.01 88.59 29.01 85.78 28.45 82.83
  C 28.38 82.44 28.54 82.25 28.94 82.25
  C 29.05 82.25 29.15 82.25 29.25 82.25
  C 29.62 82.24 29.83 82.41 29.88 82.78
  C 30.24 85.41 31.15 87.83 32.61 90.06
  C 32.80 90.36 32.86 90.69 32.79 91.05
  L 32.61 91.83
  C 32.53 92.18 32.66 92.43 33.00 92.58
  C 50.49 99.90 71.47 99.40 86.97 87.58
  C 87.80 86.95 88.86 87.04 89.75 86.34
  C 96.64 80.89 105.48 69.60 103.90 60.20
  C 103.85 59.94 103.55 59.82 103.34 59.98
  C 97.02 64.68 87.06 63.11 79.38 67.88
  C 74.74 70.76 69.26 74.09 63.75 71.25
  C 63.43 71.08 63.21 71.17 63.09 71.52
  L 62.75 72.50
  Z"
/>
<path fill="#f6f6f6" d="
  M 22.56 63.30
  C 22.69 62.04 22.42 58.37 24.49 58.84
  C 24.90 58.93 25.10 59.19 25.10 59.60
  C 25.09 61.27 24.39 62.58 22.99 63.55
  C 22.80 63.68 22.54 63.53 22.56 63.30
  Z"
/>
<path fill="#111011" d="
  M 68.74 60.76
  C 68.72 60.27 68.87 59.83 69.18 59.44
  C 69.59 58.92 69.92 58.97 70.17 59.58
  L 70.44 60.24
  C 70.65 60.75 70.48 61.00 69.93 61.00
  L 69.00 61.00
  C 68.86 61.00 68.75 60.90 68.74 60.76
  Z"
/>
<path fill="#f6f6f6" d="
  M 62.75 72.50
  C 62.96 73.84 67.28 94.22 69.38 94.51
  C 69.75 94.56 69.89 94.41 69.78 94.05
  L 63.65 73.16
  C 63.55 72.83 63.34 72.63 63.01 72.54
  C 62.92 72.51 62.83 72.50 62.75 72.50
  L 63.09 71.52
  C 63.21 71.17 63.43 71.08 63.75 71.25
  C 69.26 74.09 74.74 70.76 79.38 67.88
  C 87.06 63.11 97.02 64.68 103.34 59.98
  C 103.55 59.82 103.85 59.94 103.90 60.20
  C 105.48 69.60 96.64 80.89 89.75 86.34
  C 88.86 87.04 87.80 86.95 86.97 87.58
  C 71.47 99.40 50.49 99.90 33.00 92.58
  C 32.66 92.43 32.53 92.18 32.61 91.83
  L 32.79 91.05
  C 32.86 90.69 32.80 90.36 32.61 90.06
  C 31.15 87.83 30.24 85.41 29.88 82.78
  C 29.83 82.41 29.62 82.24 29.25 82.25
  C 29.15 82.25 29.05 82.25 28.94 82.25
  C 28.54 82.25 28.38 82.44 28.45 82.83
  C 29.01 85.78 30.01 88.59 31.44 91.25
  C 31.65 91.64 31.21 92.07 30.83 91.84
  C 28.30 90.33 26.01 88.63 23.98 86.74
  C 20.25 83.28 29.86 80.13 32.50 79.77
  C 34.47 79.50 38.01 79.28 43.10 79.12
  C 46.72 79.01 49.26 76.67 52.67 76.68
  C 56.58 76.69 59.94 75.30 62.75 72.50
  Z
  M 95.96 64.53
  C 96.54 66.41 97.99 74.48 98.57 74.91
  C 98.82 75.09 98.95 75.03 98.97 74.72
  C 99.10 71.78 98.93 66.17 96.48 64.18
  C 96.23 63.98 95.86 64.22 95.96 64.53
  Z
  M 84.5297 67.9156
  C 84.49 67.77 84.34 67.69 84.1997 67.7236
  L 83.4649 67.9177
  C 83.32 67.96 83.23 68.10 83.2728 68.2477
  L 87.6103 84.6644
  C 87.65 84.81 87.80 84.89 87.9403 84.8564
  L 88.6751 84.6623
  C 88.82 84.62 88.91 84.48 88.8672 84.3323
  L 84.5297 67.9156
  Z
  M 49.4355 94.0999
  C 49.82 93.98 49.18 90.70 48.0096 86.7614
  C 46.84 82.82 45.57 79.72 45.1845 79.8401
  C 44.80 79.96 45.44 83.24 46.6104 87.1786
  C 47.78 91.12 49.05 94.22 49.4355 94.0999
  Z"
/>
<ellipse fill="#111011" cx="0.00" cy="0.00" transform="translate(74.31,63.00) rotate(90.1)" rx="1.01" ry="0.78"/>
<path fill="#111011" d="
  M 95.96 64.53
  C 95.86 64.22 96.23 63.98 96.48 64.18
  C 98.93 66.17 99.10 71.78 98.97 74.72
  C 98.95 75.03 98.82 75.09 98.57 74.91
  C 97.99 74.48 96.54 66.41 95.96 64.53
  Z"
/>
<circle fill="#111011" cx="49.12" cy="65.62" r="0.95"/>
<ellipse fill="#111011" cx="69.93" cy="65.87" rx="1.03" ry="0.92"/>
<circle fill="#111011" cx="54.05" cy="66.03" r="0.82"/>
<rect fill="#111011" x="-0.65" y="-8.76" transform="translate(86.07,76.29) rotate(-14.8)" width="1.30" height="17.52" rx="0.27"/>
<path fill="#111011" d="
  M 50.93 70.30
  C 51.04 70.21 51.19 70.20 51.32 70.27
  L 51.55 70.41
  C 51.76 70.54 51.81 70.71 51.70 70.92
  L 51.14 72.08
  C 50.99 72.41 50.80 72.43 50.57 72.15
  C 50.08 71.54 50.20 70.92 50.93 70.30
  Z"
/>
<path fill="#111011" d="
  M 62.75 72.50
  C 62.83 72.50 62.92 72.51 63.01 72.54
  C 63.34 72.63 63.55 72.83 63.65 73.16
  L 69.78 94.05
  C 69.89 94.41 69.75 94.56 69.38 94.51
  C 67.28 94.22 62.96 73.84 62.75 72.50
  Z"
/>
<ellipse fill="#111011" cx="0.00" cy="0.00" transform="translate(47.31,86.97) rotate(73.4)" rx="7.44" ry="0.73"/>
<path fill="#111011" d="
  M 71.64 101.46
  L 76.06 99.68
  C 76.29 99.59 76.50 99.63 76.68 99.81
  L 76.88 100.00
  C 77.15 100.27 77.13 100.52 76.82 100.74
  C 74.52 102.40 67.19 104.65 65.43 101.42
  C 65.10 100.82 65.25 100.65 65.88 100.92
  L 67.83 101.74
  C 68.14 101.87 68.40 101.80 68.61 101.52
  C 69.11 100.83 69.79 100.78 70.65 101.36
  C 70.96 101.57 71.29 101.60 71.64 101.46
  Z"
/>
</svg>
