<?xml version="1.0" encoding="UTF-8" standalone="no"?>
<!DOCTYPE svg PUBLIC "-//W3C//DTD SVG 1.1//EN" "http://www.w3.org/Graphics/SVG/1.1/DTD/svg11.dtd">
<svg xmlns="http://www.w3.org/2000/svg" version="1.1" viewBox="0 0 112 112">
<g stroke-width="2.00" fill="none" stroke-linecap="butt">
<path stroke="#908f90" vector-effect="non-scaling-stroke" d="
  M 101.69 112.00
  C 109.02 110.51 111.76 104.60 111.76 97.51
  C 111.75 70.52 111.74 43.52 111.75 16.53
  C 111.76 9.99 111.09 5.57 105.87 1.99
  C 103.17 0.14 99.45 0.59 96.25 0.61
  C 68.92 0.80 41.58 0.73 14.25 0.40
  C 1.36 0.24 0.24 8.90 0.24 19.88
  C 0.25 45.33 0.25 70.77 0.24 96.21
  C 0.24 104.91 2.43 110.78 11.69 112.00"
/>
<path stroke="#908f90" vector-effect="non-scaling-stroke" d="
  M 103.56 46.38
  L 103.03 44.44
  C 102.93 44.09 102.72 43.85 102.39 43.70
  C 99.87 42.59 97.58 41.43 94.80 41.45
  C 90.73 41.48 86.78 42.27 82.95 43.81
  C 82.42 44.02 82.14 44.59 82.28 45.13
  C 83.14 48.39 81.34 50.91 80.35 53.92
  C 80.24 54.25 80.36 54.44 80.71 54.47
  C 81.53 54.55 82.23 54.87 82.82 55.43
  C 83.49 56.07 83.36 56.35 82.44 56.28
  L 80.54 56.13
  C 80.51 56.13 80.49 56.14 80.47 56.16
  C 80.41 56.22 80.35 56.28 80.28 56.34
  C 80.11 56.50 80.13 56.63 80.34 56.73
  C 81.30 57.24 82.06 57.97 82.61 58.90
  C 91.78 74.37 97.34 91.06 99.27 108.99
  C 99.31 109.32 99.50 109.51 99.83 109.54
  C 105.92 110.10 109.23 104.26 109.24 98.94
  C 109.26 70.04 109.26 41.15 109.23 12.26
  C 109.23 6.93 105.17 3.01 99.77 3.00
  C 72.61 2.95 45.46 2.96 18.32 3.01
  C 8.40 3.03 2.74 3.67 2.74 15.42
  C 2.75 43.49 2.75 71.57 2.76 99.64
  C 2.76 101.84 3.56 103.58 4.41 105.53
  C 4.57 105.89 5.10 105.83 5.18 105.44
  C 6.62 98.08 9.86 90.30 11.79 84.09
  C 14.02 76.96 16.83 68.97 20.74 62.58
  C 22.24 60.14 24.93 58.48 26.62 55.68
  C 26.80 55.38 26.50 55.01 26.17 55.13
  L 23.36 56.13
  C 22.34 56.50 22.16 56.25 22.83 55.39
  C 23.54 54.48 24.47 54.04 25.64 54.08
  C 26.09 54.09 26.29 53.88 26.26 53.43
  L 26.22 52.95
  C 26.18 52.42 25.92 52.28 25.45 52.52
  L 23.89 53.31
  C 23.35 53.59 23.06 53.42 23.03 52.81
  L 23.00 52.32
  C 22.99 51.99 23.14 51.77 23.47 51.68
  L 25.20 51.20
  C 25.61 51.08 25.72 50.83 25.54 50.45
  C 24.17 47.52 24.23 44.65 25.72 41.85
  C 25.92 41.48 25.82 41.21 25.42 41.06
  C 19.87 38.96 10.77 39.81 9.63 47.16
  C 9.56 47.57 9.32 47.77 8.91 47.76
  L 7.79 47.72
  C 7.22 47.70 7.04 47.42 7.25 46.89
  L 9.07 42.28
  C 9.22 41.92 9.28 41.55 9.27 41.16
  C 9.00 27.72 14.47 18.44 25.68 13.32
  C 33.92 9.55 46.21 10.31 55.19 11.02
  C 55.93 11.08 56.62 10.61 56.85 9.90
  L 58.02 6.27
  C 58.13 5.92 58.37 5.72 58.74 5.67
  C 60.75 5.41 60.59 8.67 60.44 10.10
  C 60.41 10.43 60.55 10.60 60.87 10.63
  C 73.47 11.84 88.66 7.82 96.71 18.06
  C 103.16 26.27 105.89 35.78 104.88 46.59
  C 104.86 46.82 104.74 46.95 104.51 47.00
  C 104.39 47.02 104.26 47.01 104.12 46.97
  C 103.83 46.88 103.64 46.68 103.56 46.38"
/>
<path stroke="#908f90" vector-effect="non-scaling-stroke" d="
  M 58.74 10.32
  C 59.44 9.99 59.53 9.44 59.02 8.67
  C 58.73 8.22 58.53 8.26 58.42 8.79
  L 58.21 9.91
  C 58.12 10.40 58.29 10.53 58.74 10.32"
/>
<path stroke="#908f90" vector-effect="non-scaling-stroke" d="
  M 43.33 12.14
  C 25.64 10.79 9.74 21.36 11.14 40.48
  C 11.16 40.82 11.32 40.90 11.61 40.73
  C 18.67 36.47 25.26 38.35 31.87 42.51
  C 32.19 42.70 32.33 42.62 32.29 42.25
  C 30.92 30.30 34.66 20.45 43.51 12.68
  C 43.87 12.35 43.81 12.17 43.33 12.14"
/>
<path stroke="#908f90" vector-effect="non-scaling-stroke" d="
  M 77.21 45.09
  C 77.77 45.40 78.10 45.24 78.19 44.61
  C 79.34 36.26 77.81 28.26 73.59 20.62
  C 68.33 11.10 60.27 12.38 51.03 12.26
  C 40.44 12.12 34.59 26.07 33.76 34.76
  C 33.43 38.21 33.43 41.75 33.75 45.36
  C 33.78 45.71 33.95 45.79 34.24 45.61
  C 43.09 40.20 52.55 38.19 62.64 39.58
  C 68.16 40.34 72.28 42.32 77.21 45.09"
/>
<path stroke="#908f90" vector-effect="non-scaling-stroke" d="
  M 68.60 13.06
  C 77.90 20.54 80.93 32.28 79.96 43.80
  C 79.94 44.08 80.27 44.25 80.48 44.05
  C 85.32 39.43 96.35 38.61 102.71 42.24
  C 103.17 42.50 103.74 42.16 103.73 41.63
  C 103.37 29.47 96.90 13.93 82.76 12.99
  C 77.21 12.62 72.56 12.43 68.83 12.42
  C 68.14 12.41 68.06 12.63 68.60 13.06"
/>
<path stroke="#908f90" vector-effect="non-scaling-stroke" d="
  M 42.37 47.42
  L 42.73 49.52
  C 42.80 49.91 42.63 50.14 42.24 50.20
  C 41.23 50.36 40.35 50.80 39.60 51.51
  C 38.69 52.37 38.82 52.57 39.99 52.12
  C 45.49 49.97 51.16 49.20 57.01 49.81
  C 57.40 49.86 57.59 49.68 57.58 49.29
  L 57.46 41.63
  C 57.45 41.20 57.24 40.96 56.82 40.91
  C 50.73 40.14 45.80 42.31 40.36 44.12
  C 40.01 44.24 39.87 44.48 39.94 44.85
  L 40.37 47.01
  C 40.44 47.36 40.63 47.46 40.95 47.29
  L 41.49 47.00
  C 41.98 46.73 42.28 46.87 42.37 47.42"
/>
<path stroke="#908f90" vector-effect="non-scaling-stroke" d="
  M 59.9874 41.6353
  C 59.99 41.49 59.86 41.37 59.7141 41.3686
  L 59.2741 41.3740
  C 59.13 41.38 59.01 41.50 59.0075 41.6473
  L 59.4326 76.4447
  C 59.43 76.59 59.56 76.71 59.7059 76.7114
  L 60.1459 76.7060
  C 60.29 76.70 60.41 76.58 60.4125 76.4327
  L 59.9874 41.6353"
/>
<path stroke="#908f90" vector-effect="non-scaling-stroke" d="
  M 64.50 46.74
  L 66.47 47.06
  C 67.31 47.19 67.49 46.91 67.00 46.22
  C 66.17 45.02 66.01 43.71 66.54 42.30
  C 66.71 41.87 66.56 41.63 66.09 41.60
  L 61.95 41.31
  C 61.61 41.29 61.44 41.45 61.45 41.79
  L 61.62 49.98
  C 61.63 50.45 61.87 50.70 62.35 50.72
  C 63.43 50.76 64.45 51.06 65.40 51.62
  C 65.68 51.78 66.01 51.81 66.30 51.68
  C 66.89 51.43 67.12 51.03 66.99 50.49
  C 66.88 50.02 66.66 49.96 66.32 50.30
  L 65.73 50.89
  C 65.30 51.33 64.99 51.25 64.81 50.66
  C 64.59 49.95 64.76 49.43 65.33 49.09
  C 65.66 48.88 65.96 48.92 66.22 49.21
  C 66.56 49.58 66.88 49.50 67.17 48.99
  C 67.35 48.66 67.14 48.25 66.77 48.21
  C 65.32 48.04 64.39 47.79 64.00 47.44
  C 63.30 46.81 63.47 46.57 64.50 46.74"
/>
<path stroke="#908f90" vector-effect="non-scaling-stroke" d="
  M 40.46 69.91
  C 40.46 65.25 36.68 61.47 32.02 61.47
  C 27.36 61.47 23.58 65.25 23.58 69.91
  C 23.58 74.57 27.36 78.35 32.02 78.35
  C 36.68 78.35 40.46 74.57 40.46 69.91"
/>
<path stroke="#908f90" vector-effect="non-scaling-stroke" d="
  M 81.8216 72.0500
  C 82.91 67.80 80.17 63.42 75.7036 62.2863
  C 71.24 61.15 66.74 63.68 65.6584 67.9300
  C 64.57 72.18 67.31 76.56 71.7764 77.6937
  C 76.24 78.83 80.74 76.30 81.8216 72.0500"
/>
<path stroke="#908f90" vector-effect="non-scaling-stroke" d="
  M 57.29 69.20
  C 55.18 68.65 53.06 68.61 50.92 69.10
  C 50.63 69.17 50.58 69.32 50.79 69.54
  C 52.86 71.81 55.10 72.10 57.50 70.41
  C 57.97 70.08 57.84 69.35 57.29 69.20"
/>
<path stroke="#908f90" vector-effect="non-scaling-stroke" d="
  M 61.3861 79.3775
  C 61.35 78.74 60.80 78.26 60.1699 78.2977
  L 60.0701 78.3036
  C 59.44 78.34 58.95 78.89 58.9903 79.5198
  L 59.5739 89.3425
  C 59.61 89.98 60.16 90.46 60.7901 90.4223
  L 60.8899 90.4164
  C 61.52 90.38 62.01 89.83 61.9697 89.2002
  L 61.3861 79.3775"
/>
<path stroke="#908f90" vector-effect="non-scaling-stroke" d="
  M 56.55 96.18
  L 57.25 95.07
  C 57.48 94.71 57.39 94.46 56.98 94.33
  C 56.09 94.05 55.80 93.50 56.11 92.69
  C 56.24 92.34 56.47 92.07 56.79 91.88
  C 58.82 90.63 57.93 86.19 57.43 83.38
  C 57.37 83.07 57.19 82.88 56.88 82.80
  C 55.59 82.47 54.31 82.33 53.02 82.36
  C 40.45 82.66 30.18 87.31 22.21 96.30
  C 19.16 99.74 17.92 104.57 16.37 108.92
  C 16.24 109.28 16.37 109.46 16.76 109.47
  L 22.94 109.57
  C 23.33 109.58 23.43 109.41 23.24 109.06
  L 22.62 107.98
  C 22.47 107.71 22.42 107.42 22.49 107.12
  C 24.04 99.90 31.37 95.64 36.74 102.78
  C 37.65 103.98 38.09 105.22 38.06 106.51
  C 38.05 106.88 37.89 107.15 37.56 107.33
  C 34.05 109.25 30.54 105.15 26.04 109.06
  C 25.61 109.44 25.68 109.63 26.25 109.63
  L 69.03 109.76
  C 69.68 109.76 69.74 109.56 69.23 109.17
  C 66.54 107.12 64.44 104.83 62.94 102.32
  C 62.73 101.96 62.45 101.77 62.12 101.75
  C 61.57 101.72 61.40 101.96 61.61 102.47
  L 63.22 106.27
  C 63.35 106.59 63.32 106.89 63.12 107.17
  C 61.71 109.13 59.21 107.69 57.27 106.62
  C 56.96 106.45 56.64 106.40 56.30 106.47
  C 54.21 106.93 52.14 106.90 50.09 106.38
  C 49.72 106.29 49.37 106.31 49.02 106.45
  L 45.92 107.73
  C 45.56 107.88 45.24 107.82 44.96 107.55
  C 43.25 105.89 44.83 103.98 45.65 102.47
  C 45.82 102.16 45.83 101.84 45.69 101.52
  C 43.62 96.93 43.68 92.73 45.88 88.94
  C 46.80 87.35 48.13 87.08 49.86 88.13
  C 50.15 88.30 50.28 88.56 50.27 88.90
  L 49.92 97.48
  C 49.90 98.05 50.16 98.26 50.71 98.12
  C 52.80 97.59 54.73 97.93 56.49 99.12
  C 56.72 99.28 56.98 99.34 57.27 99.31
  C 57.83 99.24 57.93 98.94 57.56 98.41
  C 57.37 98.14 57.15 97.91 56.88 97.71
  C 56.71 97.59 56.58 97.43 56.49 97.22
  C 56.32 96.86 56.34 96.51 56.55 96.18"
/>
<path stroke="#908f90" vector-effect="non-scaling-stroke" d="
  M 63.75 83.50
  C 63.53 83.43 63.31 83.61 63.32 83.84
  L 63.67 88.24
  C 63.69 88.47 63.93 88.61 64.14 88.51
  L 69.59 85.87
  C 69.86 85.74 69.83 85.34 69.54 85.26
  L 63.75 83.50"
/>
<path stroke="#908f90" vector-effect="non-scaling-stroke" d="
  M 54.74 102.57
  C 47.66 103.07 47.69 93.84 49.00 89.50
  C 49.12 89.11 48.69 88.79 48.35 89.00
  C 43.97 91.66 46.10 102.91 50.70 104.85
  C 54.30 106.36 61.00 104.11 60.96 99.48
  C 60.95 98.77 60.01 98.52 59.66 99.14
  C 58.45 101.27 56.81 102.42 54.74 102.57"
/>
<path stroke="#908f90" vector-effect="non-scaling-stroke" d="
  M 62.32 92.70
  C 61.55 91.85 60.65 91.61 59.63 92.00
  C 58.91 92.27 58.92 92.51 59.67 92.71
  L 61.95 93.32
  C 62.31 93.42 62.57 92.98 62.32 92.70"
/>
<path stroke="#908f90" vector-effect="non-scaling-stroke" d="
  M 61.2281 94.5777
  C 61.25 94.30 60.87 94.04 60.3938 94.0111
  C 59.91 93.98 59.51 94.18 59.4919 94.4623
  C 59.47 94.74 59.85 95.00 60.3262 95.0289
  C 60.81 95.06 61.21 94.86 61.2281 94.5777"
/>
<path stroke="#908f90" vector-effect="non-scaling-stroke" d="
  M 60.71 96.11
  C 60.56 96.00 60.41 95.91 60.24 95.83
  C 59.61 95.54 59.45 95.70 59.77 96.32
  L 60.37 97.46
  C 60.67 98.05 61.00 98.06 61.37 97.51
  L 61.83 96.81
  C 61.90 96.70 61.88 96.63 61.75 96.58
  C 61.64 96.54 61.52 96.50 61.40 96.47
  C 61.15 96.39 60.92 96.27 60.71 96.11"
/>
<path stroke="#908f90" vector-effect="non-scaling-stroke" d="
  M 35.7601 70.6534
  C 36.33 69.16 35.44 67.43 33.7798 66.7990
  C 32.12 66.17 30.31 66.87 29.7399 68.3666
  C 29.17 69.86 30.06 71.59 31.7202 72.2210
  C 33.38 72.85 35.19 72.15 35.7601 70.6534"
/>
<path stroke="#908f90" vector-effect="non-scaling-stroke" d="
  M 77.00 69.83
  C 77.00 68.19 75.67 66.86 74.03 66.86
  C 72.39 66.86 71.06 68.19 71.06 69.83
  C 71.06 71.47 72.39 72.80 74.03 72.80
  C 75.67 72.80 77.00 71.47 77.00 69.83"
/>
</g>
<path fill="#f7f7f7" d="
  M 0.00 0.00
  L 112.00 0.00
  L 112.00 112.00
  L 101.69 112.00
  C 109.02 110.51 111.76 104.60 111.76 97.51
  C 111.75 70.52 111.74 43.52 111.75 16.53
  C 111.76 9.99 111.09 5.57 105.87 1.99
  C 103.17 0.14 99.45 0.59 96.25 0.61
  C 68.92 0.80 41.58 0.73 14.25 0.40
  C 1.36 0.24 0.24 8.90 0.24 19.88
  C 0.25 45.33 0.25 70.77 0.24 96.21
  C 0.24 104.91 2.43 110.78 11.69 112.00
  L 0.00 112.00
  L 0.00 0.00
  Z"
/>
<path fill="#282728" d="
  M 101.69 112.00
  L 11.69 112.00
  C 2.43 110.78 0.24 104.91 0.24 96.21
  C 0.25 70.77 0.25 45.33 0.24 19.88
  C 0.24 8.90 1.36 0.24 14.25 0.40
  C 41.58 0.73 68.92 0.80 96.25 0.61
  C 99.45 0.59 103.17 0.14 105.87 1.99
  C 111.09 5.57 111.76 9.99 111.75 16.53
  C 111.74 43.52 111.75 70.52 111.76 97.51
  C 111.76 104.60 109.02 110.51 101.69 112.00
  Z
  M 103.56 46.38
  L 103.03 44.44
  C 102.93 44.09 102.72 43.85 102.39 43.70
  C 99.87 42.59 97.58 41.43 94.80 41.45
  C 90.73 41.48 86.78 42.27 82.95 43.81
  C 82.42 44.02 82.14 44.59 82.28 45.13
  C 83.14 48.39 81.34 50.91 80.35 53.92
  C 80.24 54.25 80.36 54.44 80.71 54.47
  C 81.53 54.55 82.23 54.87 82.82 55.43
  C 83.49 56.07 83.36 56.35 82.44 56.28
  L 80.54 56.13
  C 80.51 56.13 80.49 56.14 80.47 56.16
  C 80.41 56.22 80.35 56.28 80.28 56.34
  C 80.11 56.50 80.13 56.63 80.34 56.73
  C 81.30 57.24 82.06 57.97 82.61 58.90
  C 91.78 74.37 97.34 91.06 99.27 108.99
  C 99.31 109.32 99.50 109.51 99.83 109.54
  C 105.92 110.10 109.23 104.26 109.24 98.94
  C 109.26 70.04 109.26 41.15 109.23 12.26
  C 109.23 6.93 105.17 3.01 99.77 3.00
  C 72.61 2.95 45.46 2.96 18.32 3.01
  C 8.40 3.03 2.74 3.67 2.74 15.42
  C 2.75 43.49 2.75 71.57 2.76 99.64
  C 2.76 101.84 3.56 103.58 4.41 105.53
  C 4.57 105.89 5.10 105.83 5.18 105.44
  C 6.62 98.08 9.86 90.30 11.79 84.09
  C 14.02 76.96 16.83 68.97 20.74 62.58
  C 22.24 60.14 24.93 58.48 26.62 55.68
  C 26.80 55.38 26.50 55.01 26.17 55.13
  L 23.36 56.13
  C 22.34 56.50 22.16 56.25 22.83 55.39
  C 23.54 54.48 24.47 54.04 25.64 54.08
  C 26.09 54.09 26.29 53.88 26.26 53.43
  L 26.22 52.95
  C 26.18 52.42 25.92 52.28 25.45 52.52
  L 23.89 53.31
  C 23.35 53.59 23.06 53.42 23.03 52.81
  L 23.00 52.32
  C 22.99 51.99 23.14 51.77 23.47 51.68
  L 25.20 51.20
  C 25.61 51.08 25.72 50.83 25.54 50.45
  C 24.17 47.52 24.23 44.65 25.72 41.85
  C 25.92 41.48 25.82 41.21 25.42 41.06
  C 19.87 38.96 10.77 39.81 9.63 47.16
  C 9.56 47.57 9.32 47.77 8.91 47.76
  L 7.79 47.72
  C 7.22 47.70 7.04 47.42 7.25 46.89
  L 9.07 42.28
  C 9.22 41.92 9.28 41.55 9.27 41.16
  C 9.00 27.72 14.47 18.44 25.68 13.32
  C 33.92 9.55 46.21 10.31 55.19 11.02
  C 55.93 11.08 56.62 10.61 56.85 9.90
  L 58.02 6.27
  C 58.13 5.92 58.37 5.72 58.74 5.67
  C 60.75 5.41 60.59 8.67 60.44 10.10
  C 60.41 10.43 60.55 10.60 60.87 10.63
  C 73.47 11.84 88.66 7.82 96.71 18.06
  C 103.16 26.27 105.89 35.78 104.88 46.59
  C 104.86 46.82 104.74 46.95 104.51 47.00
  C 104.39 47.02 104.26 47.01 104.12 46.97
  C 103.83 46.88 103.64 46.68 103.56 46.38
  Z
  M 58.74 10.32
  C 59.44 9.99 59.53 9.44 59.02 8.67
  C 58.73 8.22 58.53 8.26 58.42 8.79
  L 58.21 9.91
  C 58.12 10.40 58.29 10.53 58.74 10.32
  Z
  M 43.33 12.14
  C 25.64 10.79 9.74 21.36 11.14 40.48
  C 11.16 40.82 11.32 40.90 11.61 40.73
  C 18.67 36.47 25.26 38.35 31.87 42.51
  C 32.19 42.70 32.33 42.62 32.29 42.25
  C 30.92 30.30 34.66 20.45 43.51 12.68
  C 43.87 12.35 43.81 12.17 43.33 12.14
  Z
  M 77.21 45.09
  C 77.77 45.40 78.10 45.24 78.19 44.61
  C 79.34 36.26 77.81 28.26 73.59 20.62
  C 68.33 11.10 60.27 12.38 51.03 12.26
  C 40.44 12.12 34.59 26.07 33.76 34.76
  C 33.43 38.21 33.43 41.75 33.75 45.36
  C 33.78 45.71 33.95 45.79 34.24 45.61
  C 43.09 40.20 52.55 38.19 62.64 39.58
  C 68.16 40.34 72.28 42.32 77.21 45.09
  Z
  M 68.60 13.06
  C 77.90 20.54 80.93 32.28 79.96 43.80
  C 79.94 44.08 80.27 44.25 80.48 44.05
  C 85.32 39.43 96.35 38.61 102.71 42.24
  C 103.17 42.50 103.74 42.16 103.73 41.63
  C 103.37 29.47 96.90 13.93 82.76 12.99
  C 77.21 12.62 72.56 12.43 68.83 12.42
  C 68.14 12.41 68.06 12.63 68.60 13.06
  Z
  M 42.37 47.42
  L 42.73 49.52
  C 42.80 49.91 42.63 50.14 42.24 50.20
  C 41.23 50.36 40.35 50.80 39.60 51.51
  C 38.69 52.37 38.82 52.57 39.99 52.12
  C 45.49 49.97 51.16 49.20 57.01 49.81
  C 57.40 49.86 57.59 49.68 57.58 49.29
  L 57.46 41.63
  C 57.45 41.20 57.24 40.96 56.82 40.91
  C 50.73 40.14 45.80 42.31 40.36 44.12
  C 40.01 44.24 39.87 44.48 39.94 44.85
  L 40.37 47.01
  C 40.44 47.36 40.63 47.46 40.95 47.29
  L 41.49 47.00
  C 41.98 46.73 42.28 46.87 42.37 47.42
  Z
  M 59.9874 41.6353
  C 59.99 41.49 59.86 41.37 59.7141 41.3686
  L 59.2741 41.3740
  C 59.13 41.38 59.01 41.50 59.0075 41.6473
  L 59.4326 76.4447
  C 59.43 76.59 59.56 76.71 59.7059 76.7114
  L 60.1459 76.7060
  C 60.29 76.70 60.41 76.58 60.4125 76.4327
  L 59.9874 41.6353
  Z
  M 64.50 46.74
  L 66.47 47.06
  C 67.31 47.19 67.49 46.91 67.00 46.22
  C 66.17 45.02 66.01 43.71 66.54 42.30
  C 66.71 41.87 66.56 41.63 66.09 41.60
  L 61.95 41.31
  C 61.61 41.29 61.44 41.45 61.45 41.79
  L 61.62 49.98
  C 61.63 50.45 61.87 50.70 62.35 50.72
  C 63.43 50.76 64.45 51.06 65.40 51.62
  C 65.68 51.78 66.01 51.81 66.30 51.68
  C 66.89 51.43 67.12 51.03 66.99 50.49
  C 66.88 50.02 66.66 49.96 66.32 50.30
  L 65.73 50.89
  C 65.30 51.33 64.99 51.25 64.81 50.66
  C 64.59 49.95 64.76 49.43 65.33 49.09
  C 65.66 48.88 65.96 48.92 66.22 49.21
  C 66.56 49.58 66.88 49.50 67.17 48.99
  C 67.35 48.66 67.14 48.25 66.77 48.21
  C 65.32 48.04 64.39 47.79 64.00 47.44
  C 63.30 46.81 63.47 46.57 64.50 46.74
  Z
  M 40.46 69.91
  C 40.46 65.25 36.68 61.47 32.02 61.47
  C 27.36 61.47 23.58 65.25 23.58 69.91
  C 23.58 74.57 27.36 78.35 32.02 78.35
  C 36.68 78.35 40.46 74.57 40.46 69.91
  Z
  M 81.8216 72.0500
  C 82.91 67.80 80.17 63.42 75.7036 62.2863
  C 71.24 61.15 66.74 63.68 65.6584 67.9300
  C 64.57 72.18 67.31 76.56 71.7764 77.6937
  C 76.24 78.83 80.74 76.30 81.8216 72.0500
  Z
  M 57.29 69.20
  C 55.18 68.65 53.06 68.61 50.92 69.10
  C 50.63 69.17 50.58 69.32 50.79 69.54
  C 52.86 71.81 55.10 72.10 57.50 70.41
  C 57.97 70.08 57.84 69.35 57.29 69.20
  Z
  M 61.3861 79.3775
  C 61.35 78.74 60.80 78.26 60.1699 78.2977
  L 60.0701 78.3036
  C 59.44 78.34 58.95 78.89 58.9903 79.5198
  L 59.5739 89.3425
  C 59.61 89.98 60.16 90.46 60.7901 90.4223
  L 60.8899 90.4164
  C 61.52 90.38 62.01 89.83 61.9697 89.2002
  L 61.3861 79.3775
  Z
  M 56.55 96.18
  L 57.25 95.07
  C 57.48 94.71 57.39 94.46 56.98 94.33
  C 56.09 94.05 55.80 93.50 56.11 92.69
  C 56.24 92.34 56.47 92.07 56.79 91.88
  C 58.82 90.63 57.93 86.19 57.43 83.38
  C 57.37 83.07 57.19 82.88 56.88 82.80
  C 55.59 82.47 54.31 82.33 53.02 82.36
  C 40.45 82.66 30.18 87.31 22.21 96.30
  C 19.16 99.74 17.92 104.57 16.37 108.92
  C 16.24 109.28 16.37 109.46 16.76 109.47
  L 22.94 109.57
  C 23.33 109.58 23.43 109.41 23.24 109.06
  L 22.62 107.98
  C 22.47 107.71 22.42 107.42 22.49 107.12
  C 24.04 99.90 31.37 95.64 36.74 102.78
  C 37.65 103.98 38.09 105.22 38.06 106.51
  C 38.05 106.88 37.89 107.15 37.56 107.33
  C 34.05 109.25 30.54 105.15 26.04 109.06
  C 25.61 109.44 25.68 109.63 26.25 109.63
  L 69.03 109.76
  C 69.68 109.76 69.74 109.56 69.23 109.17
  C 66.54 107.12 64.44 104.83 62.94 102.32
  C 62.73 101.96 62.45 101.77 62.12 101.75
  C 61.57 101.72 61.40 101.96 61.61 102.47
  L 63.22 106.27
  C 63.35 106.59 63.32 106.89 63.12 107.17
  C 61.71 109.13 59.21 107.69 57.27 106.62
  C 56.96 106.45 56.64 106.40 56.30 106.47
  C 54.21 106.93 52.14 106.90 50.09 106.38
  C 49.72 106.29 49.37 106.31 49.02 106.45
  L 45.92 107.73
  C 45.56 107.88 45.24 107.82 44.96 107.55
  C 43.25 105.89 44.83 103.98 45.65 102.47
  C 45.82 102.16 45.83 101.84 45.69 101.52
  C 43.62 96.93 43.68 92.73 45.88 88.94
  C 46.80 87.35 48.13 87.08 49.86 88.13
  C 50.15 88.30 50.28 88.56 50.27 88.90
  L 49.92 97.48
  C 49.90 98.05 50.16 98.26 50.71 98.12
  C 52.80 97.59 54.73 97.93 56.49 99.12
  C 56.72 99.28 56.98 99.34 57.27 99.31
  C 57.83 99.24 57.93 98.94 57.56 98.41
  C 57.37 98.14 57.15 97.91 56.88 97.71
  C 56.71 97.59 56.58 97.43 56.49 97.22
  C 56.32 96.86 56.34 96.51 56.55 96.18
  Z
  M 63.75 83.50
  C 63.53 83.43 63.31 83.61 63.32 83.84
  L 63.67 88.24
  C 63.69 88.47 63.93 88.61 64.14 88.51
  L 69.59 85.87
  C 69.86 85.74 69.83 85.34 69.54 85.26
  L 63.75 83.50
  Z
  M 54.74 102.57
  C 47.66 103.07 47.69 93.84 49.00 89.50
  C 49.12 89.11 48.69 88.79 48.35 89.00
  C 43.97 91.66 46.10 102.91 50.70 104.85
  C 54.30 106.36 61.00 104.11 60.96 99.48
  C 60.95 98.77 60.01 98.52 59.66 99.14
  C 58.45 101.27 56.81 102.42 54.74 102.57
  Z
  M 62.32 92.70
  C 61.55 91.85 60.65 91.61 59.63 92.00
  C 58.91 92.27 58.92 92.51 59.67 92.71
  L 61.95 93.32
  C 62.31 93.42 62.57 92.98 62.32 92.70
  Z
  M 61.2281 94.5777
  C 61.25 94.30 60.87 94.04 60.3938 94.0111
  C 59.91 93.98 59.51 94.18 59.4919 94.4623
  C 59.47 94.74 59.85 95.00 60.3262 95.0289
  C 60.81 95.06 61.21 94.86 61.2281 94.5777
  Z
  M 60.71 96.11
  C 60.56 96.00 60.41 95.91 60.24 95.83
  C 59.61 95.54 59.45 95.70 59.77 96.32
  L 60.37 97.46
  C 60.67 98.05 61.00 98.06 61.37 97.51
  L 61.83 96.81
  C 61.90 96.70 61.88 96.63 61.75 96.58
  C 61.64 96.54 61.52 96.50 61.40 96.47
  C 61.15 96.39 60.92 96.27 60.71 96.11
  Z"
/>
<path fill="#f7f7f7" d="
  M 104.12 46.97
  C 104.26 47.01 104.39 47.02 104.51 47.00
  C 104.74 46.95 104.86 46.82 104.88 46.59
  C 105.89 35.78 103.16 26.27 96.71 18.06
  C 88.66 7.82 73.47 11.84 60.87 10.63
  C 60.55 10.60 60.41 10.43 60.44 10.10
  C 60.59 8.67 60.75 5.41 58.74 5.67
  C 58.37 5.72 58.13 5.92 58.02 6.27
  L 56.85 9.90
  C 56.62 10.61 55.93 11.08 55.19 11.02
  C 46.21 10.31 33.92 9.55 25.68 13.32
  C 14.47 18.44 9.00 27.72 9.27 41.16
  C 9.28 41.55 9.22 41.92 9.07 42.28
  L 7.25 46.89
  C 7.04 47.42 7.22 47.70 7.79 47.72
  L 8.91 47.76
  C 9.32 47.77 9.56 47.57 9.63 47.16
  C 10.77 39.81 19.87 38.96 25.42 41.06
  C 25.82 41.21 25.92 41.48 25.72 41.85
  C 24.23 44.65 24.17 47.52 25.54 50.45
  C 25.72 50.83 25.61 51.08 25.20 51.20
  L 23.47 51.68
  C 23.14 51.77 22.99 51.99 23.00 52.32
  L 23.03 52.81
  C 23.06 53.42 23.35 53.59 23.89 53.31
  L 25.45 52.52
  C 25.92 52.28 26.18 52.42 26.22 52.95
  L 26.26 53.43
  C 26.29 53.88 26.09 54.09 25.64 54.08
  C 24.47 54.04 23.54 54.48 22.83 55.39
  C 22.16 56.25 22.34 56.50 23.36 56.13
  L 26.17 55.13
  C 26.50 55.01 26.80 55.38 26.62 55.68
  C 24.93 58.48 22.24 60.14 20.74 62.58
  C 16.83 68.97 14.02 76.96 11.79 84.09
  C 9.86 90.30 6.62 98.08 5.18 105.44
  C 5.10 105.83 4.57 105.89 4.41 105.53
  C 3.56 103.58 2.76 101.84 2.76 99.64
  C 2.75 71.57 2.75 43.49 2.74 15.42
  C 2.74 3.67 8.40 3.03 18.32 3.01
  C 45.46 2.96 72.61 2.95 99.77 3.00
  C 105.17 3.01 109.23 6.93 109.23 12.26
  C 109.26 41.15 109.26 70.04 109.24 98.94
  C 109.23 104.26 105.92 110.10 99.83 109.54
  C 99.50 109.51 99.31 109.32 99.27 108.99
  C 97.34 91.06 91.78 74.37 82.61 58.90
  C 82.06 57.97 81.30 57.24 80.34 56.73
  C 80.13 56.63 80.11 56.50 80.28 56.34
  C 80.35 56.28 80.41 56.22 80.47 56.16
  C 80.49 56.14 80.51 56.13 80.54 56.13
  L 82.44 56.28
  C 83.36 56.35 83.49 56.07 82.82 55.43
  C 82.23 54.87 81.53 54.55 80.71 54.47
  C 80.36 54.44 80.24 54.25 80.35 53.92
  C 81.34 50.91 83.14 48.39 82.28 45.13
  C 82.14 44.59 82.42 44.02 82.95 43.81
  C 86.78 42.27 90.73 41.48 94.80 41.45
  C 97.58 41.43 99.87 42.59 102.39 43.70
  C 102.72 43.85 102.93 44.09 103.03 44.44
  L 103.56 46.38
  C 103.64 46.68 103.83 46.88 104.12 46.97
  Z"
/>
<path fill="#f7f7f7" d="
  M 58.21 9.91
  L 58.42 8.79
  C 58.53 8.26 58.73 8.22 59.02 8.67
  C 59.53 9.44 59.44 9.99 58.74 10.32
  C 58.29 10.53 58.12 10.40 58.21 9.91
  Z"
/>
<path fill="#f7f7f7" d="
  M 43.33 12.14
  C 43.81 12.17 43.87 12.35 43.51 12.68
  C 34.66 20.45 30.92 30.30 32.29 42.25
  C 32.33 42.62 32.19 42.70 31.87 42.51
  C 25.26 38.35 18.67 36.47 11.61 40.73
  C 11.32 40.90 11.16 40.82 11.14 40.48
  C 9.74 21.36 25.64 10.79 43.33 12.14
  Z"
/>
<path fill="#f7f7f7" d="
  M 77.21 45.09
  C 72.28 42.32 68.16 40.34 62.64 39.58
  C 52.55 38.19 43.09 40.20 34.24 45.61
  C 33.95 45.79 33.78 45.71 33.75 45.36
  C 33.43 41.75 33.43 38.21 33.76 34.76
  C 34.59 26.07 40.44 12.12 51.03 12.26
  C 60.27 12.38 68.33 11.10 73.59 20.62
  C 77.81 28.26 79.34 36.26 78.19 44.61
  C 78.10 45.24 77.77 45.40 77.21 45.09
  Z"
/>
<path fill="#f7f7f7" d="
  M 68.83 12.42
  C 72.56 12.43 77.21 12.62 82.76 12.99
  C 96.90 13.93 103.37 29.47 103.73 41.63
  C 103.74 42.16 103.17 42.50 102.71 42.24
  C 96.35 38.61 85.32 39.43 80.48 44.05
  C 80.27 44.25 79.94 44.08 79.96 43.80
  C 80.93 32.28 77.90 20.54 68.60 13.06
  C 68.06 12.63 68.14 12.41 68.83 12.42
  Z"
/>
<path fill="#f7f7f7" d="
  M 41.49 47.00
  L 40.95 47.29
  C 40.63 47.46 40.44 47.36 40.37 47.01
  L 39.94 44.85
  C 39.87 44.48 40.01 44.24 40.36 44.12
  C 45.80 42.31 50.73 40.14 56.82 40.91
  C 57.24 40.96 57.45 41.20 57.46 41.63
  L 57.58 49.29
  C 57.59 49.68 57.40 49.86 57.01 49.81
  C 51.16 49.20 45.49 49.97 39.99 52.12
  C 38.82 52.57 38.69 52.37 39.60 51.51
  C 40.35 50.80 41.23 50.36 42.24 50.20
  C 42.63 50.14 42.80 49.91 42.73 49.52
  L 42.37 47.42
  C 42.28 46.87 41.98 46.73 41.49 47.00
  Z"
/>
<rect fill="#f7f7f7" x="-0.49" y="-17.67" transform="translate(59.71,59.04) rotate(-0.7)" width="0.98" height="35.34" rx="0.27"/>
<path fill="#f7f7f7" d="
  M 64.00 47.44
  C 64.39 47.79 65.32 48.04 66.77 48.21
  C 67.14 48.25 67.35 48.66 67.17 48.99
  C 66.88 49.50 66.56 49.58 66.22 49.21
  C 65.96 48.92 65.66 48.88 65.33 49.09
  C 64.76 49.43 64.59 49.95 64.81 50.66
  C 64.99 51.25 65.30 51.33 65.73 50.89
  L 66.32 50.30
  C 66.66 49.96 66.88 50.02 66.99 50.49
  C 67.12 51.03 66.89 51.43 66.30 51.68
  C 66.01 51.81 65.68 51.78 65.40 51.62
  C 64.45 51.06 63.43 50.76 62.35 50.72
  C 61.87 50.70 61.63 50.45 61.62 49.98
  L 61.45 41.79
  C 61.44 41.45 61.61 41.29 61.95 41.31
  L 66.09 41.60
  C 66.56 41.63 66.71 41.87 66.54 42.30
  C 66.01 43.71 66.17 45.02 67.00 46.22
  C 67.49 46.91 67.31 47.19 66.47 47.06
  L 64.50 46.74
  C 63.47 46.57 63.30 46.81 64.00 47.44
  Z"
/>
<path fill="#f7f7f7" d="
  M 40.46 69.91
  C 40.46 74.57 36.68 78.35 32.02 78.35
  C 27.36 78.35 23.58 74.57 23.58 69.91
  C 23.58 65.25 27.36 61.47 32.02 61.47
  C 36.68 61.47 40.46 65.25 40.46 69.91
  Z
  M 35.7601 70.6534
  C 36.33 69.16 35.44 67.43 33.7798 66.7990
  C 32.12 66.17 30.31 66.87 29.7399 68.3666
  C 29.17 69.86 30.06 71.59 31.7202 72.2210
  C 33.38 72.85 35.19 72.15 35.7601 70.6534
  Z"
/>
<path fill="#f7f7f7" d="
  M 81.8216 72.0500
  C 80.74 76.30 76.24 78.83 71.7764 77.6937
  C 67.31 76.56 64.57 72.18 65.6584 67.9300
  C 66.74 63.68 71.24 61.15 75.7036 62.2863
  C 80.17 63.42 82.91 67.80 81.8216 72.0500
  Z
  M 77.00 69.83
  C 77.00 68.19 75.67 66.86 74.03 66.86
  C 72.39 66.86 71.06 68.19 71.06 69.83
  C 71.06 71.47 72.39 72.80 74.03 72.80
  C 75.67 72.80 77.00 71.47 77.00 69.83
  Z"
/>
<ellipse fill="#282728" cx="0.00" cy="0.00" transform="translate(32.75,69.51) rotate(20.8)" rx="3.22" ry="2.90"/>
<circle fill="#282728" cx="74.03" cy="69.83" r="2.97"/>
<path fill="#f7f7f7" d="
  M 57.29 69.20
  C 57.84 69.35 57.97 70.08 57.50 70.41
  C 55.10 72.10 52.86 71.81 50.79 69.54
  C 50.58 69.32 50.63 69.17 50.92 69.10
  C 53.06 68.61 55.18 68.65 57.29 69.20
  Z"
/>
<rect fill="#f7f7f7" x="-1.20" y="-6.07" transform="translate(60.48,84.36) rotate(-3.4)" width="2.40" height="12.14" rx="1.15"/>
<path fill="#f7f7f7" d="
  M 56.49 97.22
  C 56.58 97.43 56.71 97.59 56.88 97.71
  C 57.15 97.91 57.37 98.14 57.56 98.41
  C 57.93 98.94 57.83 99.24 57.27 99.31
  C 56.98 99.34 56.72 99.28 56.49 99.12
  C 54.73 97.93 52.80 97.59 50.71 98.12
  C 50.16 98.26 49.90 98.05 49.92 97.48
  L 50.27 88.90
  C 50.28 88.56 50.15 88.30 49.86 88.13
  C 48.13 87.08 46.80 87.35 45.88 88.94
  C 43.68 92.73 43.62 96.93 45.69 101.52
  C 45.83 101.84 45.82 102.16 45.65 102.47
  C 44.83 103.98 43.25 105.89 44.96 107.55
  C 45.24 107.82 45.56 107.88 45.92 107.73
  L 49.02 106.45
  C 49.37 106.31 49.72 106.29 50.09 106.38
  C 52.14 106.90 54.21 106.93 56.30 106.47
  C 56.64 106.40 56.96 106.45 57.27 106.62
  C 59.21 107.69 61.71 109.13 63.12 107.17
  C 63.32 106.89 63.35 106.59 63.22 106.27
  L 61.61 102.47
  C 61.40 101.96 61.57 101.72 62.12 101.75
  C 62.45 101.77 62.73 101.96 62.94 102.32
  C 64.44 104.83 66.54 107.12 69.23 109.17
  C 69.74 109.56 69.68 109.76 69.03 109.76
  L 26.25 109.63
  C 25.68 109.63 25.61 109.44 26.04 109.06
  C 30.54 105.15 34.05 109.25 37.56 107.33
  C 37.89 107.15 38.05 106.88 38.06 106.51
  C 38.09 105.22 37.65 103.98 36.74 102.78
  C 31.37 95.64 24.04 99.90 22.49 107.12
  C 22.42 107.42 22.47 107.71 22.62 107.98
  L 23.24 109.06
  C 23.43 109.41 23.33 109.58 22.94 109.57
  L 16.76 109.47
  C 16.37 109.46 16.24 109.28 16.37 108.92
  C 17.92 104.57 19.16 99.74 22.21 96.30
  C 30.18 87.31 40.45 82.66 53.02 82.36
  C 54.31 82.33 55.59 82.47 56.88 82.80
  C 57.19 82.88 57.37 83.07 57.43 83.38
  C 57.93 86.19 58.82 90.63 56.79 91.88
  C 56.47 92.07 56.24 92.34 56.11 92.69
  C 55.80 93.50 56.09 94.05 56.98 94.33
  C 57.39 94.46 57.48 94.71 57.25 95.07
  L 56.55 96.18
  C 56.34 96.51 56.32 96.86 56.49 97.22
  Z"
/>
<path fill="#f7f7f7" d="
  M 63.75 83.50
  L 69.54 85.26
  C 69.83 85.34 69.86 85.74 69.59 85.87
  L 64.14 88.51
  C 63.93 88.61 63.69 88.47 63.67 88.24
  L 63.32 83.84
  C 63.31 83.61 63.53 83.43 63.75 83.50
  Z"
/>
<path fill="#f7f7f7" d="
  M 54.74 102.57
  C 56.81 102.42 58.45 101.27 59.66 99.14
  C 60.01 98.52 60.95 98.77 60.96 99.48
  C 61.00 104.11 54.30 106.36 50.70 104.85
  C 46.10 102.91 43.97 91.66 48.35 89.00
  C 48.69 88.79 49.12 89.11 49.00 89.50
  C 47.69 93.84 47.66 103.07 54.74 102.57
  Z"
/>
<path fill="#f7f7f7" d="
  M 62.32 92.70
  C 62.57 92.98 62.31 93.42 61.95 93.32
  L 59.67 92.71
  C 58.92 92.51 58.91 92.27 59.63 92.00
  C 60.65 91.61 61.55 91.85 62.32 92.70
  Z"
/>
<ellipse fill="#f7f7f7" cx="0.00" cy="0.00" transform="translate(60.36,94.52) rotate(3.8)" rx="0.87" ry="0.51"/>
<path fill="#f7f7f7" d="
  M 61.40 96.47
  C 61.52 96.50 61.64 96.54 61.75 96.58
  C 61.88 96.63 61.90 96.70 61.83 96.81
  L 61.37 97.51
  C 61.00 98.06 60.67 98.05 60.37 97.46
  L 59.77 96.32
  C 59.45 95.70 59.61 95.54 60.24 95.83
  C 60.41 95.91 60.56 96.00 60.71 96.11
  C 60.92 96.27 61.15 96.39 61.40 96.47
  Z"
/>
</svg>
