<?xml version="1.0" encoding="UTF-8" standalone="no"?>
<!DOCTYPE svg PUBLIC "-//W3C//DTD SVG 1.1//EN" "http://www.w3.org/Graphics/SVG/1.1/DTD/svg11.dtd">
<svg xmlns="http://www.w3.org/2000/svg" version="1.1" viewBox="0 0 112 102">
<g stroke-width="2.00" fill="none" stroke-linecap="butt">
<path stroke="#8d8d8d" vector-effect="non-scaling-stroke" d="
  M 55.45 34.92
  L 58.78 14.44
  C 58.90 13.72 58.42 13.05 57.71 12.92
  L 56.36 12.68
  C 55.97 12.61 55.75 12.77 55.68 13.16
  C 55.00 17.16 53.91 29.63 51.05 32.04
  C 50.58 32.43 49.87 32.17 49.77 31.56
  C 49.12 27.47 48.69 23.36 48.48 19.25
  C 48.38 17.30 47.26 16.59 45.13 17.14
  C 44.93 17.19 44.84 17.31 44.85 17.52
  L 45.74 32.03
  C 45.77 32.46 45.57 32.72 45.16 32.81
  C 43.79 33.12 42.60 31.99 42.30 30.59
  C 41.40 26.45 41.72 21.40 37.15 19.62
  C 36.38 19.32 35.64 20.10 35.97 20.85
  C 36.56 22.22 37.52 23.32 37.71 24.83
  C 38.12 28.16 38.62 31.48 39.19 34.79
  C 39.25 35.17 39.09 35.38 38.71 35.42
  C 35.67 35.71 34.71 28.29 33.58 26.19
  C 32.93 24.98 32.27 23.79 31.60 22.61
  C 31.44 22.34 31.21 22.16 30.90 22.08
  C 29.90 21.83 28.94 21.90 28.01 22.31
  C 27.53 22.52 27.45 22.84 27.77 23.26
  C 30.87 27.29 30.98 30.88 32.52 35.19
  C 32.70 35.68 32.41 36.21 31.91 36.33
  L 27.29 37.51
  C 26.99 37.58 26.73 37.52 26.50 37.32
  C 23.47 34.65 20.98 31.55 19.01 28.03
  C 18.10 26.39 16.77 25.85 15.10 26.62
  C 14.76 26.78 14.64 27.05 14.73 27.42
  C 15.96 32.10 20.33 36.42 23.96 39.89
  C 24.21 40.14 24.28 40.42 24.15 40.75
  C 21.07 48.75 13.46 38.50 9.08 41.24
  C 8.13 41.83 8.11 42.45 9.03 43.10
  C 12.21 45.33 15.73 46.53 19.59 46.72
  C 19.95 46.74 20.12 46.93 20.10 47.29
  L 19.96 49.80
  C 19.93 50.16 19.75 50.29 19.40 50.20
  C 17.60 49.71 15.79 49.72 13.97 50.21
  C 13.60 50.31 13.22 50.33 12.84 50.28
  L 7.36 49.44
  C 6.99 49.38 6.78 49.54 6.73 49.91
  C 5.87 56.25 16.94 52.36 19.53 52.57
  C 19.96 52.60 20.26 52.82 20.42 53.22
  L 21.75 56.54
  C 21.89 56.89 21.78 57.14 21.43 57.27
  L 9.01 62.01
  C 8.63 62.16 8.45 62.43 8.48 62.83
  C 8.53 63.88 8.96 64.73 9.77 65.40
  C 10.05 65.63 10.36 65.68 10.70 65.57
  C 14.43 64.29 18.03 62.72 21.50 60.86
  C 23.13 59.98 24.62 60.45 25.78 61.70
  C 26.09 62.03 26.06 62.34 25.70 62.61
  C 22.05 65.38 18.10 67.63 13.84 69.35
  C 13.37 69.54 13.16 70.08 13.37 70.53
  C 16.42 77.24 28.47 59.55 32.84 65.47
  C 33.03 65.73 33.00 65.96 32.75 66.17
  C 30.05 68.43 26.31 74.10 23.28 74.83
  C 22.55 75.00 22.29 75.45 22.51 76.18
  C 22.82 77.23 23.50 77.86 24.57 78.09
  C 24.98 78.18 25.33 78.07 25.62 77.76
  L 35.34 67.46
  C 35.56 67.22 35.83 67.14 36.15 67.23
  L 40.99 68.60
  C 41.31 68.69 41.38 68.87 41.20 69.16
  C 39.44 71.98 36.06 78.35 32.76 79.12
  C 32.41 79.20 32.17 79.40 32.03 79.72
  C 31.55 80.77 31.86 81.58 32.96 82.15
  C 33.99 82.68 35.24 82.43 36.00 81.56
  C 39.05 78.03 41.68 74.21 43.91 70.12
  C 44.25 69.49 44.82 69.34 45.61 69.65
  C 46.14 69.85 46.33 70.22 46.20 70.77
  C 45.39 74.11 42.16 82.87 42.82 85.91
  C 42.89 86.23 43.05 86.50 43.29 86.71
  C 46.45 89.47 48.39 76.64 48.71 75.09
  C 48.78 74.73 48.98 74.46 49.30 74.28
  C 50.63 73.54 51.60 72.47 52.21 71.07
  C 52.45 70.52 52.74 70.49 53.09 70.97
  C 55.13 73.82 53.69 88.46 53.45 92.51
  C 53.34 94.19 54.24 94.84 56.13 94.45
  C 56.41 94.39 56.61 94.23 56.74 93.97
  C 58.97 89.51 56.76 76.21 59.43 73.50
  C 59.74 73.19 60.02 73.22 60.27 73.57
  C 64.04 78.86 62.28 87.38 66.19 92.05
  C 66.40 92.30 66.68 92.45 67.01 92.49
  C 70.43 92.87 66.72 85.85 66.46 84.45
  C 65.81 80.95 64.91 77.49 63.76 74.07
  C 63.59 73.58 63.76 73.39 64.27 73.48
  C 65.81 73.75 66.83 73.20 67.32 71.81
  C 67.55 71.16 68.49 71.22 68.63 71.89
  L 69.34 75.25
  C 69.41 75.58 69.55 75.89 69.74 76.18
  C 72.08 79.61 73.73 83.34 74.69 87.37
  C 74.77 87.70 74.97 87.92 75.28 88.04
  C 76.49 88.50 77.50 88.24 78.29 87.26
  C 78.54 86.96 78.63 86.62 78.54 86.23
  C 77.44 81.39 74.05 76.12 71.71 71.69
  C 71.54 71.38 71.63 71.19 71.98 71.12
  L 73.90 70.74
  C 74.24 70.67 74.54 70.75 74.81 70.97
  C 78.42 74.02 81.23 77.68 83.22 81.95
  C 83.42 82.38 83.73 82.48 84.15 82.27
  L 85.51 81.60
  C 85.92 81.40 86.05 81.09 85.91 80.66
  C 84.60 76.50 82.35 72.96 79.17 70.04
  C 78.81 69.71 78.82 69.39 79.19 69.08
  L 81.85 66.85
  C 82.18 66.58 82.53 66.54 82.92 66.73
  C 86.41 68.53 89.49 70.88 92.17 73.78
  C 93.43 75.13 94.30 74.92 94.79 73.14
  C 95.68 69.87 86.69 64.57 84.29 63.17
  C 83.88 62.93 83.84 62.64 84.17 62.29
  L 85.58 60.77
  C 85.82 60.52 86.11 60.42 86.44 60.49
  L 97.51 62.63
  C 97.89 62.70 98.17 62.57 98.35 62.23
  C 100.34 58.49 88.07 57.47 86.22 57.05
  C 85.91 56.98 85.75 56.78 85.75 56.45
  L 85.75 51.59
  C 85.75 51.18 85.96 50.95 86.37 50.91
  L 98.94 49.71
  C 99.28 49.68 99.49 49.50 99.57 49.17
  L 99.79 48.26
  C 99.97 47.54 99.44 46.84 98.71 46.81
  C 93.92 46.59 89.18 46.76 84.51 47.33
  C 83.23 47.48 82.45 47.00 82.16 45.87
  C 82.02 45.32 82.25 44.74 82.72 44.43
  L 92.99 37.72
  C 93.73 37.23 93.70 36.14 92.94 35.69
  L 91.63 34.92
  C 91.30 34.73 90.98 34.75 90.67 34.98
  C 86.90 37.86 82.56 39.45 79.18 42.68
  C 78.94 42.91 78.66 43.01 78.33 42.96
  C 70.29 41.79 87.81 27.50 89.22 26.47
  C 89.63 26.18 89.61 25.91 89.17 25.67
  L 86.47 24.19
  C 86.03 23.95 85.63 24.01 85.28 24.37
  L 70.88 39.11
  C 70.66 39.33 70.47 39.31 70.31 39.05
  C 69.49 37.77 69.55 36.37 70.38 34.98
  C 73.16 30.33 78.39 23.08 78.29 17.60
  C 78.28 17.17 78.06 16.91 77.63 16.83
  L 76.06 16.53
  C 75.74 16.47 75.51 16.59 75.36 16.88
  L 65.28 37.84
  C 65.05 38.33 64.69 38.44 64.22 38.18
  L 62.15 37.04
  C 61.82 36.86 61.74 36.60 61.89 36.26
  C 64.57 30.14 65.64 23.92 67.22 17.41
  C 67.31 17.02 67.18 16.77 66.81 16.64
  L 64.26 15.73
  C 63.85 15.59 63.61 15.73 63.53 16.15
  C 62.00 23.97 61.23 32.95 55.82 35.21
  C 55.52 35.34 55.40 35.24 55.45 34.92"
/>
<path stroke="#8d8d8d" vector-effect="non-scaling-stroke" d="
  M 27.1983 31.2989
  C 28.08 30.97 28.23 29.17 27.5217 27.2811
  C 26.82 25.39 25.53 24.13 24.6417 24.4611
  C 23.76 24.79 23.61 26.59 24.3183 28.4789
  C 25.02 30.37 26.31 31.63 27.1983 31.2989"
/>
<path stroke="#8d8d8d" vector-effect="non-scaling-stroke" d="
  M 48.36 41.88
  C 47.08 37.41 38.70 39.08 35.73 39.46
  C 29.90 40.22 23.75 45.47 24.62 51.89
  C 25.30 56.94 28.10 60.23 33.25 61.36
  C 46.10 64.19 51.53 52.88 48.36 41.88"
/>
<path stroke="#8d8d8d" vector-effect="non-scaling-stroke" d="
  M 78.81 47.19
  C 74.95 44.69 68.22 42.26 64.67 45.18
  C 61.68 47.63 59.08 49.54 58.79 53.60
  C 57.49 71.71 81.17 71.33 81.50 55.31
  C 81.57 52.12 81.95 49.22 78.81 47.19"
/>
<path stroke="#8d8d8d" vector-effect="non-scaling-stroke" d="
  M 43.5022 51.8528
  C 44.62 50.31 44.00 47.96 42.1171 46.6035
  C 40.24 45.24 37.81 45.39 36.6978 46.9272
  C 35.58 48.47 36.20 50.82 38.0829 52.1765
  C 39.96 53.54 42.39 53.39 43.5022 51.8528"
/>
<path stroke="#8d8d8d" vector-effect="non-scaling-stroke" d="
  M 72.8622 53.2216
  C 72.43 51.39 70.14 50.37 67.7436 50.9298
  C 65.35 51.49 63.75 53.43 64.1778 55.2584
  C 64.61 57.09 66.90 58.11 69.2964 57.5502
  C 71.69 56.99 73.29 55.05 72.8622 53.2216"
/>
</g>
<path fill="#f6f6f6" d="
  M 0.00 0.00
  L 112.00 0.00
  L 112.00 102.00
  L 0.00 102.00
  L 0.00 0.00
  Z
  M 55.45 34.92
  L 58.78 14.44
  C 58.90 13.72 58.42 13.05 57.71 12.92
  L 56.36 12.68
  C 55.97 12.61 55.75 12.77 55.68 13.16
  C 55.00 17.16 53.91 29.63 51.05 32.04
  C 50.58 32.43 49.87 32.17 49.77 31.56
  C 49.12 27.47 48.69 23.36 48.48 19.25
  C 48.38 17.30 47.26 16.59 45.13 17.14
  C 44.93 17.19 44.84 17.31 44.85 17.52
  L 45.74 32.03
  C 45.77 32.46 45.57 32.72 45.16 32.81
  C 43.79 33.12 42.60 31.99 42.30 30.59
  C 41.40 26.45 41.72 21.40 37.15 19.62
  C 36.38 19.32 35.64 20.10 35.97 20.85
  C 36.56 22.22 37.52 23.32 37.71 24.83
  C 38.12 28.16 38.62 31.48 39.19 34.79
  C 39.25 35.17 39.09 35.38 38.71 35.42
  C 35.67 35.71 34.71 28.29 33.58 26.19
  C 32.93 24.98 32.27 23.79 31.60 22.61
  C 31.44 22.34 31.21 22.16 30.90 22.08
  C 29.90 21.83 28.94 21.90 28.01 22.31
  C 27.53 22.52 27.45 22.84 27.77 23.26
  C 30.87 27.29 30.98 30.88 32.52 35.19
  C 32.70 35.68 32.41 36.21 31.91 36.33
  L 27.29 37.51
  C 26.99 37.58 26.73 37.52 26.50 37.32
  C 23.47 34.65 20.98 31.55 19.01 28.03
  C 18.10 26.39 16.77 25.85 15.10 26.62
  C 14.76 26.78 14.64 27.05 14.73 27.42
  C 15.96 32.10 20.33 36.42 23.96 39.89
  C 24.21 40.14 24.28 40.42 24.15 40.75
  C 21.07 48.75 13.46 38.50 9.08 41.24
  C 8.13 41.83 8.11 42.45 9.03 43.10
  C 12.21 45.33 15.73 46.53 19.59 46.72
  C 19.95 46.74 20.12 46.93 20.10 47.29
  L 19.96 49.80
  C 19.93 50.16 19.75 50.29 19.40 50.20
  C 17.60 49.71 15.79 49.72 13.97 50.21
  C 13.60 50.31 13.22 50.33 12.84 50.28
  L 7.36 49.44
  C 6.99 49.38 6.78 49.54 6.73 49.91
  C 5.87 56.25 16.94 52.36 19.53 52.57
  C 19.96 52.60 20.26 52.82 20.42 53.22
  L 21.75 56.54
  C 21.89 56.89 21.78 57.14 21.43 57.27
  L 9.01 62.01
  C 8.63 62.16 8.45 62.43 8.48 62.83
  C 8.53 63.88 8.96 64.73 9.77 65.40
  C 10.05 65.63 10.36 65.68 10.70 65.57
  C 14.43 64.29 18.03 62.72 21.50 60.86
  C 23.13 59.98 24.62 60.45 25.78 61.70
  C 26.09 62.03 26.06 62.34 25.70 62.61
  C 22.05 65.38 18.10 67.63 13.84 69.35
  C 13.37 69.54 13.16 70.08 13.37 70.53
  C 16.42 77.24 28.47 59.55 32.84 65.47
  C 33.03 65.73 33.00 65.96 32.75 66.17
  C 30.05 68.43 26.31 74.10 23.28 74.83
  C 22.55 75.00 22.29 75.45 22.51 76.18
  C 22.82 77.23 23.50 77.86 24.57 78.09
  C 24.98 78.18 25.33 78.07 25.62 77.76
  L 35.34 67.46
  C 35.56 67.22 35.83 67.14 36.15 67.23
  L 40.99 68.60
  C 41.31 68.69 41.38 68.87 41.20 69.16
  C 39.44 71.98 36.06 78.35 32.76 79.12
  C 32.41 79.20 32.17 79.40 32.03 79.72
  C 31.55 80.77 31.86 81.58 32.96 82.15
  C 33.99 82.68 35.24 82.43 36.00 81.56
  C 39.05 78.03 41.68 74.21 43.91 70.12
  C 44.25 69.49 44.82 69.34 45.61 69.65
  C 46.14 69.85 46.33 70.22 46.20 70.77
  C 45.39 74.11 42.16 82.87 42.82 85.91
  C 42.89 86.23 43.05 86.50 43.29 86.71
  C 46.45 89.47 48.39 76.64 48.71 75.09
  C 48.78 74.73 48.98 74.46 49.30 74.28
  C 50.63 73.54 51.60 72.47 52.21 71.07
  C 52.45 70.52 52.74 70.49 53.09 70.97
  C 55.13 73.82 53.69 88.46 53.45 92.51
  C 53.34 94.19 54.24 94.84 56.13 94.45
  C 56.41 94.39 56.61 94.23 56.74 93.97
  C 58.97 89.51 56.76 76.21 59.43 73.50
  C 59.74 73.19 60.02 73.22 60.27 73.57
  C 64.04 78.86 62.28 87.38 66.19 92.05
  C 66.40 92.30 66.68 92.45 67.01 92.49
  C 70.43 92.87 66.72 85.85 66.46 84.45
  C 65.81 80.95 64.91 77.49 63.76 74.07
  C 63.59 73.58 63.76 73.39 64.27 73.48
  C 65.81 73.75 66.83 73.20 67.32 71.81
  C 67.55 71.16 68.49 71.22 68.63 71.89
  L 69.34 75.25
  C 69.41 75.58 69.55 75.89 69.74 76.18
  C 72.08 79.61 73.73 83.34 74.69 87.37
  C 74.77 87.70 74.97 87.92 75.28 88.04
  C 76.49 88.50 77.50 88.24 78.29 87.26
  C 78.54 86.96 78.63 86.62 78.54 86.23
  C 77.44 81.39 74.05 76.12 71.71 71.69
  C 71.54 71.38 71.63 71.19 71.98 71.12
  L 73.90 70.74
  C 74.24 70.67 74.54 70.75 74.81 70.97
  C 78.42 74.02 81.23 77.68 83.22 81.95
  C 83.42 82.38 83.73 82.48 84.15 82.27
  L 85.51 81.60
  C 85.92 81.40 86.05 81.09 85.91 80.66
  C 84.60 76.50 82.35 72.96 79.17 70.04
  C 78.81 69.71 78.82 69.39 79.19 69.08
  L 81.85 66.85
  C 82.18 66.58 82.53 66.54 82.92 66.73
  C 86.41 68.53 89.49 70.88 92.17 73.78
  C 93.43 75.13 94.30 74.92 94.79 73.14
  C 95.68 69.87 86.69 64.57 84.29 63.17
  C 83.88 62.93 83.84 62.64 84.17 62.29
  L 85.58 60.77
  C 85.82 60.52 86.11 60.42 86.44 60.49
  L 97.51 62.63
  C 97.89 62.70 98.17 62.57 98.35 62.23
  C 100.34 58.49 88.07 57.47 86.22 57.05
  C 85.91 56.98 85.75 56.78 85.75 56.45
  L 85.75 51.59
  C 85.75 51.18 85.96 50.95 86.37 50.91
  L 98.94 49.71
  C 99.28 49.68 99.49 49.50 99.57 49.17
  L 99.79 48.26
  C 99.97 47.54 99.44 46.84 98.71 46.81
  C 93.92 46.59 89.18 46.76 84.51 47.33
  C 83.23 47.48 82.45 47.00 82.16 45.87
  C 82.02 45.32 82.25 44.74 82.72 44.43
  L 92.99 37.72
  C 93.73 37.23 93.70 36.14 92.94 35.69
  L 91.63 34.92
  C 91.30 34.73 90.98 34.75 90.67 34.98
  C 86.90 37.86 82.56 39.45 79.18 42.68
  C 78.94 42.91 78.66 43.01 78.33 42.96
  C 70.29 41.79 87.81 27.50 89.22 26.47
  C 89.63 26.18 89.61 25.91 89.17 25.67
  L 86.47 24.19
  C 86.03 23.95 85.63 24.01 85.28 24.37
  L 70.88 39.11
  C 70.66 39.33 70.47 39.31 70.31 39.05
  C 69.49 37.77 69.55 36.37 70.38 34.98
  C 73.16 30.33 78.39 23.08 78.29 17.60
  C 78.28 17.17 78.06 16.91 77.63 16.83
  L 76.06 16.53
  C 75.74 16.47 75.51 16.59 75.36 16.88
  L 65.28 37.84
  C 65.05 38.33 64.69 38.44 64.22 38.18
  L 62.15 37.04
  C 61.82 36.86 61.74 36.60 61.89 36.26
  C 64.57 30.14 65.64 23.92 67.22 17.41
  C 67.31 17.02 67.18 16.77 66.81 16.64
  L 64.26 15.73
  C 63.85 15.59 63.61 15.73 63.53 16.15
  C 62.00 23.97 61.23 32.95 55.82 35.21
  C 55.52 35.34 55.40 35.24 55.45 34.92
  Z
  M 27.1983 31.2989
  C 28.08 30.97 28.23 29.17 27.5217 27.2811
  C 26.82 25.39 25.53 24.13 24.6417 24.4611
  C 23.76 24.79 23.61 26.59 24.3183 28.4789
  C 25.02 30.37 26.31 31.63 27.1983 31.2989
  Z"
/>
<path fill="#232323" d="
  M 55.82 35.21
  C 61.23 32.95 62.00 23.97 63.53 16.15
  C 63.61 15.73 63.85 15.59 64.26 15.73
  L 66.81 16.64
  C 67.18 16.77 67.31 17.02 67.22 17.41
  C 65.64 23.92 64.57 30.14 61.89 36.26
  C 61.74 36.60 61.82 36.86 62.15 37.04
  L 64.22 38.18
  C 64.69 38.44 65.05 38.33 65.28 37.84
  L 75.36 16.88
  C 75.51 16.59 75.74 16.47 76.06 16.53
  L 77.63 16.83
  C 78.06 16.91 78.28 17.17 78.29 17.60
  C 78.39 23.08 73.16 30.33 70.38 34.98
  C 69.55 36.37 69.49 37.77 70.31 39.05
  C 70.47 39.31 70.66 39.33 70.88 39.11
  L 85.28 24.37
  C 85.63 24.01 86.03 23.95 86.47 24.19
  L 89.17 25.67
  C 89.61 25.91 89.63 26.18 89.22 26.47
  C 87.81 27.50 70.29 41.79 78.33 42.96
  C 78.66 43.01 78.94 42.91 79.18 42.68
  C 82.56 39.45 86.90 37.86 90.67 34.98
  C 90.98 34.75 91.30 34.73 91.63 34.92
  L 92.94 35.69
  C 93.70 36.14 93.73 37.23 92.99 37.72
  L 82.72 44.43
  C 82.25 44.74 82.02 45.32 82.16 45.87
  C 82.45 47.00 83.23 47.48 84.51 47.33
  C 89.18 46.76 93.92 46.59 98.71 46.81
  C 99.44 46.84 99.97 47.54 99.79 48.26
  L 99.57 49.17
  C 99.49 49.50 99.28 49.68 98.94 49.71
  L 86.37 50.91
  C 85.96 50.95 85.75 51.18 85.75 51.59
  L 85.75 56.45
  C 85.75 56.78 85.91 56.98 86.22 57.05
  C 88.07 57.47 100.34 58.49 98.35 62.23
  C 98.17 62.57 97.89 62.70 97.51 62.63
  L 86.44 60.49
  C 86.11 60.42 85.82 60.52 85.58 60.77
  L 84.17 62.29
  C 83.84 62.64 83.88 62.93 84.29 63.17
  C 86.69 64.57 95.68 69.87 94.79 73.14
  C 94.30 74.92 93.43 75.13 92.17 73.78
  C 89.49 70.88 86.41 68.53 82.92 66.73
  C 82.53 66.54 82.18 66.58 81.85 66.85
  L 79.19 69.08
  C 78.82 69.39 78.81 69.71 79.17 70.04
  C 82.35 72.96 84.60 76.50 85.91 80.66
  C 86.05 81.09 85.92 81.40 85.51 81.60
  L 84.15 82.27
  C 83.73 82.48 83.42 82.38 83.22 81.95
  C 81.23 77.68 78.42 74.02 74.81 70.97
  C 74.54 70.75 74.24 70.67 73.90 70.74
  L 71.98 71.12
  C 71.63 71.19 71.54 71.38 71.71 71.69
  C 74.05 76.12 77.44 81.39 78.54 86.23
  C 78.63 86.62 78.54 86.96 78.29 87.26
  C 77.50 88.24 76.49 88.50 75.28 88.04
  C 74.97 87.92 74.77 87.70 74.69 87.37
  C 73.73 83.34 72.08 79.61 69.74 76.18
  C 69.55 75.89 69.41 75.58 69.34 75.25
  L 68.63 71.89
  C 68.49 71.22 67.55 71.16 67.32 71.81
  C 66.83 73.20 65.81 73.75 64.27 73.48
  C 63.76 73.39 63.59 73.58 63.76 74.07
  C 64.91 77.49 65.81 80.95 66.46 84.45
  C 66.72 85.85 70.43 92.87 67.01 92.49
  C 66.68 92.45 66.40 92.30 66.19 92.05
  C 62.28 87.38 64.04 78.86 60.27 73.57
  C 60.02 73.22 59.74 73.19 59.43 73.50
  C 56.76 76.21 58.97 89.51 56.74 93.97
  C 56.61 94.23 56.41 94.39 56.13 94.45
  C 54.24 94.84 53.34 94.19 53.45 92.51
  C 53.69 88.46 55.13 73.82 53.09 70.97
  C 52.74 70.49 52.45 70.52 52.21 71.07
  C 51.60 72.47 50.63 73.54 49.30 74.28
  C 48.98 74.46 48.78 74.73 48.71 75.09
  C 48.39 76.64 46.45 89.47 43.29 86.71
  C 43.05 86.50 42.89 86.23 42.82 85.91
  C 42.16 82.87 45.39 74.11 46.20 70.77
  C 46.33 70.22 46.14 69.85 45.61 69.65
  C 44.82 69.34 44.25 69.49 43.91 70.12
  C 41.68 74.21 39.05 78.03 36.00 81.56
  C 35.24 82.43 33.99 82.68 32.96 82.15
  C 31.86 81.58 31.55 80.77 32.03 79.72
  C 32.17 79.40 32.41 79.20 32.76 79.12
  C 36.06 78.35 39.44 71.98 41.20 69.16
  C 41.38 68.87 41.31 68.69 40.99 68.60
  L 36.15 67.23
  C 35.83 67.14 35.56 67.22 35.34 67.46
  L 25.62 77.76
  C 25.33 78.07 24.98 78.18 24.57 78.09
  C 23.50 77.86 22.82 77.23 22.51 76.18
  C 22.29 75.45 22.55 75.00 23.28 74.83
  C 26.31 74.10 30.05 68.43 32.75 66.17
  C 33.00 65.96 33.03 65.73 32.84 65.47
  C 28.47 59.55 16.42 77.24 13.37 70.53
  C 13.16 70.08 13.37 69.54 13.84 69.35
  C 18.10 67.63 22.05 65.38 25.70 62.61
  C 26.06 62.34 26.09 62.03 25.78 61.70
  C 24.62 60.45 23.13 59.98 21.50 60.86
  C 18.03 62.72 14.43 64.29 10.70 65.57
  C 10.36 65.68 10.05 65.63 9.77 65.40
  C 8.96 64.73 8.53 63.88 8.48 62.83
  C 8.45 62.43 8.63 62.16 9.01 62.01
  L 21.43 57.27
  C 21.78 57.14 21.89 56.89 21.75 56.54
  L 20.42 53.22
  C 20.26 52.82 19.96 52.60 19.53 52.57
  C 16.94 52.36 5.87 56.25 6.73 49.91
  C 6.78 49.54 6.99 49.38 7.36 49.44
  L 12.84 50.28
  C 13.22 50.33 13.60 50.31 13.97 50.21
  C 15.79 49.72 17.60 49.71 19.40 50.20
  C 19.75 50.29 19.93 50.16 19.96 49.80
  L 20.10 47.29
  C 20.12 46.93 19.95 46.74 19.59 46.72
  C 15.73 46.53 12.21 45.33 9.03 43.10
  C 8.11 42.45 8.13 41.83 9.08 41.24
  C 13.46 38.50 21.07 48.75 24.15 40.75
  C 24.28 40.42 24.21 40.14 23.96 39.89
  C 20.33 36.42 15.96 32.10 14.73 27.42
  C 14.64 27.05 14.76 26.78 15.10 26.62
  C 16.77 25.85 18.10 26.39 19.01 28.03
  C 20.98 31.55 23.47 34.65 26.50 37.32
  C 26.73 37.52 26.99 37.58 27.29 37.51
  L 31.91 36.33
  C 32.41 36.21 32.70 35.68 32.52 35.19
  C 30.98 30.88 30.87 27.29 27.77 23.26
  C 27.45 22.84 27.53 22.52 28.01 22.31
  C 28.94 21.90 29.90 21.83 30.90 22.08
  C 31.21 22.16 31.44 22.34 31.60 22.61
  C 32.27 23.79 32.93 24.98 33.58 26.19
  C 34.71 28.29 35.67 35.71 38.71 35.42
  C 39.09 35.38 39.25 35.17 39.19 34.79
  C 38.62 31.48 38.12 28.16 37.71 24.83
  C 37.52 23.32 36.56 22.22 35.97 20.85
  C 35.64 20.10 36.38 19.32 37.15 19.62
  C 41.72 21.40 41.40 26.45 42.30 30.59
  C 42.60 31.99 43.79 33.12 45.16 32.81
  C 45.57 32.72 45.77 32.46 45.74 32.03
  L 44.85 17.52
  C 44.84 17.31 44.93 17.19 45.13 17.14
  C 47.26 16.59 48.38 17.30 48.48 19.25
  C 48.69 23.36 49.12 27.47 49.77 31.56
  C 49.87 32.17 50.58 32.43 51.05 32.04
  C 53.91 29.63 55.00 17.16 55.68 13.16
  C 55.75 12.77 55.97 12.61 56.36 12.68
  L 57.71 12.92
  C 58.42 13.05 58.90 13.72 58.78 14.44
  L 55.45 34.92
  C 55.40 35.24 55.52 35.34 55.82 35.21
  Z
  M 48.36 41.88
  C 47.08 37.41 38.70 39.08 35.73 39.46
  C 29.90 40.22 23.75 45.47 24.62 51.89
  C 25.30 56.94 28.10 60.23 33.25 61.36
  C 46.10 64.19 51.53 52.88 48.36 41.88
  Z
  M 78.81 47.19
  C 74.95 44.69 68.22 42.26 64.67 45.18
  C 61.68 47.63 59.08 49.54 58.79 53.60
  C 57.49 71.71 81.17 71.33 81.50 55.31
  C 81.57 52.12 81.95 49.22 78.81 47.19
  Z"
/>
<ellipse fill="#232323" cx="0.00" cy="0.00" transform="translate(25.92,27.88) rotate(69.5)" rx="3.65" ry="1.71"/>
<path fill="#f6f6f6" d="
  M 35.73 39.46
  C 38.70 39.08 47.08 37.41 48.36 41.88
  C 51.53 52.88 46.10 64.19 33.25 61.36
  C 28.10 60.23 25.30 56.94 24.62 51.89
  C 23.75 45.47 29.90 40.22 35.73 39.46
  Z
  M 43.5022 51.8528
  C 44.62 50.31 44.00 47.96 42.1171 46.6035
  C 40.24 45.24 37.81 45.39 36.6978 46.9272
  C 35.58 48.47 36.20 50.82 38.0829 52.1765
  C 39.96 53.54 42.39 53.39 43.5022 51.8528
  Z"
/>
<path fill="#f6f6f6" d="
  M 78.81 47.19
  C 81.95 49.22 81.57 52.12 81.50 55.31
  C 81.17 71.33 57.49 71.71 58.79 53.60
  C 59.08 49.54 61.68 47.63 64.67 45.18
  C 68.22 42.26 74.95 44.69 78.81 47.19
  Z
  M 72.8622 53.2216
  C 72.43 51.39 70.14 50.37 67.7436 50.9298
  C 65.35 51.49 63.75 53.43 64.1778 55.2584
  C 64.61 57.09 66.90 58.11 69.2964 57.5502
  C 71.69 56.99 73.29 55.05 72.8622 53.2216
  Z"
/>
<ellipse fill="#232323" cx="0.00" cy="0.00" transform="translate(40.10,49.39) rotate(35.9)" rx="4.20" ry="3.44"/>
<ellipse fill="#232323" cx="0.00" cy="0.00" transform="translate(68.52,54.24) rotate(-13.2)" rx="4.46" ry="3.40"/>
</svg>
