<?xml version="1.0" encoding="UTF-8" standalone="no"?>
<!DOCTYPE svg PUBLIC "-//W3C//DTD SVG 1.1//EN" "http://www.w3.org/Graphics/SVG/1.1/DTD/svg11.dtd">
<svg xmlns="http://www.w3.org/2000/svg" version="1.1" viewBox="0 0 111 130">
<g stroke-width="2.00" fill="none" stroke-linecap="butt">
<path stroke="#818181" vector-effect="non-scaling-stroke" d="
  M 57.44 14.73
  C 50.69 14.81 42.55 14.00 36.67 15.84
  C 26.87 18.90 21.89 26.10 21.72 37.44
  C 21.69 39.46 20.91 40.84 20.24 42.66
  C 20.08 43.09 20.20 43.42 20.61 43.64
  L 21.37 44.07
  C 21.83 44.32 22.09 44.18 22.14 43.67
  C 22.77 37.99 28.83 37.08 33.30 38.43
  C 33.76 38.57 34.00 39.06 33.84 39.51
  C 33.05 41.64 33.09 43.72 33.97 45.77
  C 34.18 46.26 34.02 46.50 33.49 46.50
  L 32.50 46.50
  C 31.75 46.50 31.60 46.79 32.07 47.38
  C 32.41 47.80 32.53 48.26 32.43 48.76
  C 32.38 49.05 32.44 49.30 32.61 49.53
  C 32.90 49.93 33.17 50.06 33.42 49.93
  C 33.70 49.78 33.94 49.84 34.13 50.09
  C 34.34 50.35 29.98 55.05 29.49 56.15
  C 26.18 63.61 22.95 72.48 19.78 82.75
  C 17.47 90.26 17.68 97.39 20.41 104.15
  C 20.54 104.48 20.52 104.80 20.33 105.11
  L 19.64 106.20
  C 19.43 106.53 19.50 106.78 19.87 106.93
  C 23.83 108.59 27.23 111.01 30.07 114.18
  C 31.12 115.35 32.08 115.91 33.43 116.50
  C 33.80 116.66 33.77 117.19 33.39 117.32
  C 32.66 117.56 32.19 118.03 31.98 118.72
  C 31.83 119.19 32.00 119.37 32.48 119.27
  C 33.39 119.07 34.13 118.61 34.70 117.90
  C 35.32 117.13 35.59 117.24 35.52 118.23
  C 35.49 118.67 35.39 119.09 35.22 119.50
  C 34.79 120.54 35.04 120.69 35.96 119.96
  C 36.85 119.25 37.85 118.83 38.96 118.71
  C 39.56 118.64 39.77 118.90 39.60 119.47
  L 39.23 120.74
  C 39.06 121.31 39.25 121.47 39.78 121.22
  C 40.47 120.90 41.00 120.44 41.37 119.83
  C 41.55 119.53 41.81 119.42 42.16 119.49
  C 52.07 121.51 62.00 121.58 71.97 119.71
  C 73.69 119.39 75.09 117.98 76.84 119.75
  C 77.31 120.23 77.57 120.14 77.62 119.47
  C 77.65 119.06 77.61 118.67 77.48 118.28
  C 77.37 117.94 77.48 117.70 77.81 117.57
  C 79.12 117.03 78.87 118.86 80.40 118.73
  C 80.79 118.70 80.90 118.51 80.73 118.15
  L 80.01 116.67
  C 79.74 116.12 79.90 115.88 80.51 115.96
  C 81.48 116.08 82.11 116.62 82.40 117.59
  C 82.58 118.17 82.88 118.25 83.31 117.82
  L 83.86 117.26
  C 84.20 116.93 84.17 116.63 83.78 116.36
  L 82.68 115.60
  C 82.34 115.37 82.32 115.10 82.61 114.81
  C 98.12 99.19 86.26 67.09 77.20 51.54
  C 77.05 51.27 77.03 50.99 77.16 50.71
  L 77.61 49.74
  C 77.82 49.29 77.67 49.01 77.18 48.92
  L 75.99 48.69
  C 75.56 48.60 75.46 48.37 75.69 47.99
  C 76.92 46.02 77.44 43.89 77.25 41.58
  C 77.22 41.23 77.37 40.97 77.69 40.82
  C 82.38 38.57 87.11 38.46 91.86 40.49
  C 92.21 40.64 92.44 40.91 92.54 41.28
  L 92.86 42.46
  C 92.97 42.89 93.25 43.07 93.68 43.01
  C 94.05 42.96 94.25 42.73 94.28 42.34
  C 95.05 31.51 90.15 15.02 76.75 15.05
  C 71.64 15.06 66.52 15.01 61.38 14.89
  C 60.96 14.88 60.75 14.66 60.75 14.24
  L 60.75 11.94
  C 60.75 11.53 60.55 11.28 60.15 11.19
  L 59.16 10.96
  C 58.61 10.83 58.31 11.05 58.24 11.60
  L 57.92 14.29
  C 57.89 14.58 57.73 14.72 57.44 14.73"
/>
<path stroke="#818181" vector-effect="non-scaling-stroke" d="
  M 38.61 38.93
  C 39.46 29.79 40.06 23.08 47.18 16.45
  C 47.30 16.34 47.23 16.13 47.06 16.11
  C 39.79 15.36 33.59 17.48 28.48 22.48
  C 23.88 26.99 23.48 31.96 22.87 37.77
  C 22.84 38.02 23.10 38.20 23.32 38.09
  C 28.41 35.60 33.31 35.97 38.04 39.20
  C 38.38 39.43 38.57 39.34 38.61 38.93"
/>
<path stroke="#818181" vector-effect="non-scaling-stroke" d="
  M 93.23 38.84
  C 92.67 29.85 88.00 16.41 76.73 16.51
  C 73.58 16.54 70.40 16.43 67.19 16.19
  C 66.62 16.14 66.56 16.30 66.99 16.67
  C 73.80 22.33 75.62 31.25 75.23 39.89
  C 75.21 40.34 75.41 40.48 75.82 40.31
  C 81.90 37.70 86.24 36.27 92.67 39.23
  C 93.07 39.42 93.26 39.29 93.23 38.84"
/>
<path stroke="#818181" vector-effect="non-scaling-stroke" d="
  M 41.04 41.68
  C 51.24 35.76 63.17 35.30 73.33 41.59
  C 73.71 41.82 73.92 41.72 73.95 41.28
  C 74.63 33.41 72.90 21.45 64.75 17.29
  C 61.57 15.67 57.02 16.25 53.31 16.26
  C 42.18 16.30 39.36 33.19 40.50 41.42
  C 40.55 41.77 40.73 41.85 41.04 41.68"
/>
<path stroke="#818181" vector-effect="non-scaling-stroke" d="
  M 60.2591 38.7318
  C 60.25 38.39 59.98 38.13 59.6396 38.1314
  L 59.5996 38.1320
  C 59.26 38.14 58.99 38.41 58.9993 38.7516
  L 59.4209 65.5882
  C 59.43 65.93 59.70 66.19 60.0404 66.1886
  L 60.0804 66.1880
  C 60.42 66.18 60.69 65.91 60.6807 65.5684
  L 60.2591 38.7318"
/>
<path stroke="#818181" vector-effect="non-scaling-stroke" d="
  M 47.23 44.22
  L 47.23 45.26
  C 47.23 45.53 47.37 45.66 47.64 45.63
  L 57.74 44.79
  C 58.11 44.76 58.29 44.55 58.28 44.18
  L 58.15 39.07
  C 58.14 38.66 57.93 38.45 57.52 38.45
  C 53.21 38.48 49.10 39.40 45.19 41.21
  C 44.91 41.34 44.82 41.56 44.93 41.85
  C 45.22 42.62 45.78 43.13 46.61 43.38
  C 47.02 43.51 47.23 43.79 47.23 44.22"
/>
<path stroke="#818181" vector-effect="non-scaling-stroke" d="
  M 64.75 44.66
  C 64.90 44.75 65.07 44.78 65.25 44.75
  C 66.07 44.64 66.13 44.44 65.42 44.13
  C 64.93 43.92 64.42 43.98 63.89 44.29
  C 63.69 44.40 63.51 44.38 63.34 44.22
  L 63.07 43.95
  C 62.84 43.72 62.88 43.55 63.18 43.42
  C 64.70 42.77 65.27 41.53 64.89 39.69
  C 64.82 39.38 64.63 39.20 64.31 39.17
  L 62.10 38.92
  C 61.70 38.88 61.50 39.06 61.50 39.46
  L 61.50 45.00
  C 61.50 45.51 61.76 45.76 62.27 45.75
  C 63.16 45.74 63.87 45.40 64.39 44.73
  C 64.49 44.60 64.61 44.58 64.75 44.66"
/>
<path stroke="#818181" vector-effect="non-scaling-stroke" d="
  M 34.32 47.02
  C 34.28 47.00 34.24 46.99 34.20 47.01
  C 33.74 47.23 33.51 47.57 33.50 48.03
  C 33.49 48.45 33.63 48.51 33.91 48.20
  C 34.04 48.05 34.21 47.98 34.42 47.99
  C 34.71 48.00 34.93 48.13 35.06 48.39
  L 35.78 49.74
  C 35.97 50.09 35.92 50.41 35.64 50.69
  C 27.71 58.69 25.31 70.10 21.50 81.70
  C 18.36 91.27 18.00 101.22 25.80 108.56
  C 26.00 108.75 26.33 108.55 26.24 108.28
  C 23.41 100.19 24.44 86.81 30.22 80.03
  C 37.15 71.90 46.26 68.12 57.57 68.70
  C 58.02 68.72 58.25 68.51 58.25 68.06
  L 58.25 62.26
  C 58.25 61.76 58.01 61.56 57.52 61.67
  C 55.64 62.10 54.02 61.69 52.66 60.44
  C 52.16 59.99 52.51 59.16 53.18 59.20
  L 57.47 59.43
  C 58.01 59.46 58.46 59.01 58.43 58.47
  L 57.89 46.91
  C 57.88 46.60 57.72 46.44 57.41 46.42
  C 53.42 46.23 49.54 46.74 45.76 47.95
  C 45.21 48.12 45.04 47.94 45.24 47.40
  L 45.49 46.73
  C 45.58 46.49 45.49 46.37 45.24 46.38
  L 43.68 46.46
  C 43.14 46.48 42.91 46.22 42.99 45.69
  C 43.07 45.17 43.25 44.72 43.53 44.35
  C 43.73 44.09 43.87 43.80 43.95 43.49
  C 44.09 42.95 43.99 42.51 43.64 42.16
  C 43.49 42.00 43.30 41.96 43.09 42.04
  C 41.60 42.61 40.65 43.63 40.24 45.12
  C 40.16 45.41 39.97 45.54 39.67 45.50
  L 39.40 45.46
  C 39.06 45.42 38.92 45.23 38.97 44.89
  C 39.36 42.34 38.39 40.58 36.06 39.60
  C 35.53 39.37 35.18 39.54 35.03 40.10
  C 34.35 42.63 34.61 45.02 35.82 47.29
  C 36.23 48.06 36.07 48.20 35.35 47.71
  C 35.00 47.48 34.65 47.25 34.32 47.02"
/>
<path stroke="#818181" vector-effect="non-scaling-stroke" d="
  M 64.14 47.94
  L 62.51 47.17
  C 61.98 46.92 61.38 47.33 61.42 47.92
  C 61.82 54.49 60.65 63.13 62.86 68.97
  C 62.97 69.26 63.17 69.46 63.46 69.57
  C 68.96 71.59 74.64 72.41 80.51 72.03
  C 80.74 72.02 80.94 72.17 80.99 72.40
  C 81.04 72.62 80.92 72.85 80.70 72.93
  C 79.35 73.44 77.97 73.72 76.55 73.77
  C 74.60 73.85 72.21 72.44 70.50 72.70
  C 66.21 73.35 60.83 77.22 62.78 82.50
  C 65.68 90.39 75.26 92.39 84.00 94.76
  C 84.60 94.92 85.25 95.31 85.95 95.94
  C 86.20 96.16 86.33 96.44 86.36 96.78
  C 86.73 101.71 85.88 106.41 83.83 110.90
  C 83.77 111.03 83.82 111.18 83.95 111.24
  C 84.07 111.31 84.22 111.27 84.30 111.15
  C 94.77 94.67 84.77 67.26 75.86 52.09
  C 75.67 51.76 75.64 51.42 75.77 51.06
  L 75.97 50.52
  C 76.16 50.02 75.98 49.76 75.45 49.74
  C 74.37 49.71 73.53 49.28 72.92 48.46
  C 72.69 48.13 72.65 47.79 72.82 47.42
  C 73.44 46.06 73.46 44.67 72.88 43.25
  C 72.73 42.90 72.49 42.63 72.15 42.46
  L 67.18 39.96
  C 66.57 39.65 65.88 40.19 66.03 40.85
  L 66.89 44.61
  C 66.96 44.91 66.91 45.19 66.74 45.45
  C 66.54 45.74 66.26 45.90 65.91 45.93
  C 65.56 45.96 65.36 46.15 65.29 46.49
  L 65.10 47.45
  C 64.99 48.02 64.67 48.19 64.14 47.94"
/>
<path stroke="#818181" vector-effect="non-scaling-stroke" d="
  M 75.87 44.19
  C 76.14 43.62 76.11 42.97 75.76 42.22
  C 75.60 41.88 75.11 41.94 75.03 42.31
  L 74.23 46.02
  C 74.16 46.35 74.47 46.64 74.79 46.54
  C 75.51 46.33 75.83 45.78 75.75 44.88
  C 75.72 44.64 75.76 44.41 75.87 44.19"
/>
<path stroke="#818181" vector-effect="non-scaling-stroke" d="
  M 60.8198 76.2300
  C 61.33 76.20 61.61 74.03 61.4381 71.3800
  C 61.27 68.73 60.71 66.62 60.2002 66.6500
  C 59.69 66.68 59.41 68.85 59.5819 71.5000
  C 59.75 74.15 60.31 76.26 60.8198 76.2300"
/>
<path stroke="#818181" vector-effect="non-scaling-stroke" d="
  M 84.37 96.12
  C 78.62 95.04 68.88 92.70 64.90 88.20
  C 63.80 86.95 62.63 85.74 61.40 84.55
  C 60.29 83.48 60.12 83.61 60.90 84.94
  C 61.27 85.58 61.68 86.19 62.13 86.77
  C 62.33 87.04 62.45 87.35 62.49 87.68
  C 62.60 88.67 62.28 89.34 61.52 89.69
  C 61.17 89.85 60.82 89.83 60.49 89.64
  L 58.20 88.32
  C 57.86 88.13 57.51 88.09 57.14 88.21
  C 55.64 88.68 54.16 88.63 52.70 88.08
  C 52.39 87.97 52.10 88.00 51.82 88.17
  C 50.67 88.91 48.20 89.78 48.02 87.70
  C 47.99 87.37 48.06 87.07 48.22 86.79
  C 49.71 84.25 48.17 82.30 48.09 80.21
  C 48.01 77.87 48.83 73.38 51.96 74.02
  C 52.55 74.14 52.95 74.68 52.89 75.28
  L 52.41 80.76
  C 52.33 81.68 53.31 82.33 54.13 81.90
  C 55.52 81.17 56.55 81.39 57.21 82.58
  C 57.49 83.07 57.67 83.04 57.74 82.48
  L 57.84 81.73
  C 57.88 81.44 57.84 81.15 57.72 80.88
  C 56.97 79.23 57.12 77.72 58.17 76.35
  C 58.41 76.03 58.51 75.67 58.47 75.28
  L 58.06 71.23
  C 57.99 70.48 57.57 70.09 56.82 70.06
  C 37.97 69.34 25.02 81.96 26.09 100.99
  C 26.53 108.66 29.72 114.76 37.29 116.97
  C 49.54 120.54 62.13 120.75 75.07 117.58
  C 82.91 115.66 85.61 103.54 85.07 96.89
  C 85.04 96.51 84.75 96.19 84.37 96.12"
/>
<path stroke="#818181" vector-effect="non-scaling-stroke" d="
  M 63.36 71.05
  C 63.02 70.98 62.71 71.27 62.76 71.61
  L 63.03 73.70
  C 63.07 74.05 63.45 74.25 63.76 74.09
  L 66.64 72.66
  C 67.07 72.44 66.99 71.80 66.52 71.70
  L 63.36 71.05"
/>
<path stroke="#818181" vector-effect="non-scaling-stroke" d="
  M 53.81 84.81
  C 50.77 83.16 50.93 78.90 51.73 75.91
  C 51.82 75.56 51.69 75.34 51.33 75.26
  C 49.11 74.79 49.76 81.88 50.03 82.80
  C 51.96 89.38 61.43 87.59 60.84 82.28
  C 60.72 81.24 60.46 81.20 60.06 82.17
  C 58.92 84.91 56.63 86.34 53.81 84.81"
/>
<path stroke="#818181" vector-effect="non-scaling-stroke" d="
  M 56.8393 83.8964
  C 56.95 83.53 56.45 83.05 55.7117 82.8301
  C 54.98 82.61 54.29 82.72 54.1807 83.0836
  C 54.07 83.45 54.57 83.93 55.3083 84.1499
  C 56.04 84.37 56.73 84.26 56.8393 83.8964"
/>
<path stroke="#818181" vector-effect="non-scaling-stroke" d="
  M 50.6433 87.3933
  C 50.88 87.16 50.84 86.73 50.5513 86.4387
  C 50.26 86.15 49.83 86.11 49.5967 86.3467
  C 49.36 86.58 49.40 87.01 49.6887 87.3013
  C 49.98 87.59 50.41 87.63 50.6433 87.3933"
/>
<path stroke="#818181" vector-effect="non-scaling-stroke" d="
  M 59.91 87.85
  L 60.41 88.22
  C 60.72 88.44 60.91 88.37 60.99 88.00
  C 61.14 87.33 60.81 86.96 59.98 86.88
  C 59.90 86.87 59.84 86.92 59.82 86.99
  C 59.80 87.09 59.77 87.18 59.74 87.27
  C 59.65 87.50 59.70 87.70 59.91 87.85"
/>
<path stroke="#818181" vector-effect="non-scaling-stroke" d="
  M 46.3791 60.3036
  C 46.32 56.40 42.95 53.29 38.8589 53.3509
  C 34.77 53.42 31.50 56.63 31.5609 60.5364
  C 31.62 64.44 34.99 67.55 39.0811 67.4891
  C 43.17 67.42 46.44 64.21 46.3791 60.3036"
/>
<path stroke="#818181" vector-effect="non-scaling-stroke" d="
  M 77.0836 63.3900
  C 78.60 59.93 76.89 55.82 73.2533 54.2277
  C 69.62 52.63 65.44 54.15 63.9164 57.6100
  C 62.40 61.07 64.11 65.18 67.7467 66.7723
  C 71.38 68.37 75.56 66.85 77.0836 63.3900"
/>
<path stroke="#818181" vector-effect="non-scaling-stroke" d="
  M 44.78 60.47
  C 44.78 57.23 42.15 54.60 38.91 54.60
  C 35.67 54.60 33.04 57.23 33.04 60.47
  C 33.04 63.71 35.67 66.34 38.91 66.34
  C 42.15 66.34 44.78 63.71 44.78 60.47"
/>
<path stroke="#818181" vector-effect="non-scaling-stroke" d="
  M 76.12 60.46
  C 76.12 57.36 73.60 54.84 70.50 54.84
  C 67.40 54.84 64.88 57.36 64.88 60.46
  C 64.88 63.56 67.40 66.08 70.50 66.08
  C 73.60 66.08 76.12 63.56 76.12 60.46"
/>
<path stroke="#818181" vector-effect="non-scaling-stroke" d="
  M 41.7473 61.2057
  C 42.29 60.05 41.70 58.63 40.4236 58.0298
  C 39.15 57.43 37.68 57.88 37.1327 59.0343
  C 36.59 60.19 37.18 61.61 38.4564 62.2102
  C 39.73 62.81 41.20 62.36 41.7473 61.2057"
/>
<path stroke="#818181" vector-effect="non-scaling-stroke" d="
  M 73.09 60.36
  C 73.09 59.06 72.03 58.00 70.73 58.00
  C 69.43 58.00 68.37 59.06 68.37 60.36
  C 68.37 61.66 69.43 62.72 70.73 62.72
  C 72.03 62.72 73.09 61.66 73.09 60.36"
/>
<path stroke="#818181" vector-effect="non-scaling-stroke" d="
  M 43.62 87.55
  C 41.72 79.73 31.98 81.74 31.67 89.20
  C 31.62 90.29 32.78 91.02 33.74 90.51
  L 37.18 88.70
  C 37.43 88.57 37.70 88.53 37.98 88.58
  L 41.89 89.35
  C 42.95 89.56 43.87 88.60 43.62 87.55"
/>
<path stroke="#818181" vector-effect="non-scaling-stroke" d="
  M 54.17 101.72
  C 56.84 94.07 39.81 94.34 42.08 101.90
  C 42.21 102.33 42.48 102.46 42.90 102.31
  L 47.59 100.64
  C 47.94 100.51 48.30 100.50 48.65 100.60
  C 50.04 100.99 51.36 101.55 52.63 102.29
  C 53.21 102.63 53.95 102.35 54.17 101.72"
/>
<path stroke="#818181" vector-effect="non-scaling-stroke" d="
  M 74.04 102.83
  C 77.35 101.48 70.70 91.90 65.97 98.08
  C 64.88 99.51 62.71 101.97 65.18 103.08
  C 65.55 103.25 65.90 103.23 66.25 103.02
  L 69.24 101.26
  C 69.53 101.09 69.83 101.08 70.14 101.24
  L 73.09 102.79
  C 73.40 102.95 73.72 102.96 74.04 102.83"
/>
<path stroke="#818181" vector-effect="non-scaling-stroke" d="
  M 42.13 87.25
  C 41.63 85.25 38.62 82.89 36.55 83.84
  C 34.82 84.65 33.70 86.15 33.19 88.36
  C 33.10 88.75 33.25 88.88 33.62 88.73
  C 36.89 87.50 37.83 86.99 41.36 87.99
  C 41.81 88.12 42.24 87.71 42.13 87.25"
/>
<path stroke="#818181" vector-effect="non-scaling-stroke" d="
  M 52.87 99.35
  C 50.54 96.10 47.48 96.12 43.67 99.42
  C 43.44 99.62 43.39 99.96 43.56 100.22
  C 43.74 100.47 44.07 100.55 44.34 100.41
  C 46.95 99.03 49.50 99.10 51.99 100.63
  C 52.30 100.82 52.62 100.82 52.95 100.65
  C 53.26 100.49 53.46 99.72 53.05 99.51
  C 52.98 99.48 52.92 99.42 52.87 99.35"
/>
<path stroke="#818181" vector-effect="non-scaling-stroke" d="
  M 73.97 101.00
  C 71.83 95.82 67.27 96.49 65.45 101.45
  C 65.32 101.80 65.75 102.08 66.01 101.82
  C 68.34 99.53 70.76 99.43 73.29 101.50
  C 73.64 101.79 74.14 101.42 73.97 101.00"
/>
</g>
<path fill="#f6f6f6" d="
  M 0.00 0.00
  L 111.00 0.00
  L 111.00 130.00
  L 0.00 130.00
  L 0.00 0.00
  Z
  M 57.44 14.73
  C 50.69 14.81 42.55 14.00 36.67 15.84
  C 26.87 18.90 21.89 26.10 21.72 37.44
  C 21.69 39.46 20.91 40.84 20.24 42.66
  C 20.08 43.09 20.20 43.42 20.61 43.64
  L 21.37 44.07
  C 21.83 44.32 22.09 44.18 22.14 43.67
  C 22.77 37.99 28.83 37.08 33.30 38.43
  C 33.76 38.57 34.00 39.06 33.84 39.51
  C 33.05 41.64 33.09 43.72 33.97 45.77
  C 34.18 46.26 34.02 46.50 33.49 46.50
  L 32.50 46.50
  C 31.75 46.50 31.60 46.79 32.07 47.38
  C 32.41 47.80 32.53 48.26 32.43 48.76
  C 32.38 49.05 32.44 49.30 32.61 49.53
  C 32.90 49.93 33.17 50.06 33.42 49.93
  C 33.70 49.78 33.94 49.84 34.13 50.09
  C 34.34 50.35 29.98 55.05 29.49 56.15
  C 26.18 63.61 22.95 72.48 19.78 82.75
  C 17.47 90.26 17.68 97.39 20.41 104.15
  C 20.54 104.48 20.52 104.80 20.33 105.11
  L 19.64 106.20
  C 19.43 106.53 19.50 106.78 19.87 106.93
  C 23.83 108.59 27.23 111.01 30.07 114.18
  C 31.12 115.35 32.08 115.91 33.43 116.50
  C 33.80 116.66 33.77 117.19 33.39 117.32
  C 32.66 117.56 32.19 118.03 31.98 118.72
  C 31.83 119.19 32.00 119.37 32.48 119.27
  C 33.39 119.07 34.13 118.61 34.70 117.90
  C 35.32 117.13 35.59 117.24 35.52 118.23
  C 35.49 118.67 35.39 119.09 35.22 119.50
  C 34.79 120.54 35.04 120.69 35.96 119.96
  C 36.85 119.25 37.85 118.83 38.96 118.71
  C 39.56 118.64 39.77 118.90 39.60 119.47
  L 39.23 120.74
  C 39.06 121.31 39.25 121.47 39.78 121.22
  C 40.47 120.90 41.00 120.44 41.37 119.83
  C 41.55 119.53 41.81 119.42 42.16 119.49
  C 52.07 121.51 62.00 121.58 71.97 119.71
  C 73.69 119.39 75.09 117.98 76.84 119.75
  C 77.31 120.23 77.57 120.14 77.62 119.47
  C 77.65 119.06 77.61 118.67 77.48 118.28
  C 77.37 117.94 77.48 117.70 77.81 117.57
  C 79.12 117.03 78.87 118.86 80.40 118.73
  C 80.79 118.70 80.90 118.51 80.73 118.15
  L 80.01 116.67
  C 79.74 116.12 79.90 115.88 80.51 115.96
  C 81.48 116.08 82.11 116.62 82.40 117.59
  C 82.58 118.17 82.88 118.25 83.31 117.82
  L 83.86 117.26
  C 84.20 116.93 84.17 116.63 83.78 116.36
  L 82.68 115.60
  C 82.34 115.37 82.32 115.10 82.61 114.81
  C 98.12 99.19 86.26 67.09 77.20 51.54
  C 77.05 51.27 77.03 50.99 77.16 50.71
  L 77.61 49.74
  C 77.82 49.29 77.67 49.01 77.18 48.92
  L 75.99 48.69
  C 75.56 48.60 75.46 48.37 75.69 47.99
  C 76.92 46.02 77.44 43.89 77.25 41.58
  C 77.22 41.23 77.37 40.97 77.69 40.82
  C 82.38 38.57 87.11 38.46 91.86 40.49
  C 92.21 40.64 92.44 40.91 92.54 41.28
  L 92.86 42.46
  C 92.97 42.89 93.25 43.07 93.68 43.01
  C 94.05 42.96 94.25 42.73 94.28 42.34
  C 95.05 31.51 90.15 15.02 76.75 15.05
  C 71.64 15.06 66.52 15.01 61.38 14.89
  C 60.96 14.88 60.75 14.66 60.75 14.24
  L 60.75 11.94
  C 60.75 11.53 60.55 11.28 60.15 11.19
  L 59.16 10.96
  C 58.61 10.83 58.31 11.05 58.24 11.60
  L 57.92 14.29
  C 57.89 14.58 57.73 14.72 57.44 14.73
  Z"
/>
<path fill="#0c0b0c" d="
  M 57.92 14.29
  L 58.24 11.60
  C 58.31 11.05 58.61 10.83 59.16 10.96
  L 60.15 11.19
  C 60.55 11.28 60.75 11.53 60.75 11.94
  L 60.75 14.24
  C 60.75 14.66 60.96 14.88 61.38 14.89
  C 66.52 15.01 71.64 15.06 76.75 15.05
  C 90.15 15.02 95.05 31.51 94.28 42.34
  C 94.25 42.73 94.05 42.96 93.68 43.01
  C 93.25 43.07 92.97 42.89 92.86 42.46
  L 92.54 41.28
  C 92.44 40.91 92.21 40.64 91.86 40.49
  C 87.11 38.46 82.38 38.57 77.69 40.82
  C 77.37 40.97 77.22 41.23 77.25 41.58
  C 77.44 43.89 76.92 46.02 75.69 47.99
  C 75.46 48.37 75.56 48.60 75.99 48.69
  L 77.18 48.92
  C 77.67 49.01 77.82 49.29 77.61 49.74
  L 77.16 50.71
  C 77.03 50.99 77.05 51.27 77.20 51.54
  C 86.26 67.09 98.12 99.19 82.61 114.81
  C 82.32 115.10 82.34 115.37 82.68 115.60
  L 83.78 116.36
  C 84.17 116.63 84.20 116.93 83.86 117.26
  L 83.31 117.82
  C 82.88 118.25 82.58 118.17 82.40 117.59
  C 82.11 116.62 81.48 116.08 80.51 115.96
  C 79.90 115.88 79.74 116.12 80.01 116.67
  L 80.73 118.15
  C 80.90 118.51 80.79 118.70 80.40 118.73
  C 78.87 118.86 79.12 117.03 77.81 117.57
  C 77.48 117.70 77.37 117.94 77.48 118.28
  C 77.61 118.67 77.65 119.06 77.62 119.47
  C 77.57 120.14 77.31 120.23 76.84 119.75
  C 75.09 117.98 73.69 119.39 71.97 119.71
  C 62.00 121.58 52.07 121.51 42.16 119.49
  C 41.81 119.42 41.55 119.53 41.37 119.83
  C 41.00 120.44 40.47 120.90 39.78 121.22
  C 39.25 121.47 39.06 121.31 39.23 120.74
  L 39.60 119.47
  C 39.77 118.90 39.56 118.64 38.96 118.71
  C 37.85 118.83 36.85 119.25 35.96 119.96
  C 35.04 120.69 34.79 120.54 35.22 119.50
  C 35.39 119.09 35.49 118.67 35.52 118.23
  C 35.59 117.24 35.32 117.13 34.70 117.90
  C 34.13 118.61 33.39 119.07 32.48 119.27
  C 32.00 119.37 31.83 119.19 31.98 118.72
  C 32.19 118.03 32.66 117.56 33.39 117.32
  C 33.77 117.19 33.80 116.66 33.43 116.50
  C 32.08 115.91 31.12 115.35 30.07 114.18
  C 27.23 111.01 23.83 108.59 19.87 106.93
  C 19.50 106.78 19.43 106.53 19.64 106.20
  L 20.33 105.11
  C 20.52 104.80 20.54 104.48 20.41 104.15
  C 17.68 97.39 17.47 90.26 19.78 82.75
  C 22.95 72.48 26.18 63.61 29.49 56.15
  C 29.98 55.05 34.34 50.35 34.13 50.09
  C 33.94 49.84 33.70 49.78 33.42 49.93
  C 33.17 50.06 32.90 49.93 32.61 49.53
  C 32.44 49.30 32.38 49.05 32.43 48.76
  C 32.53 48.26 32.41 47.80 32.07 47.38
  C 31.60 46.79 31.75 46.50 32.50 46.50
  L 33.49 46.50
  C 34.02 46.50 34.18 46.26 33.97 45.77
  C 33.09 43.72 33.05 41.64 33.84 39.51
  C 34.00 39.06 33.76 38.57 33.30 38.43
  C 28.83 37.08 22.77 37.99 22.14 43.67
  C 22.09 44.18 21.83 44.32 21.37 44.07
  L 20.61 43.64
  C 20.20 43.42 20.08 43.09 20.24 42.66
  C 20.91 40.84 21.69 39.46 21.72 37.44
  C 21.89 26.10 26.87 18.90 36.67 15.84
  C 42.55 14.00 50.69 14.81 57.44 14.73
  C 57.73 14.72 57.89 14.58 57.92 14.29
  Z
  M 38.61 38.93
  C 39.46 29.79 40.06 23.08 47.18 16.45
  C 47.30 16.34 47.23 16.13 47.06 16.11
  C 39.79 15.36 33.59 17.48 28.48 22.48
  C 23.88 26.99 23.48 31.96 22.87 37.77
  C 22.84 38.02 23.10 38.20 23.32 38.09
  C 28.41 35.60 33.31 35.97 38.04 39.20
  C 38.38 39.43 38.57 39.34 38.61 38.93
  Z
  M 93.23 38.84
  C 92.67 29.85 88.00 16.41 76.73 16.51
  C 73.58 16.54 70.40 16.43 67.19 16.19
  C 66.62 16.14 66.56 16.30 66.99 16.67
  C 73.80 22.33 75.62 31.25 75.23 39.89
  C 75.21 40.34 75.41 40.48 75.82 40.31
  C 81.90 37.70 86.24 36.27 92.67 39.23
  C 93.07 39.42 93.26 39.29 93.23 38.84
  Z
  M 41.04 41.68
  C 51.24 35.76 63.17 35.30 73.33 41.59
  C 73.71 41.82 73.92 41.72 73.95 41.28
  C 74.63 33.41 72.90 21.45 64.75 17.29
  C 61.57 15.67 57.02 16.25 53.31 16.26
  C 42.18 16.30 39.36 33.19 40.50 41.42
  C 40.55 41.77 40.73 41.85 41.04 41.68
  Z
  M 60.2591 38.7318
  C 60.25 38.39 59.98 38.13 59.6396 38.1314
  L 59.5996 38.1320
  C 59.26 38.14 58.99 38.41 58.9993 38.7516
  L 59.4209 65.5882
  C 59.43 65.93 59.70 66.19 60.0404 66.1886
  L 60.0804 66.1880
  C 60.42 66.18 60.69 65.91 60.6807 65.5684
  L 60.2591 38.7318
  Z
  M 47.23 44.22
  L 47.23 45.26
  C 47.23 45.53 47.37 45.66 47.64 45.63
  L 57.74 44.79
  C 58.11 44.76 58.29 44.55 58.28 44.18
  L 58.15 39.07
  C 58.14 38.66 57.93 38.45 57.52 38.45
  C 53.21 38.48 49.10 39.40 45.19 41.21
  C 44.91 41.34 44.82 41.56 44.93 41.85
  C 45.22 42.62 45.78 43.13 46.61 43.38
  C 47.02 43.51 47.23 43.79 47.23 44.22
  Z
  M 64.75 44.66
  C 64.90 44.75 65.07 44.78 65.25 44.75
  C 66.07 44.64 66.13 44.44 65.42 44.13
  C 64.93 43.92 64.42 43.98 63.89 44.29
  C 63.69 44.40 63.51 44.38 63.34 44.22
  L 63.07 43.95
  C 62.84 43.72 62.88 43.55 63.18 43.42
  C 64.70 42.77 65.27 41.53 64.89 39.69
  C 64.82 39.38 64.63 39.20 64.31 39.17
  L 62.10 38.92
  C 61.70 38.88 61.50 39.06 61.50 39.46
  L 61.50 45.00
  C 61.50 45.51 61.76 45.76 62.27 45.75
  C 63.16 45.74 63.87 45.40 64.39 44.73
  C 64.49 44.60 64.61 44.58 64.75 44.66
  Z
  M 34.32 47.02
  C 34.28 47.00 34.24 46.99 34.20 47.01
  C 33.74 47.23 33.51 47.57 33.50 48.03
  C 33.49 48.45 33.63 48.51 33.91 48.20
  C 34.04 48.05 34.21 47.98 34.42 47.99
  C 34.71 48.00 34.93 48.13 35.06 48.39
  L 35.78 49.74
  C 35.97 50.09 35.92 50.41 35.64 50.69
  C 27.71 58.69 25.31 70.10 21.50 81.70
  C 18.36 91.27 18.00 101.22 25.80 108.56
  C 26.00 108.75 26.33 108.55 26.24 108.28
  C 23.41 100.19 24.44 86.81 30.22 80.03
  C 37.15 71.90 46.26 68.12 57.57 68.70
  C 58.02 68.72 58.25 68.51 58.25 68.06
  L 58.25 62.26
  C 58.25 61.76 58.01 61.56 57.52 61.67
  C 55.64 62.10 54.02 61.69 52.66 60.44
  C 52.16 59.99 52.51 59.16 53.18 59.20
  L 57.47 59.43
  C 58.01 59.46 58.46 59.01 58.43 58.47
  L 57.89 46.91
  C 57.88 46.60 57.72 46.44 57.41 46.42
  C 53.42 46.23 49.54 46.74 45.76 47.95
  C 45.21 48.12 45.04 47.94 45.24 47.40
  L 45.49 46.73
  C 45.58 46.49 45.49 46.37 45.24 46.38
  L 43.68 46.46
  C 43.14 46.48 42.91 46.22 42.99 45.69
  C 43.07 45.17 43.25 44.72 43.53 44.35
  C 43.73 44.09 43.87 43.80 43.95 43.49
  C 44.09 42.95 43.99 42.51 43.64 42.16
  C 43.49 42.00 43.30 41.96 43.09 42.04
  C 41.60 42.61 40.65 43.63 40.24 45.12
  C 40.16 45.41 39.97 45.54 39.67 45.50
  L 39.40 45.46
  C 39.06 45.42 38.92 45.23 38.97 44.89
  C 39.36 42.34 38.39 40.58 36.06 39.60
  C 35.53 39.37 35.18 39.54 35.03 40.10
  C 34.35 42.63 34.61 45.02 35.82 47.29
  C 36.23 48.06 36.07 48.20 35.35 47.71
  C 35.00 47.48 34.65 47.25 34.32 47.02
  Z
  M 64.14 47.94
  L 62.51 47.17
  C 61.98 46.92 61.38 47.33 61.42 47.92
  C 61.82 54.49 60.65 63.13 62.86 68.97
  C 62.97 69.26 63.17 69.46 63.46 69.57
  C 68.96 71.59 74.64 72.41 80.51 72.03
  C 80.74 72.02 80.94 72.17 80.99 72.40
  C 81.04 72.62 80.92 72.85 80.70 72.93
  C 79.35 73.44 77.97 73.72 76.55 73.77
  C 74.60 73.85 72.21 72.44 70.50 72.70
  C 66.21 73.35 60.83 77.22 62.78 82.50
  C 65.68 90.39 75.26 92.39 84.00 94.76
  C 84.60 94.92 85.25 95.31 85.95 95.94
  C 86.20 96.16 86.33 96.44 86.36 96.78
  C 86.73 101.71 85.88 106.41 83.83 110.90
  C 83.77 111.03 83.82 111.18 83.95 111.24
  C 84.07 111.31 84.22 111.27 84.30 111.15
  C 94.77 94.67 84.77 67.26 75.86 52.09
  C 75.67 51.76 75.64 51.42 75.77 51.06
  L 75.97 50.52
  C 76.16 50.02 75.98 49.76 75.45 49.74
  C 74.37 49.71 73.53 49.28 72.92 48.46
  C 72.69 48.13 72.65 47.79 72.82 47.42
  C 73.44 46.06 73.46 44.67 72.88 43.25
  C 72.73 42.90 72.49 42.63 72.15 42.46
  L 67.18 39.96
  C 66.57 39.65 65.88 40.19 66.03 40.85
  L 66.89 44.61
  C 66.96 44.91 66.91 45.19 66.74 45.45
  C 66.54 45.74 66.26 45.90 65.91 45.93
  C 65.56 45.96 65.36 46.15 65.29 46.49
  L 65.10 47.45
  C 64.99 48.02 64.67 48.19 64.14 47.94
  Z
  M 75.87 44.19
  C 76.14 43.62 76.11 42.97 75.76 42.22
  C 75.60 41.88 75.11 41.94 75.03 42.31
  L 74.23 46.02
  C 74.16 46.35 74.47 46.64 74.79 46.54
  C 75.51 46.33 75.83 45.78 75.75 44.88
  C 75.72 44.64 75.76 44.41 75.87 44.19
  Z
  M 60.8198 76.2300
  C 61.33 76.20 61.61 74.03 61.4381 71.3800
  C 61.27 68.73 60.71 66.62 60.2002 66.6500
  C 59.69 66.68 59.41 68.85 59.5819 71.5000
  C 59.75 74.15 60.31 76.26 60.8198 76.2300
  Z
  M 84.37 96.12
  C 78.62 95.04 68.88 92.70 64.90 88.20
  C 63.80 86.95 62.63 85.74 61.40 84.55
  C 60.29 83.48 60.12 83.61 60.90 84.94
  C 61.27 85.58 61.68 86.19 62.13 86.77
  C 62.33 87.04 62.45 87.35 62.49 87.68
  C 62.60 88.67 62.28 89.34 61.52 89.69
  C 61.17 89.85 60.82 89.83 60.49 89.64
  L 58.20 88.32
  C 57.86 88.13 57.51 88.09 57.14 88.21
  C 55.64 88.68 54.16 88.63 52.70 88.08
  C 52.39 87.97 52.10 88.00 51.82 88.17
  C 50.67 88.91 48.20 89.78 48.02 87.70
  C 47.99 87.37 48.06 87.07 48.22 86.79
  C 49.71 84.25 48.17 82.30 48.09 80.21
  C 48.01 77.87 48.83 73.38 51.96 74.02
  C 52.55 74.14 52.95 74.68 52.89 75.28
  L 52.41 80.76
  C 52.33 81.68 53.31 82.33 54.13 81.90
  C 55.52 81.17 56.55 81.39 57.21 82.58
  C 57.49 83.07 57.67 83.04 57.74 82.48
  L 57.84 81.73
  C 57.88 81.44 57.84 81.15 57.72 80.88
  C 56.97 79.23 57.12 77.72 58.17 76.35
  C 58.41 76.03 58.51 75.67 58.47 75.28
  L 58.06 71.23
  C 57.99 70.48 57.57 70.09 56.82 70.06
  C 37.97 69.34 25.02 81.96 26.09 100.99
  C 26.53 108.66 29.72 114.76 37.29 116.97
  C 49.54 120.54 62.13 120.75 75.07 117.58
  C 82.91 115.66 85.61 103.54 85.07 96.89
  C 85.04 96.51 84.75 96.19 84.37 96.12
  Z
  M 63.36 71.05
  C 63.02 70.98 62.71 71.27 62.76 71.61
  L 63.03 73.70
  C 63.07 74.05 63.45 74.25 63.76 74.09
  L 66.64 72.66
  C 67.07 72.44 66.99 71.80 66.52 71.70
  L 63.36 71.05
  Z
  M 53.81 84.81
  C 50.77 83.16 50.93 78.90 51.73 75.91
  C 51.82 75.56 51.69 75.34 51.33 75.26
  C 49.11 74.79 49.76 81.88 50.03 82.80
  C 51.96 89.38 61.43 87.59 60.84 82.28
  C 60.72 81.24 60.46 81.20 60.06 82.17
  C 58.92 84.91 56.63 86.34 53.81 84.81
  Z
  M 56.8393 83.8964
  C 56.95 83.53 56.45 83.05 55.7117 82.8301
  C 54.98 82.61 54.29 82.72 54.1807 83.0836
  C 54.07 83.45 54.57 83.93 55.3083 84.1499
  C 56.04 84.37 56.73 84.26 56.8393 83.8964
  Z
  M 50.6433 87.3933
  C 50.88 87.16 50.84 86.73 50.5513 86.4387
  C 50.26 86.15 49.83 86.11 49.5967 86.3467
  C 49.36 86.58 49.40 87.01 49.6887 87.3013
  C 49.98 87.59 50.41 87.63 50.6433 87.3933
  Z
  M 59.91 87.85
  L 60.41 88.22
  C 60.72 88.44 60.91 88.37 60.99 88.00
  C 61.14 87.33 60.81 86.96 59.98 86.88
  C 59.90 86.87 59.84 86.92 59.82 86.99
  C 59.80 87.09 59.77 87.18 59.74 87.27
  C 59.65 87.50 59.70 87.70 59.91 87.85
  Z"
/>
<path fill="#f6f6f6" d="
  M 47.18 16.45
  C 40.06 23.08 39.46 29.79 38.61 38.93
  C 38.57 39.34 38.38 39.43 38.04 39.20
  C 33.31 35.97 28.41 35.60 23.32 38.09
  C 23.10 38.20 22.84 38.02 22.87 37.77
  C 23.48 31.96 23.88 26.99 28.48 22.48
  C 33.59 17.48 39.79 15.36 47.06 16.11
  C 47.23 16.13 47.30 16.34 47.18 16.45
  Z"
/>
<path fill="#f6f6f6" d="
  M 76.73 16.51
  C 88.00 16.41 92.67 29.85 93.23 38.84
  C 93.26 39.29 93.07 39.42 92.67 39.23
  C 86.24 36.27 81.90 37.70 75.82 40.31
  C 75.41 40.48 75.21 40.34 75.23 39.89
  C 75.62 31.25 73.80 22.33 66.99 16.67
  C 66.56 16.30 66.62 16.14 67.19 16.19
  C 70.40 16.43 73.58 16.54 76.73 16.51
  Z"
/>
<path fill="#f6f6f6" d="
  M 73.33 41.59
  C 63.17 35.30 51.24 35.76 41.04 41.68
  C 40.73 41.85 40.55 41.77 40.50 41.42
  C 39.36 33.19 42.18 16.30 53.31 16.26
  C 57.02 16.25 61.57 15.67 64.75 17.29
  C 72.90 21.45 74.63 33.41 73.95 41.28
  C 73.92 41.72 73.71 41.82 73.33 41.59
  Z"
/>
<rect fill="#f6f6f6" x="-0.63" y="-14.03" transform="translate(59.84,52.16) rotate(-0.9)" width="1.26" height="28.06" rx="0.61"/>
<path fill="#f6f6f6" d="
  M 46.61 43.38
  C 45.78 43.13 45.22 42.62 44.93 41.85
  C 44.82 41.56 44.91 41.34 45.19 41.21
  C 49.10 39.40 53.21 38.48 57.52 38.45
  C 57.93 38.45 58.14 38.66 58.15 39.07
  L 58.28 44.18
  C 58.29 44.55 58.11 44.76 57.74 44.79
  L 47.64 45.63
  C 47.37 45.66 47.23 45.53 47.23 45.26
  L 47.23 44.22
  C 47.23 43.79 47.02 43.51 46.61 43.38
  Z"
/>
<path fill="#f6f6f6" d="
  M 64.39 44.73
  C 63.87 45.40 63.16 45.74 62.27 45.75
  C 61.76 45.76 61.50 45.51 61.50 45.00
  L 61.50 39.46
  C 61.50 39.06 61.70 38.88 62.10 38.92
  L 64.31 39.17
  C 64.63 39.20 64.82 39.38 64.89 39.69
  C 65.27 41.53 64.70 42.77 63.18 43.42
  C 62.88 43.55 62.84 43.72 63.07 43.95
  L 63.34 44.22
  C 63.51 44.38 63.69 44.40 63.89 44.29
  C 64.42 43.98 64.93 43.92 65.42 44.13
  C 66.13 44.44 66.07 44.64 65.25 44.75
  C 65.07 44.78 64.90 44.75 64.75 44.66
  C 64.61 44.58 64.49 44.60 64.39 44.73
  Z"
/>
<path fill="#f6f6f6" d="
  M 34.32 47.02
  C 34.65 47.25 35.00 47.48 35.35 47.71
  C 36.07 48.20 36.23 48.06 35.82 47.29
  C 34.61 45.02 34.35 42.63 35.03 40.10
  C 35.18 39.54 35.53 39.37 36.06 39.60
  C 38.39 40.58 39.36 42.34 38.97 44.89
  C 38.92 45.23 39.06 45.42 39.40 45.46
  L 39.67 45.50
  C 39.97 45.54 40.16 45.41 40.24 45.12
  C 40.65 43.63 41.60 42.61 43.09 42.04
  C 43.30 41.96 43.49 42.00 43.64 42.16
  C 43.99 42.51 44.09 42.95 43.95 43.49
  C 43.87 43.80 43.73 44.09 43.53 44.35
  C 43.25 44.72 43.07 45.17 42.99 45.69
  C 42.91 46.22 43.14 46.48 43.68 46.46
  L 45.24 46.38
  C 45.49 46.37 45.58 46.49 45.49 46.73
  L 45.24 47.40
  C 45.04 47.94 45.21 48.12 45.76 47.95
  C 49.54 46.74 53.42 46.23 57.41 46.42
  C 57.72 46.44 57.88 46.60 57.89 46.91
  L 58.43 58.47
  C 58.46 59.01 58.01 59.46 57.47 59.43
  L 53.18 59.20
  C 52.51 59.16 52.16 59.99 52.66 60.44
  C 54.02 61.69 55.64 62.10 57.52 61.67
  C 58.01 61.56 58.25 61.76 58.25 62.26
  L 58.25 68.06
  C 58.25 68.51 58.02 68.72 57.57 68.70
  C 46.26 68.12 37.15 71.90 30.22 80.03
  C 24.44 86.81 23.41 100.19 26.24 108.28
  C 26.33 108.55 26.00 108.75 25.80 108.56
  C 18.00 101.22 18.36 91.27 21.50 81.70
  C 25.31 70.10 27.71 58.69 35.64 50.69
  C 35.92 50.41 35.97 50.09 35.78 49.74
  L 35.06 48.39
  C 34.93 48.13 34.71 48.00 34.42 47.99
  C 34.21 47.98 34.04 48.05 33.91 48.20
  C 33.63 48.51 33.49 48.45 33.50 48.03
  C 33.51 47.57 33.74 47.23 34.20 47.01
  C 34.24 46.99 34.28 47.00 34.32 47.02
  Z
  M 46.3791 60.3036
  C 46.32 56.40 42.95 53.29 38.8589 53.3509
  C 34.77 53.42 31.50 56.63 31.5609 60.5364
  C 31.62 64.44 34.99 67.55 39.0811 67.4891
  C 43.17 67.42 46.44 64.21 46.3791 60.3036
  Z"
/>
<path fill="#f6f6f6" d="
  M 65.10 47.45
  L 65.29 46.49
  C 65.36 46.15 65.56 45.96 65.91 45.93
  C 66.26 45.90 66.54 45.74 66.74 45.45
  C 66.91 45.19 66.96 44.91 66.89 44.61
  L 66.03 40.85
  C 65.88 40.19 66.57 39.65 67.18 39.96
  L 72.15 42.46
  C 72.49 42.63 72.73 42.90 72.88 43.25
  C 73.46 44.67 73.44 46.06 72.82 47.42
  C 72.65 47.79 72.69 48.13 72.92 48.46
  C 73.53 49.28 74.37 49.71 75.45 49.74
  C 75.98 49.76 76.16 50.02 75.97 50.52
  L 75.77 51.06
  C 75.64 51.42 75.67 51.76 75.86 52.09
  C 84.77 67.26 94.77 94.67 84.30 111.15
  C 84.22 111.27 84.07 111.31 83.95 111.24
  C 83.82 111.18 83.77 111.03 83.83 110.90
  C 85.88 106.41 86.73 101.71 86.36 96.78
  C 86.33 96.44 86.20 96.16 85.95 95.94
  C 85.25 95.31 84.60 94.92 84.00 94.76
  C 75.26 92.39 65.68 90.39 62.78 82.50
  C 60.83 77.22 66.21 73.35 70.50 72.70
  C 72.21 72.44 74.60 73.85 76.55 73.77
  C 77.97 73.72 79.35 73.44 80.70 72.93
  C 80.92 72.85 81.04 72.62 80.99 72.40
  C 80.94 72.17 80.74 72.02 80.51 72.03
  C 74.64 72.41 68.96 71.59 63.46 69.57
  C 63.17 69.46 62.97 69.26 62.86 68.97
  C 60.65 63.13 61.82 54.49 61.42 47.92
  C 61.38 47.33 61.98 46.92 62.51 47.17
  L 64.14 47.94
  C 64.67 48.19 64.99 48.02 65.10 47.45
  Z
  M 77.0836 63.3900
  C 78.60 59.93 76.89 55.82 73.2533 54.2277
  C 69.62 52.63 65.44 54.15 63.9164 57.6100
  C 62.40 61.07 64.11 65.18 67.7467 66.7723
  C 71.38 68.37 75.56 66.85 77.0836 63.3900
  Z"
/>
<path fill="#f6f6f6" d="
  M 75.75 44.88
  C 75.83 45.78 75.51 46.33 74.79 46.54
  C 74.47 46.64 74.16 46.35 74.23 46.02
  L 75.03 42.31
  C 75.11 41.94 75.60 41.88 75.76 42.22
  C 76.11 42.97 76.14 43.62 75.87 44.19
  C 75.76 44.41 75.72 44.64 75.75 44.88
  Z"
/>
<path fill="#0c0b0c" d="
  M 46.3791 60.3036
  C 46.44 64.21 43.17 67.42 39.0811 67.4891
  C 34.99 67.55 31.62 64.44 31.5609 60.5364
  C 31.50 56.63 34.77 53.42 38.8589 53.3509
  C 42.95 53.29 46.32 56.40 46.3791 60.3036
  Z
  M 44.78 60.47
  C 44.78 57.23 42.15 54.60 38.91 54.60
  C 35.67 54.60 33.04 57.23 33.04 60.47
  C 33.04 63.71 35.67 66.34 38.91 66.34
  C 42.15 66.34 44.78 63.71 44.78 60.47
  Z"
/>
<path fill="#0c0b0c" d="
  M 77.0836 63.3900
  C 75.56 66.85 71.38 68.37 67.7467 66.7723
  C 64.11 65.18 62.40 61.07 63.9164 57.6100
  C 65.44 54.15 69.62 52.63 73.2533 54.2277
  C 76.89 55.82 78.60 59.93 77.0836 63.3900
  Z
  M 76.12 60.46
  C 76.12 57.36 73.60 54.84 70.50 54.84
  C 67.40 54.84 64.88 57.36 64.88 60.46
  C 64.88 63.56 67.40 66.08 70.50 66.08
  C 73.60 66.08 76.12 63.56 76.12 60.46
  Z"
/>
<path fill="#f6f6f6" d="
  M 44.78 60.47
  C 44.78 63.71 42.15 66.34 38.91 66.34
  C 35.67 66.34 33.04 63.71 33.04 60.47
  C 33.04 57.23 35.67 54.60 38.91 54.60
  C 42.15 54.60 44.78 57.23 44.78 60.47
  Z
  M 41.7473 61.2057
  C 42.29 60.05 41.70 58.63 40.4236 58.0298
  C 39.15 57.43 37.68 57.88 37.1327 59.0343
  C 36.59 60.19 37.18 61.61 38.4564 62.2102
  C 39.73 62.81 41.20 62.36 41.7473 61.2057
  Z"
/>
<path fill="#f6f6f6" d="
  M 76.12 60.46
  C 76.12 63.56 73.60 66.08 70.50 66.08
  C 67.40 66.08 64.88 63.56 64.88 60.46
  C 64.88 57.36 67.40 54.84 70.50 54.84
  C 73.60 54.84 76.12 57.36 76.12 60.46
  Z
  M 73.09 60.36
  C 73.09 59.06 72.03 58.00 70.73 58.00
  C 69.43 58.00 68.37 59.06 68.37 60.36
  C 68.37 61.66 69.43 62.72 70.73 62.72
  C 72.03 62.72 73.09 61.66 73.09 60.36
  Z"
/>
<ellipse fill="#0c0b0c" cx="0.00" cy="0.00" transform="translate(39.44,60.12) rotate(25.2)" rx="2.55" ry="2.31"/>
<circle fill="#0c0b0c" cx="70.73" cy="60.36" r="2.36"/>
<ellipse fill="#f6f6f6" cx="0.00" cy="0.00" transform="translate(60.51,71.44) rotate(86.3)" rx="4.80" ry="0.93"/>
<path fill="#f6f6f6" d="
  M 84.37 96.12
  C 84.75 96.19 85.04 96.51 85.07 96.89
  C 85.61 103.54 82.91 115.66 75.07 117.58
  C 62.13 120.75 49.54 120.54 37.29 116.97
  C 29.72 114.76 26.53 108.66 26.09 100.99
  C 25.02 81.96 37.97 69.34 56.82 70.06
  C 57.57 70.09 57.99 70.48 58.06 71.23
  L 58.47 75.28
  C 58.51 75.67 58.41 76.03 58.17 76.35
  C 57.12 77.72 56.97 79.23 57.72 80.88
  C 57.84 81.15 57.88 81.44 57.84 81.73
  L 57.74 82.48
  C 57.67 83.04 57.49 83.07 57.21 82.58
  C 56.55 81.39 55.52 81.17 54.13 81.90
  C 53.31 82.33 52.33 81.68 52.41 80.76
  L 52.89 75.28
  C 52.95 74.68 52.55 74.14 51.96 74.02
  C 48.83 73.38 48.01 77.87 48.09 80.21
  C 48.17 82.30 49.71 84.25 48.22 86.79
  C 48.06 87.07 47.99 87.37 48.02 87.70
  C 48.20 89.78 50.67 88.91 51.82 88.17
  C 52.10 88.00 52.39 87.97 52.70 88.08
  C 54.16 88.63 55.64 88.68 57.14 88.21
  C 57.51 88.09 57.86 88.13 58.20 88.32
  L 60.49 89.64
  C 60.82 89.83 61.17 89.85 61.52 89.69
  C 62.28 89.34 62.60 88.67 62.49 87.68
  C 62.45 87.35 62.33 87.04 62.13 86.77
  C 61.68 86.19 61.27 85.58 60.90 84.94
  C 60.12 83.61 60.29 83.48 61.40 84.55
  C 62.63 85.74 63.80 86.95 64.90 88.20
  C 68.88 92.70 78.62 95.04 84.37 96.12
  Z
  M 43.62 87.55
  C 41.72 79.73 31.98 81.74 31.67 89.20
  C 31.62 90.29 32.78 91.02 33.74 90.51
  L 37.18 88.70
  C 37.43 88.57 37.70 88.53 37.98 88.58
  L 41.89 89.35
  C 42.95 89.56 43.87 88.60 43.62 87.55
  Z
  M 54.17 101.72
  C 56.84 94.07 39.81 94.34 42.08 101.90
  C 42.21 102.33 42.48 102.46 42.90 102.31
  L 47.59 100.64
  C 47.94 100.51 48.30 100.50 48.65 100.60
  C 50.04 100.99 51.36 101.55 52.63 102.29
  C 53.21 102.63 53.95 102.35 54.17 101.72
  Z
  M 74.04 102.83
  C 77.35 101.48 70.70 91.90 65.97 98.08
  C 64.88 99.51 62.71 101.97 65.18 103.08
  C 65.55 103.25 65.90 103.23 66.25 103.02
  L 69.24 101.26
  C 69.53 101.09 69.83 101.08 70.14 101.24
  L 73.09 102.79
  C 73.40 102.95 73.72 102.96 74.04 102.83
  Z"
/>
<path fill="#f6f6f6" d="
  M 63.36 71.05
  L 66.52 71.70
  C 66.99 71.80 67.07 72.44 66.64 72.66
  L 63.76 74.09
  C 63.45 74.25 63.07 74.05 63.03 73.70
  L 62.76 71.61
  C 62.71 71.27 63.02 70.98 63.36 71.05
  Z"
/>
<path fill="#f6f6f6" d="
  M 53.81 84.81
  C 56.63 86.34 58.92 84.91 60.06 82.17
  C 60.46 81.20 60.72 81.24 60.84 82.28
  C 61.43 87.59 51.96 89.38 50.03 82.80
  C 49.76 81.88 49.11 74.79 51.33 75.26
  C 51.69 75.34 51.82 75.56 51.73 75.91
  C 50.93 78.90 50.77 83.16 53.81 84.81
  Z"
/>
<path fill="#0c0b0c" d="
  M 31.67 89.20
  C 31.98 81.74 41.72 79.73 43.62 87.55
  C 43.87 88.60 42.95 89.56 41.89 89.35
  L 37.98 88.58
  C 37.70 88.53 37.43 88.57 37.18 88.70
  L 33.74 90.51
  C 32.78 91.02 31.62 90.29 31.67 89.20
  Z
  M 42.13 87.25
  C 41.63 85.25 38.62 82.89 36.55 83.84
  C 34.82 84.65 33.70 86.15 33.19 88.36
  C 33.10 88.75 33.25 88.88 33.62 88.73
  C 36.89 87.50 37.83 86.99 41.36 87.99
  C 41.81 88.12 42.24 87.71 42.13 87.25
  Z"
/>
<ellipse fill="#f6f6f6" cx="0.00" cy="0.00" transform="translate(55.51,83.49) rotate(17.0)" rx="1.39" ry="0.69"/>
<path fill="#f6f6f6" d="
  M 36.55 83.84
  C 38.62 82.89 41.63 85.25 42.13 87.25
  C 42.24 87.71 41.81 88.12 41.36 87.99
  C 37.83 86.99 36.89 87.50 33.62 88.73
  C 33.25 88.88 33.10 88.75 33.19 88.36
  C 33.70 86.15 34.82 84.65 36.55 83.84
  Z"
/>
<ellipse fill="#f6f6f6" cx="0.00" cy="0.00" transform="translate(50.12,86.87) rotate(45.0)" rx="0.74" ry="0.61"/>
<path fill="#f6f6f6" d="
  M 59.74 87.27
  C 59.77 87.18 59.80 87.09 59.82 86.99
  C 59.84 86.92 59.90 86.87 59.98 86.88
  C 60.81 86.96 61.14 87.33 60.99 88.00
  C 60.91 88.37 60.72 88.44 60.41 88.22
  L 59.91 87.85
  C 59.70 87.70 59.65 87.50 59.74 87.27
  Z"
/>
<path fill="#0c0b0c" d="
  M 42.08 101.90
  C 39.81 94.34 56.84 94.07 54.17 101.72
  C 53.95 102.35 53.21 102.63 52.63 102.29
  C 51.36 101.55 50.04 100.99 48.65 100.60
  C 48.30 100.50 47.94 100.51 47.59 100.64
  L 42.90 102.31
  C 42.48 102.46 42.21 102.33 42.08 101.90
  Z
  M 52.87 99.35
  C 50.54 96.10 47.48 96.12 43.67 99.42
  C 43.44 99.62 43.39 99.96 43.56 100.22
  C 43.74 100.47 44.07 100.55 44.34 100.41
  C 46.95 99.03 49.50 99.10 51.99 100.63
  C 52.30 100.82 52.62 100.82 52.95 100.65
  C 53.26 100.49 53.46 99.72 53.05 99.51
  C 52.98 99.48 52.92 99.42 52.87 99.35
  Z"
/>
<path fill="#0c0b0c" d="
  M 65.97 98.08
  C 70.70 91.90 77.35 101.48 74.04 102.83
  C 73.72 102.96 73.40 102.95 73.09 102.79
  L 70.14 101.24
  C 69.83 101.08 69.53 101.09 69.24 101.26
  L 66.25 103.02
  C 65.90 103.23 65.55 103.25 65.18 103.08
  C 62.71 101.97 64.88 99.51 65.97 98.08
  Z
  M 73.97 101.00
  C 71.83 95.82 67.27 96.49 65.45 101.45
  C 65.32 101.80 65.75 102.08 66.01 101.82
  C 68.34 99.53 70.76 99.43 73.29 101.50
  C 73.64 101.79 74.14 101.42 73.97 101.00
  Z"
/>
<path fill="#f6f6f6" d="
  M 53.05 99.51
  C 53.46 99.72 53.26 100.49 52.95 100.65
  C 52.62 100.82 52.30 100.82 51.99 100.63
  C 49.50 99.10 46.95 99.03 44.34 100.41
  C 44.07 100.55 43.74 100.47 43.56 100.22
  C 43.39 99.96 43.44 99.62 43.67 99.42
  C 47.48 96.12 50.54 96.10 52.87 99.35
  C 52.92 99.42 52.98 99.48 53.05 99.51
  Z"
/>
<path fill="#f6f6f6" d="
  M 65.45 101.45
  C 67.27 96.49 71.83 95.82 73.97 101.00
  C 74.14 101.42 73.64 101.79 73.29 101.50
  C 70.76 99.43 68.34 99.53 66.01 101.82
  C 65.75 102.08 65.32 101.80 65.45 101.45
  Z"
/>
</svg>
